<svg width="180" height="180" viewBox="0 0 180 180" fill="none" xmlns="http://www.w3.org/2000/svg">
<path d="M152.617 122.606L131.117 110.154L131.074 96.2134L152.574 108.676L152.617 122.606Z" fill="#4525A4"/>
<path d="M140.939 99.8821L119.439 87.4195L147.924 71.0225L169.424 83.4744L140.939 99.8821Z" fill="#FE98D5"/>
<path d="M140.971 111.601L140.939 99.8825L119.439 87.4199L119.471 99.1382C119.471 100.18 119.77 100.871 120.377 101.222L141.877 113.685C141.269 113.334 140.971 112.632 140.971 111.601Z" fill="#4525A4"/>
<path d="M131.116 110.154C129.389 111.983 127.608 113.653 125.795 115.205C123.982 116.758 121.945 118.172 119.705 119.459C118.81 119.98 117.924 120.437 117.071 120.852C117.349 123.34 117.839 125.531 118.543 127.391C119.716 130.496 121.38 132.729 123.523 134.101C125.667 135.473 128.237 135.973 131.234 135.622C134.231 135.26 137.537 134.037 141.173 131.943C143.413 130.656 145.439 129.231 147.263 127.689C149.076 126.137 150.846 124.446 152.574 122.617L131.116 110.165V110.154Z" fill="#4525A4"/>
<path d="M108.252 152.104C105.138 150.105 102.674 147.159 100.872 143.257C98.7815 138.727 97.7364 133.102 97.7364 126.381C97.7364 119.661 98.7282 112.674 100.712 105.805C102.695 98.9358 105.532 92.3536 109.222 86.0691C112.912 79.7847 117.37 73.9894 122.606 68.6619C127.842 63.3451 133.687 58.8152 140.139 55.1041C143.477 53.1794 146.612 51.6907 149.555 50.6273C152.488 49.5639 155.197 48.8728 157.682 48.5325C160.156 48.2028 162.427 48.1922 164.486 48.5325C166.544 48.8621 168.378 49.447 169.989 50.2764L148.404 37.8032C146.793 36.9737 144.948 36.3889 142.901 36.0592C140.842 35.7296 138.582 35.7296 136.097 36.0592C133.623 36.3889 130.914 37.0907 127.97 38.1541C125.038 39.2174 121.892 40.7061 118.554 42.6308C112.091 46.3526 106.247 50.8719 101.021 56.1887C95.7954 61.5055 91.327 67.3114 87.6371 73.5959C83.9471 79.8804 81.1104 86.452 79.1268 93.3319C77.1432 100.201 76.1514 107.071 76.1514 113.908C76.1514 120.745 77.1965 126.254 79.2867 130.784C81.377 135.313 84.3524 138.557 88.2023 140.513L108.252 152.093V152.104Z" fill="#FE98D5"/>
<path d="M140.907 99.8925L169.435 83.4742V122.223C165.318 128.04 160.946 133.059 156.306 137.28C151.667 141.512 146.804 145.075 141.739 147.999C135.127 151.806 129.123 154.081 123.705 154.826C118.287 155.57 113.659 154.964 109.798 152.997C105.949 151.04 102.973 147.797 100.883 143.267C98.7927 138.737 97.7476 133.112 97.7476 126.391C97.7476 119.671 98.7394 112.685 100.723 105.815C102.707 98.9461 105.543 92.3639 109.233 86.0794C112.923 79.7949 117.381 73.9996 122.617 68.6722C127.854 63.3554 133.698 58.8254 140.15 55.1143C143.488 53.1896 146.634 51.7009 149.567 50.6376C152.499 49.5742 155.208 48.883 157.693 48.5427C160.167 48.2131 162.439 48.2025 164.497 48.5427C166.555 48.8724 168.389 49.4572 170 50.2867L164.604 62.7812C163.761 64.7377 162.663 66.269 161.33 67.3749C159.986 68.4808 158.546 68.938 157.01 68.7253C155.539 68.5658 154.152 68.4914 152.851 68.502C151.55 68.5233 150.217 68.6828 148.863 69.0018C147.508 69.3208 146.069 69.81 144.565 70.4693C143.061 71.1285 141.376 71.9899 139.499 73.0745C136.012 75.0842 132.877 77.5938 130.082 80.6031C127.288 83.6124 124.91 86.9726 122.948 90.6625C120.986 94.3524 119.471 98.3081 118.405 102.508C117.338 106.709 116.805 111.015 116.805 115.428C116.805 120.298 117.392 124.286 118.565 127.391C119.738 130.496 121.401 132.729 123.545 134.101C125.689 135.473 128.259 135.972 131.256 135.621C134.252 135.26 137.558 134.037 141.195 131.953C143.434 130.666 145.461 129.241 147.284 127.699C149.097 126.147 150.868 124.456 152.595 122.627V108.708L144.672 113.27C143.498 113.95 142.581 114.12 141.92 113.78C141.259 113.45 140.928 112.738 140.928 111.643V99.9244L140.907 99.8925Z" fill="#7445FC"/>
<path d="M91.6052 105.954C90.3575 101.413 88.5018 97.032 86.049 92.8105C83.5961 88.589 80.5567 84.6439 76.9628 80.9753C73.3582 77.3173 69.199 74.1698 64.496 71.5326C63.0243 70.7138 61.5099 69.9376 59.9529 69.2039C58.3958 68.4808 56.7748 67.8321 55.1005 67.2686L33.4302 79.7418C35.1045 80.3054 36.7255 80.9434 38.2825 81.6771C39.8396 82.4002 41.3539 83.1764 42.8256 84.0059C47.5394 86.6324 51.6879 89.7799 55.2925 93.4485C58.8971 97.1065 61.9258 101.052 64.3786 105.284C66.8315 109.505 68.6871 113.886 69.9349 118.427C71.1826 122.967 71.8118 127.434 71.8118 131.815C71.8118 137.333 70.9587 141.895 69.263 145.489C67.674 148.86 65.4984 151.338 62.747 152.965L84.4173 140.502C87.1688 138.865 89.3443 136.376 90.9333 133.016C92.629 129.411 93.4822 124.86 93.4822 119.341C93.4822 114.96 92.853 110.494 91.6052 105.954Z" fill="#DD6904"/>
<path d="M33.4082 79.7526L55.0039 67.2794L57.5207 51.6479L35.9357 64.1212L33.4082 79.7526Z" fill="#AA5103"/>
<path d="M33.4086 79.7523C35.083 80.3159 36.704 80.9539 38.261 81.6876C39.818 82.4107 41.3324 83.187 42.8041 84.0164C47.5178 86.6429 51.6663 89.7904 55.2709 93.459C58.8755 97.117 61.9043 101.062 64.3571 105.294C66.81 109.516 68.6656 113.897 69.9133 118.437C71.1611 122.978 71.7903 127.444 71.7903 131.825C71.7903 137.344 70.9371 141.906 69.2415 145.5C67.5458 149.105 65.1783 151.71 62.1496 153.316C59.1208 154.921 55.5056 155.464 51.3037 154.932C47.1019 154.4 42.5055 152.741 37.5145 149.955C34.6031 148.328 31.8303 146.425 29.1962 144.245C26.5514 142.065 24.0772 139.726 21.763 137.227C19.4488 134.728 17.3052 132.144 15.3429 129.464C13.3807 126.785 11.5997 124.105 10 121.425C12.3569 119.118 13.5406 117.97 15.8975 115.662C16.516 115.067 17.2306 114.748 18.0517 114.705C18.8729 114.662 19.7474 114.907 20.6965 115.439C21.9229 116.13 23.0854 117.161 24.1625 118.544C25.2503 119.926 26.434 121.436 27.7245 123.074C29.0149 124.711 30.5186 126.391 32.2355 128.103C33.9525 129.815 36.0854 131.389 38.6236 132.803C41.1618 134.218 43.3373 134.951 45.1396 134.994C46.9419 135.036 48.403 134.537 49.5334 133.484C50.6639 132.442 51.4744 130.943 51.9863 128.986C52.4982 127.029 52.7541 124.786 52.7541 122.234C52.7541 117.236 51.5277 112.738 49.0642 108.75C46.6113 104.763 43.124 101.509 38.6236 98.9885C34.6137 96.7448 30.6785 95.4263 26.8286 95.0222C22.1149 90.9176 19.7474 88.8653 15.0337 84.7607C17.5718 68.9911 20.11 53.2214 22.6481 37.4624C37.9197 45.9906 53.1914 54.5187 68.4736 63.0575V72.1067C68.4736 73.6167 68.271 74.8715 67.8551 75.8604C67.4498 76.86 66.7993 77.5724 65.9248 77.9978C65.0396 78.4231 63.8879 78.4869 62.4588 78.1785C61.0298 77.8701 59.3021 77.1577 57.2972 76.0412C50.1733 72.0642 43.0494 68.0872 35.9255 64.0996C34.923 70.3522 34.4111 73.4785 33.4086 79.7417V79.7523Z" fill="#FCC400"/>
<path d="M68.4847 63.0683L90.0804 50.5951L44.2549 25L22.6699 37.4732L68.4847 63.0683Z" fill="#DD6904"/>
<path d="M68.4844 63.0683V72.1175C68.4844 73.6275 68.2817 74.8823 67.8658 75.8712C67.4606 76.8708 66.81 77.5832 65.9355 78.0086L87.5206 65.5353C88.4057 65.11 89.0456 64.3975 89.4508 63.398C89.8561 62.3984 90.0694 61.1543 90.0694 59.6337V50.5845L68.4844 63.0577V63.0683Z" fill="#AA5103"/>
<path d="M52.7647 122.245C52.7647 118.789 52.1568 115.567 50.9837 112.589C50.3972 111.919 49.8426 111.26 49.32 110.601C48.0296 108.963 46.8459 107.453 45.7581 106.071C44.6703 104.688 43.5185 103.657 42.2921 102.966C41.3536 102.445 40.4685 102.19 39.6473 102.232C39.1781 102.253 38.7515 102.37 38.3569 102.572C38.3569 102.572 16.7719 115.056 16.7612 115.056C16.9532 114.961 17.1558 114.875 17.3691 114.822C17.3691 114.822 17.3904 114.822 17.4011 114.822C17.6144 114.769 17.8383 114.727 18.073 114.716C18.8941 114.673 19.7686 114.918 20.7178 115.45C21.9442 116.141 23.1066 117.172 24.1837 118.555C25.2715 119.937 26.4553 121.447 27.7457 123.085C29.0361 124.722 30.5398 126.402 32.2568 128.114C33.9738 129.826 36.1067 131.4 38.6448 132.814C41.183 134.229 43.3586 134.962 45.1609 135.005C46.9632 135.047 48.4242 134.548 49.5547 133.495C49.8106 133.261 50.0346 132.995 50.2585 132.719C50.4718 132.442 50.6744 132.134 50.8664 131.815C51.3356 131.007 51.7302 130.082 52.0075 128.997C52.5194 127.04 52.7753 124.797 52.7753 122.245H52.7647Z" fill="#DD6904"/>
</svg>
