<svg width="40" height="40" viewBox="0 0 40 40" fill="none" xmlns="http://www.w3.org/2000/svg">
<g clip-path="url(#clip0_398_10655)">
<g clip-path="url(#clip1_398_10655)">
<path d="M20 2H44V38H20V2Z" fill="#F2F2F2"/>
<path d="M-4 2H20V38H-4V2Z" fill="#006233"/>
<path d="M27.8001 15.5C26.8095 13.7842 25.2804 12.4433 23.45 11.6851C21.6196 10.9269 19.5902 10.7939 17.6765 11.3067C15.7628 11.8194 14.0718 12.9494 12.8657 14.5212C11.6596 16.0929 11.0059 18.0188 11.0059 20C11.0059 21.9812 11.6596 23.9071 12.8657 25.4789C14.0718 27.0507 15.7628 28.1806 17.6765 28.6933C19.5902 29.2061 21.6196 29.0731 23.45 28.3149C25.2804 27.5567 26.8095 26.2158 27.8001 24.5C26.8678 25.6645 25.5968 26.5106 24.1628 26.9215C22.7288 27.3324 21.2025 27.2877 19.795 26.7937C18.3875 26.2996 17.1682 25.3806 16.3055 24.1636C15.4429 22.9466 14.9796 21.4917 14.9796 20C14.9796 18.5083 15.4429 17.0534 16.3055 15.8364C17.1682 14.6194 18.3875 13.7004 19.795 13.2063C21.2025 12.7123 22.7288 12.6676 24.1628 13.0785C25.5968 13.4894 26.8678 14.3355 27.8001 15.5ZM28.1001 20L20.0001 17.36L25.0401 24.26V15.74L20.0001 22.64L28.1001 20Z" fill="#D21034"/>
</g>
</g>
<rect x="1.4" y="1.4" width="37.2" height="37.2" rx="18.6" stroke="#006A4E" stroke-opacity="0.12" stroke-width="1.2"/>
<defs>
<clipPath id="clip0_398_10655">
<rect x="2" y="2" width="36" height="36" rx="18" fill="white"/>
</clipPath>
<clipPath id="clip1_398_10655">
<rect width="48" height="36" fill="white" transform="translate(-4 2)"/>
</clipPath>
</defs>
</svg>
