<svg width="40" height="40" viewBox="0 0 40 40" fill="none" xmlns="http://www.w3.org/2000/svg">
<g clip-path="url(#clip0_398_9807)">
<g clip-path="url(#clip1_398_9807)">
<path d="M-4 2H44V38H-4V2Z" fill="#000066"/>
<path d="M-4.04492 20L43.9551 2V38L-4.04492 20Z" fill="#BD1021"/>
<path d="M0.477539 20.0002L43.9775 3.92773V36.0727" fill="#F2F2F2"/>
<path d="M31.5491 22.2799C31.9316 22.3024 31.9241 22.6849 31.9241 22.6849L33.2741 22.7149C33.4466 22.2424 33.6341 22.2949 33.9641 22.5349C34.165 22.6715 34.3848 22.7776 34.6166 22.8499C34.7441 22.1749 35.7041 22.3099 35.7041 22.3099C36.1241 21.3349 36.1541 21.3424 35.9066 21.2224C35.7597 21.148 35.6393 21.0302 35.5616 20.8849C35.3366 20.6074 35.2166 20.2024 35.1866 19.9549C35.1566 19.7074 34.8716 20.0749 34.8116 19.9999C34.7666 19.9249 34.3391 19.9699 34.3391 19.9699C34.4441 20.0824 34.0841 20.0149 34.0841 20.0149C34.1216 20.0449 34.0841 20.1424 34.0841 20.1424C34.0541 20.0974 33.7766 20.0524 33.7766 20.0524C33.7557 20.0966 33.7279 20.1371 33.6941 20.1724C33.5441 20.1124 33.2441 20.1199 33.2441 20.1199C32.9572 20.1102 32.6734 20.1831 32.4266 20.3299C32.3066 20.3974 31.8716 20.6149 31.5041 20.9674C31.1516 21.3124 30.9491 21.2674 30.9491 21.2674C30.8441 21.6574 29.9891 22.1299 29.9891 22.1299C29.8541 22.2499 29.4191 22.3099 29.2016 22.1299C28.9841 21.9499 29.2016 21.6124 29.2016 21.6124C29.2916 21.4624 29.3666 21.4699 29.3741 20.9374C29.3816 20.5849 29.7491 20.2999 30.1241 19.8874C30.5966 19.3774 31.2491 18.5374 31.2491 18.5374C31.2491 18.7924 31.3841 18.8374 31.3841 18.8374C31.5116 18.5749 31.6991 18.3649 31.6991 18.3649C31.7066 18.3874 31.7366 18.3949 31.7366 18.3949C31.8866 18.1999 31.9616 18.1249 31.9616 18.1249C31.9241 18.1024 31.5116 18.1249 31.1366 18.4549C30.7616 18.7849 30.5066 18.6799 30.5066 18.6799C30.2441 18.5899 30.2216 18.3799 30.2216 18.3799C30.0341 17.5624 30.7766 16.9774 30.7766 16.9774C29.7716 16.7374 30.4991 15.4549 31.7516 14.9149C32.9966 14.3749 32.9816 14.1274 32.9816 14.1274C33.0366 14.196 33.082 14.2717 33.1166 14.3524C33.1241 14.3524 33.2216 14.2099 33.9416 13.8949C34.6616 13.5724 35.0066 13.2949 35.0066 13.2949C35.0966 13.4749 35.0816 13.5949 35.0816 13.5949C37.0541 12.9124 38.9816 11.3299 38.9816 11.3299C39.0416 11.4574 39.0191 11.6599 39.0191 11.6599C39.3341 11.3599 40.4966 10.6699 40.4966 10.6699C40.505 10.7949 40.4769 10.9195 40.4156 11.0287C40.3544 11.1379 40.2626 11.227 40.1516 11.2849C40.1807 11.3389 40.2009 11.3971 40.2116 11.4574C40.5773 11.2286 40.9374 10.991 41.2916 10.7449C41.6141 11.0224 41.3216 11.4799 41.3216 11.4799C41.4416 11.4574 41.5166 11.3599 41.5166 11.3599C41.6066 11.8399 41.0741 12.2599 41.0741 12.2599C41.1716 12.2599 41.3216 12.1624 41.3216 12.1624C41.2241 12.6874 40.2416 13.2574 40.2416 13.2574C40.3841 13.3924 40.2416 13.5574 40.1216 13.6324C40.0091 13.7074 39.7991 13.8799 39.8666 13.9474C39.9266 14.0224 40.3691 13.7074 40.3691 13.7074C40.4441 13.9249 39.8816 14.3524 39.8816 14.3524C40.2716 14.4049 41.3516 13.9099 41.3516 13.9099C41.2691 14.3299 40.8566 14.6599 40.3541 14.8474C39.8516 15.0349 39.8741 15.0724 39.8741 15.0724C39.9641 15.1324 40.6616 14.9374 40.6616 14.9374C40.4516 15.4024 39.7241 15.7249 39.7241 15.7249C39.9266 15.8974 40.1966 15.6949 40.4741 15.5074C40.8013 15.3016 41.1544 15.1402 41.5241 15.0274C41.9216 14.8849 42.2141 14.9899 42.2141 14.9899C42.4227 14.9283 42.6465 14.9443 42.8441 15.0349C43.4966 15.0874 43.5641 15.3274 43.5641 15.3274C43.6391 15.3424 43.6916 15.3724 43.8641 15.4999C44.0216 15.6199 44.0141 15.9949 44.0141 16.1899C43.9991 16.3699 43.9466 16.3699 43.9166 16.4149C43.8866 16.4749 43.8791 16.5349 43.8791 16.6024C43.8791 16.6774 43.7141 17.1199 42.7016 17.1199H41.1791C41.0891 17.1199 40.9916 17.1724 40.9916 17.1724C40.5641 17.3824 40.7891 17.0224 40.2866 17.4424C39.7766 17.8549 39.5216 17.7874 39.5216 17.7874C39.2384 18.077 38.9296 18.3406 38.5991 18.5749C38.2991 18.7699 38.3516 18.7474 38.6216 18.8599C38.8916 18.9724 39.2816 18.8599 39.2816 18.8599C39.0266 19.0324 39.2066 19.1149 39.2066 19.1149C39.5366 18.9124 39.7466 18.9874 39.7466 18.9874C39.8516 19.2799 39.4616 19.7374 39.4616 19.7374C39.6116 19.7599 39.8966 19.7374 39.8966 19.7374C39.8216 19.9399 39.5516 20.1574 39.3416 20.2174C39.1391 20.2924 39.1691 20.3149 39.2366 20.4424C39.2891 20.5624 39.2441 20.6899 39.2441 20.6899C38.8841 20.4424 38.8691 20.6599 38.8691 20.6599C38.8316 20.9599 38.8391 21.3799 38.8391 21.3799C38.5841 21.2524 38.5766 21.4174 38.5766 21.4174C38.5016 21.6874 38.1941 21.9949 38.1941 21.9949C38.1791 21.8299 38.0291 21.7849 38.0291 21.7849C37.8641 22.0999 37.5716 22.2874 37.5716 22.2874C37.5341 22.5499 37.6091 22.9324 37.6091 22.9324C37.4141 22.8874 37.3466 22.8874 37.3091 22.9324C37.2866 22.9849 37.3541 23.0074 37.3541 23.0074L39.8591 23.0674C39.8966 23.0674 40.0466 23.0899 40.0466 23.3524C40.0466 23.6299 39.8216 23.6449 39.8216 23.6449L37.0916 23.5774C37.0916 23.5774 37.0991 23.6524 36.9566 23.7274C36.8141 23.8024 36.8666 23.6449 36.8291 23.9824C36.7841 24.3124 36.2441 23.9524 36.2441 23.9524C36.1541 24.0874 35.9441 24.2524 35.9441 24.2524C35.8166 23.8774 35.6891 23.7724 35.4941 24.0874C35.2991 24.4099 35.8541 24.3574 35.8541 24.3574C35.8541 24.3574 39.0641 23.8849 39.2366 23.8699C39.4091 23.8474 39.6041 23.8624 39.6866 24.1024C39.7616 24.3499 39.2891 24.3874 39.2891 24.3874L35.9891 24.7474C35.9216 24.9424 35.6516 24.9274 35.6516 24.9274C35.6741 25.1149 35.4791 25.2274 35.3816 25.3024C35.2766 25.3624 34.9616 25.3399 34.9616 25.3399C34.5866 25.5949 34.3916 25.3924 34.3916 25.3924C34.1441 25.4974 33.9866 25.4524 33.7841 25.3624C33.5741 25.2724 33.5966 25.0249 33.5966 25.0249L31.5116 25.2499C31.4515 25.2693 31.3955 25.2998 31.3466 25.3399C31.4216 25.4374 31.1966 25.6624 31.1966 25.6624C31.2641 25.6999 31.3841 25.8199 31.3991 26.0749C31.4141 26.3524 31.0616 26.3974 31.2341 26.5999C31.4066 26.7874 31.7366 26.6224 32.0966 26.4499C32.4566 26.2774 32.8091 26.2999 32.9591 26.2999C33.1091 26.2999 33.5441 26.4199 33.8141 26.5099C34.0841 26.5999 34.1741 26.5399 34.1891 26.4049C34.2041 26.2774 34.3316 26.2324 34.3316 26.2324C34.2941 26.3674 34.3691 26.4274 34.3691 26.4274C34.4667 26.4118 34.5607 26.3788 34.6466 26.3299C34.6316 26.4349 34.4966 26.4949 34.4966 26.4949C34.2416 26.6674 34.6016 26.6074 34.6016 26.6074C34.977 26.502 35.368 26.4639 35.7566 26.4949C36.1219 26.6026 36.4801 26.7328 36.8291 26.8849C36.8591 26.7949 36.8366 26.5849 36.8366 26.5849C37.0616 26.6449 37.1516 26.7724 37.1516 26.7724C37.2416 26.6824 37.1816 26.5174 37.1816 26.5174C37.9091 26.9299 37.0316 27.1174 36.7991 27.1924C36.5741 27.2674 36.5741 27.3649 36.5741 27.3649C36.7298 27.3138 36.8909 27.2811 37.0541 27.2674C37.2191 27.2524 37.1591 27.2674 37.5416 27.1924C37.9316 27.1174 38.1266 27.2824 38.1266 27.2824C37.8041 27.2974 37.7141 27.3949 37.7141 27.3949C37.9091 27.5224 37.7141 27.6499 37.7141 27.6499C37.4291 27.2749 37.1741 27.6574 37.1741 27.6574C37.3398 27.6574 37.5036 27.6932 37.6541 27.7624L38.0591 27.9649C38.3291 28.0849 38.2766 28.0099 38.4791 28.0849C38.6891 28.1599 38.6066 28.3624 38.6066 28.3624C38.5443 28.2564 38.4457 28.1765 38.3291 28.1374C38.3141 28.3624 38.0966 28.3999 38.0966 28.3999C38.3666 28.0999 37.7891 27.9649 37.5116 27.9724C37.2416 27.9724 37.0391 28.1524 37.0391 28.1524C37.5866 28.6699 37.9616 28.4974 37.9616 28.4974C37.8941 28.6849 37.4441 28.6099 37.4441 28.6099C37.6541 28.7749 37.6316 28.8799 37.6316 28.8799C37.5191 28.7749 37.3316 28.8274 36.9416 28.5799C36.5516 28.3174 36.1991 28.4074 36.1991 28.4074C36.5891 28.8049 36.0641 29.0524 36.0641 29.0524C35.8691 29.1724 36.1391 29.3149 36.1391 29.3149C35.8991 29.3599 35.8691 29.1199 35.8691 29.1199C35.7416 29.0899 35.5541 29.2399 35.5541 29.2399C35.5691 28.9999 35.8991 29.1199 35.8991 28.8649C35.9141 28.6024 35.5991 28.3999 34.6766 28.5274C33.7466 28.6549 33.4766 28.3624 33.4766 28.3624C33.4016 28.3624 33.3866 28.4374 33.3866 28.4374C33.5366 28.5874 33.6041 28.6474 33.5816 28.7524C33.5516 28.8499 33.6266 28.8874 33.6266 28.8874C33.4541 28.8724 33.4466 28.6774 33.4466 28.6774C33.4466 28.7599 33.4091 28.7674 33.3491 28.8499C33.2891 28.9324 33.3491 29.0524 33.3491 29.0524C33.2741 28.9924 33.1466 28.9174 33.2741 28.7299C33.3641 28.5949 33.0716 28.4149 33.0716 28.4149C32.9591 28.3024 32.6516 28.4149 32.6516 28.4149C32.4753 28.4526 32.2925 28.447 32.1188 28.3987C31.9451 28.3503 31.7857 28.2607 31.6541 28.1374C31.5791 28.1374 31.4366 28.0924 31.4366 28.0924C30.7691 28.3924 30.1841 27.7474 30.1841 27.7474C29.6816 27.8449 29.4491 27.5974 29.2991 27.3574C29.2127 27.1938 29.076 27.0624 28.9091 26.9824C28.7141 26.8624 28.5191 26.5174 28.7141 26.3299C28.8641 26.1724 28.8266 26.1349 28.8266 26.1349C28.5641 25.6924 29.2841 25.5574 29.2991 25.4449C29.3216 25.2949 29.4716 25.1974 29.6366 25.1899C29.8016 25.1749 29.8016 25.1899 29.9141 25.0849C30.0116 24.9724 30.2141 25.1074 30.2141 25.1074C30.2666 25.0774 30.6266 24.7999 30.9416 24.9424C31.2641 25.0849 31.5341 24.9874 31.5341 24.9874C31.7591 24.9349 33.6341 24.6874 33.6341 24.6874C33.7466 24.4999 33.8366 24.2824 34.3541 24.1624C34.8716 24.0424 35.2541 23.7124 35.2541 23.7124C35.1641 23.6224 35.0141 23.6224 34.9391 23.6149C34.8566 23.6149 34.6991 23.4649 34.6991 23.4649C34.6016 23.5099 34.5491 23.4874 33.8741 23.8999C33.2666 24.2749 33.2516 23.5399 33.2516 23.5399H31.9241C31.9016 23.8174 31.6991 23.9299 31.6991 23.9299L31.2116 23.9524C30.9416 23.8174 30.9416 23.3374 30.9416 23.3374C29.4866 23.3599 28.6841 23.8774 28.6841 23.8774C27.0341 23.0374 25.7441 22.8424 25.7441 22.8424C26.8006 22.7659 27.8359 22.5071 28.8041 22.0774C29.4525 22.4698 30.1855 22.7013 30.9416 22.7524C30.9791 22.3474 31.2491 22.2499 31.2491 22.2499L31.5491 22.2799Z" fill="black"/>
<path d="M29.1735 25.5949C28.761 25.8349 28.836 25.9699 28.8735 26.0449C28.911 26.1199 28.911 26.1949 28.7985 26.3149C28.686 26.4274 28.6935 26.4649 28.6935 26.4649C28.716 26.8699 28.9935 26.9599 29.121 27.0649C29.226 27.1399 29.391 27.4024 29.391 27.4024C29.6085 27.7099 29.8335 27.7174 29.9985 27.7174C30.171 27.7174 30.1485 27.6949 30.0735 27.6199L29.8185 27.4174C29.9855 27.4883 30.1362 27.593 30.261 27.7249C30.681 28.1899 31.071 28.1299 31.2435 28.1149C31.416 28.0924 31.3935 27.9874 31.3935 27.9874C31.3351 27.9693 31.2745 27.9592 31.2135 27.9574C30.576 27.8974 30.3885 27.4774 30.3885 27.4774C30.7123 27.7621 31.1273 27.9217 31.5585 27.9274C31.7385 27.9199 31.731 27.9724 31.686 27.9874L31.506 27.9724C31.4235 27.9724 31.4235 27.9949 31.4385 28.0324C31.461 28.0624 31.5435 28.0624 31.641 28.0624C31.746 28.0624 31.6635 28.0699 31.926 28.2724C32.196 28.4824 32.8485 28.3099 32.8485 28.3099C32.421 28.2124 32.3685 28.0099 32.3685 28.0099C31.791 28.0849 31.5585 27.7399 31.5585 27.7399C31.4277 27.6383 31.287 27.5504 31.1385 27.4774C31.0475 27.4373 30.9667 27.3775 30.9018 27.3023C30.8369 27.227 30.7897 27.1382 30.7635 27.0424C30.861 27.1774 31.041 27.3274 31.266 27.3874C31.491 27.4474 31.551 27.4774 31.551 27.4774C31.4933 27.4904 31.433 27.4851 31.3785 27.4624C31.1535 27.3874 31.281 27.4849 31.281 27.4849C31.536 27.6874 31.6035 27.6724 31.6035 27.6724C32.2485 27.7399 31.926 27.4774 31.926 27.4774C32.391 27.5899 32.466 27.4174 32.466 27.4174C32.5635 27.6199 32.916 27.5449 32.916 27.5449C32.451 27.7699 32.8035 27.7024 32.8035 27.7024C33.276 27.6199 33.3735 27.7399 33.3735 27.7399C33.4935 27.8524 33.6285 27.8449 33.6285 27.8449C33.6285 27.8449 33.7185 27.8449 33.891 27.8749C34.071 27.9124 34.356 28.0624 34.611 28.0399C34.8735 28.0024 34.911 28.0849 34.911 28.0849C34.866 28.0624 34.746 28.0474 34.551 28.1374C34.3485 28.2349 33.996 28.2574 33.486 28.1374C32.976 28.0174 32.931 28.0399 32.931 28.0399C33.0448 28.1112 33.1339 28.216 33.186 28.3399C33.2085 28.4299 33.2985 28.4299 33.2985 28.4299C33.336 28.3174 33.486 28.2724 33.486 28.2724C33.6032 28.3555 33.7289 28.4259 33.861 28.4824C33.891 28.4299 33.861 28.3849 33.861 28.3849C34.056 28.5724 34.281 28.5124 34.281 28.5124C34.341 28.4749 34.326 28.3624 34.326 28.3624C34.401 28.3624 34.416 28.4074 34.476 28.4524C34.5285 28.4824 34.701 28.4599 34.701 28.4599C34.641 28.4299 34.5885 28.3324 34.5885 28.3324C34.851 28.1599 35.4135 28.2349 35.4135 28.2349C35.811 28.3099 35.766 28.5724 35.766 28.5724C35.8367 28.6142 35.9 28.6674 35.9535 28.7299C35.991 28.6399 35.9535 28.5424 35.9535 28.5424C36.1485 28.6324 36.1785 28.8424 36.1785 28.8424C36.4035 28.6024 35.976 28.3324 35.976 28.3324C36.1785 28.3024 36.4035 28.3174 36.5385 28.3324C36.7213 28.3641 36.8923 28.4444 37.0335 28.5649C37.191 28.6924 37.476 28.7524 37.476 28.7524C37.4685 28.6999 37.311 28.6024 37.2735 28.5874C37.2435 28.5724 37.2285 28.5199 37.2285 28.5199C37.371 28.5499 37.461 28.5349 37.461 28.5349C36.981 28.2349 36.8535 28.0924 36.8535 28.0924C37.0335 28.1149 37.1385 28.0024 37.1385 28.0024C36.756 28.0024 36.7335 27.9124 36.7335 27.9124C36.786 27.9199 36.966 27.9649 37.1985 27.9199C37.431 27.8749 37.7385 27.9199 37.7385 27.9199C37.5735 27.6499 36.936 27.6949 36.726 27.7099C36.516 27.7249 36.441 27.6949 36.441 27.6949C36.471 27.6799 36.5085 27.6499 36.666 27.6424C36.831 27.6424 36.9885 27.6574 37.176 27.5224C37.3485 27.4024 37.6035 27.4474 37.6035 27.4474C37.5435 27.3274 37.251 27.2824 37.0035 27.4474C36.741 27.6049 36.516 27.5599 36.516 27.5599C36.9135 27.4999 37.0335 27.3574 37.0335 27.3574C36.9135 27.3274 36.846 27.3649 36.5985 27.4174C36.3585 27.4624 36.2985 27.3799 36.2985 27.3799C36.561 27.2224 36.7485 27.1549 36.7485 27.1549C36.5235 27.1099 36.3135 27.0049 36.3135 27.0049C36.0735 27.2299 35.8935 27.3499 35.436 27.1249C34.986 26.8849 34.746 26.9149 34.746 26.9149C34.9172 26.8195 35.1114 26.7732 35.3073 26.7812C35.5031 26.7891 35.693 26.8509 35.856 26.9599C36.156 27.1324 36.231 26.9899 36.231 26.9899C36.141 26.9374 36.156 26.8774 36.156 26.8774C36.876 27.2449 37.191 27.0274 37.3485 26.9149C37.506 26.8024 37.2735 26.6599 37.2735 26.6599C37.2585 26.8849 36.9735 27.0049 36.7335 26.9224C36.5085 26.8474 36.2835 26.7424 35.9535 26.5999C35.6235 26.4649 35.2035 26.5399 34.821 26.6149C34.431 26.6974 34.3785 26.6599 34.341 26.6299C34.3035 26.5999 34.2885 26.5024 34.086 26.5849C33.891 26.6674 33.426 26.4499 33.141 26.3824C32.856 26.3074 32.3835 26.3449 31.9785 26.5699C31.5735 26.8024 31.3635 26.7424 31.2435 26.6899C31.1235 26.6299 31.041 26.4799 31.176 26.3449C31.311 26.2099 31.326 26.1724 31.311 25.9699C31.296 25.7749 31.101 25.6549 31.101 25.6549C31.281 25.4674 31.326 25.4299 31.266 25.3549C31.206 25.2649 31.296 25.2649 31.401 25.2199C31.506 25.1749 31.461 25.1674 31.4385 25.1074C31.4085 25.0474 31.3485 25.0624 31.3485 25.0624C31.116 25.0699 30.981 25.0024 30.981 25.0024C30.591 24.8224 30.2235 25.1749 30.2235 25.1749C29.9985 25.0024 29.946 25.1224 29.9085 25.1599C29.871 25.1974 29.7885 25.2349 29.6835 25.2349C29.5935 25.2499 29.451 25.2874 29.3985 25.3774C29.3985 25.3774 29.3535 25.4524 29.406 25.5274C29.406 25.5274 29.466 25.6174 29.361 25.7299C29.2485 25.8424 29.211 25.8649 29.2485 25.9774C29.2785 26.0749 29.271 26.1574 29.226 26.2249C29.226 26.2249 29.1735 26.1724 29.1885 26.0974C29.2035 26.0224 29.2035 25.9774 29.1885 25.9474C29.1885 25.9474 29.076 26.0524 29.0535 26.1274C29.0535 26.1274 29.0085 26.0074 29.1735 25.8499C29.3235 25.6999 29.3985 25.6099 29.3535 25.5499C29.3235 25.5049 29.2035 25.5799 29.181 25.5949H29.1735Z" fill="#FFC221"/>
<path d="M29.6298 27.3505C29.6298 27.3505 29.4273 27.2005 29.4498 26.983C29.4723 26.7805 29.4723 26.758 29.4498 26.7055C29.4498 26.7055 29.4123 26.728 29.4198 26.8105C29.4198 26.8855 29.4048 26.968 29.3973 26.983C29.3973 26.983 29.2998 26.8105 29.2473 26.773C29.2473 26.773 29.2923 26.593 29.2323 26.518C29.1798 26.4355 29.1198 26.428 29.0523 26.458C28.9623 26.488 28.8948 26.5705 29.2023 26.818C29.2023 26.818 29.3148 26.9155 29.3898 27.1105C29.4648 27.3055 29.5998 27.3355 29.6223 27.3505H29.6298ZM30.6048 26.7655C30.6048 26.7655 30.5973 26.653 30.7023 26.443C30.7394 26.3799 30.7607 26.3089 30.7647 26.2358C30.7686 26.1627 30.7549 26.0897 30.7248 26.023C30.7023 25.963 30.6798 25.9855 30.7923 25.8955C30.9198 25.783 30.7398 25.6405 30.9648 25.4455C30.9648 25.4455 31.0998 25.3255 31.1373 25.273C31.1373 25.273 30.9123 25.393 30.7473 25.4605C30.5973 25.5205 30.0273 25.8055 30.1473 25.993C30.2823 26.1805 30.2673 26.1955 30.2448 26.278C30.2448 26.278 29.8998 26.0905 30.0198 25.798C30.0198 25.798 30.0798 25.6855 30.2223 25.543C30.3573 25.423 30.2823 25.573 30.5448 25.4155C30.5448 25.4155 30.7473 25.2955 30.8673 25.123C30.8673 25.123 30.7173 25.213 30.6723 25.228C30.6723 25.228 30.3723 25.288 30.2373 25.4155C30.1173 25.543 29.8548 25.768 29.9373 26.0155C29.9373 26.0155 29.6373 25.9855 29.5623 25.663C29.5623 25.663 28.9923 26.368 30.1923 26.698C30.1923 26.698 30.4173 26.758 30.6123 26.773L30.6048 26.7655Z" fill="black"/>
<path d="M35.8695 24.4253C36.3195 24.3503 38.8995 23.9603 39.1395 23.9378C39.3945 23.9153 39.492 23.8778 39.582 24.0878C39.6795 24.3128 39.222 24.3203 39.222 24.3203L36.1395 24.6728C35.9895 24.6878 35.952 24.6278 35.952 24.6278L35.8395 24.4778C35.8395 24.4778 35.802 24.4328 35.8695 24.4178V24.4253Z" fill="#FFC221"/>
<path d="M29.547 25.8277C29.547 25.8277 29.217 26.5252 30.522 26.6977C30.522 26.6977 30.5295 26.6227 30.582 26.5102C30.642 26.3977 30.7545 26.1727 30.642 26.0302C30.537 25.8877 30.732 25.9627 30.7545 25.7752C30.792 25.5877 30.7395 25.6102 30.8295 25.4902C30.8295 25.4902 30.4245 25.6402 30.2595 25.8277C30.1095 26.0077 30.477 26.1427 30.2595 26.3452C30.2595 26.3452 30.072 26.2702 29.9595 26.0752C29.9595 26.0752 29.712 26.0752 29.547 25.8277Z" fill="#5A3719"/>
<path d="M30.8376 26.6895C30.8376 26.6895 31.1601 26.967 31.5426 26.9595C31.9251 26.937 32.0976 26.8395 32.1951 26.6895C32.1951 26.6895 32.2701 26.802 32.2701 26.8845C32.2701 26.8845 32.6001 26.607 33.1701 26.847C33.7401 27.087 33.5751 27.0195 33.7026 27.0345C33.7026 27.0345 33.4551 26.997 32.9001 27.252C32.3226 27.5145 30.8226 27.4245 30.8301 26.6895H30.8376Z" fill="black"/>
<path d="M30.2976 25.4452C30.2976 25.4452 30.4401 25.4677 30.5826 25.3027C30.5826 25.3027 30.3876 25.3402 30.2976 25.4527V25.4452ZM29.1951 26.7502C29.1951 26.7502 28.9251 26.5402 29.0976 26.4952C29.0976 26.4952 29.2251 26.4727 29.1951 26.7502Z" fill="#5A3719"/>
<path d="M35.0898 28.0848C35.0898 28.0848 35.2398 27.8223 35.6523 27.8223C36.0648 27.8223 36.1098 28.0173 36.6348 28.0473C36.6348 28.0473 36.0048 28.2273 35.5698 28.0698C35.3448 27.9873 35.1348 28.0548 35.0898 28.0848Z" fill="black"/>
<path d="M30.9727 26.8773C30.9727 26.8773 31.6027 27.2523 32.1502 26.8398C32.1502 26.8398 32.1952 26.8848 32.2402 26.9898C32.2402 26.9898 32.6602 26.5848 33.4027 27.0198C33.4027 27.0198 33.3127 27.0123 32.9602 27.1548C32.5027 27.3573 31.3552 27.4923 30.9727 26.8698V26.8773Z" fill="#5A3719"/>
<path d="M33.3721 27.252C33.3721 27.252 33.9721 27.327 34.4746 27.297C34.7821 27.282 35.1196 27.222 34.9546 27.327C34.7821 27.4245 34.8721 27.4395 35.5846 27.3795C36.2896 27.3045 35.5771 27.507 36.0646 27.5745C36.0646 27.5745 34.8721 28.1745 33.3721 27.252Z" fill="black"/>
<path d="M34.9404 26.8767C34.9404 26.8767 35.2854 26.7492 35.6154 26.8992C35.9379 27.0492 35.8854 27.0642 36.1029 27.0867C36.1029 27.0867 35.9529 27.3042 35.6004 27.1317C35.2404 26.9592 35.1504 26.9217 34.9404 26.8767ZM35.3304 27.9492C35.3304 27.9492 35.6754 27.7767 36.0504 27.9492C36.0954 27.9792 36.2004 28.0242 36.2979 28.0392C36.2979 28.0392 36.0129 28.1367 35.7129 28.0392C35.5854 28.0017 35.4879 27.9717 35.3304 27.9492ZM33.6279 27.3342C33.6279 27.3342 34.4004 27.4092 34.8129 27.3267C34.8129 27.3267 34.3329 27.5517 35.5404 27.4542C35.5404 27.4542 35.8029 27.4242 35.7654 27.4617C35.7429 27.4992 35.7204 27.5367 35.8554 27.5742C35.8554 27.5742 34.9554 27.9792 33.6279 27.3342Z" fill="#5A3719"/>
<path d="M29.8016 26.6911C29.8016 26.6911 29.8166 26.7436 29.9816 26.8186C30.111 26.8805 30.2165 26.9833 30.2816 27.1111C30.3077 27.1637 30.3446 27.2102 30.3898 27.2477C30.435 27.2851 30.4876 27.3127 30.5441 27.3286C30.5441 27.3286 29.9441 27.4561 29.6741 27.1336C29.6741 27.1336 29.4716 26.9086 29.7941 26.6836" fill="black"/>
<path d="M34.5271 28.0702C34.5271 28.0702 34.2946 28.0552 33.9646 27.9427C33.6421 27.8302 33.5596 27.9277 33.3721 27.7927C33.1921 27.6502 32.8246 27.7402 32.7571 27.7477C32.6821 27.7552 32.4871 27.7477 32.7346 27.5902C32.7346 27.5902 32.5396 27.5902 32.4646 27.4852C32.4646 27.4852 32.3746 27.5752 32.0446 27.5452C32.0446 27.5452 32.1946 27.7702 31.5946 27.7027C31.6953 27.8188 31.8283 27.9021 31.9766 27.9422C32.1249 27.9823 32.2817 27.9773 32.4271 27.9277C32.4271 27.9427 32.3896 28.1152 32.6521 28.1902C32.9371 28.2577 32.9896 28.3102 33.1321 28.3627C33.1321 28.3627 33.1546 28.2502 32.7871 27.9877C32.7871 27.9877 32.9821 27.9727 33.2671 28.0402C33.5521 28.1077 34.1821 28.2727 34.5271 28.0702ZM34.6771 28.3477C34.6771 28.3477 34.7371 28.4827 34.9171 28.4527C35.1723 28.3937 35.4394 28.4147 35.6821 28.5127C35.6821 28.5127 35.7346 28.2727 35.1571 28.2577C35.1571 28.2577 34.7971 28.2727 34.6771 28.3477ZM29.7871 26.7727C29.7871 26.7727 29.5621 26.9602 29.7646 27.1477C29.9446 27.3202 30.2296 27.3052 30.3646 27.2977C30.3646 27.2977 30.2896 27.2527 30.2146 27.1477C30.1396 27.0352 30.1396 26.9602 29.9896 26.8927C29.8321 26.8252 29.8171 26.8102 29.7871 26.7727ZM29.5621 25.8277C29.5621 25.8277 29.2171 26.5252 30.5371 26.6977C30.5371 26.6977 30.5371 26.6227 30.5896 26.5102C30.6346 26.3977 30.7471 26.1727 30.6496 26.0302C30.5296 25.8877 30.7321 25.9627 30.7621 25.7752C30.7921 25.5877 30.7396 25.6102 30.8371 25.4902C30.8371 25.4902 30.4246 25.6402 30.2596 25.8277C30.1096 26.0077 30.4771 26.1427 30.2596 26.3452C30.2596 26.3452 30.0721 26.2702 29.9596 26.0752C29.9596 26.0752 29.7121 26.0752 29.5471 25.8277H29.5621Z" fill="#5A3719"/>
<path d="M32.9971 27.4482C32.9971 27.4482 33.2746 27.4032 33.9721 27.6657C34.6771 27.9207 34.9696 27.8607 35.0671 27.8532C35.0671 27.8532 34.6771 28.0632 34.0621 27.7932C33.5221 27.5532 33.4921 27.6432 32.9971 27.4482Z" fill="black"/>
<path d="M37.3854 27.2894C37.3854 27.2894 37.5354 27.2894 37.6404 27.3269C37.6404 27.3269 37.6929 27.2744 37.8429 27.2519C37.8429 27.2519 37.7454 27.1619 37.3854 27.2894ZM36.9054 26.8994C36.9054 26.8994 37.0629 26.8994 37.1154 26.8094C37.1154 26.8094 37.0329 26.7119 36.9054 26.6594C36.9054 26.6594 36.9354 26.7794 36.9054 26.8994ZM31.5279 25.1144C31.5279 25.1144 31.4904 25.0394 31.6629 25.0094L34.0104 24.6719C34.0104 24.6719 34.1229 24.6719 34.1379 24.7469C34.1604 24.8294 34.1304 24.8894 33.5979 24.9494L31.6779 25.1894C31.6779 25.1894 31.5354 25.2119 31.5279 25.1144Z" fill="#FFC221"/>
<path d="M33.6504 25.0176C33.6504 25.0176 33.6504 25.3251 33.9654 25.3701C34.2654 25.4151 34.3779 25.3551 34.4529 25.1976C34.4754 25.1451 34.5729 24.8226 34.4379 24.8001C34.3779 24.7926 34.2879 24.8001 34.2204 24.8226C34.1154 24.8751 34.0179 24.9276 34.0479 24.9726C34.1229 25.0926 34.1379 25.1226 34.1229 25.1226C34.0329 25.1451 33.9879 25.0776 33.9729 25.0326C33.9504 24.9726 34.0104 24.9426 33.8079 24.9726C33.7179 24.9801 33.6579 24.9801 33.6579 25.0176H33.6504ZM34.9629 24.7776C35.1129 24.8001 35.1054 25.1376 34.9179 25.2951C34.7079 25.4601 34.5129 25.3926 34.5129 25.3926C34.4079 25.3551 34.4229 25.3626 34.5054 25.2426C34.5804 25.1301 34.6179 24.9726 34.5729 24.8676C34.5579 24.8301 34.5954 24.8001 34.6479 24.7926C34.6479 24.7926 34.7979 24.7626 34.9629 24.7776Z" fill="#FFC221"/>
<path d="M35.0972 24.8072C35.0972 24.8072 35.2172 24.9572 35.0672 25.2197C35.0672 25.2197 35.0072 25.2947 35.1497 25.2872C35.2847 25.2722 35.6072 25.1222 35.5772 24.9272C35.5772 24.9272 35.5622 24.8822 35.4797 24.8822C35.3972 24.8822 35.4647 24.8447 35.5022 24.8222C35.5322 24.8222 35.6447 24.7772 35.3597 24.5972C35.3597 24.5972 35.3147 24.5522 35.2622 24.5747C35.2172 24.5897 35.0672 24.6497 35.0672 24.7397C35.0672 24.7772 35.0972 24.8147 35.0972 24.8147V24.8072Z" fill="#FFC221"/>
<path d="M35.4047 24.5675C35.4047 24.5675 35.6297 24.725 35.6297 24.7775C35.6297 24.8225 35.6072 24.89 35.6672 24.875C35.7272 24.875 35.9672 24.8225 35.8922 24.665C35.8322 24.5075 35.7647 24.44 35.6522 24.41C35.5397 24.365 35.5097 24.4175 35.4122 24.4925C35.4122 24.4925 35.3447 24.5375 35.4047 24.5675ZM34.1972 24.7925C34.1972 24.7925 34.2347 24.68 34.0322 24.6275C34.0322 24.6275 34.1147 24.5525 34.2872 24.5975C34.4522 24.6275 34.4372 24.7475 34.4372 24.755C34.4372 24.755 34.3022 24.755 34.1972 24.7925ZM34.6322 24.7625C34.6322 24.7625 34.8572 24.725 34.9697 24.7325C34.9697 24.7325 34.8497 24.485 34.5422 24.56C34.5422 24.56 34.6547 24.695 34.6322 24.7625ZM35.0297 24.7025C35.0297 24.7025 35.0297 24.62 35.2247 24.545C35.2247 24.545 35.1347 24.455 34.9997 24.47C34.8497 24.47 34.8122 24.5225 34.8122 24.5225C34.8122 24.5225 34.9847 24.5825 35.0297 24.7025ZM35.1047 24.4325C35.1047 24.4325 35.2322 24.4625 35.3072 24.53C35.3072 24.53 35.4197 24.4025 35.5172 24.38C35.5172 24.38 35.3297 24.275 35.1047 24.4325Z" fill="#FFC221"/>
<path d="M28.685 23.8169C28.685 23.8169 29.225 23.3519 29.525 23.4119C29.825 23.4719 29.675 23.4269 30.005 23.3744C30.335 23.3294 30.68 23.2919 30.815 23.3069C30.815 23.3069 30.41 23.0219 29.6975 23.0294C29.6975 23.0294 29.2025 23.2019 28.85 23.4269C28.85 23.4269 28.1825 23.0594 27.5 23.2769C27.5 23.2769 28.2425 23.5544 28.685 23.8169Z" fill="#5A3719"/>
<path d="M34.4151 24.6055L34.5051 24.5905C34.5051 24.5905 34.6551 24.778 34.5501 24.778C34.4601 24.778 34.4901 24.7555 34.4751 24.703C34.4668 24.6646 34.4456 24.6302 34.4151 24.6055ZM33.7401 24.6205C33.7401 24.6205 33.6801 24.6955 33.7851 24.6805C33.9126 24.658 33.8901 24.6805 34.0176 24.583C34.0176 24.583 34.1076 24.5005 34.2576 24.553C34.2576 24.553 34.3926 24.598 34.4976 24.5455C34.6026 24.4855 34.6251 24.493 34.6851 24.5005C34.7451 24.5005 34.7451 24.5155 34.8126 24.4555C34.8876 24.403 35.0226 24.448 35.1051 24.3805C35.1876 24.3055 35.2926 24.3655 35.1051 24.2305C35.1051 24.2305 35.0676 24.193 35.0676 24.1555C35.0676 24.1555 35.1426 24.1855 35.2026 24.2305C35.2626 24.2905 35.3526 24.268 35.3676 24.2605C35.3676 24.2605 35.3826 24.088 35.5401 23.938C35.7126 23.788 35.7126 23.773 35.6151 23.773C35.5176 23.773 35.3526 23.728 35.2926 23.773C35.2326 23.818 34.7526 24.133 34.4676 24.1855C34.1826 24.238 33.9201 24.3205 33.7401 24.6205ZM26.1426 22.8655C26.1426 22.8655 27.0201 23.0905 27.2151 23.1805C27.2151 23.1805 27.2601 23.038 26.8626 22.9255C26.8626 22.9255 27.8301 22.8955 28.8426 23.3605C28.8426 23.3605 29.3376 22.9405 30.9201 23.068C30.9201 23.068 30.9201 22.933 30.9351 22.8205C30.9351 22.8205 29.8251 22.7905 28.8051 22.168C28.8051 22.168 27.8826 22.618 26.1426 22.8655ZM30.9951 23.2855C30.9426 22.4005 31.2801 22.3105 31.2801 22.3105C31.2801 22.3105 31.4376 22.3105 31.6101 22.348C31.6101 22.348 31.3401 22.6705 31.4151 23.308C31.4151 23.308 31.4451 23.4055 31.2126 23.4055C30.9801 23.4055 30.9951 23.293 30.9951 23.293V23.2855Z" fill="#FFC221"/>
<path d="M31.2344 23.8782C31.2344 23.8782 31.0619 23.7057 31.0469 23.5107C31.0469 23.5107 31.0469 23.4657 31.2119 23.4657C31.3844 23.4657 31.3994 23.4507 31.4369 23.5482C31.4819 23.6457 31.5869 23.8482 31.6094 23.8707L31.2344 23.8782Z" fill="#5A3719"/>
<path d="M31.5871 23.4284C31.5731 23.3164 31.5681 23.2036 31.5721 23.0909C31.5796 22.5959 31.6621 22.6409 31.6996 22.7009H31.8721C31.8721 22.7009 31.7446 22.1459 31.5946 22.4759C31.4845 22.7201 31.4455 22.9905 31.4821 23.2559C31.4896 23.4059 31.5046 23.5034 31.5271 23.5559L31.5871 23.4284Z" fill="#FFC221"/>
<path d="M33.5152 23.4271C33.5152 23.4271 33.8377 23.4871 33.3427 23.5996C33.3427 23.5996 33.3652 24.2146 33.9577 23.7871C33.9577 23.7871 34.3102 23.5621 34.5577 23.4721C34.5577 23.4721 34.6777 23.4271 34.6627 23.3371C34.6627 23.3371 34.6777 23.2246 34.5502 23.2546C34.5502 23.2546 34.4452 23.2546 34.3777 23.2321C34.3777 23.2321 34.3027 23.1421 34.2577 23.1721C34.2127 23.2096 34.1002 23.1871 34.1902 23.2996C34.2802 23.4046 34.3027 23.3746 34.3402 23.3446C34.3852 23.3146 34.5727 23.2396 34.4077 23.3971C34.2427 23.5546 34.0927 23.3071 34.0327 23.2621L33.5152 23.4271ZM31.8652 23.5021H31.7152C31.7152 23.5021 31.6402 23.6221 31.5877 23.4271L31.5352 23.5471C31.5352 23.5471 31.7077 24.2071 31.8652 23.5021Z" fill="#5A3719"/>
<path d="M31.6555 22.7448C31.6555 22.7448 31.5805 23.1798 31.678 23.4348L33.2605 23.4723C33.2605 23.4723 33.2455 23.1723 33.2605 22.7448H33.0505C33.0505 22.7448 33.013 23.0898 33.0505 23.3073H33.013C33.013 23.3073 32.983 23.0073 33.013 22.7448H32.8255C32.8255 22.7448 32.7955 23.0673 32.8255 23.3073H32.788C32.788 23.3073 32.758 23.0298 32.788 22.7448H32.6005C32.6005 22.7448 32.563 23.0373 32.6005 23.3073H32.5555C32.5555 23.3073 32.518 23.0148 32.5555 22.7448H32.353C32.353 22.7448 32.308 23.0148 32.353 23.3073H32.3155C32.3155 23.3073 32.2705 23.0373 32.3155 22.7448H32.113C32.113 22.7448 32.068 23.0598 32.113 23.3073H32.068C32.068 23.3073 32.038 23.0073 32.0755 22.7448H31.888C31.888 22.7448 31.8355 23.0073 31.888 23.3073H31.8355C31.8355 23.3073 31.8055 23.0823 31.8505 22.7448H31.6555ZM33.328 23.5248C33.328 23.5248 33.2905 22.7598 33.433 22.5498C33.583 22.3548 33.6205 22.3998 33.868 22.5498C34.123 22.7148 34.4455 22.8873 34.5055 22.9098C34.5505 22.9323 34.6255 22.9473 34.6255 23.0898C34.6255 23.2323 34.648 23.2698 34.4305 23.0898C34.3717 23.0329 34.3031 22.9872 34.228 22.9548C34.033 22.8873 34.273 22.9923 34.3405 23.0973C34.4005 23.1723 34.453 23.1723 34.2955 23.2098C33.9698 23.3048 33.6471 23.4099 33.328 23.5248Z" fill="#FFC221"/>
<path d="M33.8746 22.9699C33.8746 22.9699 33.7621 22.8348 33.9121 22.7973C34.0621 22.7673 34.0696 23.0223 34.0996 23.1798C34.1221 23.3448 33.9121 23.0224 33.8896 22.9774L33.8746 22.9699ZM33.6721 23.6449C33.6721 23.6449 33.4996 23.7124 33.6196 23.7649C33.7246 23.8174 34.0321 23.5624 33.9346 23.5774C33.8146 23.5999 33.6721 23.6524 33.6721 23.6524V23.6449ZM33.8971 23.4199C33.8971 23.4199 34.0471 23.3974 34.0171 23.4574C33.9946 23.5324 33.9421 23.4873 33.9121 23.4723C33.8896 23.4573 33.7921 23.4199 33.9046 23.4124L33.8971 23.4199Z" fill="black"/>
<path d="M34.6998 23.2103C34.6998 23.2103 34.7448 23.5103 34.9998 23.5853C34.9998 23.5853 35.1498 23.6153 35.1123 23.4878C35.1123 23.4878 35.0898 23.3753 35.0673 23.3378C35.0448 23.2853 34.9473 23.2628 34.9323 23.2553C34.9173 23.2553 34.9098 23.2178 34.9773 23.2403C35.0523 23.2628 35.0523 23.2703 35.0523 23.2178C35.0523 23.1653 35.0073 23.1878 34.9473 23.1578C34.9173 23.1428 34.9473 23.1278 34.9698 23.1353C34.9998 23.1353 35.0673 23.1578 35.0673 23.0603C35.0673 23.0603 35.0748 23.0003 34.9998 23.0003C34.9173 23.0003 34.9248 22.9553 34.9473 22.9478C34.9698 22.9478 35.0598 23.0078 35.0898 22.9028C35.1123 22.8053 34.9698 22.8653 34.9848 22.8128C35.0073 22.7528 35.1123 22.8353 35.1123 22.7753C35.1273 22.7153 35.2098 22.6928 35.0673 22.6703C34.9998 22.6628 35.0673 22.6253 35.1423 22.6403C35.2173 22.6478 35.2623 22.5503 35.3148 22.5203C35.3598 22.4828 35.6298 22.3253 35.2698 22.3778C34.9173 22.4303 34.8123 22.6028 34.7973 22.6403C34.708 22.8161 34.674 23.0148 34.6998 23.2103Z" fill="#FFC221"/>
<path d="M35.5249 23.4357C35.5774 23.4357 35.6149 23.4357 35.6299 23.4732C35.6899 23.5932 35.5549 23.5482 35.4799 23.6382C35.4049 23.7282 35.4049 23.7132 35.2999 23.6757C35.1949 23.6457 35.1499 23.4882 35.1499 23.4882C35.1499 23.4357 35.1874 23.4282 35.2399 23.4432C35.2399 23.4432 35.4124 23.4582 35.5324 23.4432L35.5249 23.4357ZM35.1499 23.3757C35.1499 23.3757 35.1499 23.4057 35.2174 23.4132C35.2699 23.4132 35.4424 23.4357 35.5549 23.4057C35.5549 23.4057 35.5849 23.3982 35.5699 23.3307C35.5699 23.3307 35.5699 23.2782 35.4799 23.3007C35.3824 23.3157 35.2549 23.3007 35.2024 23.2932C35.1574 23.2782 35.1274 23.2932 35.1424 23.3682L35.1499 23.3757ZM35.1349 23.1582C35.1349 23.1582 35.1274 23.2557 35.2174 23.2632C35.3149 23.2782 35.4349 23.2782 35.4799 23.2632C35.5174 23.2632 35.5849 23.2482 35.5924 23.1882C35.5924 23.1357 35.6074 23.0982 35.4949 23.1282C35.3824 23.1582 35.2399 23.1282 35.2249 23.1282C35.2174 23.1282 35.1349 23.1057 35.1349 23.1582ZM35.1724 22.9707C35.1724 22.9707 35.1499 23.0157 35.1574 23.0607C35.1574 23.0982 35.2249 23.1132 35.3449 23.1132C35.4649 23.1132 35.5699 23.0982 35.5849 23.0607C35.5924 23.0082 35.6224 22.9632 35.5324 22.9857C35.4349 22.9932 35.3074 23.0007 35.2624 22.9857C35.2174 22.9632 35.1799 22.9557 35.1724 22.9707Z" fill="#FFC221"/>
<path d="M39.6575 23.4491C39.6575 23.4491 39.6575 23.5241 39.725 23.6141L36.335 23.5166C36.335 23.5166 36.38 23.4866 36.395 23.3516L39.6575 23.4491Z" fill="#5A3719"/>
<path d="M35.2018 22.8342C35.2018 22.8342 35.1718 22.9167 35.2318 22.9392C35.2843 22.9542 35.3968 22.9692 35.5318 22.9467C35.5318 22.9467 35.6068 22.9467 35.6293 22.8717C35.6518 22.7967 35.6518 22.8417 35.4568 22.8117C35.4568 22.8117 35.3968 22.7892 35.5693 22.7892C35.5693 22.7892 35.6743 22.7892 35.6818 22.7742C35.7043 22.7592 35.8318 22.6467 35.6593 22.6617C35.4868 22.6617 35.5768 22.6242 35.6593 22.6242C35.7493 22.6242 35.7793 22.6467 35.8093 22.6242C35.8393 22.6017 35.8093 22.6092 35.7568 22.5642C35.7043 22.5192 35.7493 22.5267 35.7793 22.5567C35.8168 22.5792 35.8393 22.5942 35.8768 22.5567C35.9143 22.5192 35.8468 22.4667 35.8768 22.4817C35.8993 22.4817 35.9218 22.5417 36.0268 22.4817C36.1468 22.4292 36.2893 22.4592 36.3268 22.4817C36.3718 22.5192 36.4918 22.5567 36.5593 22.4817C36.6343 22.4217 36.4768 22.3542 36.5368 22.3467C36.6118 22.3392 36.6568 22.3617 36.6793 22.3092C36.7093 22.2492 36.5743 22.2042 36.7018 22.1742C36.8218 22.1367 36.7168 21.7992 36.6793 21.7617C36.6793 21.7617 36.5368 21.8442 36.3943 22.0842C36.2368 22.3317 36.1468 22.4742 35.9443 22.3992C35.6518 22.2867 35.4943 22.4442 35.4568 22.4742C35.3818 22.5192 35.6068 22.5342 35.4718 22.5417C35.3443 22.5417 35.3443 22.5567 35.3368 22.5717C35.3218 22.5942 35.3368 22.6092 35.3593 22.6167C35.3818 22.6167 35.4268 22.6617 35.3518 22.6617C35.2768 22.6617 35.2168 22.6392 35.2393 22.7292C35.2393 22.7292 35.2393 22.7442 35.2843 22.7517C35.3293 22.7517 35.3443 22.8117 35.2618 22.8117C35.2018 22.8117 35.2018 22.8267 35.2018 22.8342ZM35.5093 23.6817C35.5093 23.6817 35.4568 23.7192 35.5318 23.7267C35.6218 23.7267 35.6593 23.7492 35.6893 23.7042C35.7193 23.6592 35.8243 23.6742 35.7493 23.6142C35.6743 23.5542 35.6293 23.5917 35.5093 23.6892V23.6817Z" fill="#FFC221"/>
<path d="M35.8629 22.6624C35.8629 22.6624 36.1479 22.3999 36.3804 22.5724C36.6204 22.7599 36.6354 22.7824 36.6429 22.7899C36.6429 22.7899 36.6729 22.8124 36.6129 22.8649C36.5454 22.9249 36.6129 22.9249 36.6804 22.8874C36.7479 22.8499 36.7554 22.8874 36.7854 22.9249C36.8229 22.9624 36.8679 22.9849 36.7629 22.9849H36.4179C36.4179 22.9849 36.2604 22.9999 36.3429 22.9324C36.4179 22.8649 36.4029 22.7899 36.3654 22.7824C36.3204 22.7824 36.3654 22.8274 36.3429 22.8574C36.3129 22.8874 36.2604 22.9099 36.2004 22.9099C36.1404 22.9099 36.0954 22.9549 36.1854 22.9849C36.2679 23.0149 36.1704 23.0374 36.1254 23.0374C36.0804 23.0374 35.8629 23.0524 36.0879 23.0824C36.3129 23.1049 36.0654 23.1049 36.2379 23.1949C36.4179 23.2999 36.2829 23.5174 36.2154 23.5399C36.2154 23.5399 36.1404 23.5774 36.2304 23.5699C36.3279 23.5549 36.3804 23.5474 36.3054 23.5999C36.2454 23.6449 36.1104 23.8174 35.9304 23.6899C35.9304 23.6899 35.8404 23.6449 35.9904 23.6374C36.1404 23.6374 35.8704 23.5999 35.8179 23.5624C35.7804 23.5399 35.5929 23.3599 35.7054 23.3749C35.8254 23.4049 35.7804 23.3374 35.7129 23.3149C35.6529 23.2924 35.6379 23.1949 35.7129 23.2099C35.7879 23.2324 35.8629 23.2774 35.9379 23.2699C35.9904 23.2699 35.9754 23.2474 35.8479 23.2099C35.7204 23.1649 35.6679 23.1574 35.6979 23.0599C35.7279 22.9474 35.8704 23.0974 35.8329 23.0149C35.8029 22.9399 35.6829 22.9774 35.7429 22.8724C35.8029 22.7674 35.8179 22.8124 35.8554 22.8274C35.8779 22.8349 35.9304 22.8274 35.8479 22.7674C35.7879 22.7299 35.8479 22.6699 35.8629 22.6624Z" fill="#FFC221"/>
<path d="M36.0654 22.7377C36.0654 22.7377 36.0654 22.7002 36.1254 22.7077C36.1704 22.7077 36.1554 22.6927 36.1704 22.6777C36.1854 22.6777 36.3129 22.7152 36.1929 22.7527C36.1479 22.7752 36.0729 22.7677 36.0729 22.7377H36.0654Z" fill="black"/>
<path d="M36.3431 23.0371C36.3431 23.0371 36.2456 23.0821 36.3281 23.1871C36.4031 23.2621 36.4031 23.2996 36.4031 23.3521C36.3956 23.4121 39.6581 23.4496 39.6581 23.4496C39.6581 23.4496 39.6581 23.2321 39.7931 23.1121L36.3431 23.0371Z" fill="#FFC221"/>
<path d="M35.9682 24.1545C35.9682 24.1545 36.1857 23.967 36.2232 23.8845C36.2232 23.8845 36.8082 24.3045 36.7707 23.9145L36.7857 23.7195C36.7857 23.7195 37.0032 23.742 37.0332 23.5695L36.4857 23.547C36.4857 23.547 36.4257 23.5395 36.3357 23.6295C36.2607 23.7195 36.0807 23.817 35.9232 23.7345C35.9232 23.7345 35.8482 23.6745 35.7807 23.7345C35.7057 23.772 35.7057 23.787 35.7657 23.847C35.8257 23.907 35.9457 24.0645 35.9682 24.147V24.1545ZM37.2282 22.9995L36.9057 22.9845C36.9057 22.9845 36.7932 22.8195 36.5607 22.6395C36.5607 22.6395 36.4932 22.6095 36.6207 22.5045C36.7557 22.3995 36.7932 22.2945 36.7932 22.242C36.7932 22.197 36.7932 22.1145 36.8382 22.167C36.8832 22.227 37.2132 22.5345 37.2732 22.4445C37.3182 22.3545 37.3257 22.317 37.3257 22.287C37.3407 22.257 37.3482 22.1745 37.4007 22.2645C37.4457 22.347 37.4757 22.3245 37.4832 22.5495C37.4832 22.5495 37.4832 22.7745 37.5207 22.8495C37.5207 22.8495 37.1007 22.722 37.2357 22.9995H37.2282ZM35.8332 22.3095C35.8332 22.3095 36.0807 22.4595 36.2082 22.2645C36.3207 22.077 36.4032 22.0545 36.3132 21.867C36.2232 21.6945 36.3132 21.612 36.3807 21.537C36.4557 21.462 36.5157 21.477 36.5157 21.192C36.5307 20.8995 36.7257 20.817 36.8157 20.7195C36.9057 20.6295 37.1307 20.4945 36.7857 20.442C36.4557 20.382 35.7807 20.217 35.6082 19.9545C35.4357 19.692 35.3607 19.842 35.3607 19.857C35.3607 19.872 35.3007 20.0595 35.4732 20.4045C35.6457 20.7495 35.7882 20.9745 35.9607 21.0795C36.1257 21.192 36.2757 21.252 36.1857 21.4845C36.0957 21.717 35.9607 22.1295 35.8332 22.3095Z" fill="#7B3C20"/>
<path d="M36.74 21.5744C36.74 21.5744 36.785 22.1744 37.2125 22.3844C37.2125 22.3844 37.31 22.1594 37.2725 21.9269C37.2725 21.9269 37.415 21.9344 37.4525 22.0019C37.4525 22.0019 37.4525 21.8294 37.2575 21.7619C37.055 21.7094 37.1525 21.3119 37.2275 21.2744C37.295 21.2294 37.2725 21.1469 37.2275 21.0794C37.175 21.0044 37.1675 20.9069 37.3325 20.9519C37.505 20.9969 37.4825 20.9069 37.37 20.8244C37.2725 20.7419 37.2725 20.6369 37.4225 20.6369C37.5725 20.6369 37.7975 20.4944 37.6625 20.4569C37.5125 20.4119 37.475 20.3594 37.6625 20.3069C37.865 20.2469 37.9625 20.1794 37.8125 20.1569C37.6625 20.1419 37.565 20.0894 37.7075 20.0669C37.85 20.0444 37.685 19.8944 37.52 19.8944C37.3475 19.8794 36.995 19.9469 37.2725 19.7219C37.5575 19.4969 36.8675 19.6619 37.1525 19.5119C37.4375 19.3619 37.055 19.4294 37.0025 19.4294C36.95 19.4294 36.95 19.4294 36.9725 19.3544C36.9875 19.2794 36.935 19.2344 36.845 19.2869C36.77 19.3319 36.77 19.3319 36.77 19.2344C36.77 19.1219 36.6725 19.2044 36.6125 19.2344C36.545 19.2569 36.3875 19.3769 36.32 19.3094C36.2675 19.2419 36.23 19.1819 36.035 19.2944C35.84 19.4069 35.885 19.3094 35.885 19.2569C35.885 19.2044 35.96 19.0019 35.705 19.2194C35.45 19.4369 35.6525 18.9944 35.4425 19.1444C35.24 19.2944 35.2175 19.3244 35.18 19.2569C35.1425 19.1819 35.105 19.1294 34.88 19.2794C34.6475 19.4219 34.82 19.1819 34.8425 19.1294C34.88 19.0844 34.9775 18.7544 34.775 19.0094C34.775 19.0094 34.6775 19.1894 34.46 18.8669C34.46 18.8669 34.235 19.1894 34.1675 19.0469C34.1075 18.8969 34.055 18.8969 33.9725 18.9869C33.8975 19.0769 33.9575 18.9794 33.92 18.8969C33.89 18.8219 33.8675 18.6794 33.485 18.9569C33.1025 19.2419 33.62 19.0319 33.3275 19.1594C33.035 19.2869 32.315 19.6844 32.9675 19.6019C33.62 19.5044 32.6525 19.8494 32.8775 19.9169C33.1025 19.9769 33.0275 20.1794 33.8825 19.9394C34.7225 19.7144 34.5875 19.9094 35.0225 19.7144C35.4575 19.5344 34.9175 19.7819 35.5025 19.7744C36.08 19.7594 35.6 19.7744 35.7125 19.8944C35.825 20.0144 36.3125 20.2919 36.77 20.3444C37.2275 20.3894 37.3475 20.2169 37.2125 20.4194C37.0775 20.6144 37.0325 20.6894 36.9575 20.7644C36.8825 20.8244 36.6575 20.9894 36.6575 21.2594C36.6575 21.5369 36.2975 21.5819 36.4325 21.8819L36.74 21.5819V21.5744Z" fill="#5A3719"/>
<path d="M37.4969 22.2432C37.4969 22.2432 37.3919 22.1682 37.3919 22.0332C37.3919 22.0332 37.4669 22.0482 37.4969 22.0932C37.4969 22.0932 37.7594 21.7932 37.4369 21.6882C37.1294 21.5832 37.2869 21.2907 37.3919 21.2907C37.4969 21.2907 37.5194 21.2682 37.4219 21.1407C37.3319 21.0282 37.3469 21.0207 37.5194 20.9907C37.6919 20.9607 37.6769 20.9157 37.5944 20.8782C37.5407 20.8462 37.4926 20.8057 37.4519 20.7582C37.4519 20.7582 37.9619 20.5407 37.7969 20.4357C37.6319 20.3382 37.7969 20.3607 37.9469 20.2632C38.0969 20.1582 38.1119 20.1357 38.1344 20.0907C38.1344 20.0907 37.9844 20.1132 37.8794 20.0907C37.8794 20.0907 38.0069 20.0232 37.8794 19.9182C37.7519 19.8132 37.7069 19.7232 37.5044 19.7682C37.3019 19.8207 37.3694 19.7532 37.4444 19.6707C37.5194 19.5882 37.4894 19.5432 37.3469 19.5207C37.3469 19.5207 37.3619 19.4307 37.4744 19.3332C37.4744 19.3332 37.1969 19.3482 37.0994 19.3032C37.0994 19.3032 37.2194 19.2282 37.2194 19.1307C37.2194 19.1307 37.0694 19.1832 36.8819 19.1682C36.8819 19.1682 36.9944 19.0707 36.9944 18.9882C36.9944 18.9882 36.6644 19.0632 36.5144 19.1757C36.5144 19.1757 36.4769 19.1757 36.4544 19.1307C36.4244 19.1007 36.4094 19.0557 36.0419 19.1757C36.0419 19.1757 36.0794 19.0107 36.1694 18.9507C36.2594 18.8907 36.2444 18.7557 35.6819 19.1082C35.6819 19.1082 35.6069 19.0632 35.5394 18.8907C35.5394 18.8907 35.4119 19.0632 35.3219 19.1232C35.3219 19.1232 35.2469 19.1607 35.2469 19.0482C35.2619 18.9357 35.1944 19.0107 35.1419 19.0482C35.0819 19.0782 35.0444 19.1607 35.0669 18.9357C35.0894 18.7107 34.9919 18.6657 34.9919 18.6657C34.9919 18.6657 34.8194 18.9132 34.7144 18.9432C34.7144 18.9432 34.5269 18.7632 34.4594 18.6432C34.3994 18.5232 34.3994 18.4782 34.3319 18.6882C34.2644 18.8907 34.1819 18.9132 34.1819 18.9132C34.1819 18.9132 34.0694 18.8157 34.0619 18.7632C34.0619 18.7632 34.0394 18.8157 34.0019 18.8382C34.0019 18.8382 33.9044 18.7257 33.9119 18.5607C33.9119 18.5607 33.2969 18.8982 33.2219 19.1007C33.2219 19.1007 32.6444 19.0632 32.4119 19.1082C32.4119 19.1082 32.4644 18.9282 32.6144 18.8307C32.6144 18.8307 32.4644 18.8157 32.4644 18.6582C32.4644 18.6582 32.5844 18.6732 32.6594 18.6582C32.7344 18.6432 32.5544 18.4257 32.7419 18.4182C32.9294 18.4107 33.0569 18.5082 32.9669 18.2532C32.8919 18.0057 32.9219 18.0057 32.9219 18.0057C32.9219 18.0057 33.2519 18.2007 33.3044 18.1482C33.3644 18.1032 33.2669 17.9982 33.5594 18.0432C33.8519 18.0957 33.7694 17.9307 33.8894 17.9157C34.0019 17.9157 34.0619 17.9907 33.9869 17.4582C33.9119 16.9257 34.3469 17.7207 34.0544 16.9182C34.0544 16.9182 33.9794 16.6707 33.8069 16.5657C33.8069 16.5657 33.7619 16.7382 33.5669 16.5882C33.3719 16.4382 32.9819 16.3782 33.1469 16.2582C33.3119 16.1307 33.3869 15.9657 33.3419 15.8682C33.3419 15.8682 33.1469 16.0632 32.8169 15.9207C32.5469 15.8082 32.4869 16.0182 32.2169 15.9582C32.2169 15.9582 32.2169 15.8832 32.4494 15.7032C32.6744 15.5307 32.3144 15.7632 32.1794 15.8007C32.0369 15.8307 31.9994 15.8007 32.2919 15.5682C32.5919 15.3432 33.1919 14.9307 33.1169 14.5932C33.1169 14.5932 33.2519 14.7657 33.6194 14.6382C33.9944 14.5107 34.2644 14.4657 34.3694 14.2632C34.5019 14.0946 34.6647 13.9522 34.8494 13.8432C34.9319 13.8057 35.0294 13.7682 34.9169 13.9557C34.7969 14.1357 34.6169 14.4507 34.1069 14.6607C33.5969 14.8707 33.3944 15.0207 33.3044 15.1332C33.2144 15.2457 32.7494 15.4932 33.0569 15.4557C33.3569 15.4032 33.8744 15.4557 33.6269 15.3807C33.3869 15.3132 33.1094 15.4257 33.3344 15.2232C33.5594 15.0207 33.5969 14.9532 33.9269 14.8182C34.2569 14.6757 34.6169 14.3607 34.5794 14.6982C34.5419 15.0282 33.9344 15.3807 33.7844 15.4932C33.6344 15.5982 33.6944 15.5832 33.6944 15.6282C33.6944 15.6732 33.6644 15.7632 33.6044 15.8007C33.5444 15.8457 33.5669 15.8907 33.5819 15.9807C33.5969 16.0782 33.5669 16.1157 33.6119 16.1307C33.6569 16.1382 33.7019 16.1457 33.7169 16.2132C33.7319 16.2882 33.7619 16.2882 33.8519 16.2882C33.9344 16.2732 34.0019 16.2882 34.0019 16.3332C34.0019 16.3857 34.0919 16.4607 34.0994 16.3032C34.1069 16.1382 34.1744 16.1157 34.0094 16.1907C33.8444 16.2582 33.8144 16.2357 33.8144 16.1607C33.8144 16.0857 33.7994 16.1007 33.7394 16.0932C33.6644 16.0932 33.6419 15.9957 33.7619 15.9282C33.8819 15.8682 33.8819 15.9282 34.0319 15.8082C34.1819 15.6807 34.1819 15.6582 34.2044 15.5832C34.2269 15.5307 33.9869 15.7632 33.8744 15.8082C33.7619 15.8682 33.7994 15.7707 33.8144 15.6507C33.8369 15.5232 34.1144 15.3507 34.2419 15.3507C34.3769 15.3507 34.6619 15.4257 34.5419 15.5982C34.4144 15.7707 34.0619 15.9882 34.2044 16.0032C34.3619 16.0182 34.3844 15.9582 34.4744 16.0332C34.5644 16.1082 34.4744 16.2732 34.4444 16.3632C34.4041 16.4415 34.3479 16.5105 34.2794 16.5657C34.2794 16.5657 34.1144 16.2807 34.1219 16.5057C34.1219 16.7382 34.0844 16.8207 34.1219 16.8282C34.1594 16.8357 34.3319 16.9557 34.3919 16.9557C34.4519 16.9557 34.0844 17.1282 34.2419 17.1432C34.3919 17.1507 34.6394 17.0682 34.7219 16.9182C34.7219 16.9182 34.4069 16.8432 34.2794 16.7232C34.2794 16.7232 34.6469 16.6332 34.5419 16.2882C34.5419 16.2882 34.9094 16.3857 34.7444 16.5507C34.5944 16.7082 34.4969 16.6857 34.6319 16.7307C34.7744 16.7757 34.8344 16.8207 34.8344 16.8207C34.8344 16.8207 34.9319 16.8657 34.8719 16.9407C34.8194 17.0157 34.8194 17.1357 34.8719 17.1282C34.9094 17.1282 35.0669 17.0532 34.9394 16.9782C34.8044 16.9032 35.0819 16.9182 34.9694 16.8507C34.8494 16.7757 34.8194 16.7682 34.7894 16.7307C34.7519 16.7082 36.2669 15.8157 35.5019 16.1457C35.5019 16.1457 35.6594 15.8007 35.8844 15.8007C36.1094 15.8007 36.1244 15.9732 35.9969 16.1157C35.8694 16.2432 35.7869 16.4607 35.4944 16.5057C35.4944 16.5057 35.9144 16.7082 35.4194 17.0457C35.4194 17.0457 35.3069 17.0982 35.3444 17.1357C35.3819 17.1732 35.6819 17.0082 35.7194 16.9107C35.7401 16.8602 35.7707 16.8143 35.8093 16.7756C35.848 16.737 35.8939 16.7065 35.9444 16.6857C36.2687 16.5029 36.5541 16.2583 36.7844 15.9657C36.9569 15.6732 36.9944 15.6657 37.3244 15.4032C37.6544 15.1407 37.5944 15.1932 37.6394 15.1332C37.6769 15.0657 37.6919 14.9607 37.8419 14.8782C37.9919 14.7882 38.5769 14.4732 38.7644 14.3382C38.9444 14.2032 39.3194 13.9632 39.4844 13.7532C39.6419 13.5507 40.0844 13.2882 40.1894 13.3332C40.2944 13.3857 40.1744 13.5432 39.9269 13.7382C39.6644 13.9257 39.0269 14.4357 38.9294 14.5182C38.675 14.7233 38.392 14.89 38.0894 15.0132C37.8869 15.0357 37.9094 15.1107 37.7894 15.2382C37.6694 15.3657 37.3919 15.6432 37.3019 15.7182C37.2044 15.7932 36.9794 15.9432 36.9719 16.0557C36.9569 16.1682 37.0094 16.1757 36.8294 16.3407C36.5628 16.5852 36.2621 16.7898 35.9369 16.9482C35.9369 16.9482 36.2744 17.0682 36.0719 17.2932C35.8769 17.5182 35.8844 17.4882 35.8769 17.5032C35.8769 17.5032 36.3794 17.4282 36.0269 17.8257C36.0269 17.8257 35.9519 17.9382 36.1094 17.8257C36.2819 17.6832 36.2144 17.5182 36.1844 17.4882C36.1844 17.4882 36.4619 17.3157 36.7769 17.3157C37.0844 17.3157 37.0769 17.2932 36.7919 17.2107C36.7919 17.2107 36.9944 16.9707 37.1669 17.0907C37.3319 17.2032 37.2719 17.2782 37.0994 17.3757C36.9194 17.4657 36.6644 17.5032 36.4619 17.6157C36.4619 17.6157 36.8369 17.6907 37.0319 17.5332C37.2269 17.3832 37.2419 17.4582 37.2569 17.4882C37.2944 17.5182 37.3169 17.5632 37.2269 17.6832C37.1369 17.8107 37.1294 17.8182 37.1369 17.8482C37.1369 17.8782 37.1294 17.9607 36.9494 17.9982C36.7769 18.0207 36.6869 18.0957 36.7544 18.1782C36.8069 18.2682 36.8069 18.4782 36.6644 18.4557C36.5144 18.4332 36.5444 18.3132 36.4919 18.2682C36.4319 18.2232 36.3494 18.1557 36.0869 18.2832C35.8169 18.4257 35.8019 18.2607 35.8094 18.1707C35.8094 18.1707 35.6369 18.3207 35.4944 18.1857C35.3444 18.0432 35.4794 17.9907 35.5694 17.9232C35.6444 17.8482 35.9819 17.6982 35.7794 17.7357C35.5769 17.7582 35.2769 17.7657 35.2094 17.6157C35.1344 17.4582 35.3594 17.4732 35.3894 17.4882C35.4269 17.5032 35.5619 17.6157 35.5769 17.4657C35.5769 17.3157 35.8019 17.2932 35.7269 17.2707C35.6519 17.2407 35.5394 17.3382 35.5094 17.3682C35.5094 17.3682 35.3594 17.1507 35.1044 17.2182C34.8494 17.2932 35.1794 17.2707 35.2544 17.2782C35.3144 17.2932 35.2769 17.4132 35.0519 17.6232C34.8269 17.8257 34.9244 17.7582 35.0894 17.7582C35.2619 17.7582 35.6819 17.7582 35.4344 17.9532C35.1944 18.1557 35.0969 18.2532 34.9844 18.2232C34.8494 18.1857 34.9844 18.1032 35.0444 18.0657C35.1044 18.0282 35.1344 17.9757 35.0144 18.0207C34.8944 18.0582 34.8569 18.0732 34.7594 17.9082C34.6694 17.7357 34.6994 17.7882 34.7444 17.6757C34.7894 17.5632 34.8794 17.4507 34.7744 17.4882C34.6544 17.5332 34.6694 17.5407 34.6769 17.4132C34.6844 17.2857 34.5494 17.2557 34.5494 17.2557C34.5494 17.2557 34.6094 17.3832 34.5569 17.4657C34.5119 17.5407 34.5044 17.5707 34.5869 17.5857C34.6619 17.6157 34.7369 17.6832 34.6319 17.7582C34.5269 17.8257 34.5419 17.8107 34.6019 17.8557C34.6769 17.9082 34.7744 17.9532 34.6694 18.0582C34.5644 18.1632 34.6469 18.1332 34.6994 18.1332C34.7594 18.1332 34.8719 18.1782 34.8719 18.2832C34.8719 18.3732 34.8719 18.3957 35.0444 18.3057C35.2169 18.2082 35.5469 18.2232 35.5469 18.3507C35.5469 18.4857 35.5019 18.5232 35.6819 18.4107C35.8619 18.2982 35.9444 18.5157 36.0719 18.4107C36.1919 18.2982 36.2669 18.2007 36.4169 18.3807C36.5594 18.5607 36.5144 18.6057 36.3419 18.7407C36.1694 18.8682 36.4244 18.7707 36.5594 18.7032C36.6944 18.6357 37.0619 18.5907 37.2719 18.6882C37.4894 18.7782 37.5494 18.7632 37.7069 18.6882C37.8644 18.6282 37.9469 18.6132 38.1794 18.7707C38.4269 18.9357 38.6069 18.9657 38.7344 18.9582C38.7344 18.9582 38.4719 19.0632 38.1719 19.0782C37.8719 19.1007 37.7219 19.1532 37.6694 19.1982C37.6694 19.1982 37.8419 19.3107 37.8794 19.4382C37.8794 19.4382 38.0744 19.4157 38.1644 19.4532C38.1644 19.4532 38.1194 19.5957 38.2394 19.6707C38.3594 19.7457 38.4419 19.7757 38.3519 19.8732C38.2619 19.9782 38.4944 19.9332 38.3594 20.0757C38.2319 20.2257 38.2019 20.3007 38.1944 20.4132C38.1944 20.5332 38.2244 20.5482 38.1119 20.5632C37.9919 20.5707 38.1269 20.7057 38.0744 20.8632C38.0219 21.0132 37.6994 20.9907 37.7144 21.4032C37.7144 21.4032 37.8044 21.2007 37.9994 21.0282C38.1869 20.8482 38.1944 20.8332 38.1869 20.7282C38.1869 20.6232 38.1794 20.6457 38.2769 20.5632C38.3819 20.4882 38.2319 20.4132 38.3369 20.2932C38.4344 20.1807 38.3519 20.2032 38.4719 20.0907C38.5844 19.9707 38.3594 19.9632 38.4869 19.8432C38.5994 19.7232 38.1869 19.5807 38.3144 19.5057C38.4269 19.4307 38.6369 19.3257 37.9394 19.3332C37.9394 19.3332 38.1119 19.0632 38.6894 19.1157C38.6894 19.1157 38.5394 19.2357 38.5244 19.3407L38.6444 19.3782C38.6444 19.3782 38.6144 19.4607 38.5019 19.5507C38.5019 19.5507 38.8169 19.7232 38.8694 19.8357C38.8694 19.8357 38.6744 19.8957 38.6219 19.9707C38.6219 19.9707 38.7119 20.0682 38.7419 20.1957C38.7419 20.1957 38.5244 20.1657 38.5019 20.3232C38.4719 20.4807 38.4044 20.3757 38.4044 20.4732C38.4044 20.5707 38.4119 20.6007 38.3369 20.6232C38.2619 20.6232 38.3294 20.7057 38.3369 20.7582C38.3519 20.8107 38.3819 20.9307 38.3669 20.9682C38.3669 20.9682 38.2544 20.9682 38.2094 20.9832C38.2094 20.9832 38.2394 21.2082 38.1119 21.2457C37.9844 21.2757 38.1869 21.3207 38.0444 21.3432C37.9094 21.3657 37.9319 21.3807 37.7669 21.6807C37.7669 21.6807 37.9094 21.6057 38.0519 21.5007C38.2019 21.4032 38.0369 21.4257 38.2769 21.2007C38.5244 20.9532 38.4794 20.9382 38.4569 20.8182C38.4419 20.6982 38.4344 20.5932 38.5244 20.4807C38.6144 20.3682 38.6369 20.2407 38.9519 20.2557C38.9519 20.2557 38.8619 20.0457 38.7494 19.9932C38.7494 19.9932 38.8994 19.8957 39.0494 19.8807C39.0494 19.8807 38.9144 19.7082 38.6294 19.5507C38.6294 19.5507 38.8544 19.3557 38.9219 19.2582C38.9219 19.2582 38.8094 19.2807 38.7194 19.2582C38.7194 19.2582 38.7644 19.1607 38.9744 19.0257C38.9744 19.0257 39.0869 19.1307 39.0794 19.2432C39.0794 19.2432 39.4394 19.0407 39.6419 19.0632C39.6419 19.0632 39.7469 19.3182 39.2444 19.8132C39.2444 19.8132 39.5594 19.8357 39.6944 19.8132C39.6944 19.8132 39.6194 20.0532 39.2444 20.1882C38.8694 20.3382 39.3194 20.5032 38.9369 20.4732C38.5619 20.4432 38.6744 20.5707 38.6819 20.7657C38.6969 20.9607 38.7044 21.1632 38.6969 21.2157C38.6969 21.2157 38.3969 21.1182 38.3969 21.4107C38.4044 21.7107 38.2469 21.7707 38.2094 21.7932C38.2094 21.7932 38.1194 21.7182 37.9844 21.6657C37.9844 21.6657 37.7969 22.0332 37.4969 22.2432Z" fill="#5A3719"/>
<path d="M37.055 18.537C37.055 18.537 37.16 18.522 37.34 18.627C37.5125 18.7395 37.685 18.5145 37.49 18.4545C37.295 18.3945 37.49 18.3195 37.67 18.4695C37.85 18.612 37.9175 18.537 37.985 18.492C38.045 18.4395 38.1275 18.4095 38.0075 18.327C37.8875 18.2445 38.0825 18.282 38.18 18.3495C38.27 18.402 38.2325 18.462 38.225 18.477C38.21 18.492 38.2025 18.6945 38.375 18.5145C38.555 18.327 38.6525 18.1545 38.645 18.0645C38.645 18.0645 38.7425 18.1245 38.7575 18.237C38.7725 18.3495 38.9075 18.177 38.9525 18.117C38.9975 18.057 39.0725 17.892 39.065 17.787C39.065 17.787 39.185 17.9745 39.365 17.787C39.545 17.5995 39.47 17.712 39.68 17.6595C39.9256 17.5937 40.147 17.4582 40.3175 17.2695C40.4675 17.082 40.475 17.2095 40.6625 17.1645C40.85 17.1195 41.24 16.8495 41.2775 16.707C41.3075 16.5645 41.3 16.4745 41.2475 16.527C41.195 16.572 41.2175 16.527 41.135 16.482C41.0525 16.4295 40.9325 16.5495 40.9325 16.5495C40.9325 16.5495 41.0525 16.6395 40.955 16.677C40.865 16.722 40.7825 16.8495 40.61 16.797C40.4375 16.752 40.25 16.962 40.25 16.962C40.25 16.962 40.4 17.082 40.1975 17.1645C39.995 17.2395 40.025 17.2695 39.905 17.1795C39.905 17.1795 39.6875 17.457 39.56 17.517C39.56 17.517 39.5075 17.517 39.47 17.457C39.47 17.457 39.32 17.6145 39.26 17.6445C39.26 17.6445 39.1625 17.5695 39.0875 17.532C39.0875 17.532 38.915 17.7495 38.7725 17.8095C38.7725 17.8095 38.7275 17.7345 38.6375 17.682C38.6375 17.682 38.5925 17.952 38.2925 18.117C38.2925 18.117 38.3075 18.042 38.1575 17.9445C38.1575 17.9445 37.7825 18.267 37.64 18.297C37.49 18.327 37.625 18.2295 37.64 18.1845C37.67 18.147 37.76 18.012 37.58 17.9595C37.4 17.907 37.43 17.997 37.3925 18.012C37.3475 18.027 37.3475 17.982 37.2275 17.997C37.1075 18.012 37.13 18.0645 37.0775 18.087C37.0175 18.102 36.8075 18.0495 36.8225 18.192C36.83 18.327 36.935 18.4245 36.7475 18.507C36.56 18.582 36.8225 18.567 37.055 18.537Z" fill="#7B3C20"/>
<path d="M37.8127 18.1474C37.8127 18.1474 37.8577 17.9599 37.7002 17.8849C37.7002 17.8849 38.6902 17.7274 37.9402 17.3449C37.9402 17.3449 38.8327 17.1724 38.6152 16.8874C38.4127 16.6024 38.2102 16.6624 38.1802 16.6624C38.1502 16.6624 38.3677 16.5049 38.4277 16.5274C38.4802 16.5499 39.1927 16.8199 39.0127 16.5799C38.8327 16.3549 38.8477 16.3624 38.8177 16.2949C38.8177 16.2949 39.0502 16.2949 39.4102 16.6399C39.4102 16.6399 39.4852 16.5649 39.4777 16.4224C39.4777 16.4224 39.7252 16.4974 39.8077 16.5724C39.8077 16.5724 39.8527 16.4824 39.8302 16.4374C39.8302 16.4374 40.0552 16.5499 40.1302 16.6774C40.1302 16.6774 40.2277 16.5874 40.2427 16.4824C40.2427 16.4824 40.4677 16.5799 40.5202 16.6474C40.5202 16.6474 40.5952 16.5499 40.5652 16.4224C40.5652 16.4224 40.9327 16.5199 40.9777 16.3024C40.9777 16.3024 41.3452 16.3774 41.1052 16.5199C40.8052 16.7074 41.0752 16.4749 40.7602 16.6924C40.5202 16.8649 40.3852 17.0599 40.2652 17.0224C40.1827 16.9849 40.0777 17.2399 39.9652 17.1199C39.8527 16.9924 39.8527 17.0449 39.7627 17.1724C39.7009 17.2662 39.6306 17.354 39.5527 17.4349C39.5527 17.4349 39.4927 17.3974 39.4327 17.3449C39.4327 17.3449 39.3727 17.4649 39.2827 17.5549C39.2827 17.5549 39.2077 17.4574 39.0877 17.4049C39.0877 17.4049 38.9152 17.6074 38.8027 17.6824C38.8027 17.6824 38.6977 17.5774 38.5852 17.5399C38.5852 17.5399 38.5702 17.8249 38.3527 17.9674C38.3527 17.9674 38.3077 17.8774 38.1577 17.8174C38.1577 17.8174 38.0527 17.9899 37.8127 18.1399V18.1474Z" fill="#5A3719"/>
<path d="M37.295 17.7131C37.295 17.7131 37.175 17.8031 37.25 17.9006C37.325 18.0056 37.3325 17.8856 37.43 17.8781C37.5275 17.8631 38.7425 17.6531 37.64 17.3306C37.64 17.3306 37.6925 17.2856 37.8725 17.2706C38.0675 17.2481 38.7575 17.0681 38.435 16.8206C38.1125 16.5806 37.8425 16.9031 38.1125 16.6106C38.3375 16.3781 38.1575 16.2656 38.1575 16.2656C38.1575 16.2656 37.52 16.6856 37.3775 16.7681C37.2425 16.8431 37.0325 16.9931 37.2725 17.0681C37.52 17.1431 37.6775 16.8131 37.7 16.8881C37.7225 16.9631 37.22 17.2481 37.295 17.3681C37.3625 17.5031 37.3475 17.6156 37.475 17.5856C37.595 17.5631 37.925 17.6456 37.6625 17.6381C37.385 17.6306 37.2875 17.7131 37.2875 17.7131H37.295Z" fill="#5A3719"/>
<path d="M37.73 17.098C37.73 17.098 37.6175 17.1805 37.7675 17.143C37.9175 17.1055 38.2099 17.038 38.1574 16.963C38.0974 16.888 37.9025 16.978 37.73 17.098Z" fill="black"/>
<path d="M36.2222 16.9333C36.2222 16.9333 36.1397 17.0083 36.2222 17.0608C36.3047 17.1208 36.5972 16.9108 36.6347 16.8808C36.6797 16.8508 36.7847 16.8508 36.6347 16.9633C36.4847 17.0758 36.3497 17.1883 36.2597 17.3083C36.2597 17.3083 36.7397 17.1733 37.0547 16.9033C37.3772 16.6258 37.0472 16.8058 37.5797 16.5433C38.1272 16.2808 38.4122 15.8608 38.1197 15.9058C37.8347 15.9508 37.5722 16.2808 37.3397 16.4083C37.1147 16.5358 36.9872 16.5583 37.0247 16.4833C37.0547 16.4083 37.2272 16.4383 37.5422 16.1833C37.8497 15.9358 37.7822 15.9583 37.7822 15.8683C37.7822 15.7783 37.6697 15.5683 38.1347 15.3133C38.5997 15.0658 40.0547 14.2258 40.1822 13.9258C40.1822 13.9258 39.7547 13.9708 39.1922 14.3833C38.8837 14.6412 38.5465 14.8627 38.1872 15.0433C38.0372 15.1033 38.0522 15.0583 37.9547 15.1858C37.7124 15.441 37.4596 15.6862 37.1972 15.9208C37.0997 15.9958 37.0622 16.0408 37.0547 16.2058C37.0547 16.2808 36.4247 16.7533 36.2297 16.9333H36.2222Z" fill="#5A3719"/>
<path d="M38.1507 15.8233C38.1507 15.8233 38.0382 15.8683 37.9257 15.8233C37.8282 15.7708 37.8657 15.5533 38.1132 15.4108C38.4105 15.2487 38.7284 15.1276 39.0582 15.0508C39.0582 15.0508 39.0207 15.3358 38.3007 15.5833C38.3007 15.5833 38.3457 15.7333 38.1507 15.8233Z" fill="#5A3719"/>
<path d="M35.8248 16.4006C35.8248 16.4006 35.6523 16.5281 35.7273 16.5806C35.8023 16.6481 35.9223 16.6556 36.1773 16.4381C36.4473 16.2131 37.0848 15.6731 36.6873 15.6506C36.6873 15.6506 36.1623 15.6206 36.1848 15.9356C36.1998 16.2506 35.8548 16.3856 35.8248 16.4006ZM34.6323 16.2131C34.6323 16.2131 34.9773 16.4156 34.8423 16.5806C34.8423 16.5806 35.8923 15.6956 35.5923 15.5006C35.3073 15.3056 35.0748 15.6731 35.1423 15.7031C35.2173 15.7481 35.3673 15.6731 35.3148 15.7481C35.101 15.9188 34.8755 16.0742 34.6398 16.2131H34.6323ZM34.3623 15.9281C34.3623 15.9281 34.5873 16.0031 34.6023 16.1006C34.6098 16.1906 35.2923 15.6206 35.1123 15.3731C35.0298 15.2606 34.6623 15.2231 34.6323 15.4331C34.6173 15.6581 34.9773 15.4106 34.8573 15.5681C34.6923 15.7706 34.4148 15.8981 34.3623 15.9281ZM36.8073 15.4481C36.8073 15.4481 36.6648 15.5531 36.7998 15.6206C36.9348 15.6731 37.0098 15.5756 37.0773 15.5231C37.1448 15.4631 37.4748 15.2231 37.5423 15.0731C37.6173 14.9231 37.7298 14.8706 37.8498 14.7956C37.9623 14.7206 38.7948 14.3006 39.3123 13.8431C39.8223 13.3856 39.6123 13.5056 40.1373 13.2131C40.6623 12.9206 41.0148 12.6506 41.1273 12.3281C41.1273 12.3281 40.8798 12.4031 40.6623 12.5531C40.399 12.7225 40.1314 12.885 39.8598 13.0406C39.7623 13.0781 39.6348 13.0856 39.5598 13.1606C39.4848 13.2356 39.4848 13.3331 39.2373 13.5356C38.9748 13.7531 37.6623 14.6831 37.4973 14.8106C37.2633 15.0188 37.0333 15.2313 36.8073 15.4481Z" fill="#5A3719"/>
<path d="M35.75 15.7541C35.75 15.7541 35.9 15.6791 36.17 15.6941C36.44 15.7091 37.505 14.6741 37.82 14.4716C38.2991 14.1426 38.7669 13.7974 39.2225 13.4366C39.3575 13.3016 39.3725 13.1666 39.4925 13.0916C39.605 13.0166 39.7175 13.0241 39.9725 12.8741C40.235 12.7241 41.495 11.9741 41.42 11.5391C41.42 11.5391 39.545 12.6641 39.1175 13.0241C38.5182 13.4914 37.9002 13.9343 37.265 14.3516C37.055 14.4941 36.89 14.7266 36.5225 15.0116C36.17 15.3041 35.81 15.5516 35.75 15.7616V15.7541Z" fill="#AA5323"/>
<path d="M35.3594 15.3495C35.3594 15.3495 35.7044 15.3195 35.7494 15.492C35.7494 15.492 36.4994 14.982 36.6644 14.772C36.8294 14.562 36.6044 14.682 37.0319 14.4045C37.72 13.9459 38.3953 13.4682 39.0569 12.972C39.2594 12.7995 39.6419 12.5595 39.9494 12.357C40.2494 12.147 41.4419 11.562 41.3069 11.082L40.2419 11.7945C40.0394 11.9295 39.9494 11.8545 39.7544 12.012C39.5594 12.1695 39.1169 12.4845 39.0419 12.582C38.6976 12.8771 38.3371 13.1525 37.9619 13.407C37.6319 13.632 36.9044 14.052 36.5444 14.367C36.155 14.7038 35.76 15.0338 35.3594 15.357V15.3495Z" fill="#AA5323"/>
<path d="M34.2803 15.2604C34.2803 15.2604 34.4528 15.2604 34.5128 15.3279C34.5128 15.3279 34.8353 15.0354 35.1803 15.3279C35.1803 15.3279 36.4403 14.4654 36.5678 14.2479C36.6953 14.0379 36.9053 14.0304 37.3928 13.6779C37.8878 13.3179 38.1953 13.1604 38.5178 12.9129C38.8478 12.6579 39.1253 12.3654 39.3578 12.2154C39.5903 12.0654 40.1828 11.6754 40.0928 11.3379C40.0928 11.3379 39.6053 11.6079 39.2978 11.9529C38.9828 12.2979 39.0128 12.0054 38.6903 12.2904C38.3199 12.6314 37.9094 12.9261 37.4678 13.1679C37.0553 13.3704 37.3028 13.3479 37.0028 13.5429C36.7103 13.7304 36.7328 13.6929 36.6278 13.7304C36.4805 13.7651 36.3472 13.8435 36.2453 13.9554C36.1253 14.0829 35.8403 14.2554 35.5253 14.4429C35.0857 14.676 34.6689 14.9497 34.2803 15.2604Z" fill="#AA5323"/>
<path d="M34.6625 14.5995C34.6625 14.5995 34.5875 14.457 34.715 14.352C34.835 14.2545 35.06 13.992 35.09 13.827C35.1275 13.6545 35.0975 13.6845 35.45 13.542C36.4649 13.1156 37.4265 12.5719 38.315 11.922C38.45 11.8095 38.795 11.577 38.9375 11.457C38.9375 11.457 38.9975 11.6445 38.8475 11.772C38.3325 12.1759 37.794 12.549 37.235 12.8895C36.9854 13.0095 36.7448 13.1474 36.515 13.302C36.3725 13.422 36.395 13.452 35.75 13.7745C35.1125 14.082 35.075 14.1195 35.0975 14.142C35.12 14.172 35.4125 14.0445 35.5475 13.962C35.6825 13.887 36.2075 13.6395 36.3725 13.512C36.5396 13.3762 36.7149 13.251 36.8975 13.137C37.3574 12.8732 37.8077 12.5931 38.2475 12.297C38.51 12.0945 38.585 12.0345 38.645 12.072C38.6975 12.102 38.795 12.102 38.675 12.222C38.555 12.342 38.1725 12.672 38.0225 12.7695C37.8725 12.867 37.415 13.1445 37.2875 13.2045C37.16 13.2795 37.1075 13.392 37.0325 13.4445C36.965 13.5045 36.755 13.647 36.5075 13.707C36.26 13.767 36.2075 13.9545 36.035 14.067C35.8625 14.172 34.685 14.817 34.6475 14.8395C34.6475 14.8395 34.715 14.7645 34.6625 14.5995Z" fill="#AA5323"/>
<path d="M33.4247 14.2242C33.4247 14.2242 33.0647 14.4192 33.1922 14.5392C33.3197 14.6517 33.5072 14.6142 33.5972 14.5842L33.8372 14.5092C33.8672 14.5092 34.1747 14.4117 34.2572 14.2692C34.3322 14.1192 34.5422 13.9542 34.7072 13.8342C34.8722 13.7217 34.9322 13.5942 34.9097 13.5117L33.4247 14.2242ZM31.2947 15.8742C31.2947 15.8742 31.5497 15.7242 31.8947 15.8217C31.8947 15.8217 31.8797 15.7392 31.8197 15.6942C31.8197 15.6942 32.2472 15.5817 32.3372 15.3942C32.4272 15.2067 32.4497 15.2442 32.5247 15.1992C32.6147 15.1392 33.1772 14.6892 33.1097 14.5917C33.0422 14.4942 33.0347 14.3592 32.9822 14.3142C32.9822 14.3142 32.8697 14.4717 32.3072 14.7417C31.7672 15.0117 31.1522 15.2067 30.7022 15.8067C30.2597 16.4067 30.3047 16.7517 30.8522 16.9092C30.8522 16.9092 31.2272 16.6692 32.1722 16.7517C33.1022 16.8342 33.4172 17.1867 33.4772 17.2467C33.5372 17.3142 33.7247 17.5467 33.5447 17.9292C33.5447 17.9292 33.7322 18.0117 33.7397 17.8317C33.7622 17.6592 33.7697 17.6967 33.8147 17.7192C33.8597 17.7492 33.9122 17.7567 33.8897 17.6142C33.8711 17.424 33.8123 17.24 33.7172 17.0742C33.6347 16.9617 33.7322 17.0142 33.7847 17.0292C33.8372 17.0517 34.0322 17.2167 33.9197 16.9167C33.8072 16.6317 33.7697 16.7667 33.7697 16.7817C33.7697 16.8042 33.7397 16.8717 33.4847 16.6767C33.2869 16.5269 33.0632 16.415 32.8247 16.3467C32.6522 16.3017 32.7722 16.3017 32.8772 16.2717C32.9822 16.2267 33.1097 16.2117 33.1622 16.0917C33.1622 16.0917 33.0572 16.1142 32.8772 16.0467C32.7316 16.0039 32.578 15.9952 32.4285 16.0212C32.2789 16.0472 32.1373 16.1073 32.0147 16.1967C32.0147 16.1967 32.1047 15.8592 31.8272 15.8742C31.5572 15.8967 31.3622 15.8892 31.0772 16.1142C31.0772 16.1142 31.0547 15.7692 31.3322 15.5892C31.6097 15.4017 31.5722 15.5142 31.7222 15.4692C31.8722 15.4242 31.8947 15.2667 31.8272 15.2142C31.8272 15.2142 32.1872 15.2817 32.7872 14.7792C32.7872 14.7792 32.4647 15.2067 32.0747 15.2892C32.0747 15.2892 32.0072 15.5142 31.6472 15.5667C31.2872 15.6192 31.3022 15.8217 31.3022 15.8742H31.2947Z" fill="#7B3C20"/>
<path d="M30.2748 17.9523C30.2748 17.9523 30.4398 16.8948 31.4373 16.8198C32.2923 16.7448 32.5698 16.8573 32.7423 16.9173C32.9148 16.9773 33.3423 17.0973 33.1773 17.2323C33.0123 17.3673 32.9148 17.3448 32.9148 17.3448C32.9148 17.3448 33.1023 17.1273 32.9298 17.0973C32.7573 17.0598 32.7498 17.1648 32.7273 17.2473C32.6973 17.3448 32.6898 17.4423 32.6073 17.5173C32.6073 17.5173 32.5173 17.4123 32.3898 17.5023C32.2623 17.5923 32.3748 17.5923 32.4273 17.5773C32.4723 17.5623 32.5398 17.5398 32.5248 17.6148C32.5173 17.6898 32.4498 17.8248 32.2398 17.9298C32.0373 18.0348 32.0448 18.0273 31.8048 18.0723C31.5573 18.1098 31.3323 18.2073 31.0173 18.4698C30.7023 18.7398 30.3648 18.6498 30.2973 18.3573C30.2373 18.1023 30.2673 17.9523 30.2673 17.9523H30.2748Z" fill="#5A3719"/>
<path d="M31.4004 17.9145C31.4004 17.9145 31.4904 17.712 31.3254 17.6145C31.3254 17.6145 30.8079 17.7045 30.6504 17.547C30.6504 17.547 31.2129 17.517 31.5654 17.3745C31.9104 17.247 31.8129 17.1495 31.6929 17.1195C31.5729 17.097 31.3479 17.157 31.3254 17.2695C31.3254 17.2695 31.2504 17.1495 31.3404 17.0745C31.3895 17.036 31.4475 17.0103 31.509 16.9998C31.5706 16.9893 31.6338 16.9944 31.6929 17.0145C31.8204 17.0445 31.9254 17.1045 32.3379 16.8945C32.3379 16.8945 32.5704 16.947 32.5854 17.1045C32.5854 17.2695 32.5629 17.3295 32.5404 17.352C32.5254 17.382 32.4954 17.427 32.4429 17.427C32.3979 17.412 32.3304 17.4045 32.2704 17.517C32.2304 17.6248 32.1632 17.7204 32.0754 17.7945C32.0754 17.7945 32.1879 17.4495 31.8879 17.367C31.8879 17.367 31.6404 17.517 31.4529 17.5245C31.4529 17.5245 31.6929 17.7495 31.3929 17.9145H31.4004Z" fill="black"/>
<path d="M31.9468 17.2854C31.9468 17.2854 31.8268 17.1654 31.9768 17.1429C32.1268 17.1354 32.3218 17.2479 32.2918 17.3454C32.2468 17.4354 32.0668 17.4279 31.9468 17.2854Z" fill="#5A3719"/>
<path d="M32.2019 17.1348C32.2019 17.1348 32.3369 17.1723 32.3669 17.2698C32.4044 17.3598 32.4869 17.2248 32.4869 17.1873C32.4794 17.1423 32.3969 16.9623 32.2619 17.0448C32.1119 17.1273 32.1869 17.1273 32.2019 17.1348Z" fill="#5A3719"/>
<path d="M31.8416 18.9493C31.8416 18.9493 32.1191 18.8143 32.3591 18.8368C32.3591 18.8368 32.2616 18.5068 32.4266 18.5593C32.5841 18.6193 32.5391 18.5893 32.5766 18.5893C32.5766 18.5893 32.5841 18.3718 32.5391 18.2893C32.5391 18.2893 32.7116 18.3268 32.8841 18.3268C32.8841 18.3268 32.7191 18.0193 32.8991 17.8018C32.9318 17.8633 32.9765 17.9176 33.0306 17.9614C33.0848 18.0052 33.1472 18.0377 33.2141 18.0568V17.8843C33.2141 17.8843 33.3416 17.8618 33.4391 17.9143C33.5441 17.9743 33.6266 17.3443 33.3266 17.2168C33.3266 17.2168 33.2516 17.3293 32.9741 17.3893C32.6966 17.4493 32.6966 17.5018 32.5841 17.7118C32.4716 17.9218 32.3591 17.9293 32.1191 18.0868C31.8941 18.2368 31.7441 18.5368 31.7441 18.5668C31.7441 18.5668 31.8566 18.7168 31.8416 18.9493Z" fill="#7B3C20"/>
<path d="M29.4498 21.192C29.4498 21.192 29.4273 20.727 29.6598 20.502C29.8923 20.277 30.9948 19.1145 31.1673 18.792C31.1673 18.792 31.3173 18.8895 31.3173 19.077C31.3173 19.077 31.5048 18.7545 31.6548 18.627C31.6548 18.627 31.7823 18.762 31.7673 19.032C31.7673 19.032 32.0298 18.8895 32.4423 18.8895C32.4423 18.8895 32.2923 19.0695 32.2848 19.182C32.2848 19.182 32.8548 19.107 33.1623 19.1595C33.1623 19.1595 32.3673 19.6095 32.5848 19.647C32.8173 19.6845 33.0498 19.647 33.0498 19.647C33.0498 19.647 32.7948 19.8945 32.3898 19.947C32.3898 19.947 32.9073 19.947 33.0048 20.0595C33.0048 20.0595 32.5098 20.1345 32.1048 20.4345C32.1048 20.4345 32.0748 20.4195 32.0748 20.307C32.0748 20.307 32.0523 20.412 31.9398 20.5095C31.8273 20.5995 31.5573 20.8095 31.4523 20.907C31.3473 21.0045 31.1673 21.207 30.9573 21.207C30.9573 21.207 31.0023 21.0495 30.8523 20.997C30.7744 20.9704 30.6905 20.9669 30.6107 20.9869C30.5309 21.0068 30.4585 21.0494 30.4023 21.1095C30.4023 21.1095 29.8773 21.117 29.6973 21.147C29.6973 21.147 29.8173 20.952 29.9223 20.952C30.0423 20.952 30.4923 21.027 30.5298 20.712C30.5748 20.412 30.2448 20.487 30.3648 20.307C30.4923 20.127 30.4623 20.142 30.4698 20.112C30.4698 20.112 30.3648 20.172 30.3048 20.337C30.256 20.5193 30.1445 20.6787 29.9898 20.787C29.8422 20.8821 29.7189 21.0106 29.6298 21.162C29.6298 21.162 29.5323 21.162 29.4498 21.192Z" fill="#F2F2F2"/>
<path d="M29.96 20.9155C29.96 20.9155 29.9825 20.8555 30.1325 20.8255C30.2975 20.803 30.305 20.728 30.2825 20.6905C30.26 20.6605 30.17 20.6605 30.32 20.4805C30.32 20.4805 30.38 20.503 30.41 20.5405C30.455 20.5855 30.6275 20.953 29.96 20.9155Z" fill="#F2F2F2"/>
<path d="M29.593 20.592C29.593 20.892 29.9905 20.7795 29.9905 20.7795C29.8848 20.8575 29.7891 20.9481 29.7055 21.0495C29.7355 20.8995 29.4805 20.862 29.4805 20.862C29.5034 20.7665 29.5413 20.6754 29.593 20.592ZM31.0405 18.9795L31.168 18.792C31.168 18.792 31.318 18.8895 31.318 19.077C31.318 19.077 31.5055 18.7545 31.6555 18.627C31.6555 18.627 31.783 18.762 31.768 19.032C31.768 19.032 32.0305 18.8895 32.443 18.8895C32.443 18.8895 32.293 19.0695 32.2855 19.182C32.2855 19.182 32.8555 19.107 33.163 19.1595C33.163 19.1595 32.368 19.6095 32.5855 19.647C32.818 19.6845 33.0505 19.647 33.0505 19.647C33.0505 19.647 32.7955 19.8945 32.3905 19.947C32.3905 19.947 32.908 19.947 33.0055 20.0595C33.0055 20.0595 32.8555 20.082 32.6605 20.1495C32.6605 20.1495 32.518 20.0145 32.0905 20.037C32.0905 20.037 32.4205 19.842 32.6905 19.782C32.6905 19.782 32.5705 19.632 32.3905 19.7745C32.3905 19.7745 32.023 19.527 32.3305 19.3095C32.3305 19.3095 32.1205 19.272 31.978 19.3695C31.978 19.3695 31.978 19.197 32.1355 19.122C32.1355 19.122 31.7305 19.047 31.633 19.347C31.633 19.347 31.558 19.2345 31.5955 19.092C31.5955 19.092 31.348 19.2345 31.2355 19.392C31.2355 19.392 31.198 19.092 31.0405 18.9795ZM30.2605 20.8995C30.193 20.9145 30.088 20.922 29.9605 20.9145C29.9605 20.9145 29.9755 20.877 30.058 20.8395C30.058 20.8395 30.088 20.8995 30.2605 20.8995Z" fill="#999999"/>
<path d="M30.9941 19.753C30.9941 19.753 31.1816 19.903 31.2416 19.978C31.2416 19.978 31.4141 19.873 31.4666 19.7755C31.4666 19.7755 31.6091 19.858 31.6466 19.9855C31.6466 19.9855 31.7441 19.9255 31.7591 19.8355C31.7591 19.8355 31.9841 19.8805 32.0741 19.9555C32.0741 19.9555 32.1041 19.7305 32.0741 19.5955C32.0741 19.5955 32.2316 19.6105 32.3291 19.648C32.3291 19.648 32.2391 19.498 32.7041 19.3105C32.7041 19.3105 32.3516 19.393 32.2166 19.5355C32.2166 19.5355 32.0666 19.5505 31.9991 19.5055V19.843C31.9991 19.843 31.9091 19.798 31.7366 19.7605C31.7366 19.7605 31.6916 19.8355 31.6616 19.8505C31.6616 19.8505 31.5491 19.7605 31.5041 19.648C31.5041 19.648 31.3316 19.8055 31.2791 19.873C31.2791 19.873 31.1066 19.753 30.9941 19.753Z" fill="black"/>
<path d="M29.9375 22.0482C29.9375 22.0482 30.0125 22.0782 30.185 21.9432C30.3575 21.8082 30.8375 21.5007 30.875 21.2532C30.9275 21.0057 30.725 20.9982 30.575 21.0657C30.41 21.1407 30.4775 21.2682 30.485 21.3207C30.485 21.3657 30.5 21.5382 30.2375 21.7707L29.9375 22.0482Z" fill="#FFC221"/>
<path d="M29.8927 22.1226C29.8927 22.1226 29.5027 21.9576 29.8477 21.7851C30.1927 21.6126 30.3502 21.5676 30.3877 21.4176C30.4327 21.2751 30.4027 21.3051 30.2752 21.3651C30.1477 21.4176 29.6602 21.6501 29.5852 21.4401C29.5852 21.4401 29.7877 21.5151 30.0352 21.3951C30.2902 21.2676 30.5002 21.2376 30.3352 21.1851C30.0599 21.1564 29.7818 21.1691 29.5102 21.2226C29.4052 21.2526 29.4352 21.2451 29.4127 21.3426C29.3977 21.4401 29.2927 21.6426 29.2477 21.6951C29.2102 21.7551 29.1127 21.9951 29.2927 22.1076C29.384 22.1586 29.4863 22.1866 29.5908 22.1892C29.6954 22.1918 29.7989 22.169 29.8927 22.1226Z" fill="#FFC221"/>
<path d="M29.7424 21.2754C29.7424 21.2754 29.6449 21.2904 29.6674 21.3279C29.6824 21.3654 29.7049 21.3579 29.7424 21.3579C29.7649 21.3579 29.8174 21.3429 29.8249 21.3204C29.8249 21.2979 29.7649 21.2679 29.7424 21.2829V21.2754Z" fill="black"/>
<path d="M29.8628 22.0334C29.8628 22.0334 29.6828 21.9509 29.8928 21.8384C30.0953 21.7259 30.3128 21.6134 30.3428 21.5684C30.3428 21.5684 30.2453 21.7109 29.8628 22.0334Z" fill="#F2F2F2"/>
</g>
</g>
<rect x="1.4" y="1.4" width="37.2" height="37.2" rx="18.6" stroke="#006A4E" stroke-opacity="0.12" stroke-width="1.2"/>
<defs>
<clipPath id="clip0_398_9807">
<rect x="2" y="2" width="36" height="36" rx="18" fill="white"/>
</clipPath>
<clipPath id="clip1_398_9807">
<rect width="48" height="36" fill="white" transform="translate(-4 2)"/>
</clipPath>
</defs>
</svg>
