<svg width="40" height="40" viewBox="0 0 40 40" fill="none" xmlns="http://www.w3.org/2000/svg">
<g clip-path="url(#clip0_398_9889)">
<g clip-path="url(#clip1_398_9889)">
<path d="M-4 2H44V38H-4V2Z" fill="#D0103A"/>
<path d="M-4 2H28.64V38H-4V2Z" fill="#FEDF00"/>
<path d="M-4 2H11.36V38H-4V2Z" fill="#0018A8"/>
<path d="M18.5299 12.2461C19.1074 12.2461 19.3474 12.7411 19.9249 12.7411C20.2774 12.7411 20.4874 12.6286 20.8024 12.4486C21.0199 12.3286 21.1549 12.2611 21.4024 12.2611C21.6574 12.2611 21.8149 12.3361 21.9499 12.5611C22.0249 12.6811 22.0849 12.9286 22.0474 13.0636C22.0028 13.2779 21.9349 13.4866 21.8449 13.6861C21.7924 13.8061 21.7474 13.8736 21.7474 14.0011C21.7474 14.3086 22.1674 14.4136 22.4524 14.4211C22.5124 14.4211 23.0299 14.4211 23.3524 14.1061C23.1799 14.0986 22.9849 13.9561 22.9849 13.7836C22.9849 13.5886 23.1199 13.4611 23.3074 13.4011C23.3449 13.3936 23.4049 13.4236 23.4349 13.4011C23.4874 13.3786 23.4649 13.3261 23.5099 13.2961C23.5999 13.2211 23.6599 13.1761 23.7799 13.1761C23.8549 13.1761 23.8999 13.1836 23.9674 13.2286C23.9974 13.2586 24.0124 13.2886 24.0424 13.2886C24.1324 13.2886 24.1774 13.2286 24.2674 13.2286C24.3277 13.2295 24.3869 13.2449 24.4399 13.2736C24.4849 13.2961 24.4849 13.3861 24.5449 13.3861C24.5749 13.3861 24.7249 13.3186 24.8074 13.3186C24.9724 13.3186 25.0624 13.3786 25.1674 13.5061C25.1974 13.5436 25.2124 13.6111 25.2424 13.6111C25.316 13.6173 25.387 13.641 25.4496 13.6801C25.5122 13.7192 25.5646 13.7727 25.6024 13.8361C25.6249 13.8661 25.6549 13.9411 25.6849 13.9486C25.7299 13.9711 25.7599 13.9636 25.8124 14.0011C25.8738 14.0397 25.925 14.0926 25.9616 14.1553C25.9982 14.218 26.019 14.2886 26.0224 14.3611C26.0224 14.4136 25.9999 14.4811 25.9849 14.5261C25.8499 15.0136 25.5124 15.1711 25.1749 15.5986C25.0249 15.7786 24.9124 15.9211 24.9124 16.1536C24.9124 16.2061 24.9874 16.3111 25.0099 16.3561C24.9949 16.2511 25.0474 16.1161 25.1599 16.1086C25.2345 16.1082 25.3066 16.1357 25.3621 16.1856C25.4176 16.2355 25.4524 16.3043 25.4599 16.3786C25.4617 16.4247 25.454 16.4706 25.4374 16.5136C25.5283 16.4567 25.6308 16.4208 25.7374 16.4086H25.8799C26.1274 16.4086 26.4049 16.5511 26.5774 16.6936C26.7579 16.8486 26.9009 17.0425 26.9958 17.2608C27.0906 17.479 27.1347 17.7159 27.1249 17.9536C27.0649 18.3436 27.1024 19.0636 26.0899 19.3486C26.2774 19.4236 26.4049 19.5736 26.4049 19.7386C26.4069 19.7835 26.3999 19.8284 26.3843 19.8706C26.3687 19.9128 26.3449 19.9515 26.3141 19.9843C26.2834 20.0172 26.2464 20.0435 26.2053 20.0619C26.1642 20.0802 26.1199 20.0901 26.0749 20.0911C26.0261 20.0941 25.9772 20.0863 25.9318 20.0681C25.8864 20.05 25.8456 20.0219 25.8124 19.9861C25.6024 20.1961 25.5649 20.4136 25.5649 20.7136C25.5649 20.8936 25.5949 20.9986 25.6699 21.1636C25.7449 21.3286 25.8049 21.4261 25.9474 21.5461C26.0224 21.4336 26.1049 21.3511 26.2474 21.3511C26.3749 21.3511 26.4874 21.3961 26.5399 21.5161C26.5549 21.5536 26.5399 21.5836 26.5624 21.6211C26.5849 21.6661 26.6224 21.6736 26.6449 21.7186C26.6824 21.7936 26.6449 21.8536 26.6824 21.9211C26.7049 21.9736 26.7499 21.9811 26.7724 22.0261C26.8024 22.1011 26.8099 22.1461 26.8099 22.2286C26.8099 22.4536 26.6074 22.6186 26.3824 22.6186C26.3074 22.6186 26.2774 22.5886 26.2099 22.5961C26.3374 22.7236 26.4349 22.7836 26.5324 22.9336C26.6855 23.1616 26.7641 23.4315 26.7574 23.7061C26.7634 23.9998 26.6909 24.2898 26.5474 24.5461C26.4355 24.8035 26.2536 25.0244 26.0224 25.1836C25.6687 25.4411 25.2562 25.6061 24.8224 25.6636C24.5504 25.7191 24.2746 25.7542 23.9974 25.7686L22.9399 25.8286C22.3999 25.8586 22.0249 25.9411 21.6424 26.3236C21.8224 26.4511 21.9424 26.5861 21.9424 26.8036C21.9424 27.0286 21.8074 27.2011 21.5899 27.2686C21.5374 27.2836 21.4999 27.2686 21.4474 27.2986C21.3949 27.3286 21.3949 27.3961 21.3424 27.4261C21.258 27.4813 21.158 27.5077 21.0574 27.5011C20.9685 27.5075 20.8793 27.4939 20.7962 27.4615C20.7132 27.4291 20.6385 27.3785 20.5774 27.3136C20.4124 27.4486 20.3524 27.5686 20.1649 27.6811C20.1049 27.7111 20.0749 27.7561 20.0074 27.7561C19.8949 27.7561 19.8424 27.6811 19.7524 27.6211C19.6299 27.5358 19.519 27.435 19.4224 27.3211C19.2499 27.4186 19.1524 27.5011 18.9499 27.5011C18.8446 27.5068 18.7401 27.4806 18.6499 27.4261C18.6049 27.3886 18.5899 27.3361 18.5374 27.3061C18.4849 27.2686 18.4399 27.2836 18.3799 27.2536C18.1549 27.1561 18.0049 26.9911 18.0049 26.7436C18.0049 26.5261 18.1399 26.3911 18.3349 26.2936C17.9599 25.9186 17.5849 25.8586 17.0599 25.8286L16.0099 25.7686C15.6799 25.7461 15.4999 25.7161 15.1849 25.6636C14.9374 25.6261 14.7949 25.6111 14.5699 25.5061C13.8049 25.1461 13.3099 24.6586 13.2199 23.8186C13.2049 23.7436 13.2049 23.7061 13.2049 23.6311C13.2049 23.1961 13.3774 22.9261 13.6849 22.6186C13.6099 22.5961 13.5574 22.6186 13.4749 22.5961C13.2874 22.5211 13.1449 22.3936 13.1449 22.1836C13.1449 22.1086 13.1449 22.0561 13.1824 21.9886C13.2124 21.9436 13.2574 21.9361 13.2724 21.8836C13.2874 21.8086 13.2724 21.7636 13.3024 21.6961C13.3249 21.6586 13.3624 21.6511 13.3774 21.6061C13.4524 21.4636 13.5274 21.3511 13.6849 21.3511C13.8199 21.3511 13.9099 21.4261 13.9699 21.5386C14.1049 21.4786 14.1349 21.3811 14.2099 21.2611C14.3008 21.1132 14.3573 20.9469 14.3755 20.7743C14.3937 20.6016 14.373 20.4272 14.3149 20.2636C14.2849 20.1511 14.2699 20.0761 14.1799 19.9861C14.1049 20.0611 14.0299 20.0911 13.9249 20.0911C13.7074 20.0911 13.5499 19.9036 13.5499 19.6936C13.5476 19.62 13.568 19.5474 13.6082 19.4857C13.6484 19.424 13.7066 19.3762 13.7749 19.3486C13.6549 19.2436 13.5499 19.2361 13.4224 19.1536C13.2274 19.0336 13.1599 18.8986 13.0324 18.7036C12.9424 18.5836 12.9199 18.4936 12.8824 18.3511C12.8169 18.1635 12.7913 17.9642 12.8074 17.7661C12.8524 17.3911 12.9199 17.1661 13.1524 16.8736C13.2874 16.7011 13.3774 16.5961 13.5874 16.5061C13.7599 16.4311 13.8649 16.3786 14.0524 16.3786L14.2024 16.3861C14.2759 16.3909 14.3475 16.4114 14.4124 16.4461C14.4424 16.4611 14.4949 16.5136 14.4949 16.4761C14.4949 16.4386 14.4724 16.4161 14.4724 16.3786C14.4724 16.2286 14.5849 16.0786 14.7424 16.0786C14.8549 16.0786 14.8999 16.1836 14.9599 16.2811C14.9899 16.2211 15.0124 16.1761 15.0124 16.1086C15.0124 15.8536 14.8699 15.7186 14.7124 15.5161C14.3599 15.0811 13.9249 14.8786 13.9249 14.3161C13.9249 14.1511 13.9999 14.0386 14.1499 13.9486C14.1874 13.9261 14.2474 13.9486 14.2849 13.9261C14.3224 13.9036 14.3149 13.8511 14.3374 13.8211C14.3749 13.7686 14.4124 13.7461 14.4574 13.7011C14.5324 13.6261 14.6074 13.6561 14.6899 13.5886C14.7349 13.5586 14.7499 13.5136 14.7799 13.4836C14.8774 13.3636 14.9674 13.3036 15.1249 13.3036C15.1999 13.3036 15.2449 13.3036 15.3124 13.3336L15.3874 13.3711C15.4099 13.3561 15.4474 13.3111 15.4999 13.2886C15.5494 13.2579 15.6067 13.2423 15.6649 13.2436C15.7474 13.2436 15.7999 13.2886 15.8899 13.2886C15.9124 13.2886 15.9199 13.2586 15.9499 13.2436C16.0249 13.1911 16.0624 13.1686 16.1524 13.1686C16.2424 13.1686 16.2874 13.1911 16.3624 13.2436C16.4374 13.2811 16.4374 13.3411 16.5124 13.3786C16.5499 13.4011 16.5874 13.3936 16.6249 13.4086C16.8199 13.4761 16.9624 13.6036 16.9624 13.8061C16.9624 13.9186 16.9399 13.9936 16.8574 14.0686C16.7899 14.1211 16.7299 14.1136 16.6474 14.1436C16.886 14.3361 17.1892 14.4301 17.4949 14.4061C17.8099 14.4061 18.1924 14.2786 18.1924 13.9636C18.1924 13.8136 18.1174 13.7386 18.0574 13.6036C17.9555 13.4065 17.9015 13.188 17.8999 12.9661C17.8999 12.7561 17.9224 12.6286 18.0424 12.4636C18.1624 12.2911 18.3124 12.2461 18.5299 12.2461Z" fill="#C7B37F"/>
<path d="M16.4307 13.9232C16.4436 13.9657 16.4667 14.0044 16.4981 14.0357C16.5295 14.0671 16.5682 14.0903 16.6107 14.1032C16.6707 14.1257 16.8132 14.1182 16.8957 13.9982C16.9707 13.9082 16.9707 13.7882 16.9407 13.6982C16.9158 13.6316 16.8713 13.5741 16.8132 13.5332L16.4307 13.9232Z" stroke="#703D29" stroke-width="0.0525" stroke-linejoin="round"/>
<path d="M26.0751 19.7073C25.9851 19.4898 25.7526 19.5873 25.7451 19.7073C25.7076 19.9848 25.9476 20.0673 26.1201 20.0223C26.16 20.0116 26.1972 19.9927 26.2295 19.9669C26.2618 19.9411 26.2883 19.9089 26.3076 19.8723C26.3526 19.7973 26.3676 19.6923 26.3376 19.5948C26.3251 19.5515 26.3048 19.5108 26.2776 19.4748C26.2507 19.4393 26.2177 19.4088 26.1801 19.3848C26.1126 19.3398 26.0376 19.3398 25.9251 19.3398C25.5126 19.3398 25.1451 19.8273 25.0251 20.3448C24.9801 20.5098 24.9276 20.8923 25.0026 21.2448C25.0649 21.5642 25.2186 21.8587 25.4451 22.0923C25.6566 22.2914 25.9105 22.4402 26.1876 22.5273C26.2853 22.5555 26.3886 22.5581 26.4876 22.5348C26.7276 22.4823 26.8401 22.2498 26.7126 22.0098C26.6151 21.8223 26.3151 21.7098 26.1726 21.9648C26.1651 21.9873 26.1426 22.0323 26.1426 22.0773C26.1426 22.1448 26.1726 22.2273 26.2176 22.2573C26.3301 22.3248 26.5026 22.3023 26.4951 22.1073" stroke="#703D29" stroke-width="0.0525" stroke-linecap="round"/>
<path d="M24.7859 22.5483C24.9141 22.4017 25.0889 22.3037 25.2809 22.2708C25.5059 22.2408 25.7009 22.3083 25.8959 22.4208C26.1396 22.5324 26.3458 22.7121 26.4896 22.9384C26.6333 23.1647 26.7084 23.4277 26.7059 23.6958C26.7059 23.9658 26.6309 24.2583 26.5559 24.4008C26.4959 24.5283 26.3309 25.0758 25.4084 25.4508C24.8759 25.6758 24.0584 25.7208 23.4809 25.7508C22.7009 25.7733 21.9809 25.8033 21.5684 26.3208" stroke="#703D29" stroke-width="0.06"/>
<path d="M24.9804 23.4271C24.9579 23.3521 24.9804 23.2696 25.0404 23.1796C25.1304 23.0596 25.3179 23.0221 25.4904 23.1046C25.5647 23.1447 25.6288 23.2011 25.6779 23.2696L25.7604 23.3896C25.8129 23.4721 25.8354 23.5396 25.8354 23.5771C26.0229 24.1021 25.7304 24.6646 25.3479 24.8971C25.0479 25.0771 24.6954 25.1521 24.2679 25.1971C24.0804 25.2271 23.9679 25.2196 23.7804 25.2346H23.0604C22.8806 25.2254 22.7003 25.2254 22.5204 25.2346C22.3029 25.2571 22.1454 25.2646 21.9504 25.2946C21.8304 25.3096 21.6954 25.3321 21.5454 25.3696C21.5004 25.3696 21.4554 25.3846 21.4104 25.3996L21.3204 25.4221C21.0504 25.5046 20.7954 25.6021 20.5854 25.7371C20.5254 25.7746 20.4504 25.8121 20.3979 25.8646L20.3004 25.9546C20.1504 26.1046 20.0079 26.2546 19.9704 26.4571V26.5771C19.9704 26.7121 20.0754 26.8996 20.3754 26.9521M20.7879 14.2021C20.8479 14.3071 20.8854 14.3746 20.8479 14.4946C20.8029 14.6221 20.7129 14.7046 20.5779 14.7046C20.2779 14.7046 20.1054 14.3446 20.2404 14.1196C20.4804 13.7221 20.9379 13.9471 21.3654 14.1421C21.3429 14.0446 21.3054 14.0071 21.3129 13.8796C21.3204 13.5646 21.5529 13.4296 21.6504 13.1296C21.7029 12.9571 21.7254 12.8071 21.5979 12.6796C21.4854 12.5821 21.3579 12.5821 21.2154 12.6346C20.9304 12.7471 20.5779 13.0771 19.9704 13.0846C19.3554 13.0771 19.0104 12.7471 18.7179 12.6346C18.5679 12.5821 18.4479 12.5821 18.3354 12.6871C18.2079 12.8071 18.2304 12.9571 18.2829 13.1371C18.3804 13.4221 18.6129 13.5646 18.6204 13.8871C18.6204 14.0071 18.5904 14.0371 18.5679 14.1421C18.9954 13.9471 19.4679 13.6996 19.6929 14.1196C19.8204 14.3596 19.6554 14.6971 19.3554 14.6971C19.2204 14.6971 19.1304 14.6221 19.0854 14.4946C19.0554 14.3821 19.0854 14.2846 19.1454 14.1946" stroke="#703D29" stroke-width="0.0525"/>
<path d="M19.5954 13.9919C19.6571 14.0317 19.7066 14.0878 19.7384 14.154C19.7702 14.2202 19.783 14.2939 19.7754 14.3669C19.7604 14.5544 19.7154 14.5994 19.5654 14.7044M19.7454 14.4194C19.7379 14.5319 19.6929 14.6069 19.5729 14.6519" stroke="#703D29" stroke-width="0.0525" stroke-linecap="round"/>
<path d="M16.7526 13.4961L16.8051 13.5336L16.8651 13.5936L16.9026 13.6686L16.9176 13.7286V13.8711L16.9026 13.9311L16.8651 13.9761L16.8201 14.0211L16.7526 14.0586L16.6776 14.0736L16.6026 14.0886L16.5276 14.0511L16.4601 14.0061L16.4226 13.9461L16.3926 13.8711V13.8411L16.7526 13.4961Z" fill="#C7B37F"/>
<path d="M16.6407 13.7886C16.6182 13.6611 16.4757 13.6386 16.4157 13.7136C16.3332 13.8261 16.3932 14.0136 16.5657 14.0661C16.6194 14.0769 16.675 14.0729 16.7266 14.0544C16.7782 14.0359 16.8237 14.0036 16.8582 13.9611C16.9332 13.8636 16.9257 13.7511 16.8957 13.6611C16.8717 13.594 16.827 13.5362 16.7682 13.4961C16.5657 13.3461 16.2357 13.3761 16.1232 13.6461C15.9882 13.9761 16.2882 14.2311 16.5732 14.4186C16.9182 14.6586 17.3232 14.7036 17.6232 14.7036C18.3132 14.6961 18.8382 14.3661 19.1757 14.1786C19.2507 14.1336 19.3332 14.1411 19.3782 14.1936C19.4006 14.2239 19.4108 14.2617 19.4066 14.2992C19.4024 14.3368 19.3842 14.3713 19.3557 14.3961" stroke="#703D29" stroke-width="0.0525" stroke-linecap="round"/>
<path d="M14.6005 23.0898L14.4505 23.1423L14.3005 23.2623L14.2255 23.3598L14.143 23.5098L14.1055 23.6223L14.0755 23.7573L14.0605 23.8623M15.4855 23.1048L15.478 23.2398L15.4555 23.3298L15.3805 23.4948L15.283 23.6298L15.1705 23.7198L15.088 23.7573L14.968 23.7873" stroke="#703D29" stroke-width="0.0525"/>
<path d="M19.9786 26.6814C19.9561 26.8089 19.8361 26.9514 19.5811 26.9964L19.5361 27.0114" stroke="#703D29" stroke-width="0.06"/>
<path d="M26.3148 22.7148C26.4506 22.8457 26.558 23.0031 26.6303 23.1773C26.7025 23.3515 26.7381 23.5388 26.7348 23.7273C26.7348 23.9973 26.6598 24.2898 26.5848 24.4323C26.5248 24.5598 26.3598 25.1073 25.4373 25.4823C24.8164 25.6799 24.1689 25.781 23.5173 25.7823C22.7448 25.8048 22.0323 25.8348 21.6123 26.3298" stroke="#703D29" stroke-width="0.0675"/>
<path d="M25.0625 23.2157C25.1225 23.1407 25.325 23.0357 25.4975 23.1332C25.5666 23.168 25.6259 23.2196 25.67 23.2832" stroke="#703D29" stroke-width="0.045"/>
<path d="M26.1211 22.534L26.2261 22.5715C26.324 22.6007 26.4282 22.6007 26.5261 22.5715C26.7361 22.5115 26.8711 22.3165 26.7661 22.054C26.734 21.9917 26.6877 21.9378 26.6311 21.8965" stroke="#703D29" stroke-width="0.0675"/>
<path d="M14.0228 16.9846C13.8728 17.0671 13.7753 17.0896 13.6628 17.2171C13.5759 17.3779 13.5104 17.5494 13.4678 17.7271M16.9178 13.8496C16.9178 13.9846 16.8278 14.0596 16.6928 14.0896" stroke="#703D29" stroke-width="0.0525" stroke-linecap="round"/>
<path d="M25.7832 16.3984C25.973 16.4023 26.16 16.444 26.3335 16.5211C26.5069 16.5982 26.6631 16.7092 26.7931 16.8475C26.923 16.9858 27.024 17.1487 27.0902 17.3266C27.1563 17.5045 27.1862 17.6938 27.1782 17.8834C27.1782 19.0834 26.4357 19.2709 26.1432 19.3534" stroke="#703D29" stroke-width="0.045"/>
<path d="M25.8809 16.3992C26.4884 16.3767 27.1184 16.8267 27.1484 17.9517C27.1709 18.8292 26.5484 19.2267 26.2484 19.3017" stroke="#703D29" stroke-width="0.0525"/>
<path d="M25.5355 20.6287L25.543 20.5087L25.588 20.3212L25.6405 20.1712L25.708 20.0512L25.783 19.9537M26.368 19.6987V19.8112L26.3305 19.8862L26.278 19.9687L26.218 20.0137L26.128 20.0512H26.0455L25.9855 20.0437M24.913 16.0837L24.9355 15.9562L24.9955 15.8362L25.0705 15.7237L25.1905 15.5587L25.2955 15.4537L25.4455 15.2887L25.5955 15.1462L25.678 15.0487L25.7905 14.9062L25.8955 14.7562L25.9555 14.6287L25.993 14.4637L26.0005 14.2612L25.9855 14.2012M25.063 23.8162L25.183 23.7862L25.273 23.7412L25.3255 23.6887L25.363 23.6287L25.3855 23.5387V23.4712M13.5205 22.5637H13.723L13.843 22.5187M14.218 19.7812L14.203 19.8862L14.173 19.9312L14.143 19.9762L14.0905 20.0137L14.038 20.0362L13.963 20.0437H13.918M14.6605 18.8812L14.638 19.0387L14.6005 19.1137L14.5405 19.2037L14.4505 19.2712L14.3605 19.3162L14.188 19.3537M15.3355 16.3762L15.298 16.4737L15.2605 16.5487L15.2005 16.6237L15.1255 16.6987L15.0355 16.7362L14.953 16.7587L14.908 16.7512M14.9305 16.2862V16.3612" stroke="#703D29" stroke-width="0.045"/>
<path d="M15.0725 18.7988C15.0269 18.8432 14.9735 18.8788 14.915 18.9038M26.2025 22.2638L26.24 22.2788C26.345 22.3388 26.555 22.2638 26.495 22.0988" stroke="#703D29" stroke-width="0.045" stroke-linecap="round"/>
<path d="M25.835 19.9681C25.91 20.0656 26.0525 20.0956 26.165 20.0656C26.2049 20.0549 26.2422 20.036 26.2744 20.0102C26.3067 19.9844 26.3333 19.9522 26.3525 19.9156C26.3975 19.8406 26.4125 19.7356 26.3825 19.6381C26.3678 19.5942 26.3449 19.5535 26.315 19.5181C26.2882 19.4761 26.2554 19.4382 26.2175 19.4056L26.1875 19.3906M26.6675 21.9406C26.6716 21.9234 26.6741 21.9058 26.675 21.8881C26.6755 21.8459 26.6671 21.804 26.6503 21.7652C26.6335 21.7264 26.6087 21.6916 26.5775 21.6631L26.5175 21.6031M26.5475 21.6406C26.5475 21.5056 26.435 21.4006 26.2925 21.3781M25.9775 21.5881L25.88 21.5131C25.6746 21.2962 25.5593 21.0093 25.5575 20.7106C25.5575 20.3956 25.6775 20.0806 25.8275 19.9606M21.59 26.2981L21.725 26.1781L21.815 26.1031L21.9875 25.9981L22.1525 25.9231L22.2725 25.8856L22.4975 25.8406L22.7675 25.7956M20.555 27.2506C20.4138 27.4555 20.2156 27.6145 19.985 27.7081C19.756 27.612 19.5585 27.4535 19.415 27.2506" stroke="#703D29" stroke-width="0.045"/>
<path d="M19.58 26.9434C19.5511 27.0601 19.4945 27.1681 19.415 27.2584" stroke="#703D29" stroke-width="0.045" stroke-linecap="round"/>
<path d="M19.603 26.7871L19.573 26.9521M19.4005 27.2746L19.3255 27.3496L19.198 27.4171L19.048 27.4621M18.628 14.1271C18.6505 14.0671 18.6655 14.0221 18.6655 13.9321C18.658 13.6171 18.4255 13.4746 18.328 13.1821M18.328 13.1821C18.2755 13.0096 18.253 12.8596 18.3805 12.7321C18.4855 12.6271 18.6205 12.6271 18.7555 12.6871C19.0555 12.7996 19.4005 13.1221 20.008 13.1371C19.4005 13.1221 19.048 12.7996 18.763 12.6871C18.613 12.6271 18.478 12.6121 18.3655 12.7246C18.238 12.8446 18.2755 13.0096 18.328 13.1821ZM18.328 13.1821C18.4255 13.4746 18.643 13.6171 18.6505 13.9321C18.6505 14.0221 18.628 14.0671 18.613 14.1271M20.0005 13.0996C20.6005 13.0696 21.118 12.6646 21.283 12.6271C21.433 12.5971 21.508 12.6121 21.6205 12.7096C21.5155 12.6121 21.3955 12.6196 21.2455 12.6721C20.9605 12.7846 20.6155 13.1071 20.0005 13.1221M25.9705 21.5896C25.8262 21.4813 25.709 21.3409 25.6283 21.1795C25.5476 21.0181 25.5055 20.8401 25.5055 20.6596C25.5055 20.3521 25.633 20.0296 25.7755 19.9096M20.5255 27.2296C20.428 27.3796 20.203 27.6046 19.9555 27.6946C19.7255 27.5964 19.5279 27.4352 19.3855 27.2296" stroke="#703D29" stroke-width="0.045"/>
<path d="M19.0029 14.2774L19.1754 14.1799C19.2504 14.1349 19.3479 14.1424 19.3929 14.1949C19.4379 14.2474 19.4454 14.3449 19.3779 14.4049" stroke="#703D29" stroke-width="0.045" stroke-linecap="round"/>
<path d="M18.1028 14.6967C18.5153 14.6067 18.8528 14.4267 19.1078 14.2842M21.5228 26.5992C21.5603 26.6217 21.5828 26.6742 21.5828 26.6742C21.5903 26.6892 21.6053 26.7117 21.6053 26.7342C21.6278 26.8467 21.5528 26.9142 21.4553 26.9292C21.3278 26.9442 21.2303 26.8692 21.1928 26.7792M18.0803 14.6742C18.4928 14.5917 18.8303 14.4042 19.0853 14.2617M26.4053 22.2792C26.3303 22.3092 26.2853 22.3017 26.1803 22.2642L26.0453 22.1892C25.7717 22.0333 25.552 21.7979 25.4153 21.5142C25.3579 21.4053 25.3151 21.2893 25.2878 21.1692C25.2638 21.0889 25.2512 21.0056 25.2503 20.9217C25.2421 20.5114 25.3657 20.1092 25.6028 19.7742C25.6853 19.6542 25.7603 19.5867 25.9178 19.5792M15.1403 16.6317C15.2047 16.6826 15.2565 16.7476 15.2916 16.8217C15.3268 16.8959 15.3443 16.9772 15.3428 17.0592C15.3428 17.2917 15.1478 17.6742 14.6678 17.8092C14.5086 17.8526 14.3386 17.8311 14.1953 17.7492" stroke="#703D29" stroke-width="0.045"/>
<path d="M15.2232 17.4199C15.3057 17.4799 15.3432 17.5474 15.3432 17.6674C15.3432 17.7424 15.2907 17.8474 15.2007 17.9449C15.1163 18.0366 15.0145 18.1103 14.9011 18.1619C14.7877 18.2134 14.6652 18.2417 14.5407 18.2449C14.3907 18.2449 14.2407 18.2149 14.0907 18.1174C13.9478 18.0234 13.8459 17.8787 13.8057 17.7124" stroke="#703D29" stroke-width="0.045"/>
<path d="M15.2148 17.921C15.3123 18.011 15.3423 18.1235 15.3423 18.266C15.3423 18.4685 15.2598 18.626 15.0648 18.791C15.0198 18.836 14.9748 18.866 14.9148 18.9035M24.6273 17.246V17.5085M24.6048 17.1785V17.5535M24.6273 16.3685V16.8635M24.6048 16.2635V16.931M24.4623 23.081C24.3847 23.2396 24.2778 23.3821 24.1473 23.501C24.0222 23.6291 23.8748 23.7333 23.7123 23.8085C23.556 23.8866 23.3893 23.9422 23.2173 23.9735C23.0501 24.0136 22.8792 24.0363 22.7073 24.041C22.5198 24.041 22.4148 24.041 22.2273 24.026C22.0323 24.011 21.9273 23.981 21.7248 23.966C21.5598 23.951 21.4698 23.936 21.3048 23.9435C21.0236 23.9333 20.7431 23.9792 20.4798 24.0785C20.2848 24.1535 20.0523 24.3035 20.0073 24.3635C19.8647 24.2419 19.7023 24.1455 19.5273 24.0785C19.4045 24.0282 19.2761 23.993 19.1448 23.9735C18.9723 23.9435 18.8823 23.9435 18.7098 23.9435C18.5448 23.9435 18.4548 23.951 18.2898 23.966C18.0948 23.9885 17.9898 24.011 17.7873 24.026C17.5998 24.041 17.4948 24.0485 17.3073 24.041C16.9602 24.0373 16.6178 23.9606 16.3023 23.816C16.1191 23.7304 15.9557 23.6079 15.8223 23.456M18.9798 27.461L19.1148 27.446M21.3873 27.266L21.5223 27.2585L21.6498 27.206L21.7398 27.146L21.8673 26.996L21.8898 26.951L21.9123 26.8235V26.7635M25.4373 16.511C25.4898 16.316 25.4223 16.106 25.2273 16.1135M15.3273 19.601C15.2862 19.7468 15.1927 19.8723 15.0648 19.9535M15.3348 16.451C15.3138 16.5174 15.2789 16.5785 15.2323 16.6302C15.1857 16.682 15.1286 16.7232 15.0648 16.751C14.9223 16.811 14.7648 16.751 14.6748 16.691" stroke="#703D29" stroke-width="0.045"/>
<path d="M14.2861 17.179C14.3986 17.239 14.5186 17.149 14.4961 16.999C14.4856 16.9556 14.462 16.9164 14.4284 16.8869C14.3949 16.8574 14.3531 16.8389 14.3086 16.834" stroke="#703D29" stroke-width="0.045" stroke-linecap="round"/>
<path d="M14.7653 23.4931C14.7878 23.5156 14.7953 23.5456 14.8253 23.5531C14.8778 23.5681 14.9153 23.5831 14.9678 23.5156C15.0278 23.4331 14.9903 23.3056 14.9303 23.2231C14.8751 23.1662 14.8032 23.1283 14.725 23.1148C14.6469 23.1014 14.5664 23.113 14.4953 23.1481C14.4353 23.1856 14.3678 23.2231 14.3003 23.3131L14.2178 23.4331C14.1653 23.5156 14.1428 23.5831 14.1353 23.6131C13.9853 24.0556 14.1653 24.5131 14.4428 24.7906" stroke="#703D29" stroke-width="0.045"/>
<path d="M21.5155 26.584L21.568 26.644L21.583 26.7115C21.6055 26.824 21.5305 26.8915 21.433 26.9065C21.313 26.9215 21.223 26.8465 21.1855 26.7565" stroke="#703D29" stroke-width="0.045" stroke-linecap="round"/>
<path d="M25.2048 13.6094C25.3323 13.6284 25.4492 13.6912 25.5354 13.787C25.6216 13.8828 25.6718 14.0056 25.6773 14.1344C25.6773 14.4644 25.5648 14.5844 25.3923 14.8244C25.2048 15.0794 24.5898 15.5444 24.5898 16.0769C24.5898 16.3994 24.6798 16.6019 24.9123 16.7069C25.0623 16.7819 25.2348 16.7069 25.3173 16.6319C25.5123 16.4519 25.4298 16.1444 25.2273 16.1069C24.9873 16.0619 24.9348 16.4519 25.1748 16.4294M26.5173 21.6044C26.5052 21.5415 26.4717 21.4847 26.4225 21.4437C26.3733 21.4027 26.3114 21.3799 26.2473 21.3794C26.1737 21.3794 26.1032 21.4086 26.0511 21.4607C25.9991 21.5127 25.9698 21.5833 25.9698 21.6569C25.9698 21.7319 25.9998 21.8069 26.0448 21.8519" stroke="#703D29" stroke-width="0.045"/>
<path d="M24.7926 16.6309C24.7282 16.6817 24.6764 16.7467 24.6413 16.8209C24.6061 16.895 24.5886 16.9763 24.5901 17.0584C24.5901 17.2909 24.7851 17.6734 25.2651 17.8084C25.4451 17.8609 25.6251 17.8534 25.7301 17.7859M14.0301 17.0134C13.8849 17.0596 13.7586 17.1517 13.6701 17.2759C13.4914 17.5591 13.4321 17.9015 13.5051 18.2284C13.535 18.3782 13.5936 18.5208 13.6776 18.6484C13.6996 18.6807 13.7247 18.7109 13.7526 18.7384L13.8426 18.8134M18.6426 25.7134C19.0101 25.8709 19.2726 25.9909 19.4976 26.3509C19.5585 26.4637 19.5895 26.5902 19.5876 26.7184C19.5876 26.9209 19.5126 27.1459 19.3401 27.2884C19.2723 27.3484 19.1922 27.3929 19.1054 27.4189C19.0186 27.4448 18.9272 27.4514 18.8376 27.4384C18.6951 27.4234 18.5601 27.3184 18.5376 27.2434M15.0501 18.8059C15.2526 18.9709 15.3426 19.1209 15.3426 19.3684C15.3471 19.4803 15.3217 19.5915 15.269 19.6904C15.2163 19.7892 15.1381 19.8723 15.0426 19.9309" stroke="#703D29" stroke-width="0.045"/>
<path d="M14.8623 19.7285C15.1623 20.111 15.3348 20.336 15.3423 20.786C15.3498 21.2135 15.2148 21.506 14.9673 21.8135" stroke="#703D29" stroke-width="0.045" stroke-linecap="round"/>
<path d="M20.7363 14.6974C20.7911 14.6565 20.8307 14.5984 20.8488 14.5324C20.8863 14.4199 20.8863 14.3224 20.8338 14.2324C20.9088 14.3374 20.9088 14.4199 20.8863 14.5324C20.8788 14.6074 20.8263 14.6449 20.7663 14.7049M24.6288 21.1624V22.3774L24.6213 22.5649C24.6149 22.6076 24.6074 22.6501 24.5988 22.6924" stroke="#703D29" stroke-width="0.045"/>
<path d="M24.6059 21.0497V22.5422L24.5684 22.7372M24.6059 19.5122V20.6072M24.6284 19.6022V20.4872M24.6284 18.4772V19.1372M24.6059 18.3947V19.2197M24.6284 17.7947V18.0572M24.6059 17.7422V18.1172M24.4709 23.0072L24.4409 23.0597C24.3663 23.2203 24.262 23.3654 24.1334 23.4872C24.0055 23.6134 23.8555 23.7151 23.6909 23.7872C23.5369 23.8647 23.3728 23.9202 23.2034 23.9522C23.0009 23.9972 22.8884 24.0122 22.6859 24.0197C22.4984 24.0197 22.3934 24.0197 22.2134 24.0047C22.0109 23.9897 21.9059 23.9672 21.7034 23.9447C21.5384 23.9297 21.4484 23.9222 21.2834 23.9222C21.1184 23.9222 21.0209 23.9222 20.8559 23.9522C20.7221 23.9711 20.5911 24.0063 20.4659 24.0572C20.2634 24.1397 20.0384 24.2822 19.9859 24.3422C19.9409 24.2822 19.7084 24.1397 19.5134 24.0572C19.3882 24.0063 19.2572 23.9711 19.1234 23.9522C18.9584 23.9222 18.8609 23.9222 18.6884 23.9222C18.5234 23.9222 18.4334 23.9297 18.2684 23.9447C18.0734 23.9672 17.9684 23.9897 17.7659 24.0047C17.5784 24.0197 17.4734 24.0272 17.2934 24.0197C16.9438 24.017 16.5988 23.9404 16.2809 23.7947C16.1183 23.7197 15.9709 23.6155 15.8459 23.4872C15.7776 23.4227 15.7148 23.3524 15.6584 23.2772M15.5084 23.0372C15.5207 23.1401 15.5118 23.2445 15.4821 23.3438C15.4524 23.4432 15.4027 23.5354 15.3359 23.6147C15.2759 23.6822 15.1409 23.8097 14.9609 23.8097C14.6834 23.8097 14.6009 23.6222 14.5859 23.5697" stroke="#703D29" stroke-width="0.045"/>
<path d="M15.1707 22.916C15.2232 22.9685 15.2682 23.0285 15.3132 23.1035C15.3882 23.2385 15.3582 23.4635 15.3057 23.5685C15.2988 23.5789 15.2913 23.589 15.2832 23.5985M13.7607 24.9485C13.9332 25.1285 14.1882 25.3235 14.5782 25.481C15.1107 25.706 15.9357 25.751 16.5057 25.781C17.2557 25.8035 17.9532 25.8335 18.3807 26.306M19.6782 26.006C19.8159 26.1117 19.9201 26.255 19.9782 26.4185M19.4307 27.281C19.4143 27.2996 19.3968 27.3171 19.3782 27.3335C19.3113 27.3925 19.2325 27.4365 19.1471 27.4624C19.0617 27.4882 18.9717 27.4955 18.8832 27.4835C18.7332 27.4685 18.5982 27.3635 18.5607 27.2885M18.1557 27.071L18.1782 27.101C18.278 27.2078 18.4149 27.2723 18.5607 27.281M20.5857 27.281C20.4394 27.4841 20.2394 27.6425 20.0082 27.7385C19.7792 27.6424 19.5817 27.4838 19.4382 27.281L19.4157 27.2435M20.5857 27.2735L20.6382 27.326C20.706 27.3861 20.7861 27.4306 20.8729 27.4565C20.9597 27.4824 21.0511 27.4891 21.1407 27.476C21.2015 27.469 21.26 27.4485 21.3119 27.4161C21.3638 27.3836 21.4078 27.3401 21.4407 27.2885L21.4782 27.236" stroke="#703D29" stroke-width="0.045"/>
<path d="M21.4255 27.2439L21.373 27.3339L21.2905 27.4089L21.163 27.4614H21.043" stroke="#703D29" stroke-width="0.045"/>
<path d="M21.7255 26.3971C21.8026 26.4536 21.8644 26.5283 21.9055 26.6146C21.928 26.6671 21.9355 26.7271 21.943 26.7871C21.946 26.8444 21.9376 26.9018 21.9182 26.9559C21.8989 27.0099 21.8691 27.0596 21.8305 27.1021C21.7787 27.158 21.7161 27.2027 21.6465 27.2337C21.5769 27.2646 21.5017 27.2811 21.4255 27.2821C21.4155 27.2825 21.4055 27.2825 21.3955 27.2821M21.4105 27.2671C21.3375 27.2691 21.2649 27.2555 21.1976 27.227C21.1303 27.1985 21.0699 27.1559 21.0205 27.1021M25.798 22.0096C25.6518 21.8711 25.5301 21.7088 25.438 21.5296C25.3812 21.423 25.3384 21.3096 25.3105 21.1921C25.2865 21.1118 25.2739 21.0285 25.273 20.9446C25.2647 20.5354 25.3854 20.1339 25.618 19.7971C25.6705 19.7371 25.723 19.6621 25.7755 19.6321M25.678 13.9396C25.8655 13.9546 26.038 14.1646 26.038 14.3671C26.038 14.6521 25.9405 14.7796 25.708 15.0646C25.513 15.3046 24.913 15.7396 24.9355 16.1521C24.9355 16.2271 24.973 16.3021 25.018 16.3621M24.778 16.6246C24.8215 16.6681 24.8722 16.7037 24.928 16.7296C24.98 16.7501 25.036 16.7588 25.0918 16.7549C25.1476 16.751 25.2018 16.7347 25.2505 16.7071M23.6755 13.4746C23.7482 13.5223 23.8055 13.59 23.8405 13.6696C23.9755 14.0071 23.6755 14.2621 23.3905 14.4496C23.2028 14.5752 22.9907 14.6595 22.768 14.6971" stroke="#703D29" stroke-width="0.045"/>
<path d="M23.3463 14.12C23.3018 14.1187 23.2581 14.1081 23.218 14.0887C23.1779 14.0693 23.1424 14.0416 23.1138 14.0075C23.0919 13.9859 23.0742 13.9605 23.0613 13.9325M21.9363 14.3C21.9023 14.2803 21.8718 14.2549 21.8463 14.225C21.7713 14.15 21.7338 14.0525 21.7863 13.895C21.8313 13.7525 22.0638 13.355 22.0713 13.0775C22.0863 12.6575 21.9213 12.4025 21.6738 12.3125" stroke="#703D29" stroke-width="0.045"/>
<path d="M22.0477 12.9863L22.0402 13.1363L21.9952 13.3013L21.9202 13.5263L21.8452 13.6688L21.7852 13.8113L21.7552 13.9088L21.7402 13.9838L21.7477 14.0513M24.5977 23.5238L24.6427 23.5838C24.6952 23.6588 24.8827 23.8088 25.0552 23.8088C25.3327 23.8088 25.4002 23.6138 25.4077 23.5688C25.4452 23.3513 25.3702 23.2988 25.2577 23.2313C25.2577 23.2313 25.1977 23.2013 25.1152 23.2163" stroke="#703D29" stroke-width="0.045" stroke-linecap="round"/>
<path d="M13.7757 22.5786C13.6849 22.6039 13.589 22.6039 13.4982 22.5786C13.2807 22.5111 13.1082 22.3086 13.1982 22.0536M14.2032 19.6686C14.2257 19.6911 14.2332 19.7211 14.2332 19.7436C14.2632 20.0286 14.0232 20.1036 13.8582 20.0586C13.7655 20.0289 13.6859 19.9679 13.6332 19.8861C13.601 19.8341 13.583 19.7747 13.5807 19.7136M15.2307 17.9436C15.2757 17.9811 15.3057 18.0186 15.3282 18.0711M15.2457 17.4336C15.2832 17.4636 15.3132 17.5011 15.3282 17.5311" stroke="#703D29" stroke-width="0.045"/>
<path d="M15.3425 17.7862C15.313 17.8526 15.2725 17.9135 15.2225 17.9662C15.1382 18.0579 15.0363 18.1317 14.9229 18.1832C14.8096 18.2347 14.687 18.263 14.5625 18.2662C14.4125 18.2662 14.2625 18.2362 14.1125 18.1387C13.9635 18.0412 13.8565 17.8913 13.8125 17.7188" stroke="#703D29" stroke-width="0.045" stroke-linecap="round"/>
<path d="M15.1553 16.6465C15.2373 16.7136 15.2995 16.8018 15.3353 16.9015" stroke="#703D29" stroke-width="0.045"/>
<path d="M15.3353 17.2383C15.2678 17.4633 15.0728 17.7333 14.6903 17.8308C14.5103 17.8758 14.2703 17.8158 14.1953 17.7558" stroke="#703D29" stroke-width="0.045" stroke-linecap="round"/>
<path d="M14 17.1933C14.0225 17.3883 14.15 17.5383 14.405 17.5383C14.7575 17.5458 14.975 17.0358 14.66 16.6758" stroke="#703D29" stroke-width="0.045"/>
<path d="M13.2051 18.9123C13.2576 18.9798 13.3176 19.0398 13.3851 19.0923C13.5165 19.2048 13.6697 19.289 13.8351 19.3398M14.2251 19.3773C14.5401 19.3398 14.7201 19.0998 14.6751 18.8298C14.6526 18.6198 14.4651 18.4548 14.3301 18.4473" stroke="#703D29" stroke-width="0.045" stroke-linecap="round"/>
<path d="M14.7363 16.1074C14.8788 16.1074 14.9613 16.2274 14.9538 16.3324" stroke="#703D29" stroke-width="0.045"/>
<path d="M14.7051 14.2246C14.7752 14.411 14.9077 14.5673 15.0801 14.6671M25.8951 16.9921C26.0226 17.1646 25.9401 17.5171 25.5951 17.5171C25.5274 17.5178 25.4607 17.5009 25.4015 17.4681C25.3423 17.4352 25.2927 17.3875 25.2576 17.3296" stroke="#703D29" stroke-width="0.045" stroke-linecap="round"/>
<path d="M24.6279 14.6814V15.8739" stroke="#703D29" stroke-width="0.045"/>
<path d="M14.2855 17.1716C14.3905 17.2466 14.533 17.1191 14.473 16.9766C14.4355 16.8866 14.308 16.7816 14.1205 16.9091C13.9105 17.0516 13.9705 17.4941 14.3605 17.5016C14.713 17.5016 14.9305 16.9916 14.6155 16.6316C14.3155 16.2866 13.768 16.3616 13.4155 16.6466C13.1439 16.8718 12.9542 17.1802 12.8755 17.5241C12.828 17.7516 12.828 17.9865 12.8755 18.2141C12.9132 18.4144 12.9896 18.6055 13.1005 18.7766L13.198 18.9041C13.258 18.9641 13.273 18.9941 13.348 19.0541C13.5633 19.2424 13.8422 19.3416 14.128 19.3316C14.473 19.3166 14.6755 19.0766 14.638 18.7841C14.608 18.4991 14.323 18.3566 14.1355 18.4916C14.008 18.5816 13.963 18.8591 14.188 18.9266C14.308 18.9641 14.4205 18.7991 14.338 18.7016M24.0505 13.3166C24.253 13.2116 24.4105 13.2266 24.523 13.3916C24.631 13.5494 24.674 13.7428 24.643 13.9316C24.614 14.1047 24.5201 14.2602 24.3805 14.3666" stroke="#703D29" stroke-width="0.045" stroke-linecap="round"/>
<path d="M24.5371 13.3997C24.7696 13.2497 25.0246 13.3172 25.1596 13.5197C25.2571 13.6697 25.2871 13.7897 25.2796 13.9772C25.2725 14.119 25.2295 14.2566 25.1547 14.3773C25.08 14.4979 24.9759 14.5977 24.8521 14.6672" stroke="#703D29" stroke-width="0.045" stroke-linecap="round"/>
<path d="M25.6259 13.9395C25.8209 13.9545 25.9709 14.127 25.9709 14.322C25.9709 14.607 25.8959 14.7345 25.6709 15.0195C25.4684 15.267 24.8759 15.6945 24.8909 16.1145C24.8909 16.272 25.0259 16.4145 25.1384 16.4295" stroke="#703D29" stroke-width="0.045"/>
<path d="M25.6554 17.1718C25.5429 17.2468 25.4079 17.1268 25.4679 16.9918C25.5054 16.9018 25.6329 16.7818 25.8204 16.9093C26.0229 17.0518 25.9704 17.4943 25.5729 17.5018C25.2204 17.5018 24.9729 17.0068 25.3179 16.6318C25.6179 16.2868 26.1954 16.3543 26.5554 16.6393C26.7054 16.7593 27.0129 17.0893 27.0804 17.5393C27.1554 18.0643 27.1479 18.7093 26.6004 19.1143C26.3754 19.2718 26.0754 19.3468 25.8054 19.3393C25.4604 19.3243 25.2579 19.0768 25.2954 18.7843C25.3329 18.4993 25.5954 18.3793 25.7979 18.4918C26.0079 18.6043 25.9704 18.8968 25.7454 18.9268C25.6179 18.9418 25.5129 18.7993 25.5954 18.7018" stroke="#703D29" stroke-width="0.045" stroke-linecap="round"/>
<path d="M25.4678 16.992C25.5278 16.7295 25.7453 16.707 25.9328 16.707C26.4203 16.7145 26.7653 17.307 26.7728 17.8695C26.7728 18.582 26.4728 19.0095 25.9478 19.032C25.8053 19.032 25.5728 18.972 25.5728 18.807" stroke="#703D29" stroke-width="0.045"/>
<path d="M25.7761 16.8711C26.2936 16.9911 26.4736 17.4561 26.4736 17.9061C26.4736 18.2736 26.4361 18.7761 25.7236 18.9486" stroke="#703D29" stroke-width="0.045" stroke-linecap="square"/>
<path d="M26.6309 21.8966C26.6393 21.8459 26.6341 21.7938 26.6159 21.7457C26.5977 21.6976 26.5672 21.6551 26.5273 21.6226C26.4875 21.5901 26.4398 21.5686 26.389 21.5604C26.3383 21.5522 26.2862 21.5575 26.2382 21.5758C26.1901 21.5941 26.1477 21.6248 26.1153 21.6647C26.0829 21.7046 26.0615 21.7524 26.0534 21.8031C26.0454 21.8539 26.0508 21.906 26.0692 21.954C26.0877 22.002 26.1184 22.0443 26.1584 22.0766" stroke="#703D29" stroke-width="0.045"/>
<path d="M25.5803 21.4531C25.6853 21.6031 25.8053 21.7606 26.0528 21.9031M25.9553 22.6906C25.7153 22.5256 25.2428 22.3156 24.8303 22.5256C24.7552 22.5542 24.6869 22.5984 24.63 22.6553C24.5731 22.7122 24.5289 22.7805 24.5003 22.8556C24.4608 22.9761 24.4524 23.1047 24.476 23.2293C24.4996 23.3539 24.5544 23.4705 24.6353 23.5681C24.7028 23.6431 24.8378 23.7631 25.0103 23.7706C25.2953 23.7706 25.3628 23.5756 25.3703 23.5306C25.4003 23.3206 25.2803 23.2381 25.2203 23.2231C25.1678 23.2006 25.0103 23.2081 24.9803 23.3206C24.9653 23.3581 24.9653 23.4181 24.9953 23.4706" stroke="#703D29" stroke-width="0.045" stroke-linecap="round"/>
<path d="M21.5377 26.6288C21.6127 26.7938 21.5227 26.8688 21.4177 26.8838C21.2527 26.9063 21.1702 26.7788 21.1627 26.6588C21.1596 26.6142 21.1657 26.5695 21.1804 26.5273C21.1951 26.4852 21.2183 26.4464 21.2484 26.4135C21.2786 26.3805 21.3151 26.354 21.3558 26.3356C21.3965 26.3172 21.4405 26.3072 21.4852 26.3063C21.6577 26.3063 21.7927 26.4188 21.8602 26.5688C21.8827 26.6213 21.8977 26.6813 21.8977 26.7488C21.9037 26.861 21.8661 26.9712 21.7927 27.0563C21.7416 27.1135 21.6792 27.1597 21.6096 27.1919C21.5399 27.2242 21.4644 27.2418 21.3877 27.2438C21.0727 27.2513 20.8252 26.9588 20.8252 26.6588C20.8252 26.0813 21.6802 25.7588 22.0252 25.6838C22.4649 25.5757 22.915 25.5154 23.3677 25.5038C23.6302 25.4963 23.8327 25.5038 24.1252 25.4663C24.3877 25.4438 24.5302 25.4288 24.8002 25.3688C25.152 25.2949 25.478 25.1293 25.7452 24.8888C25.9627 24.6863 26.0827 24.5513 26.1877 24.2738C26.2462 24.103 26.2677 23.9218 26.2509 23.7421C26.2341 23.5624 26.1793 23.3883 26.0902 23.2313C26.0077 23.094 25.8955 22.9769 25.7618 22.8887C25.6281 22.8004 25.4764 22.7432 25.3177 22.7213C25.0402 22.6838 24.7927 22.8038 24.6427 23.0813C24.5677 23.2163 24.5977 23.4413 24.6502 23.5463C24.6871 23.6105 24.7392 23.6647 24.802 23.7039C24.8648 23.7432 24.9363 23.7663 25.0102 23.7713C25.2952 23.7713 25.3627 23.5763 25.3702 23.5313C25.4002 23.3213 25.2802 23.2388 25.2202 23.2163C25.1677 23.2013 25.0102 23.2088 24.9802 23.3213C24.9652 23.3588 24.9652 23.4188 24.9952 23.4713" stroke="#703D29" stroke-width="0.045" stroke-linecap="round"/>
<path d="M21.2908 25.7148C20.9308 25.8723 20.6608 25.9923 20.4358 26.3523C20.3746 26.465 20.3436 26.5916 20.3458 26.7198C20.3458 26.9223 20.4283 27.1473 20.5933 27.2898C20.6611 27.3499 20.7412 27.3944 20.828 27.4203C20.9148 27.4462 21.0062 27.4529 21.0958 27.4398C21.2458 27.4248 21.3733 27.3198 21.3958 27.2448" stroke="#703D29" stroke-width="0.045" stroke-linecap="round"/>
<path d="M24.8829 18.8066C24.7104 18.8666 24.5904 19.1216 24.5904 19.3691C24.5858 19.4811 24.6112 19.5923 24.664 19.6911C24.7167 19.79 24.7948 19.873 24.8904 19.9316" stroke="#703D29" stroke-width="0.045"/>
<path d="M25.0698 19.7285C24.7698 20.111 24.5973 20.336 24.5898 20.786C24.5898 21.2135 24.7173 21.506 24.9723 21.8135" stroke="#703D29" stroke-width="0.045" stroke-linecap="round"/>
<path d="M23.4434 13.3982L23.4659 13.3607C23.5934 13.1807 23.8184 13.1282 23.9834 13.2482C24.1784 13.3982 24.2309 13.6532 24.1784 13.9232C24.1409 14.0882 24.0284 14.2307 23.8784 14.3357" stroke="#703D29" stroke-width="0.045"/>
<path d="M15.8825 13.3096C15.6875 13.2196 15.53 13.2346 15.41 13.3846C15.3517 13.4603 15.3107 13.5479 15.29 13.6412C15.2692 13.7346 15.2692 13.8313 15.29 13.9246C15.335 14.1271 15.395 14.2096 15.5525 14.3596" stroke="#703D29" stroke-width="0.045" stroke-linecap="round"/>
<path d="M15.3951 13.3991C15.347 13.3643 15.2923 13.3398 15.2343 13.3269C15.1763 13.3141 15.1163 13.3133 15.0579 13.3245C14.9996 13.3358 14.9442 13.3588 14.8952 13.3923C14.8461 13.4258 14.8044 13.4689 14.7726 13.5191C14.6794 13.6525 14.6368 13.8147 14.6526 13.9766C14.6676 14.2916 14.8626 14.5466 15.0876 14.6666" stroke="#703D29" stroke-width="0.045"/>
<path d="M14.7273 13.6094C14.6053 13.6238 14.4925 13.6818 14.4098 13.7728C14.3272 13.8637 14.2801 13.9815 14.2773 14.1044C14.2773 14.4419 14.3523 14.5769 14.5398 14.8244C14.7273 15.0794 15.3423 15.5444 15.3423 16.0769C15.3423 16.3994 15.2523 16.6019 15.0198 16.7069C14.8698 16.7819 14.6973 16.7069 14.6148 16.6319C14.4198 16.4519 14.5023 16.1444 14.7048 16.1069C14.9523 16.0619 14.9973 16.4519 14.7573 16.4294" stroke="#703D29" stroke-width="0.045"/>
<path d="M14.2998 13.9395C14.1123 13.9545 13.9248 14.112 13.9248 14.3145C13.9248 14.5995 14.0373 14.7345 14.2698 15.0195C14.4648 15.267 15.0273 15.6945 15.0123 16.107C15.0123 16.257 14.8998 16.452 14.7948 16.4295" stroke="#703D29" stroke-width="0.045"/>
<path d="M13.8497 19.7073C13.9472 19.4898 14.1797 19.5873 14.1947 19.7073C14.2247 19.9848 13.9847 20.0673 13.8122 20.0223C13.7723 20.0116 13.735 19.9927 13.7028 19.9669C13.6705 19.9411 13.6439 19.9089 13.6247 19.8723C13.6015 19.8304 13.5869 19.7843 13.5817 19.7366C13.5766 19.689 13.581 19.6408 13.5947 19.5948C13.6094 19.5509 13.6323 19.5102 13.6622 19.4748C13.6868 19.4399 13.7173 19.4095 13.7522 19.3848C13.8272 19.3398 13.8947 19.3398 14.0072 19.3398C14.4197 19.3398 14.7872 19.8273 14.9072 20.3448C14.9522 20.5098 15.0047 20.8923 14.9297 21.2448C14.8695 21.5634 14.7184 21.8577 14.4947 22.0923C14.2808 22.2922 14.0244 22.4409 13.7447 22.5273C13.6499 22.5575 13.5484 22.5601 13.4522 22.5348C13.2422 22.4673 13.1072 22.2723 13.2122 22.0098C13.3022 21.8148 13.6172 21.7098 13.7597 21.9648C13.7747 21.9873 13.7897 22.0323 13.7897 22.0773C13.7897 22.1448 13.7597 22.2273 13.7147 22.2573C13.6097 22.3248 13.4372 22.3023 13.4447 22.1073" stroke="#703D29" stroke-width="0.045" stroke-linecap="round"/>
<path d="M13.5354 22.2781C13.6104 22.3081 13.6554 22.3006 13.7529 22.2631L13.8879 22.1881C14.0829 22.0756 14.3079 21.9031 14.5179 21.5056C14.5747 21.399 14.6175 21.2856 14.6454 21.1681C14.6679 21.0931 14.6829 21.0031 14.6904 20.9206C14.6964 20.5094 14.5702 20.1072 14.3304 19.7731C14.2479 19.6531 14.1804 19.5856 14.0154 19.5781M13.3029 21.9031C13.2933 21.8524 13.2974 21.8 13.3147 21.7513C13.3319 21.7026 13.3618 21.6594 13.4012 21.626C13.4406 21.5926 13.4881 21.5702 13.539 21.5611C13.5898 21.5521 13.6421 21.5566 13.6907 21.5743C13.7392 21.592 13.7821 21.6223 13.8152 21.662C13.8482 21.7017 13.8702 21.7494 13.8788 21.8003C13.8874 21.8513 13.8823 21.9036 13.8642 21.9519C13.846 22.0003 13.8154 22.043 13.7754 22.0756" stroke="#703D29" stroke-width="0.045"/>
<path d="M13.415 21.6042C13.4274 21.54 13.462 21.4823 13.5128 21.4411C13.5635 21.3999 13.6272 21.378 13.6925 21.3792C13.7648 21.3812 13.8335 21.4112 13.8839 21.4631C13.9344 21.5149 13.9626 21.5844 13.9625 21.6567C13.9631 21.7288 13.9363 21.7985 13.8875 21.8517" stroke="#703D29" stroke-width="0.045"/>
<path d="M13.9551 21.596C14.0995 21.4877 14.2166 21.3473 14.2974 21.1859C14.3781 21.0245 14.4201 20.8465 14.4201 20.666C14.4201 20.3585 14.3001 20.036 14.1501 19.916" stroke="#703D29" stroke-width="0.045"/>
<path d="M14.3534 21.4531C14.239 21.6427 14.0758 21.7981 13.8809 21.9031" stroke="#703D29" stroke-width="0.045" stroke-linecap="round"/>
<path d="M15.0964 22.527C15.0214 22.362 14.8864 22.287 14.6614 22.2645C14.4364 22.242 14.2489 22.302 14.0464 22.407C13.8032 22.5193 13.5975 22.6993 13.4539 22.9253C13.3102 23.1514 13.2347 23.4141 13.2364 23.682C13.2393 23.927 13.2903 24.1691 13.3864 24.3945C13.4539 24.5145 13.6114 25.0695 14.5339 25.4445C15.1578 25.639 15.8078 25.7376 16.4614 25.737C17.2414 25.767 17.9614 25.797 18.3814 26.307" stroke="#703D29" stroke-width="0.045"/>
<path d="M13.9775 22.6907C14.225 22.5257 14.69 22.3157 15.11 22.5257C15.1829 22.5567 15.2489 22.6018 15.3043 22.6584C15.3596 22.7151 15.4032 22.7821 15.4325 22.8557C15.4721 22.9761 15.4805 23.1047 15.4569 23.2293C15.4333 23.3539 15.3784 23.4705 15.2975 23.5682C15.23 23.6432 15.095 23.7632 14.9225 23.7707C14.6375 23.7707 14.57 23.5757 14.5625 23.5307C14.5325 23.3207 14.6525 23.2382 14.7125 23.2157C14.765 23.2007 14.9225 23.2082 14.9525 23.3207C14.9675 23.3582 14.9675 23.4182 14.9375 23.4707" stroke="#703D29" stroke-width="0.045" stroke-linecap="round"/>
<path d="M14.9535 23.4271C14.976 23.3521 14.9685 23.2621 14.8935 23.1796C14.8365 23.1205 14.7619 23.0812 14.6809 23.0677C14.5998 23.0542 14.5166 23.0671 14.4435 23.1046C14.391 23.1421 14.3235 23.1796 14.2635 23.2696C14.2335 23.2996 14.1885 23.3521 14.1735 23.3896C14.121 23.4721 14.0985 23.5396 14.0985 23.5771C13.911 24.1021 14.211 24.6571 14.586 24.8971C14.916 25.1071 15.246 25.1671 15.666 25.1971C15.8535 25.2196 15.966 25.2196 16.1535 25.2346H16.8735C17.0533 25.2254 17.2336 25.2254 17.4135 25.2346C17.6385 25.2571 17.796 25.2646 17.9835 25.2946C18.1035 25.3096 18.246 25.3321 18.3885 25.3696C18.4335 25.3696 18.4785 25.3846 18.5235 25.3996L18.6135 25.4221C18.8835 25.5046 19.1385 25.6021 19.3485 25.7371C19.4085 25.7746 19.4835 25.8121 19.536 25.8646L19.6335 25.9546C19.7835 26.1046 19.9335 26.2546 19.9635 26.4571V26.5771C19.9635 26.7121 19.8585 26.8996 19.566 26.9521" stroke="#703D29" stroke-width="0.045"/>
<path d="M18.3951 26.6288C18.3201 26.7938 18.4101 26.8688 18.5151 26.8838C18.6801 26.9063 18.7626 26.7788 18.7776 26.6588C18.7807 26.6136 18.7744 26.5683 18.7592 26.5256C18.744 26.4829 18.7202 26.4438 18.6892 26.4108C18.6583 26.3777 18.6208 26.3514 18.5793 26.3334C18.5377 26.3154 18.4929 26.3062 18.4476 26.3063C18.3661 26.3081 18.287 26.334 18.2203 26.3808C18.1536 26.4275 18.1022 26.4929 18.0726 26.5688C18.0494 26.6261 18.0367 26.687 18.0351 26.7488C18.029 26.861 18.0667 26.9712 18.1401 27.0563C18.1912 27.1135 18.2535 27.1597 18.3232 27.1919C18.3928 27.2242 18.4683 27.2418 18.5451 27.2438C18.8601 27.2513 19.1076 26.9588 19.1076 26.6588C19.1076 26.0813 18.2526 25.7588 17.9076 25.6838C17.4678 25.5757 17.0177 25.5154 16.5651 25.5038C16.3026 25.4963 16.1001 25.5038 15.8076 25.4663C15.5451 25.4438 15.4026 25.4288 15.1326 25.3688C14.7834 25.2936 14.4602 25.1281 14.1951 24.8888C13.9454 24.7039 13.7718 24.4343 13.7069 24.1304C13.6419 23.8266 13.6902 23.5096 13.8426 23.2388C13.9242 23.1001 14.0361 22.9816 14.1698 22.892C14.3035 22.8024 14.4557 22.7441 14.6151 22.7213C14.9001 22.6838 15.1401 22.8038 15.2901 23.0813C15.3651 23.2163 15.3351 23.4413 15.2826 23.5463C15.2457 23.6105 15.1936 23.6647 15.1308 23.7039C15.068 23.7432 14.9964 23.7663 14.9226 23.7713C14.6376 23.7713 14.5701 23.5763 14.5626 23.5313C14.5326 23.3213 14.6526 23.2388 14.7126 23.2163C14.7651 23.2013 14.9226 23.2088 14.9526 23.3213C14.9676 23.3588 14.9676 23.4188 14.9376 23.4713" stroke="#703D29" stroke-width="0.045"/>
<path d="M16.4977 13.3982L16.4677 13.3607C16.3402 13.1807 16.1152 13.1282 15.9502 13.2482C15.7552 13.3982 15.7027 13.6532 15.7627 13.9232C15.8049 14.0947 15.9126 14.2428 16.0627 14.3357" stroke="#703D29" stroke-width="0.045" stroke-linecap="round"/>
<path d="M23.5107 13.969C23.2107 14.299 22.9032 14.404 22.4532 14.419C22.3032 14.419 22.0407 14.374 21.8832 14.2615C21.7857 14.1865 21.6732 14.0665 21.7407 13.849C21.7857 13.7065 22.0182 13.309 22.0257 13.0315C22.0482 12.6115 21.8832 12.379 21.6282 12.289C21.1632 12.124 20.6532 12.589 20.3532 12.694C20.1957 12.7465 20.1132 12.754 19.9707 12.754C19.8207 12.754 19.7457 12.7465 19.5807 12.694C19.2807 12.589 18.7782 12.124 18.3057 12.289C18.0507 12.379 17.8932 12.6115 17.9082 13.039C17.9157 13.309 18.1482 13.714 18.1932 13.849C18.2682 14.0665 18.1557 14.1865 18.0507 14.2615C17.9007 14.374 17.6232 14.419 17.4882 14.4115C17.0382 14.404 16.7307 14.299 16.4307 13.969" stroke="#703D29" stroke-width="0.045"/>
<path d="M18.2988 25.5781C18.3588 25.6006 18.3138 25.5631 18.6963 25.7281C19.0456 25.8494 19.3441 26.0844 19.5438 26.3956C19.6316 26.564 19.6556 26.7585 19.6113 26.9431" stroke="#703D29" stroke-width="0.045" stroke-linecap="round"/>
<path d="M18.3281 27.1987C18.4025 27.2378 18.4843 27.2608 18.5681 27.2662C18.8831 27.2737 19.1306 26.9813 19.1306 26.6813C19.1306 26.4713 19.0181 26.2913 18.8606 26.1562" stroke="#703D29" stroke-width="0.045"/>
<path d="M18.3955 26.6297C18.3205 26.8022 18.4255 26.8922 18.5305 26.9072C18.6955 26.9222 18.7855 26.8022 18.8005 26.6822C18.805 26.6195 18.792 26.5568 18.7629 26.5012C18.7337 26.4455 18.6896 26.3991 18.6355 26.3672" stroke="#703D29" stroke-width="0.045" stroke-linecap="round"/>
<path d="M25.2584 13.6094C25.4984 13.6094 25.7084 13.8794 25.7084 14.1494C25.7084 14.4719 25.5434 14.6669 25.4159 14.8094C25.3184 14.9294 25.2134 15.0344 25.0859 15.1619" stroke="#703D29" stroke-width="0.045"/>
<path d="M24.9725 13.354C25.0542 13.3988 25.1257 13.4601 25.1825 13.534C25.28 13.684 25.31 13.8115 25.3025 13.999C25.2875 14.314 25.0625 14.5315 24.8525 14.674M24.5 13.354L24.545 13.4065C24.6875 13.5715 24.695 13.8115 24.665 13.9465C24.6482 14.0301 24.6141 14.1092 24.5651 14.1789C24.516 14.2487 24.453 14.3074 24.38 14.3515M24.005 13.2715C24.2 13.4215 24.26 13.6765 24.1925 13.9465C24.1475 14.134 24.0275 14.2465 23.8775 14.3365M24.71 17.419C24.7325 17.494 24.7775 17.5165 24.8225 17.569C24.9512 17.6965 25.1118 17.7872 25.2875 17.8315C25.4675 17.884 25.6325 17.8465 25.76 17.764M13.535 21.814C13.625 21.814 13.7225 21.8815 13.7825 21.9865C13.79 22.0015 13.8125 22.0465 13.8125 22.099C13.8125 22.1665 13.7825 22.234 13.7375 22.264C13.625 22.339 13.4375 22.3015 13.4375 22.114" stroke="#703D29" stroke-width="0.045" stroke-linecap="round"/>
<path d="M14.1134 19.3457C14.4884 19.4207 14.8409 19.8632 14.9534 20.3432C14.9984 20.5157 15.0509 20.8907 14.9759 21.2432C14.9128 21.5661 14.7563 21.8634 14.5259 22.0982C14.4775 22.1501 14.4248 22.1978 14.3684 22.2407L14.2934 22.2932M13.6934 21.3857C13.8434 21.3857 13.9784 21.5282 13.9784 21.6857C13.9789 21.7579 13.9521 21.8275 13.9034 21.8807" stroke="#703D29" stroke-width="0.045"/>
<path d="M13.5957 21.5508C13.7532 21.5508 13.9032 21.7008 13.9032 21.8658C13.9033 21.9087 13.8939 21.9511 13.8758 21.99C13.8576 22.0289 13.8311 22.0633 13.7982 22.0908" stroke="#703D29" stroke-width="0.045"/>
<path d="M15.0506 19.9609C15.1908 20.1276 15.2886 20.3258 15.3356 20.5384M15.3356 21.1759C15.3107 21.2802 15.2729 21.381 15.2231 21.4759C15.1534 21.6077 15.0622 21.7268 14.9531 21.8284" stroke="#703D29" stroke-width="0.045" stroke-linecap="round"/>
<path d="M15.0732 18.8223C15.2082 18.9348 15.2982 19.0473 15.3357 19.1823" stroke="#703D29" stroke-width="0.045"/>
<path d="M15.3434 18.4617C15.2938 18.599 15.2052 18.7189 15.0884 18.8067M14.3984 17.5167L14.5634 17.4717L14.6609 17.3967L14.7209 17.3142L14.7734 17.1792L14.7959 17.0667" stroke="#703D29" stroke-width="0.045" stroke-linecap="round"/>
<path d="M14.0756 16.9473C14.0231 16.9623 13.9556 16.9773 13.8881 17.0073C13.7826 17.0582 13.6921 17.1357 13.6256 17.2323C13.4478 17.5158 13.3885 17.8579 13.4606 18.1848C13.4905 18.3346 13.5491 18.4772 13.6331 18.6048L13.7081 18.7098C13.8131 18.8073 13.9031 18.8598 14.0531 18.8373" stroke="#703D29" stroke-width="0.045"/>
<path d="M14.975 16.2344C14.9525 16.3319 14.9 16.4519 14.75 16.4369" stroke="#703D29" stroke-width="0.045" stroke-linecap="round"/>
<path d="M14.4278 16.8868C14.2778 16.7443 13.9778 16.7068 13.6703 16.9018L13.5503 16.9993C13.5106 17.0349 13.4754 17.0752 13.4453 17.1193C13.3658 17.2339 13.305 17.3605 13.2653 17.4943C13.2128 17.7193 13.2128 17.9143 13.2203 17.9668C13.2203 18.0418 13.2353 18.1093 13.2428 18.1693C13.2878 18.3793 13.3478 18.5293 13.4153 18.6343C13.4828 18.7468 13.6403 19.0093 13.9928 19.0393C14.1278 19.0468 14.3528 18.9868 14.3678 18.8143" stroke="#703D29" stroke-width="0.045"/>
<path d="M23.2857 13.7736C23.3082 13.6536 23.4582 13.6311 23.5107 13.6986C23.6007 13.8186 23.5407 14.0136 23.3607 14.0661C23.3081 14.0755 23.254 14.0707 23.2039 14.0523C23.1538 14.0338 23.1096 14.0023 23.0757 13.9611C23.0007 13.8636 23.0082 13.7511 23.0382 13.6611C23.0532 13.6011 23.1057 13.5486 23.1657 13.4961C23.3682 13.3461 23.6982 13.3761 23.8107 13.6461C23.9457 13.9761 23.6457 14.2311 23.3607 14.4186C23.0157 14.6586 22.6107 14.7036 22.3107 14.6961C21.6207 14.6961 21.1032 14.3661 20.7582 14.1711C20.6832 14.1336 20.6007 14.1411 20.5557 14.1936C20.5333 14.2239 20.5231 14.2617 20.5273 14.2992C20.5315 14.3368 20.5496 14.3713 20.5782 14.3961" stroke="#703D29" stroke-width="0.045" stroke-linecap="round"/>
<path d="M23.4203 13.6621C23.4953 13.6621 23.5103 13.6921 23.5328 13.7221C23.6228 13.8346 23.5553 14.0296 23.3828 14.0896M24.7178 17.9521C24.4553 18.2371 24.7028 18.7246 24.8978 18.8371C24.9653 18.8896 24.9953 18.8596 25.0478 18.8896" stroke="#703D29" stroke-width="0.045" stroke-linecap="round"/>
<path d="M24.7328 17.4048C24.6503 17.4648 24.6203 17.5323 24.6128 17.6523C24.6087 17.7068 24.6159 17.7616 24.634 17.8132C24.6521 17.8648 24.6806 17.9122 24.7178 17.9523C24.9081 18.1276 25.1565 18.2264 25.4153 18.2298C25.5653 18.2298 25.7153 18.1998 25.8653 18.1023C26.0082 18.0082 26.11 17.8635 26.1503 17.6973M24.5903 22.3323L24.5753 22.5198C24.5598 22.7028 24.5088 22.8811 24.4253 23.0448C24.3476 23.2033 24.2408 23.3458 24.1103 23.4648C23.9824 23.591 23.8324 23.6927 23.6678 23.7648C23.5142 23.8449 23.3501 23.9029 23.1803 23.9373C22.8544 24.0022 22.5207 24.0174 22.1903 23.9823C21.9878 23.9673 21.8828 23.9448 21.6803 23.9223C21.5153 23.9148 21.4253 23.8998 21.2603 23.8998C20.9811 23.893 20.7032 23.9414 20.4428 24.0423C20.2403 24.1173 20.0153 24.2673 19.9628 24.3273C19.9178 24.2598 19.6853 24.1173 19.4903 24.0423C19.3654 23.9889 19.2344 23.9511 19.1003 23.9298C18.9353 23.8998 18.8378 23.8998 18.6653 23.8998C18.5003 23.8998 18.4103 23.9148 18.2453 23.9298C18.0503 23.9448 17.9453 23.9748 17.7428 23.9823C17.5553 23.9973 17.4503 24.0048 17.2703 23.9973C17.0936 23.9961 16.9176 23.9759 16.7453 23.9373C16.5759 23.9053 16.4118 23.8498 16.2578 23.7723C16.0953 23.6971 15.9478 23.5929 15.8228 23.4648C15.6915 23.3436 15.5846 23.1985 15.5078 23.0373C15.4253 22.8759 15.3744 22.7002 15.3578 22.5198C15.3428 22.4448 15.3428 22.3323 15.3428 22.3323V14.6973H24.5828V22.3323H24.5903Z" stroke="#703D29" stroke-width="0.045"/>
<path d="M14.6 23.4202C14.6 23.3705 14.6198 23.3228 14.6549 23.2877C14.6901 23.2525 14.7378 23.2327 14.7875 23.2327C14.8372 23.2327 14.8849 23.2525 14.9201 23.2877C14.9552 23.3228 14.975 23.3705 14.975 23.4202C14.975 23.47 14.9552 23.5177 14.9201 23.5528C14.8849 23.588 14.8372 23.6077 14.7875 23.6077C14.7378 23.6077 14.6901 23.588 14.6549 23.5528C14.6198 23.5177 14.6 23.47 14.6 23.4202ZM13.4375 22.1002C13.4375 22.0027 13.4975 21.9277 13.5725 21.9277C13.6475 21.9277 13.7 22.0027 13.7 22.1002C13.7 22.1902 13.64 22.2652 13.5725 22.2652C13.4975 22.2652 13.4375 22.1902 13.4375 22.1002Z" fill="#C7B37F" stroke="#C7B37F" stroke-width="0.0225"/>
<path d="M14.0977 18.7699C14.0977 18.6949 14.1577 18.6349 14.2252 18.6349C14.3002 18.6349 14.3527 18.6949 14.3527 18.7699C14.3527 18.8449 14.3002 18.9049 14.2252 18.9049C14.1502 18.9049 14.0977 18.8449 14.0977 18.7699ZM16.4002 13.8499C16.4002 13.7749 16.4377 13.6999 16.5052 13.6999C16.5727 13.6924 16.6327 13.7449 16.6402 13.8199C16.6402 13.8949 16.6027 13.9699 16.5352 13.9699C16.4677 13.9774 16.4152 13.9249 16.4002 13.8499Z" fill="#C7B37F"/>
<path d="M13.9481 19.5488C13.9181 19.5563 13.9031 19.5638 13.8881 19.5863C13.8656 19.6088 13.8581 19.6163 13.8431 19.6538L13.8281 19.7438M14.1806 21.7463L14.2556 21.6713L14.3006 21.5963L14.3381 21.5213L14.3906 21.4238M14.2931 22.4738L14.1806 22.5263L14.0981 22.5713C14.0648 22.5899 14.0322 22.6099 14.0006 22.6313L13.9106 22.7063M15.0356 19.8638L14.9756 19.8038L14.9006 19.7438L14.8331 19.6838" stroke="#C7B37F" stroke-width="0.045" stroke-linecap="round"/>
<path d="M15.0648 18.875L14.9748 18.9125C14.9386 18.9256 14.9007 18.9332 14.8623 18.935" stroke="#C7B37F" stroke-width="0.045"/>
<path d="M13.8057 17.6291C13.8207 17.6741 13.8207 17.7041 13.8432 17.7416C13.8582 17.7941 13.8807 17.8241 13.9107 17.8691C13.9594 17.9505 14.0261 18.0198 14.1057 18.0716L14.2182 18.1316M14.1432 17.6966L14.2407 17.7416C14.3117 17.7721 14.3883 17.7874 14.4657 17.7866L14.6007 17.7791M15.1407 14.7266L14.9907 14.6366C14.9232 14.5991 14.8932 14.5691 14.8407 14.5241C14.8102 14.4942 14.7826 14.4615 14.7582 14.4266L14.6982 14.3291M15.2607 13.9841L15.3057 14.1116C15.3326 14.1668 15.368 14.2174 15.4107 14.2616C15.4857 14.3366 15.5382 14.3591 15.6207 14.4266M15.7257 13.9766C15.7482 14.0291 15.7482 14.0516 15.7782 14.0966C15.7932 14.1341 15.8082 14.1566 15.8382 14.1866L15.9357 14.2841C15.9882 14.3291 16.0257 14.3366 16.0857 14.3666" stroke="#C7B37F" stroke-width="0.045" stroke-linecap="round"/>
<path d="M20.9982 13.3694C20.9982 13.2419 20.8707 13.2344 20.8182 13.2344C20.6832 13.2344 20.6457 13.3169 20.4732 13.4069C20.3245 13.5061 20.1494 13.5583 19.9707 13.5569C19.792 13.5579 19.6171 13.5056 19.4682 13.4069C19.2957 13.3169 19.2657 13.2344 19.1232 13.2344C19.1005 13.2353 19.0783 13.2408 19.0577 13.2503C19.0371 13.2599 19.0187 13.2734 19.0033 13.2902C18.988 13.3069 18.9761 13.3265 18.9684 13.3478C18.9606 13.3691 18.9572 13.3917 18.9582 13.4144V13.4819L18.9807 13.4969C18.9807 13.4369 18.9882 13.4069 19.0182 13.3694C19.0329 13.3515 19.0511 13.337 19.0718 13.3266C19.0925 13.3163 19.1151 13.3104 19.1382 13.3094C19.2732 13.3094 19.3257 13.3994 19.4982 13.4894C19.7232 13.6094 19.8132 13.6319 20.0007 13.6394C20.1819 13.6419 20.3597 13.5896 20.5107 13.4894C20.6832 13.3994 20.7357 13.3019 20.8707 13.3019C20.9157 13.3019 20.9457 13.3319 20.9682 13.3769V13.4444L20.9832 13.4519C20.9832 13.4294 20.9982 13.4219 20.9982 13.3769V13.3694Z" fill="#703D29" stroke="#703D29" stroke-width="0.015"/>
<path d="M15.8303 24.0505C15.8678 24.013 15.8978 24.028 15.9053 24.0055C15.9053 23.9905 15.9053 23.9905 15.8828 23.983L15.8153 23.968L15.7553 23.938C15.7478 23.938 15.7253 23.923 15.7178 23.938C15.7103 23.968 15.7928 23.968 15.7628 24.043C15.7489 24.0766 15.7285 24.1072 15.7028 24.133L15.5078 24.358L15.4928 24.3655V24.043L15.5003 23.908C15.5153 23.878 15.5603 23.908 15.5678 23.878C15.5678 23.8705 15.5678 23.863 15.5453 23.8555C15.5303 23.8555 15.5078 23.8555 15.4628 23.833L15.3878 23.7955C15.3728 23.7955 15.3503 23.7805 15.3428 23.7955L15.3503 23.818C15.3803 23.833 15.3878 23.848 15.3878 23.893V24.448C15.3878 24.4855 15.3953 24.493 15.4028 24.5005C15.4103 24.5005 15.4178 24.5005 15.4328 24.478L15.8303 24.0505Z" fill="#703D29"/>
<path d="M16.0624 24.1397C16.0849 24.0572 16.1374 24.1097 16.1374 24.0797C16.1449 24.0647 16.1374 24.0647 16.1224 24.0572L16.0249 24.0272C15.9949 24.0272 15.9649 24.0047 15.9349 23.9972C15.9349 23.9972 15.9124 23.9897 15.9049 23.9972C15.8974 24.0347 15.9874 24.0347 15.9649 24.1097L15.8374 24.5222C15.8149 24.5972 15.7624 24.5672 15.7549 24.5972V24.6047L15.8449 24.6347L15.9649 24.6722H15.9874C16.0024 24.6422 15.8974 24.6497 15.9349 24.5447L16.0624 24.1397ZM16.3399 24.2147C16.3549 24.1697 16.3774 24.1772 16.4074 24.1847C16.4824 24.2072 16.5124 24.2822 16.4824 24.3722C16.4674 24.4172 16.4524 24.4622 16.3324 24.4322C16.3099 24.4247 16.2799 24.4172 16.2874 24.3947L16.3399 24.2222V24.2147ZM16.1299 24.5897C16.0924 24.6947 16.0399 24.6497 16.0324 24.6797C16.0324 24.6947 16.0474 24.6947 16.0549 24.7022L16.1749 24.7322L16.2349 24.7547H16.2649C16.2724 24.7172 16.1899 24.7322 16.2124 24.6422L16.2574 24.4922C16.2649 24.4622 16.2649 24.4547 16.3024 24.4697C16.3474 24.4772 16.3549 24.4922 16.3624 24.5297L16.3849 24.6797C16.3999 24.7472 16.4074 24.8072 16.4599 24.8297C16.4974 24.8297 16.5499 24.8297 16.5649 24.7997L16.5499 24.7847H16.5274C16.5274 24.7847 16.5049 24.7847 16.5049 24.7622L16.4524 24.4922C16.4524 24.4772 16.4824 24.4772 16.5124 24.4697C16.5311 24.4597 16.5474 24.4458 16.5603 24.429C16.5733 24.4122 16.5825 24.3929 16.5874 24.3722C16.5949 24.3347 16.6174 24.2072 16.4524 24.1547L16.2949 24.1172L16.2049 24.0872H16.1824C16.1749 24.1247 16.2649 24.1172 16.2349 24.2147L16.1224 24.5897H16.1299ZM16.7599 24.7772C16.7299 24.8822 16.6549 24.8147 16.6474 24.8522C16.6474 24.8672 16.6549 24.8747 16.6699 24.8747L16.7824 24.8972L16.8874 24.9272C16.9099 24.9272 16.9249 24.9422 16.9324 24.9197C16.9324 24.8972 16.8349 24.8972 16.8574 24.7847L16.9549 24.3947C16.9549 24.3497 16.9699 24.3497 16.9999 24.3572L17.0749 24.3722C17.1574 24.3947 17.1124 24.4847 17.1499 24.4922C17.1649 24.4922 17.1649 24.4622 17.1649 24.4472L17.1724 24.3722V24.3422L16.9249 24.2897L16.6849 24.2297C16.6774 24.2297 16.6699 24.2297 16.6699 24.2447L16.6324 24.3572C16.6249 24.3647 16.6174 24.3872 16.6324 24.3872C16.6699 24.3947 16.6699 24.2747 16.7599 24.2972L16.8274 24.3122C16.8574 24.3197 16.8649 24.3272 16.8574 24.3722L16.7599 24.7772ZM17.7124 24.5297C17.7424 24.4847 17.7724 24.4922 17.7799 24.4772C17.7799 24.4622 17.7649 24.4622 17.7499 24.4547H17.6824L17.6149 24.4322C17.6074 24.4322 17.5849 24.4247 17.5849 24.4397C17.5774 24.4697 17.6599 24.4547 17.6449 24.5372C17.6449 24.5522 17.6374 24.5822 17.5999 24.6347L17.4499 24.8822L17.4274 24.8972V24.8822L17.3749 24.5822C17.3648 24.538 17.3623 24.4923 17.3674 24.4472C17.3674 24.4097 17.4199 24.4322 17.4199 24.4097C17.4199 24.3947 17.4199 24.3947 17.3899 24.3872L17.3074 24.3797C17.2774 24.3797 17.2549 24.3647 17.2324 24.3572C17.2174 24.3572 17.1949 24.3497 17.1874 24.3647L17.1949 24.3797C17.2324 24.3947 17.2399 24.4097 17.2474 24.4472L17.3449 24.9947C17.3524 25.0322 17.3599 25.0472 17.3674 25.0472C17.3749 25.0472 17.3824 25.0472 17.3974 25.0247L17.7124 24.5297ZM17.7574 25.0397C17.7574 25.0622 17.7574 25.0622 17.7724 25.0772C17.8174 25.0922 17.8474 25.1222 17.8999 25.1297C18.0049 25.1447 18.0949 25.0772 18.1099 24.9647C18.1324 24.8522 18.0874 24.8072 18.0049 24.7472C17.9074 24.6797 17.8699 24.6647 17.8774 24.5972C17.8849 24.5447 17.9299 24.5222 17.9824 24.5222C18.1174 24.5447 18.1024 24.7172 18.1174 24.7172C18.1399 24.7172 18.1399 24.7097 18.1399 24.6872L18.1549 24.5672V24.5372H18.1099C18.0799 24.5372 18.0574 24.4997 17.9899 24.4847C17.8999 24.4697 17.8174 24.5372 17.8024 24.6347C17.7874 24.7247 17.8324 24.7697 17.8924 24.8147C18.0124 24.8972 18.0574 24.9197 18.0424 24.9947C18.0349 25.0697 17.9749 25.0997 17.9149 25.0922C17.8249 25.0772 17.7949 24.9872 17.7799 24.8972C17.7799 24.8822 17.7799 24.8747 17.7649 24.8747C17.7499 24.8747 17.7499 24.8972 17.7499 24.9122V25.0397H17.7574ZM18.9424 24.7022C18.9649 24.6497 19.0024 24.6572 19.0024 24.6347C19.0024 24.6197 18.9949 24.6272 18.9724 24.6197H18.9049L18.8374 24.6122C18.8299 24.6122 18.8074 24.6122 18.8074 24.6272C18.8074 24.6572 18.8824 24.6272 18.8824 24.7097C18.8824 24.7247 18.8749 24.7547 18.8449 24.8147L18.7099 25.0772L18.7024 25.0997L18.6949 25.0772L18.6124 24.7772C18.5989 24.7386 18.5913 24.6981 18.5899 24.6572C18.5899 24.6197 18.6424 24.6347 18.6424 24.6122C18.6424 24.5972 18.6424 24.5972 18.6124 24.5972H18.5224L18.4474 24.5822C18.4324 24.5822 18.4099 24.5747 18.4024 24.5897L18.4174 24.6047C18.4474 24.6197 18.4624 24.6272 18.4699 24.6647L18.6274 25.1972L18.6574 25.2497C18.6649 25.2497 18.6724 25.2497 18.6799 25.2197L18.9424 24.6947V24.7022Z" fill="#703D29"/>
<path d="M19.0705 25.1373C19.0705 25.2273 18.9955 25.2123 18.9955 25.2498C18.9955 25.2648 19.003 25.2573 19.018 25.2573H19.183L19.213 25.2498C19.213 25.2048 19.108 25.2648 19.108 25.0998V24.7848L19.1155 24.7773L19.1305 24.7848L19.513 25.2573L19.5355 25.2648L19.5505 25.2423V24.7398C19.5505 24.6423 19.6255 24.6648 19.6255 24.6423C19.6255 24.6423 19.6255 24.6273 19.603 24.6273H19.4305C19.4155 24.6273 19.4155 24.6348 19.4155 24.6423C19.4155 24.6723 19.513 24.6573 19.513 24.7398V25.0398L19.5055 25.0698L19.4755 25.0473L19.1605 24.6498C19.1455 24.6273 19.153 24.6273 19.1305 24.6273H18.9955L18.9805 24.6348C18.9805 24.6798 19.0705 24.6198 19.0705 24.7923V25.1373ZM19.8505 24.7248C19.8505 24.6423 19.9105 24.6723 19.9105 24.6423C19.9105 24.6348 19.9105 24.6273 19.8805 24.6273H19.6855C19.6855 24.6273 19.663 24.6273 19.663 24.6423C19.663 24.6723 19.7455 24.6423 19.7455 24.7323V25.1598C19.7455 25.2423 19.6855 25.2198 19.6855 25.2498C19.6855 25.2498 19.6855 25.2648 19.7005 25.2648H19.9105C19.9255 25.2648 19.933 25.2648 19.933 25.2498C19.933 25.2198 19.843 25.2648 19.843 25.1523L19.8505 24.7248ZM20.188 25.1373C20.188 25.2498 20.098 25.2123 20.098 25.2423C20.098 25.2573 20.113 25.2573 20.128 25.2573H20.353C20.3755 25.2573 20.3905 25.2573 20.3905 25.2348C20.3905 25.2123 20.2855 25.2348 20.2855 25.1298V24.7248C20.2855 24.6798 20.2855 24.6798 20.323 24.6798H20.398C20.488 24.6723 20.458 24.7698 20.4955 24.7698C20.5105 24.7698 20.503 24.7398 20.503 24.7248L20.4955 24.6498C20.4955 24.6348 20.4955 24.6198 20.4805 24.6198L20.233 24.6273H19.9855L19.9705 24.6498L19.963 24.7698L19.9705 24.7998C20.008 24.7998 19.9855 24.6798 20.0755 24.6798H20.143C20.173 24.6798 20.1805 24.6798 20.188 24.7248V25.1448V25.1373ZM20.6605 24.9723H20.6305L20.638 24.9348L20.6905 24.7698V24.7548L20.7055 24.7623L20.7805 24.9198L20.7955 24.9498C20.7955 24.9648 20.7805 24.9648 20.7655 24.9648H20.6605V24.9723ZM20.7955 25.0098C20.818 25.0098 20.818 25.0098 20.8555 25.0848L20.8705 25.1448C20.8705 25.1973 20.818 25.1898 20.818 25.2198C20.818 25.2273 20.833 25.2273 20.848 25.2198H20.938L21.0355 25.2123C21.058 25.2123 21.0655 25.2123 21.0655 25.1973C21.0655 25.1673 21.0205 25.1973 20.9905 25.1448L20.7355 24.6198L20.713 24.5898C20.698 24.5898 20.698 24.6048 20.6905 24.6198L20.5255 25.1748C20.5105 25.2273 20.4655 25.2273 20.473 25.2498H20.6455C20.6605 25.2423 20.683 25.2498 20.683 25.2273C20.683 25.2048 20.593 25.2273 20.5855 25.1598L20.6005 25.0848C20.6155 25.0248 20.6305 25.0248 20.6455 25.0248L20.803 25.0098H20.7955ZM21.418 24.6348C21.4105 24.5748 21.418 24.5748 21.508 24.5598C21.658 24.5448 21.613 24.6573 21.658 24.6498C21.673 24.6498 21.658 24.6198 21.658 24.6048L21.6505 24.5223C21.6505 24.5148 21.643 24.5073 21.628 24.5073C21.553 24.5073 21.5005 24.5223 21.448 24.5298L21.238 24.5598C21.223 24.5598 21.2155 24.5598 21.2155 24.5748C21.223 24.6123 21.313 24.5748 21.3205 24.6498L21.373 25.0623C21.388 25.1748 21.3205 25.1373 21.328 25.1748C21.328 25.1748 21.328 25.1823 21.343 25.1748L21.448 25.1673L21.538 25.1598C21.5605 25.1598 21.5755 25.1598 21.5755 25.1373C21.5755 25.1148 21.4855 25.1448 21.4705 25.0473L21.4555 24.9198C21.448 24.8673 21.448 24.8523 21.478 24.8448H21.538C21.6205 24.8298 21.613 24.9273 21.6355 24.9198C21.658 24.9198 21.6505 24.8898 21.643 24.8823L21.6205 24.7248C21.6205 24.7023 21.6055 24.7023 21.6055 24.7023C21.583 24.7023 21.598 24.7848 21.5305 24.7923L21.478 24.7998C21.4405 24.8073 21.4405 24.7998 21.433 24.7623L21.418 24.6348ZM21.718 24.8448C21.748 25.0173 21.8755 25.1223 22.033 25.0923C22.288 25.0398 22.2955 24.8223 22.273 24.6948C22.2355 24.5073 22.1005 24.4173 21.943 24.4473C21.7555 24.4848 21.6805 24.6498 21.718 24.8448ZM21.8005 24.7698C21.778 24.6498 21.8005 24.5148 21.928 24.4923C22.033 24.4698 22.153 24.5523 22.183 24.7473C22.2055 24.8973 22.183 25.0173 22.048 25.0473C21.9055 25.0773 21.823 24.8973 21.8005 24.7773V24.7698ZM22.423 24.4623C22.4155 24.4098 22.438 24.4023 22.468 24.3948C22.543 24.3798 22.603 24.4323 22.6255 24.5148C22.6405 24.5673 22.648 24.6198 22.528 24.6498C22.5055 24.6498 22.4755 24.6573 22.468 24.6348L22.4305 24.4623H22.423ZM22.423 24.8898C22.453 24.9948 22.3855 24.9873 22.3855 25.0098C22.393 25.0323 22.408 25.0248 22.4155 25.0173C22.4605 25.0173 22.4905 24.9948 22.5355 24.9873L22.6105 24.9723C22.6255 24.9723 22.6255 24.9648 22.6255 24.9573C22.6255 24.9273 22.5505 24.9798 22.528 24.8823L22.4905 24.7323C22.4905 24.7023 22.4755 24.7023 22.5205 24.6948C22.558 24.6798 22.573 24.6873 22.603 24.7173L22.7005 24.8373C22.738 24.8823 22.7755 24.9348 22.8355 24.9198C22.873 24.9123 22.9105 24.8823 22.9105 24.8523L22.8955 24.8448L22.873 24.8523C22.873 24.8523 22.8505 24.8598 22.843 24.8523L22.663 24.6348L22.7005 24.5898C22.7155 24.5598 22.7305 24.5223 22.7155 24.4698C22.708 24.4323 22.663 24.3123 22.4905 24.3498L22.333 24.3948L22.243 24.4098C22.228 24.4098 22.2205 24.4173 22.228 24.4248C22.228 24.4623 22.3105 24.4098 22.333 24.4998L22.423 24.8898ZM23.0755 24.7398C23.098 24.8448 23.0005 24.8298 23.008 24.8598C23.008 24.8823 23.0305 24.8748 23.0455 24.8748L23.1505 24.8373L23.263 24.8148C23.2855 24.8148 23.3005 24.8148 23.293 24.7848C23.293 24.7623 23.1955 24.8148 23.1655 24.7098L23.068 24.3123C23.053 24.2748 23.068 24.2673 23.0905 24.2598L23.1655 24.2448C23.248 24.2148 23.248 24.3198 23.278 24.3123C23.3005 24.3123 23.278 24.2748 23.278 24.2598L23.248 24.1848C23.248 24.1848 23.248 24.1623 23.233 24.1698L22.993 24.2373L22.753 24.2898V24.3123L22.7605 24.4323C22.7605 24.4473 22.7605 24.4623 22.783 24.4623C22.8205 24.4548 22.7605 24.3423 22.858 24.3198L22.918 24.3048C22.948 24.2973 22.963 24.3048 22.9705 24.3423L23.0755 24.7398ZM23.488 24.1923C23.4655 24.1173 23.533 24.1248 23.518 24.0948H23.4955L23.3905 24.1248L23.3005 24.1473C23.3005 24.1473 23.278 24.1473 23.278 24.1623C23.2855 24.1923 23.368 24.1473 23.3905 24.2223L23.5105 24.6423C23.5255 24.7173 23.4655 24.7173 23.473 24.7398C23.473 24.7473 23.473 24.7548 23.488 24.7473L23.5705 24.7248L23.6905 24.6948C23.713 24.6948 23.713 24.6873 23.713 24.6723C23.7055 24.6498 23.6305 24.7098 23.6005 24.6048L23.488 24.1923ZM23.6605 24.3948C23.713 24.5673 23.8555 24.6498 24.013 24.5973C24.253 24.5148 24.238 24.2898 24.193 24.1698C24.133 23.9898 23.983 23.9223 23.833 23.9673C23.653 24.0348 23.593 24.2073 23.6605 24.3948ZM23.7355 24.3198C23.6905 24.1923 23.6905 24.0573 23.818 24.0198C23.9155 23.9823 24.043 24.0498 24.1105 24.2373C24.1555 24.3723 24.148 24.5073 24.0205 24.5523C23.8855 24.5973 23.7805 24.4398 23.7355 24.3123V24.3198ZM24.3055 23.9073C24.2905 23.8548 24.3055 23.8473 24.3355 23.8323C24.4105 23.8098 24.4855 23.8548 24.5155 23.9373C24.5305 23.9823 24.5455 24.0348 24.433 24.0798C24.4105 24.0798 24.3805 24.0948 24.373 24.0798L24.3055 23.9073ZM24.3655 24.3273C24.4105 24.4323 24.3355 24.4323 24.3505 24.4548C24.3505 24.4773 24.3655 24.4623 24.3805 24.4623L24.493 24.4098L24.5605 24.3948C24.5755 24.3873 24.5755 24.3798 24.5755 24.3723C24.5605 24.3423 24.5005 24.4023 24.4705 24.3123L24.4105 24.1698C24.3955 24.1398 24.3955 24.1323 24.433 24.1173C24.4705 24.1023 24.4855 24.1098 24.5155 24.1398L24.6355 24.2448C24.673 24.2823 24.718 24.3273 24.7855 24.3048C24.808 24.2898 24.853 24.2523 24.838 24.2298L24.823 24.2223L24.808 24.2373H24.7705L24.5605 24.0498L24.5905 23.9973C24.5987 23.9784 24.603 23.958 24.603 23.9373C24.603 23.9167 24.5987 23.8963 24.5905 23.8773C24.583 23.8323 24.5155 23.7273 24.358 23.7873L24.208 23.8548L24.118 23.8848L24.103 23.8998C24.118 23.9298 24.1855 23.8698 24.223 23.9598L24.373 24.3348L24.3655 24.3273Z" fill="#703D29"/>
<path d="M15.8096 15.166H19.7504V19.102H15.8096V15.166Z" fill="#D52B1E"/>
<path d="M17.6571 18.2615C17.6571 18.2615 17.6571 18.4055 17.6187 18.5159C17.5707 18.6455 17.5707 18.6455 17.5275 18.7079C17.4809 18.784 17.4188 18.8495 17.3451 18.8999C17.2491 18.9575 17.1531 18.9863 17.0571 18.9767C16.7979 18.9575 16.6731 18.6695 16.6155 18.4391C16.5531 18.1943 16.3755 18.0551 16.2555 18.1511C16.1883 18.1991 16.1883 18.2855 16.2411 18.3719C16.2928 18.4343 16.361 18.4808 16.4379 18.5063L16.2987 18.6839C16.2987 18.6839 15.9963 18.6455 15.9387 18.3287C15.9147 18.2087 15.9723 17.9879 16.1739 17.9207C16.4283 17.8343 16.5867 18.0167 16.6683 18.1703C16.7739 18.3815 16.8219 18.7655 17.1195 18.7079C17.2827 18.6743 17.3595 18.4391 17.3595 18.3287L17.4747 18.2039L17.6523 18.2615H17.6571Z" fill="#F2F2F2"/>
<path d="M17.9025 18.2615C17.9025 18.2615 17.9025 18.4055 17.9409 18.5159C17.9889 18.6455 17.9889 18.6455 18.0321 18.7079C18.0787 18.784 18.1408 18.8495 18.2145 18.8999C18.3105 18.9575 18.4065 18.9863 18.5025 18.9767C18.7617 18.9575 18.8865 18.6695 18.9441 18.4391C19.0065 18.1943 19.1841 18.0551 19.3041 18.1511C19.3713 18.1991 19.3713 18.2855 19.3185 18.3719C19.2668 18.4343 19.1986 18.4808 19.1217 18.5063L19.2609 18.6839C19.2609 18.6839 19.5633 18.6455 19.6209 18.3287C19.6449 18.2087 19.5873 17.9879 19.3857 17.9207C19.1313 17.8343 18.9729 18.0167 18.8913 18.1703C18.7857 18.3815 18.7377 18.7655 18.4401 18.7079C18.2769 18.6743 18.2001 18.4391 18.2001 18.3287L18.0849 18.2039L17.9073 18.2615H17.9025Z" fill="#F2F2F2"/>
<path d="M18.1332 16.592L18.6516 16.0304C18.6516 16.0304 18.7284 15.968 18.7284 15.8672L18.6228 15.8864L18.5988 15.8288L18.594 15.776L18.738 15.7424V15.68L18.7524 15.6176L18.5988 15.6272L18.6132 15.56L18.6372 15.512L18.7284 15.4928H18.8196C18.906 15.3296 19.2612 15.1856 19.5108 15.4448C19.6932 15.6368 19.6548 15.9824 19.4148 16.0784C19.3611 16.1023 19.3017 16.11 19.2437 16.1006C19.1858 16.0912 19.1318 16.0652 19.0884 16.0256L19.1844 15.8336C19.314 15.9152 19.4244 15.8192 19.4148 15.7184C19.4052 15.5888 19.3188 15.512 19.2084 15.5024C19.098 15.4928 19.0164 15.5504 18.9684 15.6464C18.9396 15.7088 18.954 15.752 18.9444 15.8192C18.9348 15.8912 18.9444 15.9296 18.9204 16.0016C18.8969 16.0679 18.8574 16.1273 18.8052 16.1744L18.2772 16.7504L16.2132 18.9776L16.0596 18.8336L18.1332 16.592Z" fill="#FEDF00"/>
<path d="M16.6161 16.7829C16.6161 16.7829 16.7457 17.4261 17.1873 18.3909C17.4129 18.3093 17.5425 18.2565 17.7825 18.2565C18.0177 18.2565 18.1473 18.3045 18.3729 18.3909C18.6187 17.8762 18.8101 17.3373 18.9441 16.7829L17.7825 15.2949L16.6113 16.7829H16.6161Z" fill="#F2F2F2"/>
<path d="M17.8924 15.7949L18.6988 16.8365C18.6988 16.8365 18.5932 17.3405 18.2668 18.0989C18.1372 18.0701 18.0268 18.0461 17.8924 18.0365V15.7949ZM17.6668 15.7949L16.8604 16.8365C16.8604 16.8365 16.966 17.3405 17.2924 18.0989C17.422 18.0701 17.5324 18.0461 17.6668 18.0365V15.7949Z" fill="#FEDF00"/>
<path d="M20.1719 15.1621H24.1169V19.0996H20.1719V15.1621Z" fill="#FEDF00"/>
<path d="M20.7275 15.1621H21.3125V19.0996H20.7275V15.1621ZM21.8525 15.1621H22.4375V19.0996H21.8525V15.1621ZM22.9775 15.1621H23.57V19.0996H22.9775V15.1621Z" fill="#D52B1E"/>
<path d="M15.8216 22.5123C15.8291 22.5873 15.8591 22.7073 15.9266 22.8348C16.0016 22.9473 15.9716 22.9398 16.1291 23.1198C16.2167 23.2081 16.318 23.2816 16.4291 23.3373C16.7836 23.4899 17.169 23.5568 17.5541 23.5323C17.7566 23.5248 17.9141 23.5023 18.0491 23.4798C18.3226 23.4435 18.5984 23.4285 18.8741 23.4348C18.9866 23.4348 19.0991 23.4573 19.2266 23.4798C19.4891 23.5323 19.7516 23.6298 19.7516 23.6298V19.5273H15.8066V22.3248L15.8216 22.5048V22.5123Z" fill="#FEDF00"/>
<path d="M16.2793 23.232L16.4668 23.3445L16.7218 23.4345V19.5195H16.2793V23.232ZM18.4693 23.412V19.5195H18.0343V23.4795L18.4693 23.427V23.412ZM19.3468 19.5195H18.9118V23.427C19.0543 23.442 19.1968 23.472 19.3468 23.502V19.527V19.5195ZM17.5918 19.5195V23.5245C17.5918 23.5245 17.3068 23.5395 17.1568 23.5245V19.5195H17.5918Z" fill="#D52B1E" stroke="#D52B1E" stroke-width="0.0225"/>
<path d="M24.1031 22.5147C24.0859 22.6255 24.0502 22.7326 23.9975 22.8315C23.9255 22.9419 23.9495 22.9419 23.7911 23.1195C23.6194 23.2888 23.4029 23.4054 23.1671 23.4555C22.9074 23.524 22.6383 23.5499 22.3703 23.5323C22.1639 23.5227 22.0103 23.4987 21.8759 23.4843C21.6935 23.4555 21.5543 23.4411 21.3479 23.4363C21.2487 23.4314 21.1494 23.4314 21.0503 23.4363C20.7508 23.4702 20.4561 23.5378 20.1719 23.6379V19.5195H24.1175V22.3275L24.1031 22.5099V22.5147Z" fill="#FEDF00"/>
<path d="M21.1789 19.8573L21.1501 19.8669L21.1117 19.9053C21.0925 19.9245 21.0781 19.9293 21.0541 19.9437L21.0253 19.9677C21.0109 19.9821 21.0253 19.9965 21.0109 20.0157C21.0061 20.0349 20.9965 20.0445 20.9821 20.0637C20.9629 20.0829 20.9485 20.0877 20.9341 20.1117L20.8765 20.1597L20.8621 20.1645H20.8333C20.8141 20.1741 20.8093 20.1933 20.7949 20.2029L20.8093 20.2317L20.8477 20.2989C20.8573 20.3133 20.8573 20.3325 20.8717 20.3373C20.8957 20.3469 20.9149 20.3469 20.9341 20.3421C20.9725 20.3517 20.9965 20.3517 21.0301 20.3661L21.1021 20.4045C21.1261 20.4189 21.1405 20.4237 21.1645 20.4285H21.2509V20.4429L21.3469 20.4909C21.3445 20.497 21.3429 20.5035 21.3421 20.5101C21.3373 20.5245 21.3325 20.5437 21.3373 20.5485C21.3661 20.6397 21.3949 20.6925 21.4093 20.7021C21.4381 20.7117 21.4477 20.7453 21.4621 20.7741L21.4477 20.7885C21.4189 20.8173 21.3901 20.8365 21.3661 20.8749C21.3325 20.9325 21.3085 20.9325 21.3517 21.0093L21.4237 21.1245C21.4429 21.1581 21.4525 21.1821 21.4621 21.2205C21.4717 21.2541 21.4765 21.2781 21.4765 21.3165L21.5245 21.3309L21.5581 21.3021L21.5869 21.2445V21.1965C21.5773 21.1917 21.5725 21.1773 21.5773 21.1629C21.5773 21.1437 21.6013 21.1485 21.6109 21.1341C21.6253 21.1101 21.5917 21.0957 21.5773 21.0813C21.5485 21.0477 21.5101 21.0381 21.5005 20.9901C21.5005 20.9805 21.5005 20.9709 21.5197 20.9565L21.6157 20.8701C21.6253 20.8749 21.6445 20.8797 21.6637 20.8749L21.7261 20.8941C21.7549 20.9037 21.7693 20.8941 21.7837 20.8941H21.8029L21.8077 20.9229C21.8125 20.9709 21.8029 21.0669 21.8173 21.0909L21.8317 21.1197L21.8413 21.1485V21.2445L21.8317 21.3261C21.8317 21.3453 21.8221 21.3597 21.8077 21.3741C21.7981 21.3933 21.7789 21.3933 21.7597 21.4077V21.4557L21.8125 21.4797L21.8749 21.4941L21.9085 21.4797L21.9133 21.4509L21.9373 21.4269C21.9565 21.4173 21.9757 21.4269 21.9805 21.4221C21.9901 21.4077 21.9805 21.4029 21.9805 21.3837C21.9805 21.3549 21.9709 21.3357 21.9661 21.3069C21.9592 21.2624 21.9576 21.2173 21.9613 21.1725C21.9613 21.1437 21.9613 21.1245 21.9709 21.1005C21.9757 21.0525 21.9901 21.0333 21.9997 20.9949C22.0141 20.9469 22.0141 20.9181 22.0189 20.8749C22.1808 20.8992 22.3459 20.8894 22.5037 20.8461C22.5421 20.8797 22.5853 20.9037 22.6333 20.9229V20.9709C22.6333 20.9853 22.6333 20.9901 22.6429 21.0045L22.6573 21.0189C22.6717 21.0189 22.6813 21.0189 22.6909 21.0093C22.7005 20.9997 22.7005 20.9901 22.7005 20.9757V20.9421H22.7869V20.9949C22.7917 21.0093 22.8013 21.0141 22.8109 21.0141C22.8154 21.0162 22.8203 21.0173 22.8253 21.0173C22.8303 21.0173 22.8352 21.0162 22.8397 21.0141C22.8541 21.0045 22.8493 20.9853 22.8541 20.9661V20.9325L22.9021 20.9133C22.9034 20.9276 22.9034 20.9421 22.9021 20.9565L22.8877 20.9997C22.8781 21.0285 22.8637 21.0381 22.8493 21.0669C22.8301 21.0957 22.8253 21.1149 22.8013 21.1389L22.7725 21.1725L22.7437 21.2157L22.7005 21.2637C22.6669 21.2925 22.6429 21.2733 22.6045 21.3069L22.5901 21.3549L22.6573 21.3837L22.7197 21.3933L22.7389 21.3837C22.7389 21.3693 22.7389 21.3549 22.7533 21.3453C22.7629 21.3309 22.7725 21.3309 22.7869 21.3261C22.8061 21.3261 22.8253 21.3261 22.8349 21.3165C22.8541 21.3021 22.8541 21.2685 22.8685 21.2445C22.9039 21.1733 22.9528 21.1097 23.0125 21.0573L23.0941 20.9901C23.1037 20.9709 23.1181 20.9661 23.1181 20.9421L23.1085 20.9133L23.0989 20.8653C23.1709 20.8989 23.1469 20.8989 23.1565 20.9325C23.1709 20.9613 23.1565 20.9805 23.1613 21.0141C23.1661 21.0525 23.1853 21.0669 23.1853 21.1053C23.1901 21.1485 23.1805 21.1725 23.1709 21.2157C23.1661 21.2541 23.1661 21.2781 23.1469 21.3117C23.1356 21.3397 23.1174 21.3644 23.0941 21.3837L23.0653 21.4077L23.0605 21.4557L23.1133 21.4749L23.1901 21.4941L23.2093 21.4797C23.2189 21.4461 23.2093 21.3981 23.2285 21.3981C23.2477 21.3933 23.2621 21.3981 23.2669 21.3837V21.3501L23.3005 21.1341L23.3197 21.0429L23.3389 20.9613C23.3725 20.8653 23.3293 20.8509 23.2909 20.7885C23.2669 20.7549 23.2573 20.7405 23.2573 20.7165V20.5773C23.2559 20.5325 23.2559 20.4876 23.2573 20.4429L23.2765 20.4333C23.3341 20.3997 23.3581 20.3901 23.3917 20.3133C23.4019 20.2907 23.4069 20.266 23.4061 20.2413V20.1933L23.3869 20.1453C23.3794 20.131 23.3697 20.1181 23.3581 20.1069C23.3245 20.0589 23.2765 20.0541 23.2285 20.0349C23.1565 20.0109 23.1085 20.0157 23.0365 20.0109C22.9501 20.0013 22.9069 20.0013 22.8253 20.0109C22.7293 20.0109 22.6765 20.0301 22.5805 20.0445L22.3453 20.0637C22.2349 20.0637 22.1341 20.0397 22.0669 20.0445C21.9517 20.0541 21.9469 20.0829 21.7693 20.0973C21.7086 20.1022 21.6478 20.1054 21.5869 20.1069L21.4813 20.0733C21.5245 20.0589 21.5341 20.0493 21.5533 20.0253C21.5677 20.0061 21.5629 19.9917 21.5821 19.9725L21.6157 19.9245C21.603 19.9149 21.5882 19.9083 21.5725 19.9053H21.5245C21.5045 19.906 21.4849 19.9109 21.4669 19.9197L21.4285 19.9485L21.3229 19.8909C21.2779 19.868 21.2291 19.8533 21.1789 19.8477V19.8573Z" fill="#D52B1E"/>
<path d="M23.3008 20.4567L23.2624 20.4711C23.2192 20.4903 23.1856 20.4903 23.1376 20.4951C23.0128 20.5047 22.9312 20.4423 22.8016 20.4519C22.7344 20.4567 22.7056 20.5095 22.6336 20.5287C22.6068 20.5344 22.5795 20.5376 22.552 20.5383L22.576 20.4903C22.576 20.4903 22.5184 20.5047 22.48 20.5047C22.4542 20.5043 22.4284 20.501 22.4032 20.4951L22.4512 20.4471L22.3888 20.4375C22.3712 20.4288 22.355 20.4175 22.3408 20.4039C22.3682 20.4002 22.3954 20.3954 22.4224 20.3895C22.4944 20.3703 22.5184 20.3319 22.6096 20.3223C22.6624 20.3223 22.7536 20.3223 22.9744 20.3607C23.1184 20.3847 23.1856 20.3703 23.2384 20.3463C23.2768 20.3319 23.2864 20.2983 23.2912 20.2599C23.296 20.2215 23.272 20.1927 23.2528 20.1735C23.248 20.1735 23.2288 20.1591 23.2 20.1543" stroke="#FEDF00" stroke-width="0.048" stroke-linecap="round"/>
<path d="M21.1885 20.0293C21.1645 20.0293 21.1453 20.0293 21.1261 20.0437C21.1021 20.0581 21.0973 20.0773 21.0781 20.0965C21.1021 20.1013 21.1165 20.1157 21.1357 20.1109C21.1549 20.1109 21.1597 20.1013 21.1741 20.0869C21.1885 20.0677 21.1933 20.0533 21.1933 20.0293H21.1885Z" fill="#FCD900" stroke="#FEDF00" stroke-width="0.024"/>
<path d="M21.7259 20.6622C21.7385 20.7004 21.7546 20.7373 21.7739 20.7726C21.7835 20.811 21.7739 20.8302 21.7835 20.8686V20.9454M22.1099 20.6094L22.0955 20.6718L22.0475 20.8398V20.8734M21.5195 20.6814C21.5627 20.691 21.5483 20.8398 21.6107 20.8734" stroke="#FEDF00" stroke-width="0.048" stroke-linecap="round"/>
<path d="M22.8828 20.9504L22.902 20.936C22.9505 20.9161 22.9946 20.8868 23.0316 20.8496" stroke="#FEDF00" stroke-width="0.048"/>
<path d="M22.5127 20.8645C22.6807 20.8213 22.7959 20.7397 22.8775 20.7253M22.6855 20.6533H22.7239C22.7959 20.6389 22.8055 20.6821 22.8535 20.7109C22.9447 20.7589 22.9543 20.8213 23.0599 20.8741L23.0791 20.8789L23.1175 20.8981" stroke="#FEDF00" stroke-width="0.048" stroke-linecap="round"/>
<path d="M20.8477 20.2164H20.8813L20.9197 20.2068C20.9341 20.2068 20.9437 20.2068 20.9533 20.2164C20.9629 20.2164 20.9629 20.2212 20.9677 20.2308C20.9677 20.2404 20.9773 20.2452 20.9725 20.2548C20.9725 20.2644 20.9581 20.274 20.9437 20.274C20.9341 20.274 20.9245 20.274 20.9197 20.2596C20.9183 20.2566 20.9177 20.2533 20.9177 20.25C20.9177 20.2467 20.9183 20.2434 20.9197 20.2404C20.913 20.2438 20.9056 20.2455 20.8981 20.2455C20.8906 20.2455 20.8832 20.2438 20.8765 20.2404C20.8703 20.2385 20.8646 20.2354 20.8596 20.2313C20.8547 20.2272 20.8506 20.2221 20.8477 20.2164Z" fill="#FCD900" stroke="#FEDF00" stroke-width="0.024"/>
<path d="M21.2023 20.6822L21.1063 20.639C21.1255 20.6294 21.1399 20.6294 21.1543 20.615C21.1687 20.5958 21.1687 20.5766 21.1783 20.5526C21.1879 20.5286 21.1879 20.5046 21.2119 20.4854C21.2263 20.4758 21.2503 20.4758 21.2647 20.4806C21.2839 20.4806 21.3031 20.4998 21.3079 20.5142C21.3079 20.543 21.2983 20.5622 21.2935 20.5862C21.2935 20.615 21.2791 20.6294 21.2839 20.6534C21.2839 20.6726 21.2935 20.6822 21.3031 20.7014L21.2071 20.6822H21.2023ZM21.1543 20.7302C21.1534 20.7246 21.1543 20.7189 21.1566 20.7138C21.159 20.7086 21.1629 20.7043 21.1677 20.7013C21.1725 20.6984 21.1781 20.6969 21.1838 20.6971C21.1894 20.6973 21.1949 20.6992 21.1995 20.7024C21.2041 20.7057 21.2076 20.7103 21.2097 20.7156C21.2117 20.7209 21.2121 20.7267 21.2109 20.7322C21.2096 20.7377 21.2068 20.7427 21.2027 20.7467C21.1986 20.7506 21.1935 20.7532 21.1879 20.7542C21.1837 20.7549 21.1795 20.7547 21.1754 20.7536C21.1713 20.7525 21.1675 20.7504 21.1643 20.7477C21.1611 20.7449 21.1586 20.7415 21.1568 20.7377C21.1551 20.7338 21.1542 20.7296 21.1543 20.7254V20.7302ZM21.0727 19.9334H21.0631C21.0439 19.9142 21.0439 19.895 21.0343 19.8758C21.0265 19.8575 21.0217 19.8381 21.0199 19.8182V19.7222C21.0199 19.7078 21.0199 19.6934 21.0103 19.679C21.0103 19.6694 20.9911 19.6646 20.9959 19.6598C20.9959 19.655 21.0103 19.6598 21.0151 19.6598C21.0343 19.6598 21.0439 19.6646 21.0631 19.679C21.0775 19.6934 21.0871 19.7078 21.0919 19.727L21.1111 19.799L21.1255 19.8374L21.1495 19.8662L21.1159 19.9046L21.0727 19.9334ZM21.2455 20.4422L21.3511 20.4902C21.4234 20.4467 21.4817 20.3834 21.5191 20.3078C21.5623 20.2214 21.5671 20.1782 21.5863 20.0966L21.4999 20.0726H21.4807C21.4567 20.159 21.4471 20.2022 21.4039 20.2742C21.3655 20.3366 21.3223 20.3846 21.2791 20.4182L21.2455 20.4422ZM21.4855 21.3158L21.5239 21.2534L21.5911 21.2006H21.6103C21.6097 21.2464 21.6016 21.2918 21.5863 21.335L21.5671 21.383L21.5431 21.407C21.5191 21.3686 21.4807 21.3446 21.4807 21.311L21.4855 21.3158ZM23.0695 21.4022L23.1367 21.431L23.2087 21.4742V21.4982L23.1367 21.5078C23.1159 21.5094 23.0951 21.5094 23.0743 21.5078H23.0263L22.9975 21.4886C23.0215 21.455 23.0359 21.4118 23.0647 21.4022H23.0695ZM22.5991 21.3062L22.6663 21.3302L22.7383 21.3782C22.7383 21.383 22.7431 21.3926 22.7383 21.3974C22.6961 21.4088 22.6524 21.4136 22.6087 21.4118L22.5607 21.407L22.5271 21.3926C22.5559 21.359 22.5703 21.311 22.5991 21.3062ZM21.7639 21.407L21.8359 21.431L21.9079 21.479V21.503C21.8639 21.5132 21.8185 21.5165 21.7735 21.5126H21.7255L21.6967 21.4934C21.7207 21.4598 21.7351 21.4166 21.7639 21.407ZM21.3319 19.9766C21.3031 19.9622 21.2839 19.9286 21.3031 19.8998C21.3079 19.8902 21.3223 19.8902 21.3319 19.8806C21.3415 19.8662 21.3367 19.8566 21.3319 19.8422L21.3271 19.7942L21.3175 19.7462C21.3175 19.7174 21.3175 19.6982 21.3367 19.6694C21.3463 19.655 21.3703 19.6406 21.3751 19.6406C21.3847 19.6454 21.3751 19.6646 21.3751 19.679C21.3751 19.703 21.3799 19.7126 21.3895 19.7366L21.4231 19.799C21.4327 19.8278 21.4423 19.8374 21.4423 19.8662C21.4423 19.8902 21.4423 19.8998 21.4327 19.9238C21.4265 19.9389 21.4166 19.9521 21.4039 19.9622C21.3927 19.9714 21.3796 19.978 21.3655 19.9814C21.3561 19.9841 21.3461 19.9841 21.3367 19.9814L21.3319 19.9766Z" fill="#0065BD"/>
<path d="M21.1789 21.6131L21.1501 21.6227L21.1117 21.6611C21.0925 21.6803 21.0781 21.6851 21.0541 21.6995L21.0253 21.7235C21.0109 21.7379 21.0253 21.7523 21.0109 21.7715C21.0061 21.7907 20.9965 21.8003 20.9821 21.8195C20.9629 21.8387 20.9485 21.8435 20.9341 21.8675L20.8765 21.9155L20.8621 21.9203H20.8333C20.8141 21.9299 20.8093 21.9491 20.7949 21.9587L20.8093 21.9875L20.8477 22.0547C20.8573 22.0691 20.8573 22.0883 20.8717 22.0931C20.8957 22.1027 20.9149 22.1027 20.9341 22.0979C20.9725 22.1075 20.9965 22.1075 21.0301 22.1219L21.1021 22.1603C21.1261 22.1747 21.1405 22.1795 21.1645 22.1843H21.2509V22.1987L21.3469 22.2467C21.3445 22.2529 21.3429 22.2593 21.3421 22.2659C21.3373 22.2803 21.3325 22.2995 21.3373 22.3043C21.3661 22.3955 21.3949 22.4483 21.4093 22.4579C21.4381 22.4675 21.4477 22.5011 21.4621 22.5299L21.4477 22.5443C21.4189 22.5731 21.3901 22.5923 21.3661 22.6307C21.3325 22.6883 21.3085 22.6883 21.3517 22.7651L21.4237 22.8803C21.4429 22.9139 21.4525 22.9379 21.4621 22.9763C21.4717 23.0099 21.4765 23.0339 21.4765 23.0723L21.5245 23.0867L21.5581 23.0579L21.5869 23.0003V22.9523C21.5773 22.9475 21.5725 22.9331 21.5773 22.9187C21.5773 22.8995 21.6013 22.9043 21.6109 22.8899C21.6253 22.8659 21.5917 22.8515 21.5773 22.8371C21.5485 22.8035 21.5101 22.7939 21.5005 22.7459C21.5005 22.7363 21.5005 22.7267 21.5197 22.7123L21.6157 22.6259C21.6253 22.6307 21.6445 22.6355 21.6637 22.6307L21.7261 22.6499C21.7549 22.6595 21.7693 22.6499 21.7837 22.6499H21.8029L21.8077 22.6787C21.8125 22.7267 21.8029 22.8227 21.8173 22.8467L21.8317 22.8755L21.8413 22.9043V23.0003L21.8317 23.0819C21.8317 23.1011 21.8221 23.1155 21.8077 23.1299C21.7981 23.1491 21.7789 23.1491 21.7597 23.1635V23.2115L21.8125 23.2355L21.8749 23.2499L21.9085 23.2355L21.9133 23.2067L21.9373 23.1827C21.9565 23.1731 21.9757 23.1827 21.9805 23.1779C21.9901 23.1635 21.9805 23.1587 21.9805 23.1395C21.9805 23.1107 21.9709 23.0915 21.9661 23.0627C21.9592 23.0183 21.9576 22.9731 21.9613 22.9283C21.9613 22.8995 21.9613 22.8803 21.9709 22.8563C21.9757 22.8083 21.9901 22.7891 21.9997 22.7507C22.0141 22.7027 22.0141 22.6739 22.0189 22.6307C22.1808 22.6551 22.3459 22.6453 22.5037 22.6019C22.5421 22.6355 22.5853 22.6595 22.6333 22.6787V22.7267C22.6333 22.7411 22.6333 22.7459 22.6429 22.7603L22.6573 22.7747C22.6717 22.7747 22.6813 22.7747 22.6909 22.7651C22.7005 22.7555 22.7005 22.7459 22.7005 22.7315V22.6979H22.7869V22.7507C22.7917 22.7651 22.8013 22.7699 22.8109 22.7699C22.8154 22.7721 22.8203 22.7732 22.8253 22.7732C22.8303 22.7732 22.8352 22.7721 22.8397 22.7699C22.8541 22.7603 22.8493 22.7411 22.8541 22.7219V22.6883L22.9021 22.6691C22.9034 22.6835 22.9034 22.6979 22.9021 22.7123L22.8877 22.7555C22.8781 22.7843 22.8637 22.7939 22.8493 22.8227C22.8301 22.8515 22.8253 22.8707 22.8013 22.8947L22.7725 22.9283L22.7437 22.9715L22.7005 23.0195C22.6669 23.0483 22.6429 23.0291 22.6045 23.0627L22.5901 23.1107L22.6573 23.1395L22.7197 23.1491L22.7389 23.1395C22.7389 23.1251 22.7389 23.1107 22.7533 23.1011C22.7629 23.0867 22.7725 23.0867 22.7869 23.0819C22.8061 23.0819 22.8253 23.0819 22.8349 23.0723C22.8541 23.0579 22.8541 23.0243 22.8685 23.0003C22.9039 22.9291 22.9528 22.8655 23.0125 22.8131L23.0941 22.7459C23.1037 22.7267 23.1181 22.7219 23.1181 22.6979L23.1085 22.6691L23.0989 22.6211C23.1709 22.6547 23.1469 22.6547 23.1565 22.6883C23.1709 22.7171 23.1565 22.7363 23.1613 22.7699C23.1661 22.8083 23.1853 22.8227 23.1853 22.8611C23.1901 22.9043 23.1805 22.9283 23.1709 22.9715C23.1661 23.0099 23.1661 23.0339 23.1469 23.0675C23.1356 23.0955 23.1174 23.1203 23.0941 23.1395L23.0653 23.1635L23.0605 23.2115L23.1133 23.2307L23.1901 23.2499L23.2093 23.2355C23.2189 23.2019 23.2093 23.1539 23.2285 23.1539C23.2477 23.1491 23.2621 23.1539 23.2669 23.1395V23.1059L23.3005 22.8899L23.3197 22.7987L23.3389 22.7171C23.3725 22.6211 23.3293 22.6067 23.2909 22.5443C23.2669 22.5107 23.2573 22.4963 23.2573 22.4723V22.3331C23.2559 22.2883 23.2559 22.2435 23.2573 22.1987L23.2765 22.1891C23.3341 22.1555 23.3581 22.1459 23.3917 22.0691C23.4019 22.0465 23.4069 22.0219 23.4061 21.9971V21.9491L23.3869 21.9011C23.3794 21.8869 23.3697 21.8739 23.3581 21.8627C23.3245 21.8147 23.2765 21.8099 23.2285 21.7907C23.1565 21.7667 23.1085 21.7715 23.0365 21.7667C22.9501 21.7571 22.9069 21.7571 22.8253 21.7667C22.7293 21.7667 22.6765 21.7859 22.5805 21.8003L22.3453 21.8195C22.2349 21.8195 22.1341 21.7955 22.0669 21.8003C21.9517 21.8099 21.9469 21.8387 21.7693 21.8531C21.7086 21.858 21.6478 21.8612 21.5869 21.8627L21.4813 21.8291C21.5245 21.8147 21.5341 21.8051 21.5533 21.7811C21.5677 21.7619 21.5629 21.7475 21.5821 21.7283L21.6157 21.6803C21.603 21.6707 21.5882 21.6642 21.5725 21.6611H21.5245C21.5045 21.6619 21.4849 21.6668 21.4669 21.6755L21.4285 21.7043L21.3229 21.6467C21.2779 21.6238 21.2291 21.6092 21.1789 21.6035V21.6131Z" fill="#D52B1E"/>
<path d="M23.3008 22.2128L23.2624 22.2272C23.2192 22.2464 23.1856 22.2464 23.1376 22.2512C23.0128 22.2608 22.9312 22.1984 22.8016 22.208C22.7344 22.2128 22.7056 22.2656 22.6336 22.2848C22.6068 22.2905 22.5795 22.2937 22.552 22.2944L22.576 22.2464C22.576 22.2464 22.5184 22.2608 22.48 22.2608C22.4542 22.2604 22.4284 22.2571 22.4032 22.2512L22.4512 22.2032L22.3888 22.1936C22.3712 22.1849 22.355 22.1736 22.3408 22.16C22.3682 22.1563 22.3954 22.1515 22.4224 22.1456C22.4944 22.1264 22.5184 22.088 22.6096 22.0784C22.6624 22.0784 22.7536 22.0784 22.9744 22.1168C23.1184 22.1408 23.1856 22.1264 23.2384 22.1024C23.2768 22.088 23.2864 22.0544 23.2912 22.016C23.296 21.9776 23.272 21.9488 23.2528 21.9296C23.248 21.9296 23.2288 21.9152 23.2 21.9104" stroke="#FEDF00" stroke-width="0.048" stroke-linecap="round"/>
<path d="M21.1885 21.7854C21.1645 21.7854 21.1453 21.7854 21.1261 21.7998C21.1021 21.8142 21.0973 21.8334 21.0781 21.8526C21.1021 21.8574 21.1165 21.8718 21.1357 21.867C21.1549 21.867 21.1597 21.8574 21.1741 21.843C21.1885 21.8238 21.1933 21.8094 21.1933 21.7854H21.1885Z" fill="#FCD900" stroke="#FEDF00" stroke-width="0.024"/>
<path d="M21.7259 22.4183C21.7385 22.4565 21.7546 22.4934 21.7739 22.5287C21.7835 22.5671 21.7739 22.5863 21.7835 22.6247V22.7015M22.1099 22.3655L22.0955 22.4279L22.0475 22.5959V22.6295M21.5195 22.4375C21.5627 22.4471 21.5483 22.5959 21.6107 22.6295" stroke="#FEDF00" stroke-width="0.048" stroke-linecap="round"/>
<path d="M22.8828 22.7065L22.902 22.6921C22.9505 22.6722 22.9946 22.6429 23.0316 22.6057" stroke="#FEDF00" stroke-width="0.048"/>
<path d="M22.5127 22.6206C22.6807 22.5774 22.7959 22.4958 22.8775 22.4814M22.6855 22.4094H22.7239C22.7959 22.395 22.8055 22.4382 22.8535 22.467C22.9447 22.515 22.9543 22.5774 23.0599 22.6302L23.0791 22.635L23.1175 22.6542" stroke="#FEDF00" stroke-width="0.048" stroke-linecap="round"/>
<path d="M20.8477 21.9725H20.8813L20.9197 21.9629C20.9341 21.9629 20.9437 21.9629 20.9533 21.9725C20.9629 21.9725 20.9629 21.9773 20.9677 21.9869C20.9677 21.9965 20.9773 22.0013 20.9725 22.0109C20.9725 22.0205 20.9581 22.0301 20.9437 22.0301C20.9341 22.0301 20.9245 22.0301 20.9197 22.0157C20.9183 22.0127 20.9177 22.0094 20.9177 22.0061C20.9177 22.0028 20.9183 21.9995 20.9197 21.9965C20.913 21.9999 20.9056 22.0016 20.8981 22.0016C20.8906 22.0016 20.8832 21.9999 20.8765 21.9965C20.8703 21.9946 20.8646 21.9915 20.8596 21.9874C20.8547 21.9833 20.8506 21.9782 20.8477 21.9725Z" fill="#FCD900" stroke="#FEDF00" stroke-width="0.024"/>
<path d="M21.2023 22.4381L21.1063 22.3949C21.1255 22.3853 21.1399 22.3853 21.1543 22.3709C21.1687 22.3517 21.1687 22.3325 21.1783 22.3085C21.1879 22.2845 21.1879 22.2605 21.2119 22.2413C21.2263 22.2317 21.2503 22.2317 21.2647 22.2365C21.2839 22.2365 21.3031 22.2557 21.3079 22.2701C21.3079 22.2989 21.2983 22.3181 21.2935 22.3421C21.2935 22.3709 21.2791 22.3853 21.2839 22.4093C21.2839 22.4285 21.2935 22.4381 21.3031 22.4573L21.2071 22.4381H21.2023ZM21.1543 22.4861C21.1534 22.4805 21.1543 22.4748 21.1566 22.4696C21.159 22.4645 21.1629 22.4602 21.1677 22.4572C21.1725 22.4542 21.1781 22.4528 21.1838 22.453C21.1894 22.4532 21.1949 22.455 21.1995 22.4583C21.2041 22.4616 21.2076 22.4662 21.2097 22.4715C21.2117 22.4768 21.2121 22.4825 21.2109 22.488C21.2096 22.4936 21.2068 22.4986 21.2027 22.5025C21.1986 22.5064 21.1935 22.5091 21.1879 22.5101C21.1837 22.5108 21.1795 22.5106 21.1754 22.5094C21.1713 22.5083 21.1675 22.5063 21.1643 22.5036C21.1611 22.5008 21.1586 22.4974 21.1568 22.4935C21.1551 22.4897 21.1542 22.4855 21.1543 22.4813V22.4861ZM21.0727 21.6893H21.0631C21.0439 21.6701 21.0439 21.6509 21.0343 21.6317C21.0265 21.6133 21.0217 21.5939 21.0199 21.5741V21.4781C21.0199 21.4637 21.0199 21.4493 21.0103 21.4349C21.0103 21.4253 20.9911 21.4205 20.9959 21.4157C20.9959 21.4109 21.0103 21.4157 21.0151 21.4157C21.0343 21.4157 21.0439 21.4205 21.0631 21.4349C21.0775 21.4493 21.0871 21.4637 21.0919 21.4829L21.1111 21.5549L21.1255 21.5933L21.1495 21.6221L21.1159 21.6605L21.0727 21.6893ZM21.2455 22.1981L21.3511 22.2461C21.4234 22.2026 21.4817 22.1393 21.5191 22.0637C21.5623 21.9773 21.5671 21.9341 21.5863 21.8525L21.4999 21.8285H21.4807C21.4567 21.9149 21.4471 21.9581 21.4039 22.0301C21.3655 22.0925 21.3223 22.1405 21.2791 22.1741L21.2455 22.1981ZM21.4855 23.0717L21.5239 23.0093L21.5911 22.9565H21.6103C21.6097 23.0023 21.6016 23.0477 21.5863 23.0909L21.5671 23.1389L21.5431 23.1629C21.5191 23.1245 21.4807 23.1005 21.4807 23.0669L21.4855 23.0717ZM23.0695 23.1581L23.1367 23.1869L23.2087 23.2301V23.2541L23.1367 23.2637C23.1159 23.2653 23.0951 23.2653 23.0743 23.2637H23.0263L22.9975 23.2445C23.0215 23.2109 23.0359 23.1677 23.0647 23.1581H23.0695ZM22.5991 23.0621L22.6663 23.0861L22.7383 23.1341C22.7383 23.1389 22.7431 23.1485 22.7383 23.1533C22.6961 23.1646 22.6524 23.1695 22.6087 23.1677L22.5607 23.1629L22.5271 23.1485C22.5559 23.1149 22.5703 23.0669 22.5991 23.0621ZM21.7639 23.1629L21.8359 23.1869L21.9079 23.2349V23.2589C21.8639 23.2691 21.8185 23.2723 21.7735 23.2685H21.7255L21.6967 23.2493C21.7207 23.2157 21.7351 23.1725 21.7639 23.1629ZM21.3319 21.7325C21.3031 21.7181 21.2839 21.6845 21.3031 21.6557C21.3079 21.6461 21.3223 21.6461 21.3319 21.6365C21.3415 21.6221 21.3367 21.6125 21.3319 21.5981L21.3271 21.5501L21.3175 21.5021C21.3175 21.4733 21.3175 21.4541 21.3367 21.4253C21.3463 21.4109 21.3703 21.3965 21.3751 21.3965C21.3847 21.4013 21.3751 21.4205 21.3751 21.4349C21.3751 21.4589 21.3799 21.4685 21.3895 21.4925L21.4231 21.5549C21.4327 21.5837 21.4423 21.5933 21.4423 21.6221C21.4423 21.6461 21.4423 21.6557 21.4327 21.6797C21.4265 21.6947 21.4166 21.7079 21.4039 21.7181C21.3927 21.7273 21.3796 21.7339 21.3655 21.7373C21.3561 21.74 21.3461 21.74 21.3367 21.7373L21.3319 21.7325Z" fill="#0065BD"/>
<path d="M15.8066 15.1621H19.7516V19.0996H15.8066V15.1621ZM20.1716 15.1621H24.1166V19.0996H20.1716V15.1621ZM15.8216 22.5121C15.8291 22.5871 15.8591 22.7071 15.9266 22.8346C16.0016 22.9471 15.9716 22.9396 16.1291 23.1196C16.2167 23.2079 16.318 23.2813 16.4291 23.3371C16.7836 23.4897 17.169 23.5565 17.5541 23.5321C17.7566 23.5246 17.9141 23.5021 18.0491 23.4796C18.3226 23.4433 18.5984 23.4282 18.8741 23.4346C18.9866 23.4346 19.0991 23.4571 19.2266 23.4796C19.4891 23.5321 19.7516 23.6296 19.7516 23.6296V19.5271H15.8066V22.3246L15.8216 22.5046V22.5121ZM24.1016 22.5121C24.0858 22.6249 24.0502 22.7341 23.9966 22.8346C23.9216 22.9471 23.9516 22.9396 23.7941 23.1196C23.7065 23.2078 23.6052 23.2812 23.4941 23.3371C23.3966 23.3896 23.3216 23.4121 23.1641 23.4571C22.905 23.5255 22.6365 23.5508 22.3691 23.5321C22.1666 23.5246 22.0091 23.4946 21.8816 23.4796C21.7025 23.4555 21.5223 23.4404 21.3416 23.4346C21.2442 23.4299 21.1466 23.4299 21.0491 23.4346C20.9366 23.4346 20.8241 23.4571 20.6966 23.4796C20.4341 23.5321 20.1716 23.6296 20.1716 23.6296V19.5196H24.1241V22.3321L24.1091 22.5121H24.1016Z" stroke="#703D29" stroke-width="0.0375"/>
</g>
</g>
<rect x="1.4" y="1.4" width="37.2" height="37.2" rx="18.6" stroke="#006A4E" stroke-opacity="0.12" stroke-width="1.2"/>
<defs>
<clipPath id="clip0_398_9889">
<rect x="2" y="2" width="36" height="36" rx="18" fill="white"/>
</clipPath>
<clipPath id="clip1_398_9889">
<rect width="48" height="36" fill="white" transform="translate(-4 2)"/>
</clipPath>
</defs>
</svg>
