<svg width="40" height="40" viewBox="0 0 40 40" fill="none" xmlns="http://www.w3.org/2000/svg">
<g clip-path="url(#clip0_398_10046)">
<g clip-path="url(#clip1_398_10046)">
<path fill-rule="evenodd" clip-rule="evenodd" d="M-4 2H44V20.27H-4V2Z" fill="#FF0000"/>
<path fill-rule="evenodd" clip-rule="evenodd" d="M-4 19.7305H44V38.0005H-4V19.7305Z" fill="black"/>
<path fill-rule="evenodd" clip-rule="evenodd" d="M13.152 13.1151C25.542 16.3626 17.577 32.2851 7.80453 25.6551L7.14453 26.6751C12.897 30.7701 18.5895 27.4701 20.1945 23.1951C21.8595 18.7851 19.6245 12.5826 13.2495 11.9451L13.152 13.1151Z" fill="#FFEC00"/>
<path fill-rule="evenodd" clip-rule="evenodd" d="M8.74937 26.8092L10.3769 27.5667L9.61187 29.2017L7.98438 28.4367L8.74937 26.8092ZM19.9244 19.3467H21.7244V21.1467H19.9244V19.3467ZM19.0469 16.4292L20.7194 15.7842L21.3719 17.4567L19.6994 18.1092L19.0469 16.4292ZM17.0969 14.2467L18.3794 12.9792L19.6469 14.2542L18.3719 15.5217L17.0969 14.2467ZM15.1319 11.2617L16.8119 11.8917L16.1744 13.5717L14.4944 12.9417L15.1319 11.2617ZM19.6994 22.2492L21.3719 22.9167L20.6969 24.5817L19.0319 23.9142L19.6994 22.2492ZM14.4569 27.4992L16.1069 26.8017L16.8194 28.4517L15.1694 29.1567L14.4569 27.4992ZM11.4944 27.7092H13.2944V29.5092H11.4944V27.7092ZM14.5919 19.0092L13.0694 17.8842L11.5469 18.9792L12.1469 17.2542L10.6244 16.1292H12.4619L13.0994 14.4342L13.6844 16.1367L15.5369 16.1142L14.0669 17.2617L14.5919 19.0167V19.0092Z" fill="#FFEC00"/>
<path fill-rule="evenodd" clip-rule="evenodd" d="M21.2002 27.9805C21.1102 28.0105 20.7352 28.9105 20.4727 29.3455L20.7502 29.4205C21.7702 29.7805 22.2802 30.1105 22.7152 30.733C22.8158 30.831 22.9479 30.89 23.088 30.8997C23.2281 30.9093 23.3671 30.8688 23.4802 30.7855C23.4802 30.7855 23.6902 30.7105 23.9602 30.4105C24.1852 30.073 24.1252 29.8105 23.8552 29.578C23.0302 28.978 22.1377 28.528 21.2002 27.9805Z" fill="#FFEE00"/>
<path fill-rule="evenodd" clip-rule="evenodd" d="M23.3981 29.9595C23.3981 30.0461 23.3638 30.129 23.3026 30.1902C23.2414 30.2514 23.1584 30.2858 23.0719 30.2858C22.9853 30.2858 22.9024 30.2514 22.8412 30.1902C22.78 30.129 22.7456 30.0461 22.7456 29.9595C22.7456 29.874 22.7796 29.792 22.8401 29.7315C22.9006 29.671 22.9826 29.637 23.0681 29.637C23.1537 29.637 23.2357 29.671 23.2962 29.7315C23.3566 29.792 23.3906 29.874 23.3906 29.9595H23.3981ZM21.7931 28.9395C21.7931 29.0261 21.7588 29.109 21.6976 29.1702C21.6364 29.2314 21.5534 29.2658 21.4669 29.2658C21.3803 29.2658 21.2974 29.2314 21.2362 29.1702C21.175 29.109 21.1406 29.0261 21.1406 28.9395C21.1406 28.853 21.175 28.77 21.2362 28.7088C21.2974 28.6477 21.3803 28.6133 21.4669 28.6133C21.5534 28.6133 21.6364 28.6477 21.6976 28.7088C21.7588 28.77 21.7931 28.853 21.7931 28.9395ZM22.6106 29.4645C22.6106 29.5511 22.5763 29.634 22.5151 29.6952C22.4539 29.7564 22.3709 29.7908 22.2844 29.7908C22.1978 29.7908 22.1149 29.7564 22.0537 29.6952C21.9925 29.634 21.9581 29.5511 21.9581 29.4645C21.9581 29.378 21.9925 29.295 22.0537 29.2338C22.1149 29.1727 22.1978 29.1383 22.2844 29.1383C22.3709 29.1383 22.4539 29.1727 22.5151 29.2338C22.5763 29.295 22.6106 29.378 22.6106 29.4645Z" fill="black"/>
<path fill-rule="evenodd" clip-rule="evenodd" d="M20.3376 29.2774C17.1426 27.4549 13.7901 25.4899 10.5876 23.6674C9.18508 22.7899 9.11758 21.1624 10.0626 19.9249C10.1526 19.7524 10.2726 19.7899 10.3176 19.8874C10.4301 20.4874 10.7676 21.1099 11.1726 21.4999C14.4967 23.5909 17.7895 25.7311 21.0501 27.9199C20.7951 28.3549 20.6001 28.8424 20.3376 29.2699V29.2774Z" fill="#FFEE00"/>
<path fill-rule="evenodd" clip-rule="evenodd" d="M18.2898 24.9121L19.6248 26.1121L18.4248 27.4471L17.0898 26.2471L18.2898 24.9121Z" fill="#FFEC00"/>
<path d="M20.8623 28.1605L11.4873 22.498M19.7073 26.8555L16.5498 24.808M17.9148 28.0105L14.6973 26.1505" stroke="black" stroke-width="0.225"/>
</g>
</g>
<rect x="1.4" y="1.4" width="37.2" height="37.2" rx="18.6" stroke="#006A4E" stroke-opacity="0.12" stroke-width="1.2"/>
<defs>
<clipPath id="clip0_398_10046">
<rect x="2" y="2" width="36" height="36" rx="18" fill="white"/>
</clipPath>
<clipPath id="clip1_398_10046">
<rect width="48" height="36" fill="white" transform="translate(-4 2)"/>
</clipPath>
</defs>
</svg>
