<svg width="141" height="49" viewBox="0 0 141 49" fill="none" xmlns="http://www.w3.org/2000/svg">
<rect width="140.458" height="48.5035" rx="7.07034" fill="#1E1E1E"/>
<path d="M35.7469 24.9369C35.765 24.1054 35.9937 23.2922 36.4117 22.5733C36.8298 21.8543 37.4234 21.2532 38.137 20.8262C37.6681 20.187 37.0602 19.6627 36.3591 19.2927C35.6579 18.9228 34.882 18.7169 34.0897 18.6907C32.3866 18.5156 30.7362 19.685 29.8685 19.685C28.9847 19.685 27.6481 18.7069 26.2092 18.7365C24.3351 18.7958 22.5862 19.8359 21.6741 21.4365C19.7138 24.7509 21.1756 29.6229 23.0551 32.3027C23.9942 33.615 25.0923 35.0808 26.5312 35.0283C27.9365 34.9717 28.4619 34.1525 30.1595 34.1525C31.841 34.1525 32.3341 35.0283 33.8013 34.996C35.3103 34.9717 36.2602 33.6769 37.1683 32.3525C37.8416 31.421 38.361 30.3875 38.7069 29.2914C36.9339 28.5598 35.7496 26.8164 35.7469 24.9369ZM32.9781 16.9284C33.8 15.9637 34.2055 14.7242 34.1072 13.4725C32.8567 13.5982 31.6975 14.184 30.8547 15.1163C30.4507 15.5665 30.1401 16.0925 29.9412 16.6638C29.7423 17.2352 29.659 17.8403 29.6961 18.4441C30.321 18.4486 30.9391 18.3151 31.5065 18.0531C32.0738 17.7911 32.5763 17.407 32.9781 16.9284Z" fill="white"/>
<path d="M57.1626 26.9882H53.159L52.3951 29.2517H50.4994L54.1634 19.165H56.0874L59.8363 29.2517H57.9548L57.1626 26.9882ZM53.6824 25.4179H56.6108L55.2245 21.4568L55.1254 20.9051L55.0264 21.4568L53.6824 25.4179ZM64.7505 29.4215C63.4065 29.4215 62.5153 28.8132 62.0343 27.8229V32.0528H60.2376V21.1173H61.7796L61.9777 22.7724C62.4163 21.6548 63.3641 20.9192 64.7788 20.9192C66.9008 20.9192 68.2448 22.4188 68.2448 25.1633V25.3613C68.2448 26.2526 68.0891 26.9882 67.7921 27.5965C67.1979 28.8132 66.1086 29.4215 64.7505 29.4215ZM64.1705 27.8512C65.5569 27.8512 66.3632 26.9458 66.3632 25.333V25.1633C66.3632 23.4232 65.4861 22.5037 64.2129 22.5037C62.869 22.5037 61.9918 23.5222 61.9918 25.135V25.2764C61.9918 26.8467 62.8265 27.8512 64.1705 27.8512ZM73.8619 29.4215C72.518 29.4215 71.6267 28.8132 71.1457 27.8229V32.0528H69.3491V21.1173H70.8911L71.0892 22.7724C71.5277 21.6548 72.4755 20.9192 73.8902 20.9192C76.0123 20.9192 77.3562 22.4188 77.3562 25.1633V25.3613C77.3562 26.2526 77.2006 26.9882 76.9035 27.5965C76.3093 28.8132 75.22 29.4215 73.8619 29.4215ZM73.2819 27.8512C74.6683 27.8512 75.4747 26.9458 75.4747 25.333V25.1633C75.4747 23.4232 74.5976 22.5037 73.3244 22.5037C71.9804 22.5037 71.1033 23.5222 71.1033 25.135V25.2764C71.1033 26.8467 71.938 27.8512 73.2819 27.8512ZM86.1635 29.4639C85.1449 29.4639 84.3386 29.3224 83.7161 29.0254C82.4853 28.4595 81.976 27.356 81.9195 25.7574H83.9C83.9425 27.158 84.6215 27.837 86.1918 27.837C87.5358 27.837 88.1441 27.1721 88.1441 26.3516C88.1441 25.9979 88.0309 25.7008 87.7904 25.5169C87.2953 25.135 86.4747 24.9652 85.5835 24.7954C84.7913 24.6257 83.9849 24.4276 83.3341 24.0315C82.6834 23.6213 82.2731 22.9705 82.2731 21.8671C82.2731 21.3578 82.4146 20.8768 82.6551 20.4382C83.1927 19.5611 84.2395 18.9811 85.8664 18.9811C88.5402 18.9811 89.7144 20.2119 89.7851 22.2349H87.8611C87.7904 21.0748 87.2387 20.5372 85.8381 20.5372C84.6074 20.5372 84.1405 21.1314 84.1405 21.8388C84.1405 22.1783 84.2537 22.4471 84.48 22.6168C84.961 22.9705 85.7391 23.1261 86.6162 23.31C87.4509 23.4798 88.2714 23.692 88.9222 24.1023C89.5729 24.5125 89.9973 25.1916 89.9973 26.3092C89.9973 26.875 89.8558 27.3985 89.5729 27.8936C88.9787 28.8415 87.847 29.4639 86.1635 29.4639ZM95.8659 29.2517H94.8191C94.0551 29.2517 93.461 29.1385 93.0649 28.9546C92.2443 28.5444 91.9897 27.6531 91.9897 25.9979V22.7583H90.4052V21.188H91.1267C91.3955 21.188 91.5794 21.1597 91.7068 21.1031C91.9755 20.9758 92.0604 20.6646 92.1029 19.9997C92.117 19.646 92.1312 19.165 92.1312 18.9245H93.7156V21.1173H95.8659V22.7583H93.7156V25.6867C93.7156 26.2243 93.7581 26.6204 93.8288 26.8892C93.9561 27.4268 94.3805 27.5258 95.2859 27.5258H95.8659V29.2517ZM100.425 29.4639C97.7934 29.4639 96.3222 28.0068 96.3222 25.3472V25.135C96.3222 24.2296 96.5061 23.4515 96.8598 22.829C97.5671 21.5841 98.8262 20.9192 100.425 20.9192C101.245 20.9192 101.938 21.0748 102.547 21.4144C103.792 22.0793 104.527 23.3383 104.527 25.135V25.3472C104.527 26.2384 104.358 26.9741 104.018 27.5824C103.311 28.8132 102.08 29.4639 100.425 29.4639ZM100.425 27.837C101.825 27.837 102.646 26.9316 102.646 25.3189V25.135C102.646 23.4656 101.783 22.5037 100.439 22.5037C99.1091 22.5037 98.2178 23.4091 98.2178 25.135V25.3189C98.2178 26.9316 99.0384 27.837 100.425 27.837ZM105.663 29.2517V21.1173H107.163L107.403 23.0271C107.729 21.6831 108.563 21.0465 110.105 21.0465H110.657V22.9281H109.851C109.2 22.9281 108.719 23.0129 108.379 23.1827C107.7 23.5081 107.488 24.2154 107.488 25.4886V29.2517H105.663ZM118.974 26.8467C118.507 28.5019 117.192 29.4639 115.055 29.4639C112.311 29.4639 110.967 27.8795 110.967 25.3613V25.1633C110.967 24.2862 111.137 23.5647 111.476 22.9139C112.155 21.6407 113.4 20.9192 115.112 20.9192C116.512 20.9192 117.503 21.4002 118.154 22.1783C118.804 22.9564 119.087 23.9608 119.087 25.0077V25.8706H112.806C112.962 27.2004 113.782 27.9361 115.126 27.9361C116.116 27.9361 116.696 27.5541 116.979 26.8467H118.974ZM115.126 22.3905C113.839 22.3905 113.032 23.1261 112.82 24.4135H117.234C117.107 23.1686 116.428 22.3905 115.126 22.3905Z" fill="white"/>
</svg>
