<svg width="100" height="23" viewBox="0 0 100 23" fill="none" xmlns="http://www.w3.org/2000/svg">
<path d="M15.3431 11.9375C15.3612 11.1061 15.5899 10.2928 16.0079 9.57387C16.426 8.85494 17.0196 8.25383 17.7332 7.82681C17.2643 7.18762 16.6564 6.66326 15.9553 6.29333C15.2541 5.9234 14.4781 5.71755 13.6859 5.69131C11.9828 5.51616 10.3324 6.68563 9.4647 6.68563C8.58086 6.68563 7.24432 5.70748 5.80538 5.73712C3.93126 5.7964 2.18244 6.83653 1.2703 8.43715C-0.690046 11.7516 0.771796 16.6235 2.65131 19.3033C3.59039 20.6156 4.68845 22.0815 6.12739 22.0289C7.53264 21.9723 8.0581 21.1531 9.75572 21.1531C11.4372 21.1531 11.9303 22.0289 13.3975 21.9966C14.9065 21.9723 15.8564 20.6775 16.7645 19.3531C17.4378 18.4216 17.9572 17.3881 18.3031 16.292C16.53 15.5604 15.3458 13.817 15.3431 11.9375ZM12.5743 3.92902C13.3962 2.96434 13.8017 1.7248 13.7034 0.473145C12.4529 0.59877 11.2937 1.1846 10.4509 2.11687C10.0469 2.56708 9.73633 3.09315 9.53741 3.66446C9.33849 4.23577 9.25515 4.84094 9.29224 5.44475C9.91715 5.44924 10.5353 5.31571 11.1027 5.0537C11.67 4.79168 12.1725 4.40765 12.5743 3.92902Z" fill="#1D1D1F"/>
<path d="M36.7588 13.9889H32.7552L31.9913 16.2524H30.0956L33.7596 6.16573H35.6836L39.4325 16.2524H37.551L36.7588 13.9889ZM33.2786 12.4186H36.207L34.8206 8.45752L34.7216 7.9058L34.6226 8.45752L33.2786 12.4186ZM44.3467 16.4222C43.0027 16.4222 42.1115 15.8139 41.6305 14.8236V19.0535H39.8338V8.118H41.3758L41.5739 9.77318C42.0124 8.65558 42.9603 7.91994 44.375 7.91994C46.497 7.91994 47.8409 9.41951 47.8409 12.164V12.3621C47.8409 13.2533 47.6853 13.9889 47.3882 14.5973C46.7941 15.8139 45.7048 16.4222 44.3467 16.4222ZM43.7667 14.8519C45.153 14.8519 45.9594 13.9465 45.9594 12.3338V12.164C45.9594 10.4239 45.0823 9.50439 43.8091 9.50439C42.4651 9.50439 41.588 10.523 41.588 12.1357V12.2772C41.588 13.8475 42.4227 14.8519 43.7667 14.8519ZM53.4581 16.4222C52.1142 16.4222 51.2229 15.8139 50.7419 14.8236V19.0535H48.9453V8.118H50.4873L50.6853 9.77318C51.1239 8.65558 52.0717 7.91994 53.4864 7.91994C55.6085 7.91994 56.9524 9.41951 56.9524 12.164V12.3621C56.9524 13.2533 56.7968 13.9889 56.4997 14.5973C55.9055 15.8139 54.8162 16.4222 53.4581 16.4222ZM52.8781 14.8519C54.2645 14.8519 55.0709 13.9465 55.0709 12.3338V12.164C55.0709 10.4239 54.1938 9.50439 52.9206 9.50439C51.5766 9.50439 50.6995 10.523 50.6995 12.1357V12.2772C50.6995 13.8475 51.5342 14.8519 52.8781 14.8519ZM65.7597 16.4646C64.7411 16.4646 63.9348 16.3232 63.3123 16.0261C62.0815 15.4602 61.5722 14.3568 61.5157 12.7582H63.4962C63.5387 14.1587 64.2177 14.8378 65.788 14.8378C67.132 14.8378 67.7403 14.1729 67.7403 13.3523C67.7403 12.9987 67.6271 12.7016 67.3866 12.5177C66.8915 12.1357 66.0709 11.9659 65.1797 11.7962C64.3875 11.6264 63.5811 11.4284 62.9303 11.0323C62.2796 10.622 61.8693 9.97124 61.8693 8.86778C61.8693 8.3585 62.0108 7.8775 62.2513 7.43895C62.7889 6.56185 63.8357 5.98182 65.4626 5.98182C68.1364 5.98182 69.3106 7.2126 69.3813 9.2356H67.4573C67.3866 8.07556 66.8349 7.53798 65.4343 7.53798C64.2036 7.53798 63.7367 8.13215 63.7367 8.83949C63.7367 9.17901 63.8499 9.4478 64.0762 9.61757C64.5572 9.97124 65.3353 10.1269 66.2124 10.3108C67.0471 10.4805 67.8676 10.6927 68.5183 11.103C69.1691 11.5132 69.5935 12.1923 69.5935 13.3099C69.5935 13.8758 69.452 14.3992 69.1691 14.8943C68.5749 15.8422 67.4432 16.4646 65.7597 16.4646ZM75.4621 16.2524H74.4153C73.6513 16.2524 73.0572 16.1393 72.661 15.9554C71.8405 15.5451 71.5859 14.6538 71.5859 12.9987V9.75903H70.0014V8.18873H70.7229C70.9917 8.18873 71.1756 8.16044 71.303 8.10385C71.5717 7.97653 71.6566 7.6653 71.6991 7.0004C71.7132 6.64673 71.7274 6.16573 71.7274 5.92524H73.3118V8.118H75.4621V9.75903H73.3118V12.6874C73.3118 13.225 73.3542 13.6211 73.425 13.8899C73.5523 14.4275 73.9767 14.5265 74.8821 14.5265H75.4621V16.2524ZM80.0209 16.4646C77.3896 16.4646 75.9184 15.0075 75.9184 12.3479V12.1357C75.9184 11.2303 76.1023 10.4522 76.4559 9.82977C77.1633 8.58485 78.4224 7.91994 80.0209 7.91994C80.8415 7.91994 81.5347 8.07556 82.143 8.41508C83.3879 9.07999 84.1235 10.3391 84.1235 12.1357V12.3479C84.1235 13.2392 83.9538 13.9748 83.6143 14.5831C82.9069 15.8139 81.6761 16.4646 80.0209 16.4646ZM80.0209 14.8378C81.4215 14.8378 82.242 13.9324 82.242 12.3196V12.1357C82.242 10.4664 81.379 9.50439 80.0351 9.50439C78.7053 9.50439 77.814 10.4098 77.814 12.1357V12.3196C77.814 13.9324 78.6346 14.8378 80.0209 14.8378ZM85.2595 16.2524V8.118H86.7591L86.9996 10.0278C87.3249 8.68387 88.1596 8.04727 89.7016 8.04727H90.2533V9.9288H89.447C88.7962 9.9288 88.3152 10.0137 87.9757 10.1834C87.2966 10.5088 87.0844 11.2162 87.0844 12.4894V16.2524H85.2595ZM98.5702 13.8475C98.1034 15.5027 96.7877 16.4646 94.6516 16.4646C91.9071 16.4646 90.5631 14.8802 90.5631 12.3621V12.164C90.5631 11.2869 90.7329 10.5654 91.0724 9.91465C91.7515 8.64143 92.9964 7.91994 94.7082 7.91994C96.1087 7.91994 97.099 8.40094 97.7497 9.17901C98.4005 9.95709 98.6834 10.9615 98.6834 12.0084V12.8713H92.4022C92.5578 14.2011 93.3783 14.9368 94.7223 14.9368C95.7126 14.9368 96.2926 14.5548 96.5755 13.8475H98.5702ZM94.7223 9.39122C93.4349 9.39122 92.6286 10.1269 92.4164 11.4142H96.8302C96.7029 10.1693 96.0238 9.39122 94.7223 9.39122Z" fill="#1D1D1F"/>
</svg>
