<svg width="40" height="40" viewBox="0 0 40 40" fill="none" xmlns="http://www.w3.org/2000/svg">
<g clip-path="url(#clip0_398_10069)">
<g clip-path="url(#clip1_398_10069)">
<path d="M-4 2H44V38H-4V2Z" fill="#74ACDF"/>
<path d="M-4 14H44V26H-4V14Z" fill="#F2F2F2"/>
<path d="M19.7686 20.0928L21.8206 24.5568C21.8206 24.5568 21.8566 24.6432 21.9142 24.6216C21.9718 24.5928 21.9358 24.5064 21.9358 24.5064L20.2294 19.8984M20.179 21.6408C20.1502 22.3176 20.5678 22.692 20.5174 23.2968C20.4598 23.9088 20.791 24.2472 20.8774 24.4848C20.9494 24.7224 20.791 24.8592 20.8558 24.8952C20.9278 24.9312 21.0718 24.744 21.0286 24.4056C20.9782 24.0744 20.7262 23.9736 20.7838 23.232C20.8414 22.4904 20.4814 22.3176 20.5678 21.648" fill="#F6B40E"/>
<path d="M19.7686 20.0928L21.8206 24.5568C21.8206 24.5568 21.8566 24.6432 21.9142 24.6216C21.9718 24.5928 21.9358 24.5064 21.9358 24.5064L20.2294 19.8984M20.179 21.6408C20.1502 22.3176 20.5678 22.692 20.5174 23.2968C20.4598 23.9088 20.791 24.2472 20.8774 24.4848C20.9494 24.7224 20.791 24.8592 20.8558 24.8952C20.9278 24.9312 21.0718 24.744 21.0286 24.4056C20.9782 24.0744 20.7262 23.9736 20.7838 23.232C20.8414 22.4904 20.4814 22.3176 20.5678 21.648" stroke="#85340A" stroke-width="0.0792"/>
<path d="M19.7508 19.998L19.9383 24.9074C19.9383 24.9074 19.9385 25.001 20 25.0031C20.0642 24.9985 20.064 24.9049 20.064 24.9049L20.2509 19.9947M19.5376 21.5852C19.252 22.1994 19.4945 22.7051 19.2165 23.2446C18.9291 23.788 19.1056 24.2274 19.0945 24.48C19.07 24.727 18.8714 24.7928 18.9174 24.8509C18.9702 24.9117 19.1749 24.7938 19.2645 24.4647C19.3446 24.1394 19.1504 23.9498 19.4874 23.2867C19.8244 22.6236 19.5579 22.3262 19.894 21.7406" fill="#F6B40E"/>
<path d="M19.7508 19.998L19.9383 24.9074C19.9383 24.9074 19.9385 25.001 20 25.0031C20.0642 24.9985 20.064 24.9049 20.064 24.9049L20.2509 19.9947M19.5376 21.5852C19.252 22.1994 19.4945 22.7051 19.2165 23.2446C18.9291 23.788 19.1056 24.2274 19.0945 24.48C19.07 24.727 18.8714 24.7928 18.9174 24.8509C18.9702 24.9117 19.1749 24.7938 19.2645 24.4647C19.3446 24.1394 19.1504 23.9498 19.4874 23.2867C19.8244 22.6236 19.5579 22.3262 19.894 21.7406" stroke="#85340A" stroke-width="0.0792"/>
<path d="M19.7698 19.9031L18.0642 24.5106C18.0642 24.5106 18.0286 24.5971 18.0846 24.6226C18.1457 24.643 18.1813 24.5564 18.1813 24.5564L20.2331 20.0915M18.9654 21.2879C18.4664 21.7461 18.497 22.3061 18.0337 22.6981C17.5602 23.0902 17.5551 23.5636 17.4482 23.7927C17.3311 24.0117 17.1224 23.9964 17.1427 24.0677C17.1682 24.144 17.4024 24.1135 17.6111 23.8437C17.8097 23.5738 17.7028 23.3244 18.2679 22.8407C18.833 22.357 18.7006 21.9803 19.2352 21.5679" fill="#F6B40E"/>
<path d="M19.7698 19.9031L18.0642 24.5106C18.0642 24.5106 18.0286 24.5971 18.0846 24.6226C18.1457 24.643 18.1813 24.5564 18.1813 24.5564L20.2331 20.0915M18.9654 21.2879C18.4664 21.7461 18.497 22.3061 18.0337 22.6981C17.5602 23.0902 17.5551 23.5636 17.4482 23.7927C17.3311 24.0117 17.1224 23.9964 17.1427 24.0677C17.1682 24.144 17.4024 24.1135 17.6111 23.8437C17.8097 23.5738 17.7028 23.3244 18.2679 22.8407C18.833 22.357 18.7006 21.9803 19.2352 21.5679" stroke="#85340A" stroke-width="0.0792"/>
<path d="M19.8243 19.8224L16.4854 23.4265C16.4854 23.4265 16.4193 23.4929 16.4613 23.5378C16.51 23.58 16.576 23.5137 16.576 23.5137L20.1802 20.1738M18.5512 20.794C17.9149 21.0264 17.7288 21.5555 17.1507 21.7404C16.5633 21.9213 16.3774 22.3568 16.1909 22.5276C15.999 22.685 15.812 22.591 15.8035 22.6647C15.7978 22.745 16.0259 22.8064 16.322 22.637C16.6087 22.4637 16.6054 22.1923 17.3126 21.9617C18.0198 21.7311 18.0416 21.3324 18.6933 21.156" fill="#F6B40E"/>
<path d="M19.8243 19.8224L16.4854 23.4265C16.4854 23.4265 16.4193 23.4929 16.4613 23.5378C16.51 23.58 16.576 23.5137 16.576 23.5137L20.1802 20.1738M18.5512 20.794C17.9149 21.0264 17.7288 21.5555 17.1507 21.7404C16.5633 21.9213 16.3774 22.3568 16.1909 22.5276C15.999 22.685 15.812 22.591 15.8035 22.6647C15.7978 22.745 16.0259 22.8064 16.322 22.637C16.6087 22.4637 16.6054 22.1923 17.3126 21.9617C18.0198 21.7311 18.0416 21.3324 18.6933 21.156" stroke="#85340A" stroke-width="0.0792"/>
<path d="M20.3086 21.757C20.3446 22.405 20.7118 22.693 20.6398 23.2906C20.7982 22.8226 20.4166 22.4554 20.4382 21.7642M19.8838 20.0506L21.2878 23.1178L20.1142 19.957" fill="#85340A"/>
<path d="M19.6128 21.7416C19.3981 22.354 19.6271 22.7606 19.3319 23.2852C19.6574 22.9134 19.4453 22.4281 19.7298 21.7978M19.8734 20.0025L19.9967 23.3735L20.122 20.0042" fill="#85340A"/>
<path d="M18.9758 21.4599C18.5431 21.9436 18.5991 22.4068 18.1256 22.7785C18.5685 22.5596 18.5584 22.0301 19.0624 21.5566M19.8821 19.9529L18.706 23.1145L20.1112 20.0496" fill="#85340A"/>
<path d="M18.4947 20.9582C17.9098 21.2395 17.7842 21.6889 17.2046 21.8511C17.6976 21.8184 17.8908 21.3253 18.5376 21.0807M19.9086 19.9128L17.6122 22.3837L20.0833 20.0898" fill="#85340A"/>
<path d="M19.9062 19.7695L15.4422 21.8215C15.4422 21.8215 15.3558 21.8575 15.3774 21.9151C15.4062 21.9727 15.4926 21.9367 15.4926 21.9367L20.1006 20.2303M18.3582 20.1799C17.6814 20.1511 17.307 20.5687 16.7022 20.5183C16.0902 20.4607 15.7518 20.7919 15.5142 20.8783C15.2766 20.9503 15.1398 20.7919 15.1038 20.8567C15.0678 20.9287 15.255 21.0727 15.5934 21.0295C15.9246 20.9791 16.0254 20.7271 16.767 20.7847C17.5086 20.8423 17.6814 20.4823 18.351 20.5687" fill="#F6B40E"/>
<path d="M19.9062 19.7695L15.4422 21.8215C15.4422 21.8215 15.3558 21.8575 15.3774 21.9151C15.4062 21.9727 15.4926 21.9367 15.4926 21.9367L20.1006 20.2303M18.3582 20.1799C17.6814 20.1511 17.307 20.5687 16.7022 20.5183C16.0902 20.4607 15.7518 20.7919 15.5142 20.8783C15.2766 20.9503 15.1398 20.7919 15.1038 20.8567C15.0678 20.9287 15.255 21.0727 15.5934 21.0295C15.9246 20.9791 16.0254 20.7271 16.767 20.7847C17.5086 20.8423 17.6814 20.4823 18.351 20.5687" stroke="#85340A" stroke-width="0.0792"/>
<path d="M20.002 19.7518L15.0926 19.9393C15.0926 19.9393 14.999 19.9395 14.9969 20.001C15.0015 20.0652 15.0951 20.065 15.0951 20.065L20.0053 20.2519M18.4148 19.5385C17.8006 19.2529 17.2949 19.4955 16.7554 19.2175C16.212 18.93 15.7726 19.1065 15.52 19.0954C15.273 19.071 15.2072 18.8723 15.1491 18.9184C15.0883 18.9712 15.2062 19.1758 15.5353 19.2654C15.8606 19.3456 16.0502 19.1514 16.7133 19.4884C17.3764 19.8254 17.6738 19.5589 18.2594 19.895" fill="#F6B40E"/>
<path d="M20.002 19.7518L15.0926 19.9393C15.0926 19.9393 14.999 19.9395 14.9969 20.001C15.0015 20.0652 15.0951 20.065 15.0951 20.065L20.0053 20.2519M18.4148 19.5385C17.8006 19.2529 17.2949 19.4955 16.7554 19.2175C16.212 18.93 15.7726 19.1065 15.52 19.0954C15.273 19.071 15.2072 18.8723 15.1491 18.9184C15.0883 18.9712 15.2062 19.1758 15.5353 19.2654C15.8606 19.3456 16.0502 19.1514 16.7133 19.4884C17.3764 19.8254 17.6738 19.5589 18.2594 19.895" stroke="#85340A" stroke-width="0.0792"/>
<path d="M20.0969 19.7707L15.4894 18.0652C15.4894 18.0652 15.4029 18.0296 15.3774 18.0856C15.357 18.1467 15.4436 18.1823 15.4436 18.1823L19.9085 20.234M18.7121 18.9663C18.2539 18.4674 17.6939 18.498 17.3019 18.0347C16.9098 17.5612 16.4364 17.5561 16.2073 17.4492C15.9883 17.3321 16.0036 17.1233 15.9323 17.1437C15.856 17.1692 15.8865 17.4033 16.1563 17.6121C16.4262 17.8106 16.6756 17.7037 17.1593 18.2688C17.643 18.834 18.0197 18.7016 18.4321 19.2362" fill="#F6B40E"/>
<path d="M20.0969 19.7707L15.4894 18.0652C15.4894 18.0652 15.4029 18.0296 15.3774 18.0856C15.357 18.1467 15.4436 18.1823 15.4436 18.1823L19.9085 20.234M18.7121 18.9663C18.2539 18.4674 17.6939 18.498 17.3019 18.0347C16.9098 17.5612 16.4364 17.5561 16.2073 17.4492C15.9883 17.3321 16.0036 17.1233 15.9323 17.1437C15.856 17.1692 15.8865 17.4033 16.1563 17.6121C16.4262 17.8106 16.6756 17.7037 17.1593 18.2688C17.643 18.834 18.0197 18.7016 18.4321 19.2362" stroke="#85340A" stroke-width="0.0792"/>
<path d="M20.1776 19.8263L16.5735 16.4873C16.5735 16.4873 16.5071 16.4213 16.4622 16.4633C16.42 16.5119 16.4863 16.578 16.4863 16.578L19.8262 20.1822M19.206 18.5531C18.9736 17.9168 18.4445 17.7308 18.2596 17.1527C18.0787 16.5652 17.6432 16.3793 17.4724 16.1929C17.315 16.0009 17.409 15.8139 17.3353 15.8055C17.255 15.7998 17.1936 16.0278 17.363 16.3239C17.5363 16.6106 17.8077 16.6073 18.0383 17.3145C18.2689 18.0217 18.6676 18.0436 18.844 18.6953" fill="#F6B40E"/>
<path d="M20.1776 19.8263L16.5735 16.4873C16.5735 16.4873 16.5071 16.4213 16.4622 16.4633C16.42 16.5119 16.4863 16.578 16.4863 16.578L19.8262 20.1822M19.206 18.5531C18.9736 17.9168 18.4445 17.7308 18.2596 17.1527C18.0787 16.5652 17.6432 16.3793 17.4724 16.1929C17.315 16.0009 17.409 15.8139 17.3353 15.8055C17.255 15.7998 17.1936 16.0278 17.363 16.3239C17.5363 16.6106 17.8077 16.6073 18.0383 17.3145C18.2689 18.0217 18.6676 18.0436 18.844 18.6953" stroke="#85340A" stroke-width="0.0792"/>
<path d="M18.243 20.3096C17.595 20.3456 17.307 20.7128 16.7094 20.6408C17.1774 20.7992 17.5446 20.4176 18.2358 20.4392M19.9494 19.8848L16.8822 21.2888L20.043 20.1152" fill="#85340A"/>
<path d="M18.2594 19.6138C17.647 19.3991 17.2404 19.6281 16.7158 19.3329C17.0876 19.6583 17.5728 19.4463 18.2032 19.7308M19.9985 19.8743L16.6275 19.9977L19.9968 20.123" fill="#85340A"/>
<path d="M18.5391 18.9768C18.0555 18.5441 17.5922 18.6001 17.2205 18.1266C17.4394 18.5695 17.9689 18.5593 18.4424 19.0634M20.0461 19.883L16.8845 18.707L19.9494 20.1121" fill="#85340A"/>
<path d="M19.0418 18.4957C18.7605 17.9108 18.3111 17.7852 18.1489 17.2056C18.1816 17.6985 18.6747 17.8918 18.9193 18.5386M20.0872 19.9096L17.6163 17.6132L19.9102 20.0843" fill="#85340A"/>
<path d="M20.2314 19.9072L18.1794 15.4432C18.1794 15.4432 18.1434 15.3568 18.0858 15.3784C18.0282 15.4072 18.0642 15.4936 18.0642 15.4936L19.7706 20.1016M19.821 18.3592C19.8498 17.6824 19.4322 17.308 19.4826 16.7032C19.5402 16.0912 19.209 15.7528 19.1226 15.5152C19.0506 15.2776 19.209 15.1408 19.1442 15.1048C19.0722 15.0688 18.9282 15.256 18.9714 15.5944C19.0218 15.9256 19.2738 16.0264 19.2162 16.768C19.1586 17.5096 19.5186 17.6824 19.4322 18.352" fill="#F6B40E"/>
<path d="M20.2314 19.9072L18.1794 15.4432C18.1794 15.4432 18.1434 15.3568 18.0858 15.3784C18.0282 15.4072 18.0642 15.4936 18.0642 15.4936L19.7706 20.1016M19.821 18.3592C19.8498 17.6824 19.4322 17.308 19.4826 16.7032C19.5402 16.0912 19.209 15.7528 19.1226 15.5152C19.0506 15.2776 19.209 15.1408 19.1442 15.1048C19.0722 15.0688 18.9282 15.256 18.9714 15.5944C19.0218 15.9256 19.2738 16.0264 19.2162 16.768C19.1586 17.5096 19.5186 17.6824 19.4322 18.352" stroke="#85340A" stroke-width="0.0792"/>
<path d="M20.2492 20.002L20.0617 15.0926C20.0617 15.0926 20.0615 14.999 20 14.9969C19.9358 15.0015 19.936 15.0951 19.936 15.0951L19.7491 20.0053M20.4624 18.4148C20.748 17.8006 20.5055 17.2949 20.7835 16.7554C21.0709 16.212 20.8944 15.7726 20.9055 15.52C20.93 15.273 21.1286 15.2072 21.0826 15.1491C21.0298 15.0883 20.8251 15.2062 20.7355 15.5353C20.6554 15.8606 20.8496 16.0502 20.5126 16.7133C20.1756 17.3764 20.4421 17.6738 20.106 18.2594" fill="#F6B40E"/>
<path d="M20.2492 20.002L20.0617 15.0926C20.0617 15.0926 20.0615 14.999 20 14.9969C19.9358 15.0015 19.936 15.0951 19.936 15.0951L19.7491 20.0053M20.4624 18.4148C20.748 17.8006 20.5055 17.2949 20.7835 16.7554C21.0709 16.212 20.8944 15.7726 20.9055 15.52C20.93 15.273 21.1286 15.2072 21.0826 15.1491C21.0298 15.0883 20.8251 15.2062 20.7355 15.5353C20.6554 15.8606 20.8496 16.0502 20.5126 16.7133C20.1756 17.3764 20.4421 17.6738 20.106 18.2594" stroke="#85340A" stroke-width="0.0792"/>
<path d="M20.2302 20.0969L21.9358 15.4894C21.9358 15.4894 21.9714 15.4029 21.9154 15.3774C21.8543 15.357 21.8187 15.4436 21.8187 15.4436L19.7669 19.9085M21.0346 18.7121C21.5336 18.2539 21.503 17.6939 21.9663 17.3019C22.4398 16.9098 22.4449 16.4364 22.5518 16.2073C22.6689 15.9883 22.8776 16.0036 22.8573 15.9323C22.8318 15.856 22.5976 15.8865 22.3889 16.1563C22.1903 16.4262 22.2972 16.6756 21.7321 17.1593C21.167 17.643 21.2994 18.0197 20.7648 18.4321" fill="#F6B40E"/>
<path d="M20.2302 20.0969L21.9358 15.4894C21.9358 15.4894 21.9714 15.4029 21.9154 15.3774C21.8543 15.357 21.8187 15.4436 21.8187 15.4436L19.7669 19.9085M21.0346 18.7121C21.5336 18.2539 21.503 17.6939 21.9663 17.3019C22.4398 16.9098 22.4449 16.4364 22.5518 16.2073C22.6689 15.9883 22.8776 16.0036 22.8573 15.9323C22.8318 15.856 22.5976 15.8865 22.3889 16.1563C22.1903 16.4262 22.2972 16.6756 21.7321 17.1593C21.167 17.643 21.2994 18.0197 20.7648 18.4321" stroke="#85340A" stroke-width="0.0792"/>
<path d="M20.1757 20.1776L23.5146 16.5735C23.5146 16.5735 23.5807 16.5071 23.5387 16.4622C23.49 16.42 23.424 16.4863 23.424 16.4863L19.8198 19.8262M21.4488 19.206C22.0851 18.9736 22.2712 18.4445 22.8493 18.2596C23.4367 18.0787 23.6226 17.6432 23.8091 17.4724C24.001 17.315 24.188 17.409 24.1965 17.3353C24.2022 17.255 23.9741 17.1936 23.678 17.363C23.3913 17.5363 23.3946 17.8077 22.6874 18.0383C21.9802 18.2689 21.9584 18.6676 21.3067 18.844" fill="#F6B40E"/>
<path d="M20.1757 20.1776L23.5146 16.5735C23.5146 16.5735 23.5807 16.5071 23.5387 16.4622C23.49 16.42 23.424 16.4863 23.424 16.4863L19.8198 19.8262M21.4488 19.206C22.0851 18.9736 22.2712 18.4445 22.8493 18.2596C23.4367 18.0787 23.6226 17.6432 23.8091 17.4724C24.001 17.315 24.188 17.409 24.1965 17.3353C24.2022 17.255 23.9741 17.1936 23.678 17.363C23.3913 17.5363 23.3946 17.8077 22.6874 18.0383C21.9802 18.2689 21.9584 18.6676 21.3067 18.844" stroke="#85340A" stroke-width="0.0792"/>
<path d="M19.6914 18.243C19.6554 17.595 19.2882 17.307 19.3602 16.7094C19.2018 17.1774 19.5834 17.5446 19.5618 18.2358M20.1162 19.9494L18.7122 16.8822L19.8858 20.043" fill="#85340A"/>
<path d="M20.3872 18.2584C20.6019 17.646 20.3729 17.2394 20.6681 16.7148C20.3426 17.0866 20.5547 17.5719 20.2702 18.2022M20.1266 19.9975L20.0033 16.6265L19.878 19.9958" fill="#85340A"/>
<path d="M21.0242 18.5401C21.4569 18.0564 21.4009 17.5932 21.8744 17.2215C21.4315 17.4404 21.4416 17.9699 20.9376 18.4434M20.1179 20.0471L21.294 16.8855L19.8888 19.9504" fill="#85340A"/>
<path d="M21.5053 19.0418C22.0902 18.7605 22.2158 18.3111 22.7954 18.1489C22.3024 18.1816 22.1092 18.6747 21.4624 18.9193M20.0914 20.0872L22.3878 17.6163L19.9167 19.9102" fill="#85340A"/>
<path d="M20.0938 20.2305L24.5578 18.1785C24.5578 18.1785 24.6442 18.1425 24.6226 18.0849C24.5938 18.0273 24.5074 18.0633 24.5074 18.0633L19.8994 19.7697M21.6418 19.8201C22.3186 19.8489 22.693 19.4313 23.2978 19.4817C23.9098 19.5393 24.2482 19.2081 24.4858 19.1217C24.7234 19.0497 24.8602 19.2081 24.8962 19.1433C24.9322 19.0713 24.745 18.9273 24.4066 18.9705C24.0754 19.0209 23.9746 19.2729 23.233 19.2153C22.4914 19.1577 22.3186 19.5177 21.649 19.4313" fill="#F6B40E"/>
<path d="M20.0938 20.2305L24.5578 18.1785C24.5578 18.1785 24.6442 18.1425 24.6226 18.0849C24.5938 18.0273 24.5074 18.0633 24.5074 18.0633L19.8994 19.7697M21.6418 19.8201C22.3186 19.8489 22.693 19.4313 23.2978 19.4817C23.9098 19.5393 24.2482 19.2081 24.4858 19.1217C24.7234 19.0497 24.8602 19.2081 24.8962 19.1433C24.9322 19.0713 24.745 18.9273 24.4066 18.9705C24.0754 19.0209 23.9746 19.2729 23.233 19.2153C22.4914 19.1577 22.3186 19.5177 21.649 19.4313" stroke="#85340A" stroke-width="0.0792"/>
<path d="M19.998 20.2482L24.9074 20.0607C24.9074 20.0607 25.001 20.0605 25.0031 19.999C24.9985 19.9348 24.9049 19.935 24.9049 19.935L19.9947 19.7481M21.5852 20.4615C22.1994 20.7471 22.7051 20.5045 23.2446 20.7825C23.788 21.07 24.2274 20.8935 24.48 20.9046C24.727 20.929 24.7928 21.1277 24.8509 21.0816C24.9117 21.0288 24.7938 20.8242 24.4647 20.7346C24.1394 20.6544 23.9498 20.8486 23.2867 20.5116C22.6236 20.1746 22.3262 20.4411 21.7406 20.105" fill="#F6B40E"/>
<path d="M19.998 20.2482L24.9074 20.0607C24.9074 20.0607 25.001 20.0605 25.0031 19.999C24.9985 19.9348 24.9049 19.935 24.9049 19.935L19.9947 19.7481M21.5852 20.4615C22.1994 20.7471 22.7051 20.5045 23.2446 20.7825C23.788 21.07 24.2274 20.8935 24.48 20.9046C24.727 20.929 24.7928 21.1277 24.8509 21.0816C24.9117 21.0288 24.7938 20.8242 24.4647 20.7346C24.1394 20.6544 23.9498 20.8486 23.2867 20.5116C22.6236 20.1746 22.3262 20.4411 21.7406 20.105" stroke="#85340A" stroke-width="0.0792"/>
<path d="M19.9031 20.2293L24.5106 21.9348C24.5106 21.9348 24.5971 21.9704 24.6226 21.9144C24.643 21.8533 24.5564 21.8177 24.5564 21.8177L20.0915 19.766M21.2879 21.0337C21.7461 21.5326 22.3061 21.502 22.6981 21.9653C23.0902 22.4388 23.5636 22.4439 23.7927 22.5508C24.0117 22.6679 23.9964 22.8767 24.0677 22.8563C24.144 22.8308 24.1135 22.5967 23.8437 22.3879C23.5738 22.1894 23.3244 22.2963 22.8407 21.7312C22.357 21.166 21.9803 21.2984 21.5679 20.7638" fill="#F6B40E"/>
<path d="M19.9031 20.2293L24.5106 21.9348C24.5106 21.9348 24.5971 21.9704 24.6226 21.9144C24.643 21.8533 24.5564 21.8177 24.5564 21.8177L20.0915 19.766M21.2879 21.0337C21.7461 21.5326 22.3061 21.502 22.6981 21.9653C23.0902 22.4388 23.5636 22.4439 23.7927 22.5508C24.0117 22.6679 23.9964 22.8767 24.0677 22.8563C24.144 22.8308 24.1135 22.5967 23.8437 22.3879C23.5738 22.1894 23.3244 22.2963 22.8407 21.7312C22.357 21.166 21.9803 21.2984 21.5679 20.7638" stroke="#85340A" stroke-width="0.0792"/>
<path d="M19.8224 20.1737L23.4265 23.5127C23.4265 23.5127 23.4929 23.5787 23.5378 23.5367C23.58 23.4881 23.5137 23.422 23.5137 23.422L20.1738 19.8178M20.794 21.4469C21.0264 22.0832 21.5555 22.2692 21.7404 22.8473C21.9213 23.4348 22.3568 23.6207 22.5276 23.8071C22.685 23.9991 22.591 24.1861 22.6647 24.1945C22.745 24.2002 22.8064 23.9722 22.637 23.6761C22.4637 23.3894 22.1923 23.3927 21.9617 22.6855C21.7311 21.9783 21.3324 21.9564 21.156 21.3047" fill="#F6B40E"/>
<path d="M19.8224 20.1737L23.4265 23.5127C23.4265 23.5127 23.4929 23.5787 23.5378 23.5367C23.58 23.4881 23.5137 23.422 23.5137 23.422L20.1738 19.8178M20.794 21.4469C21.0264 22.0832 21.5555 22.2692 21.7404 22.8473C21.9213 23.4348 22.3568 23.6207 22.5276 23.8071C22.685 23.9991 22.591 24.1861 22.6647 24.1945C22.745 24.2002 22.8064 23.9722 22.637 23.6761C22.4637 23.3894 22.1923 23.3927 21.9617 22.6855C21.7311 21.9783 21.3324 21.9564 21.156 21.3047" stroke="#85340A" stroke-width="0.0792"/>
<path d="M21.757 19.6904C22.405 19.6544 22.693 19.2872 23.2906 19.3592C22.8226 19.2008 22.4554 19.5824 21.7642 19.5608M20.0506 20.1152L23.1178 18.7112L19.957 19.8848" fill="#85340A"/>
<path d="M21.7416 20.3862C22.354 20.6009 22.7606 20.3719 23.2852 20.6671C22.9134 20.3417 22.4281 20.5537 21.7978 20.2692M20.0025 20.1257L23.3735 20.0023L20.0042 19.877" fill="#85340A"/>
<path d="M21.4609 21.0232C21.9445 21.4559 22.4078 21.3999 22.7795 21.8734C22.5606 21.4305 22.0311 21.4407 21.5576 20.9366M19.9539 20.117L23.1155 21.293L20.0506 19.8879" fill="#85340A"/>
<path d="M20.9582 21.5043C21.2395 22.0892 21.6889 22.2148 21.8511 22.7944C21.8184 22.3015 21.3253 22.1082 21.0807 21.4614M19.9128 20.0904L22.3837 22.3868L20.0898 19.9157" fill="#85340A"/>
<path d="M19.9996 22.003C21.1055 22.003 22.0021 21.1065 22.0021 20.0005C22.0021 18.8946 21.1055 17.998 19.9996 17.998C18.8936 17.998 17.9971 18.8946 17.9971 20.0005C17.9971 21.1065 18.8936 22.003 19.9996 22.003Z" fill="#F6B40E" stroke="#85340A" stroke-width="0.105"/>
<path d="M20.6754 19.5723C20.5479 19.5723 20.4129 19.6323 20.3379 19.7523C20.4879 19.8948 20.8329 19.9023 21.0654 19.7373C21.0163 19.6851 20.957 19.6436 20.8912 19.6152C20.8254 19.5868 20.7545 19.5722 20.6829 19.5723H20.6754ZM20.6754 19.6023C20.8104 19.6023 20.9379 19.6623 20.9529 19.7223C20.8029 19.8948 20.5554 19.8723 20.3979 19.7523C20.4729 19.6473 20.5779 19.6023 20.6829 19.6023H20.6754Z" fill="#843511"/>
<path d="M20.7047 19.4746C20.5022 19.4746 20.4572 19.5196 20.3672 19.6021C20.2772 19.6771 20.2247 19.6621 20.2172 19.6771C20.1947 19.6921 20.2172 19.7371 20.2397 19.7221C20.2772 19.7071 20.3372 19.6771 20.4272 19.6021C20.5172 19.5271 20.6147 19.5271 20.7047 19.5271C20.9822 19.5271 21.1322 19.7521 21.1622 19.7371C21.1997 19.7221 21.0122 19.4746 20.7047 19.4746Z" fill="#85340A"/>
<path d="M21.2598 19.5723C20.9073 19.2648 20.4573 19.2123 20.2098 19.4448C20.1528 19.5198 20.1142 19.6071 20.0973 19.6998C20.0673 19.8798 20.1198 20.0673 20.2548 20.2623L20.1948 20.2923C20.0748 20.0598 20.0298 19.8198 20.0748 19.5873L20.1198 19.4148C20.4573 19.1373 20.9223 19.1148 21.2598 19.5648V19.5723Z" fill="#85340A"/>
<path d="M20.675 19.8579C20.7496 19.8579 20.81 19.7974 20.81 19.7229C20.81 19.6483 20.7496 19.5879 20.675 19.5879C20.6005 19.5879 20.54 19.6483 20.54 19.7229C20.54 19.7974 20.6005 19.8579 20.675 19.8579Z" fill="#85340A"/>
<path d="M21.0723 19.8132C20.8098 20.0157 20.5473 20.0007 20.3973 19.9107C20.2473 19.8132 20.2473 19.7832 20.2773 19.7832C20.3073 19.7832 20.3373 19.8132 20.4573 19.8807C20.5848 19.9407 20.7648 19.9407 21.0723 19.8132Z" fill="#85340A"/>
<path d="M19.7002 20.2773C19.6794 20.2823 19.66 20.2921 19.6437 20.306C19.6274 20.3198 19.6147 20.3374 19.6065 20.3572C19.5983 20.377 19.595 20.3984 19.5967 20.4198C19.5985 20.4411 19.6053 20.4617 19.6166 20.4799C19.6279 20.4981 19.6433 20.5134 19.6617 20.5244C19.68 20.5354 19.7007 20.542 19.7221 20.5434C19.7434 20.5449 19.7648 20.5412 19.7845 20.5328C19.8042 20.5243 19.8216 20.5113 19.8352 20.4948C19.8847 20.5255 19.942 20.5412 20.0002 20.5398H20.0152C20.0602 20.5398 20.1352 20.5323 20.1877 20.4948C20.2102 20.5323 20.2552 20.5473 20.3002 20.5473C20.336 20.5503 20.3716 20.539 20.399 20.5158C20.4264 20.4926 20.4435 20.4594 20.4465 20.4236C20.4495 20.3878 20.4381 20.3523 20.4149 20.3248C20.3917 20.2974 20.3585 20.2803 20.3227 20.2773C20.3602 20.2923 20.3827 20.3223 20.3827 20.3673C20.3827 20.3912 20.3733 20.4141 20.3564 20.431C20.3395 20.4479 20.3166 20.4573 20.2927 20.4573C20.2689 20.4573 20.246 20.4479 20.2291 20.431C20.2122 20.4141 20.2027 20.3912 20.2027 20.3673C20.185 20.4044 20.1574 20.4358 20.123 20.4583C20.0886 20.4808 20.0488 20.4934 20.0077 20.4948C19.968 20.4921 19.9297 20.4788 19.8967 20.4564C19.8638 20.434 19.8374 20.4033 19.8202 20.3673C19.8202 20.4198 19.7752 20.4573 19.7227 20.4573C19.6777 20.4573 19.6327 20.4123 19.6327 20.3673C19.6327 20.3223 19.6552 20.2923 19.6927 20.2773H19.7002ZM19.8502 20.6823C19.6927 20.6823 19.6252 20.8323 19.4902 20.9148C19.5652 20.8848 19.6252 20.8248 19.7377 20.7648C19.8427 20.7048 19.9327 20.7798 20.0002 20.7798C20.0602 20.7798 20.1502 20.7048 20.2627 20.7648C20.3677 20.8248 20.4352 20.8848 20.5102 20.9148C20.3677 20.8248 20.3077 20.6898 20.1502 20.6898C20.1202 20.6898 20.0602 20.7048 20.0002 20.7348L19.8502 20.6823Z" fill="#85340A"/>
<path d="M19.7902 20.8698C19.7302 20.8698 19.6552 20.8848 19.5352 20.9148C19.8127 20.8548 19.8727 20.9523 20.0002 20.9523C20.1202 20.9523 20.1877 20.8548 20.4577 20.9148C20.1577 20.8248 20.0902 20.8848 20.0002 20.8848C19.9402 20.8848 19.8952 20.8623 19.7902 20.8698Z" fill="#85340A"/>
<path d="M19.5502 20.9149H19.4902C19.8127 20.9524 19.6627 21.1399 20.0002 21.1399C20.3377 21.1399 20.1877 20.9524 20.5102 20.9149C20.1727 20.8849 20.2777 21.0874 20.0002 21.0874C19.7377 21.0874 19.8202 20.9149 19.5502 20.9149Z" fill="#85340A"/>
<path d="M20.2777 21.4181C20.2777 21.3445 20.2484 21.2739 20.1964 21.2219C20.1443 21.1699 20.0738 21.1406 20.0002 21.1406C19.9266 21.1406 19.856 21.1699 19.8039 21.2219C19.7519 21.2739 19.7227 21.3445 19.7227 21.4181C19.7373 21.3555 19.7727 21.2997 19.8231 21.2598C19.8735 21.2198 19.9359 21.1981 20.0002 21.1981C20.0645 21.1981 20.1269 21.2198 20.1772 21.2598C20.2276 21.2997 20.263 21.3555 20.2777 21.4181Z" fill="#85340A"/>
<path d="M18.7559 19.5723C19.1084 19.2648 19.5584 19.2123 19.8059 19.4448C19.8629 19.5198 19.9014 19.6071 19.9184 19.6998C19.9484 19.8798 19.8959 20.0673 19.7609 20.2623L19.8209 20.2923C19.9409 20.0598 19.9859 19.8198 19.9409 19.5873L19.8959 19.4148C19.5584 19.1373 19.0934 19.1148 18.7559 19.5648V19.5723Z" fill="#85340A"/>
<path d="M19.3099 19.4746C19.5124 19.4746 19.5574 19.5196 19.6474 19.6021C19.7374 19.6771 19.7899 19.6621 19.7974 19.6771C19.8199 19.6921 19.7974 19.7371 19.7749 19.7221C19.7374 19.7071 19.6774 19.6771 19.5874 19.6021C19.4974 19.5271 19.3999 19.5271 19.3099 19.5271C19.0324 19.5271 18.8824 19.7521 18.8524 19.7371C18.8149 19.7221 19.0024 19.4746 19.3099 19.4746Z" fill="#85340A"/>
<path d="M19.2945 19.5723C19.167 19.5723 19.032 19.6323 18.957 19.7523C19.107 19.8948 19.452 19.9023 19.6845 19.7373C19.6354 19.6851 19.5761 19.6436 19.5103 19.6152C19.4446 19.5868 19.3737 19.5722 19.302 19.5723H19.2945ZM19.2945 19.6023C19.4295 19.6023 19.557 19.6623 19.572 19.7223C19.422 19.8948 19.1745 19.8723 19.017 19.7523C19.092 19.6473 19.197 19.6023 19.302 19.6023H19.2945Z" fill="#843511"/>
<path d="M19.3166 19.8579C19.3912 19.8579 19.4516 19.7974 19.4516 19.7229C19.4516 19.6483 19.3912 19.5879 19.3166 19.5879C19.2421 19.5879 19.1816 19.6483 19.1816 19.7229C19.1816 19.7974 19.2421 19.8579 19.3166 19.8579Z" fill="#85340A"/>
<path d="M18.9434 19.8132C19.2059 20.0157 19.4684 20.0007 19.6184 19.9107C19.7684 19.8132 19.7684 19.7832 19.7384 19.7832C19.7084 19.7832 19.6784 19.8132 19.5584 19.8807C19.4309 19.9407 19.2509 19.9407 18.9434 19.8132Z" fill="#85340A"/>
</g>
</g>
<rect x="1.4" y="1.4" width="37.2" height="37.2" rx="18.6" stroke="#006A4E" stroke-opacity="0.12" stroke-width="1.2"/>
<defs>
<clipPath id="clip0_398_10069">
<rect x="2" y="2" width="36" height="36" rx="18" fill="white"/>
</clipPath>
<clipPath id="clip1_398_10069">
<rect width="48" height="36" fill="white" transform="translate(-4 2)"/>
</clipPath>
</defs>
</svg>
