<svg width="40" height="40" viewBox="0 0 40 40" fill="none" xmlns="http://www.w3.org/2000/svg">
<g clip-path="url(#clip0_398_10134)">
<g clip-path="url(#clip1_398_10134)">
<mask id="mask0_398_10134" style="mask-type:luminance" maskUnits="userSpaceOnUse" x="-4" y="2" width="48" height="36">
<path d="M-4 2H43.9995V37.9996H-4V2Z" fill="white"/>
</mask>
<g mask="url(#mask0_398_10134)">
<path d="M-4 2V37.9996H49.9995V2H-4Z" fill="#3399CC"/>
<path d="M-4 26V28H49.9995V26H-4ZM-4 30V31.9999H49.9995V30H-4Z" fill="#FFFF00"/>
</g>
<path d="M6.70254 4.09961L6.92004 4.32461L6.69504 4.09961H6.70254Z" fill="#99CCCC"/>
<path d="M6.47754 4.77508L6.70254 4.99258L6.47754 4.76758" fill="#CCCCFF"/>
<path d="M6.70184 5.21094L6.91934 5.43594L6.69434 5.21094H6.70184Z" fill="#CC6666"/>
<path d="M7.1452 5.21094L7.3627 5.43594L7.1377 5.21094H7.1452Z" fill="#66CCCC"/>
<path d="M7.14543 5.43555L7.36293 5.66055L7.13793 5.43555H7.14543Z" fill="#CCCCFF"/>
<path d="M6.66496 4.55078L5.11246 10.4383L-0.790039 12.0508L5.08996 13.5883L6.66496 19.4683L8.23246 13.5883L14.1125 12.0133L8.23246 10.4458L6.65746 4.56578L6.66496 4.55078Z" fill="#CC0000" stroke="#F2F2F2" stroke-width="0.2775"/>
<path d="M7.14543 6.32031L7.36293 6.54531L7.13793 6.32031H7.14543Z" fill="#FFCCCC"/>
<path d="M5.37566 7.87273L5.59316 8.09023L5.36816 7.86523L5.37566 7.87273Z" fill="#6699CC"/>
<path d="M5.80957 7.87273L6.03457 8.09023L5.80957 7.86523" fill="#FFCCCC"/>
<path d="M8.03027 7.87273L8.25527 8.09023L8.03027 7.86523V7.87273Z" fill="#6699CC"/>
<path d="M5.37566 8.08984L5.59316 8.31484L5.36816 8.08984H5.37566Z" fill="#99CCCC"/>
<path d="M5.37566 8.31445L5.59316 8.53945L5.36816 8.31445" fill="#CCFFFF"/>
<path d="M5.37566 9.19922L5.59316 9.42422L5.36816 9.19922" fill="#FFCCCC"/>
<path d="M4.9248 9.42547L5.1498 9.64297L4.9248 9.41797V9.42547Z" fill="#99CCCC"/>
<path d="M5.45086 9.56641L5.51836 9.71641L5.44336 9.56641" fill="#CC3333"/>
<path d="M8.47266 9.42547L8.69766 9.64297L8.47266 9.41797V9.42547Z" fill="#99CCCC"/>
<path d="M4.04004 10.3109L4.26504 10.5284L4.04004 10.3034V10.3109Z" fill="#99CCCC"/>
<path d="M9.14062 10.3027L9.35813 10.5277L9.13313 10.3027H9.14062Z" fill="#CCCCFF"/>
<path d="M10.0251 10.5273L10.2426 10.7523L10.0176 10.5273H10.0251Z" fill="#99CCCC"/>
<path d="M1.61004 11.4121L1.82754 11.6371L1.60254 11.4121H1.61004ZM11.795 11.4121L12.0125 11.6371L11.7875 11.4121H11.795Z" fill="#FFCCCC"/>
<path d="M14.6744 12.0723L14.8919 12.2973L14.6669 12.0723" fill="#99CCCC"/>
<path d="M12.4551 12.5231L12.6801 12.7406L12.4551 12.5156V12.5231Z" fill="#FFCCCC"/>
<path d="M13.3398 12.5231L13.5648 12.7406L13.3398 12.5156V12.5231Z" fill="#CCCCFF"/>
<path d="M13.565 12.5231L13.79 12.7406L13.565 12.5156" fill="#66CCCC"/>
<path d="M1.61004 12.7402L1.82754 12.9652L1.60254 12.7402H1.61004ZM11.795 12.7402L12.0125 12.9652L11.7875 12.7402H11.795Z" fill="#FFCCCC"/>
<path d="M2.49414 12.9645L2.71914 13.182L2.49414 12.957V12.9645Z" fill="#FFCCCC"/>
<path d="M10.9023 12.9645L11.1273 13.182L10.9023 12.957V12.9645Z" fill="#FFCCCC"/>
<path d="M12.0127 12.9645L12.2377 13.182L12.0127 12.957V12.9645Z" fill="#99CCFF"/>
<path d="M12.2306 12.9645L12.4556 13.182L12.2306 12.957" fill="#6699CC"/>
<path d="M2.4948 13.4066L2.7123 13.6241L2.4873 13.3991L2.4948 13.4066Z" fill="#6699CC"/>
<path d="M10.025 13.625L10.2425 13.85L10.0175 13.625" fill="#99CCCC"/>
<path d="M9.14062 13.8496L9.35813 14.0746L9.13313 13.8496H9.14062Z" fill="#CCCCFF"/>
<path d="M4.7002 14.0746L4.9252 14.2921L4.7002 14.0671V14.0746Z" fill="#99CCCC"/>
<path d="M5.15039 14.0759L5.37539 14.2934L5.15039 14.0684" fill="#CC3333"/>
<path d="M8.69043 14.0739L8.91543 14.2914L8.69043 14.0664V14.0739Z" fill="#99CCCC"/>
<path d="M5.45086 14.6602L5.51836 14.8102L5.44336 14.6602" fill="#CC3333"/>
<path d="M5.37566 14.9531L5.59316 15.1781L5.36816 14.9531" fill="#FFCCCC"/>
<path d="M5.37566 15.8379L5.59316 16.0629L5.36816 15.8379H5.37566Z" fill="#CCFFFF"/>
<path d="M5.37566 16.0625L5.59316 16.2875L5.36816 16.0625" fill="#99CCCC"/>
<path d="M5.37566 16.2793L5.59316 16.5043L5.36816 16.2793H5.37566Z" fill="#6699CC"/>
<path d="M5.80957 17.6152L6.03457 17.8327L5.80957 17.6077" fill="#6699CC"/>
<path d="M7.14543 17.832L7.36293 18.057L7.13793 17.832H7.14543Z" fill="#FFCCCC"/>
<path d="M7.14543 18.7168L7.36293 18.9418L7.13793 18.7168H7.14543Z" fill="#CCCCFF"/>
<path d="M6.70184 18.9414L6.91934 19.1664L6.69434 18.9414H6.70184Z" fill="#CC6666"/>
<path d="M7.1452 18.9434L7.3627 19.1684L7.1377 18.9434H7.1452Z" fill="#66CCCC"/>
<path d="M6.69504 20.0516L6.92004 20.2691L6.69504 20.0441V20.0516Z" fill="#99CCCC"/>
</g>
</g>
<rect x="1.4" y="1.4" width="37.2" height="37.2" rx="18.6" stroke="#006A4E" stroke-opacity="0.12" stroke-width="1.2"/>
<defs>
<clipPath id="clip0_398_10134">
<rect x="2" y="2" width="36" height="36" rx="18" fill="white"/>
</clipPath>
<clipPath id="clip1_398_10134">
<rect width="48" height="36" fill="white" transform="translate(-4 2)"/>
</clipPath>
</defs>
</svg>
