<svg width="40" height="40" viewBox="0 0 40 40" fill="none" xmlns="http://www.w3.org/2000/svg">
<g clip-path="url(#clip0_398_10373)">
<g clip-path="url(#clip1_398_10373)">
<path d="M-4 2H44V38H-4V2Z" fill="#CF142B"/>
<path d="M37.9772 11.7952V23.9152C37.9772 27.1477 31.5122 28.2052 31.5122 28.2052C31.5122 28.2052 25.0322 27.1552 25.0322 23.9002V11.7952H37.9697H37.9772Z" fill="#F2F2F2"/>
<path d="M37.9772 23.9142C37.9772 27.1467 31.5122 28.2042 31.5122 28.2042C31.5122 28.2042 25.0322 27.1542 25.0322 23.8992C25.0322 23.8992 25.0322 23.6367 25.1672 23.4942C25.1672 23.4942 25.0922 24.0267 25.5047 24.4392C25.5047 24.4392 25.1822 23.8542 25.5047 23.2917C25.5047 23.2917 25.3772 24.0267 25.8347 24.4392C25.8347 24.4392 25.5872 23.8467 25.8647 23.1867C25.8647 23.1867 25.7297 24.2592 26.2172 24.4842C26.2172 24.4842 26.3522 23.8542 26.1572 23.4642C26.1572 23.4642 26.4947 23.5992 26.4797 24.4992C26.4797 24.4992 26.5847 24.3642 26.6147 23.7117C26.6147 23.7117 26.6297 24.4617 26.8772 24.6342C26.8772 24.6342 26.9672 24.5592 26.8547 24.2217C26.7347 23.8917 26.8997 23.7717 26.9297 23.7717C26.9297 23.7717 26.8697 24.1467 27.1847 24.4317C27.1847 24.4317 27.0497 23.8392 27.2372 23.7567C27.2372 23.7567 27.1922 24.2592 27.5972 24.3642C27.5972 24.3642 27.6197 24.2217 27.5372 24.0642C27.5372 24.0642 27.4622 23.8767 27.5147 23.7267C27.5147 23.7267 27.6422 24.1767 27.8147 24.2517C27.8147 24.2517 27.7097 23.9817 27.8147 23.7267C27.8147 23.7267 27.8297 24.1017 28.1672 24.2592C28.1672 24.2592 27.9422 23.9592 28.0247 23.6442L30.1772 23.7492L31.3022 23.8017L34.6547 23.5767L35.2247 23.0742C35.2247 23.0742 35.4572 23.3817 35.0897 23.8842C35.0897 23.8842 35.4497 23.8242 35.5622 23.2617C35.5622 23.2617 35.7122 23.5692 35.5097 23.9217C35.5097 23.9217 35.9072 23.5167 35.9597 23.0742C35.9597 23.0742 36.1172 23.5092 35.7422 23.9742C35.7422 23.9742 36.0722 23.8542 36.2147 23.3667C36.2147 23.3667 36.3347 23.6667 36.0122 24.0792C36.0122 24.0792 36.6197 23.7717 36.6047 23.1042C36.6047 23.1042 36.8522 23.4642 36.5672 23.9742C36.5672 23.9742 36.8672 23.6967 36.9047 23.2767C36.9047 23.2767 37.0772 23.4642 36.8897 23.9817C36.8897 23.9817 37.2647 23.6217 37.3247 23.2392C37.3247 23.2392 37.3997 23.5992 37.0847 24.0492C37.0847 24.0492 37.3022 23.9892 37.5122 23.5542C37.5122 23.5542 37.5647 23.7342 37.3772 24.0492C37.3772 24.0492 37.5872 24.0117 37.7222 23.6067C37.7222 23.6067 37.7447 23.8467 37.6847 24.0567C37.6847 24.0567 37.8422 23.9592 37.8797 23.5092C37.8809 23.6251 37.9119 23.7388 37.9697 23.8392V23.8992L37.9772 23.9142Z" fill="#2F8F22"/>
<path d="M34.6556 16.9028C34.6556 16.9028 34.4306 16.9478 34.1306 16.8578C33.8456 16.7678 33.7331 16.8053 33.6431 16.8578C33.6431 16.8578 33.7556 16.6253 33.4706 16.4378C33.4706 16.4378 33.5606 16.6778 33.4331 16.7828C33.4331 16.7828 33.3806 16.8353 33.3131 16.7603C33.3131 16.7603 33.2156 16.6478 33.1031 16.5803C33.1031 16.5803 33.3506 16.4903 33.3056 16.2428C33.2606 15.9953 33.1256 15.9728 33.0581 15.9353C33.046 15.9947 33.046 16.0559 33.0581 16.1153C33.0581 16.1153 32.7956 15.9653 33.1481 15.7628C33.5081 15.5603 33.4481 15.4328 33.3806 15.3278C33.3114 15.2217 33.2222 15.13 33.1181 15.0578C33.1181 15.0578 33.1931 15.1778 33.1706 15.2753C33.1631 15.3653 32.9906 15.4253 33.0206 15.2678C33.0581 15.0878 33.0206 15.1178 33.0206 14.9453C33.0206 14.9453 33.3356 15.0503 33.4706 14.7353C33.4706 14.7353 33.5906 14.4128 33.1856 14.2553C33.1856 14.2553 33.2831 14.3903 33.2381 14.4803C33.2381 14.4803 33.1481 14.6453 33.0506 14.5253C32.9531 14.3978 32.8856 14.3603 32.8931 14.2103C32.8931 14.2103 33.2606 14.2628 33.1631 13.8578C33.1631 13.8578 33.0956 14.1278 32.6231 13.7678C32.6231 13.7678 32.9381 13.4528 32.8106 13.1978C32.8106 13.1978 32.7731 13.0853 32.4431 13.1453C32.4431 13.1453 32.7281 12.9653 32.6156 12.8078C32.6156 12.8078 32.5481 12.7103 32.2706 12.8378C32.2706 12.8378 32.3831 12.6653 32.1131 12.4628C32.1131 12.4628 31.9331 12.5528 31.8431 12.6428C31.8431 12.6428 31.6631 12.4178 31.5431 12.3203C31.5431 12.3203 31.3331 12.4028 31.2806 12.6428C31.2806 12.6428 31.1831 12.5303 30.9581 12.4628C30.9581 12.4628 30.8531 12.6728 30.9956 12.8378C30.9956 12.8378 30.8906 12.8378 30.6956 12.7553C30.6956 12.7553 30.4856 12.6653 30.5231 12.8378C30.5456 13.0178 30.5681 13.0628 30.6131 13.1528C30.6131 13.1528 30.1256 13.0403 30.1481 13.3028C30.1524 13.3915 30.1746 13.4783 30.2132 13.5582C30.2519 13.6381 30.3063 13.7094 30.3731 13.7678C30.3731 13.7678 30.1106 14.1278 29.8781 13.8578C29.8781 13.8578 29.7881 13.9478 29.9681 14.1728C29.9681 14.1728 30.1481 14.3603 29.9906 14.4878C29.9906 14.4878 29.8031 14.6378 29.7131 14.3378C29.7131 14.3378 29.4056 14.6453 29.7731 14.8778C29.7731 14.8778 29.9981 15.0128 30.2456 14.8028C30.2456 14.8028 30.1706 15.4028 29.9456 15.2828C29.9456 15.2828 29.8031 15.1928 30.0506 15.0653C30.0506 15.0653 29.6906 15.0203 29.6381 15.3653C29.6381 15.3653 29.5931 15.6278 29.9006 15.7403C29.9006 15.7403 30.1331 15.8303 29.9006 16.0103C29.9006 16.0103 29.7131 16.1378 29.8331 16.3403C29.8331 16.3403 29.9681 16.5503 29.6156 16.5803C29.6156 16.5803 29.4356 16.5803 29.3681 16.5503C29.3681 16.5503 29.2931 16.7003 29.3381 16.8503C29.3381 16.8503 29.1656 16.7228 28.7756 16.8653C28.3856 17.0153 28.4081 16.9103 28.3856 16.9553L28.2656 17.1353C28.2656 17.1353 28.4756 17.4053 28.4831 17.3828L28.4381 17.6828L28.5431 17.7278L29.3531 17.3678L30.1781 16.9403L30.8456 16.9703L31.2656 17.0678L31.8056 17.1128L32.2106 16.9028H32.7806L33.4106 17.2178L34.1231 17.6453L34.4981 17.7203L34.7906 17.6978V17.1128L34.6556 16.9028Z" fill="#D40000" stroke="black" stroke-width="0.09" stroke-linejoin="round"/>
<path d="M28.1156 17.5777C28.1156 17.5777 28.4306 17.7427 28.5656 17.5552C28.5656 17.5552 28.7306 17.2252 28.3556 17.1052C28.3556 17.1052 28.5656 16.8652 28.3406 16.6402C28.3406 16.6402 28.2206 16.5202 28.0256 16.6027C28.0256 16.6027 27.9356 16.4302 27.7481 16.4377C27.7481 16.4377 27.5681 16.4377 27.5231 16.6252C27.5231 16.6252 27.2831 16.5352 27.1556 16.6702C27.1556 16.6702 26.9306 16.9102 27.2381 17.1052L27.4556 17.1277L27.6656 17.0227L27.9131 17.0902C27.9131 17.0902 27.8456 17.3302 28.1156 17.5777Z" fill="#D40000" stroke="black" stroke-width="0.09" stroke-linejoin="round"/>
<path d="M35.1196 17.0081C35.2249 16.9948 35.3317 17.0153 35.4247 17.0665C35.5176 17.1177 35.592 17.197 35.6371 17.2931C35.8321 17.7581 35.4121 18.0131 35.4121 18.0131C35.4421 18.1106 35.4496 18.2531 35.4496 18.2531C36.0346 18.3281 35.9296 18.9881 35.9296 18.9881L35.7346 18.8231C35.3971 18.6881 35.0371 18.9881 34.7896 19.4681C34.5346 19.9631 34.6546 20.1806 34.6996 20.7656C34.7446 21.3431 35.6746 21.6956 35.6746 21.6956L34.9471 23.5706C34.6621 24.3206 34.0471 24.0131 33.8746 23.8481C33.7021 23.6981 33.6571 23.7881 33.5746 23.8481C33.4921 23.9231 33.9721 24.2981 33.0871 24.6581C32.2096 25.0106 32.0596 25.2806 31.9096 25.3706C31.7596 25.4606 31.1596 25.4081 31.0996 25.3256C31.0246 25.2506 31.0696 25.2506 30.8371 25.1081C30.6121 24.9806 30.2221 24.8456 29.8021 24.6431C29.3821 24.4406 29.3971 24.1781 29.4046 24.1256C29.4046 24.0731 29.5471 23.6381 29.0521 23.9831C28.5646 24.3356 28.1446 23.8181 28.1446 23.8181C28.0546 23.6906 27.6346 22.5881 27.6346 22.5881C27.548 22.281 27.4402 21.9803 27.3121 21.6881C27.3121 21.6881 27.2821 21.7481 27.6496 21.5381C28.0096 21.3356 28.1746 20.9906 28.3021 20.6456C28.4296 20.3006 28.3021 19.7081 28.2571 19.5956C28.2121 19.4756 27.9421 18.9281 27.6046 18.8156C27.2746 18.6956 27.0421 18.9956 27.0421 18.9956C27.0421 18.9956 26.9446 18.3206 27.5371 18.2456C27.5371 18.2456 27.5371 18.1106 27.5671 18.0131C27.5671 18.0131 27.1471 17.7581 27.3421 17.2931C27.3421 17.2931 27.4771 16.9706 27.8521 17.0081L27.7696 17.1881C27.7696 17.1881 27.6796 18.1331 29.0596 17.5031C30.4471 16.8581 30.4096 16.7381 31.2121 17.1431L31.7821 17.1356C31.7821 17.1356 32.6071 16.7381 32.8846 16.9106C33.1471 17.0831 34.1071 17.6156 34.1071 17.6156C34.1071 17.6156 35.0371 17.9681 35.2246 17.3156L35.1196 17.0081Z" fill="#64B4D1" stroke="black" stroke-width="0.09"/>
<path d="M30.9352 21.1253C30.9352 21.1253 30.8902 20.8328 30.8452 20.6453C30.8452 20.6453 30.7327 20.3528 30.9202 20.1353L31.1302 19.8878C31.1302 19.8878 31.2652 19.7078 31.4302 19.6853C31.4302 19.6853 31.6027 19.6853 31.6102 19.6478C31.6327 19.6103 31.8202 19.3103 32.2552 19.6478C32.2552 19.6478 32.3902 19.4228 32.6152 19.3778C32.6152 19.3778 32.8402 19.3178 32.9527 19.4828C32.9527 19.4828 33.2152 19.2878 33.4327 19.6103C33.4327 19.6103 33.7402 19.4303 33.9727 19.7828C33.9727 19.7828 34.2727 19.6328 34.4527 19.9403C34.6402 20.2628 34.6027 20.3903 34.6027 20.3903L34.7527 20.9003L35.2402 21.5003L34.1002 21.9353H33.5752L32.5477 22.2053L30.7252 22.3478L30.2227 21.7478L30.9427 21.1253H30.9352Z" fill="#F2F2F2" stroke="#00247D" stroke-width="0.09" stroke-miterlimit="10"/>
<path d="M29.3971 24.1634C29.3971 24.1634 29.1271 24.1709 28.9846 24.2534C28.8496 24.3134 28.7371 24.3884 28.5796 24.4934C28.5796 24.4934 28.5046 24.5909 28.1896 24.5309C28.1896 24.5309 27.6496 24.4034 27.6496 24.8309C27.6496 24.8309 26.9896 24.8759 27.2596 25.4534C27.2596 25.4534 27.4321 25.9034 27.8071 25.5884C27.8071 25.5884 27.5671 25.9259 28.0321 26.0609C28.0321 26.0609 28.3621 26.1509 28.4671 25.7984C28.4671 25.7984 28.5196 25.6634 28.3921 25.4984C28.3921 25.4984 28.5496 25.4684 28.6621 25.2959C28.6621 25.2959 28.3171 25.7309 28.6996 25.8959C28.6996 25.8959 29.1721 26.0084 29.1946 25.5209C29.1946 25.5209 29.1496 25.2809 29.3446 25.1984C29.3446 25.1984 29.7196 25.1084 29.8696 24.7034C29.8696 24.7034 29.3446 24.4109 29.3971 24.1634ZM28.2946 19.8509C28.2946 19.8509 27.8746 19.6634 27.6646 19.8509C27.6646 19.8509 27.4021 19.6859 27.1021 19.8509C27.1021 19.8509 26.8246 20.0309 26.6296 20.2409C26.6296 20.2409 26.4946 20.3534 26.5396 20.7209C26.5396 20.7209 26.6146 20.9834 26.5771 21.1034C26.5771 21.1034 26.4871 21.0884 26.2996 21.3134C26.2996 21.3134 26.0671 21.5759 25.8496 21.3359C25.8496 21.3359 25.9246 21.6809 26.3071 21.6209C26.3071 21.6209 26.1196 21.7709 26.2846 22.1459C26.2846 22.1459 26.4046 22.4159 26.2096 22.7609C26.2096 22.7609 26.5471 22.6259 26.5396 22.2209C26.5396 22.2209 26.5021 21.9509 26.6146 21.7709C26.6146 21.7709 26.5021 21.9359 26.7346 22.3034C26.7346 22.3034 26.9146 22.5734 26.7721 22.8434C26.7721 22.8434 27.1021 22.7234 27.0721 22.3184C27.0421 21.9134 26.8471 22.0784 26.9671 21.7034C26.9671 21.7034 27.0046 21.8984 27.1021 22.0034C27.1768 22.0664 27.233 22.1486 27.2647 22.241C27.2964 22.3335 27.3024 22.4328 27.2821 22.5284C27.2821 22.5284 27.4771 22.2734 27.4321 22.0184C27.4193 21.9035 27.3863 21.7918 27.3346 21.6884L27.9646 21.3284L28.2871 20.7659L28.2946 19.8509Z" fill="#D40000" stroke="black" stroke-width="0.09" stroke-linejoin="round"/>
<path d="M27.3356 21.4635C27.3356 21.4635 27.0731 21.4485 27.0356 21.2385M26.5781 21.1035C26.5781 21.1035 26.6681 21.1035 26.7581 21.1935C26.7581 21.1935 26.8106 21.2835 26.9006 21.2685" stroke="black" stroke-width="0.09" stroke-miterlimit="10"/>
<path d="M27.7249 20.6897C27.7249 20.6897 27.5899 20.6897 27.4999 20.6297C27.4999 20.6297 27.4324 20.5772 27.3874 20.6597C27.3874 20.6597 27.3124 20.7797 27.4474 20.8322C27.4474 20.8322 27.6124 20.9222 27.3574 21.0872C27.3574 21.0872 27.6574 20.9672 27.5374 20.8172C27.5374 20.8172 27.4024 20.7272 27.4474 20.6897C27.4474 20.6897 27.4624 20.6597 27.5224 20.6897C27.5674 20.7347 27.6724 20.7197 27.7249 20.6897Z" fill="black"/>
<path d="M31.82 21.4243L31.9775 21.3793L30.9275 17.7793H30.8975L31.82 21.4243Z" fill="#784421" stroke="black" stroke-width="0.09"/>
<path d="M28.3406 25.4216C28.3406 25.4216 28.1006 25.2791 27.8906 25.4441C27.8906 25.4441 27.9206 25.3541 28.0706 25.3166C28.0706 25.3166 28.1606 25.0766 28.3931 25.0991C28.3931 25.0991 28.2956 25.2191 28.1681 25.3091C28.1681 25.3091 28.3031 25.3241 28.3481 25.4216H28.3406Z" fill="black"/>
<path d="M27.4767 25.9857C27.4767 25.9857 27.0867 25.7457 27.3042 25.3332C27.3042 25.3332 27.3642 25.2207 27.4767 25.2432C27.4767 25.2432 27.7242 25.3182 27.5367 25.6557C27.5367 25.6557 27.4317 25.8732 27.4767 25.9932V25.9857ZM28.2642 26.3832C28.2642 26.3832 27.7092 26.1282 27.8817 25.6932C27.8817 25.6932 27.9342 25.5432 28.0617 25.5582C28.0617 25.5582 28.2717 25.5732 28.2342 25.8582C28.2342 25.8582 28.1667 26.1282 28.2642 26.3832Z" fill="#64B4D1" stroke="#00247D" stroke-width="0.09" stroke-miterlimit="2.6"/>
<path d="M28.1534 24.7695C28.1534 24.7695 27.9809 24.897 27.9209 24.9795C27.9209 24.9795 27.8459 24.8895 27.7559 24.8445C27.7559 24.8445 27.8684 24.822 27.9209 24.867C27.9209 24.867 28.0109 24.792 28.1459 24.7695H28.1534Z" fill="black"/>
<path d="M28.6406 26.2697C28.6406 26.2697 29.0906 26.1647 29.0006 25.7072C29.0006 25.7072 28.9556 25.5122 28.7756 25.5422C28.7756 25.5422 28.5506 25.6022 28.7006 25.8872C28.7006 25.8872 28.7831 26.0822 28.6406 26.2697Z" fill="#64B4D1" stroke="#00247D" stroke-width="0.09" stroke-miterlimit="2.6"/>
<path d="M30.6191 16.7533L31.0466 16.8958C31.0466 16.8958 31.4516 17.0683 31.9691 16.8958L32.3591 16.7458L32.0966 17.1508V17.3683L32.2541 17.6083C32.2541 17.6083 32.1566 17.6533 31.8491 17.4583C31.8491 17.4583 31.5191 17.2033 31.1291 17.4583C31.1291 17.4583 30.9041 17.6083 30.7241 17.6083L30.9866 17.3233L30.8891 17.0608L30.6191 16.7383V16.7533Z" fill="#F5CE00" stroke="black" stroke-width="0.09" stroke-miterlimit="2.6"/>
<path d="M28.8124 25.7367C28.8124 25.7367 28.8274 25.7067 28.8124 25.6992L28.7749 25.7142C28.7749 25.7142 28.7299 25.7892 28.7749 25.8942C28.7749 25.8942 28.8124 25.9617 28.7974 26.0292V26.0592C28.7974 26.0592 28.8199 26.0517 28.8199 26.0292C28.8199 26.0292 28.8499 25.9692 28.8049 25.8942C28.8049 25.8942 28.7599 25.7892 28.8124 25.7367Z" fill="#F2F2F2"/>
<path d="M34.85 17.5777C34.85 17.5777 34.535 17.7427 34.4 17.5552C34.4 17.5552 34.2425 17.2252 34.6175 17.1052C34.6175 17.1052 34.4075 16.8652 34.625 16.6402C34.625 16.6402 34.745 16.5202 34.94 16.6027C34.94 16.6027 35.03 16.4302 35.2175 16.4377C35.2175 16.4377 35.3975 16.4377 35.4425 16.6252C35.4425 16.6252 35.69 16.5352 35.8175 16.6702C35.8175 16.6702 36.0275 16.9102 35.7275 17.1052L35.51 17.1277L35.2925 17.0227L35.0675 17.0902C35.0675 17.0902 35.1275 17.3302 34.8425 17.5777H34.85Z" fill="#D40000" stroke="black" stroke-width="0.09" stroke-linejoin="round"/>
<path d="M32.3602 17.329C32.3602 17.329 32.3602 17.389 32.3002 17.404C32.3002 17.404 32.2252 17.4265 32.1877 17.3365V17.314C32.1877 17.2765 32.1652 17.164 32.2927 17.0665C32.2927 17.0665 32.4877 16.909 32.8627 17.104C33.2244 17.3074 33.5947 17.4951 33.9727 17.6665C33.9727 17.6665 34.2052 17.7865 34.5652 17.8015C34.5652 17.8015 35.0527 17.839 35.2627 17.494C35.2627 17.494 35.4202 17.2315 35.2627 17.059C35.2627 17.059 35.1952 16.984 35.0902 16.999C35.0355 17.0112 34.9874 17.0433 34.9552 17.089C34.9552 17.089 34.8802 17.194 34.9627 17.2765C34.9627 17.2765 35.0827 17.3515 35.1277 17.2015C35.1277 17.2165 35.1652 17.329 35.0977 17.419C35.0977 17.419 34.7977 17.869 33.9802 17.4115L32.9077 16.804C32.9077 16.804 32.3752 16.5265 32.0377 16.9615C32.0377 16.9615 31.7827 17.3215 32.1202 17.554C32.1202 17.554 32.3752 17.704 32.5252 17.464C32.5252 17.464 32.6602 17.2315 32.4502 17.134C32.4502 17.134 32.2702 17.044 32.2027 17.224C32.1277 17.404 32.3377 17.449 32.3527 17.3215C32.3527 17.3215 32.3527 17.2915 32.3752 17.3215L32.3602 17.329Z" fill="#F5CE00" stroke="black" stroke-width="0.09" stroke-miterlimit="2.6"/>
<path d="M28.1003 19.1899V18.5149C28.1003 18.4549 28.1003 18.4249 28.1903 18.3499C28.2653 18.2899 28.3478 18.1774 28.4678 18.4774C28.4678 18.4774 28.7078 18.2149 28.7828 18.1774C28.7828 18.1774 28.9328 18.0649 29.0303 18.2299C29.0303 18.2299 29.1503 18.0349 29.2553 17.9899C29.2553 17.9899 29.4953 17.8399 29.5028 18.3049L29.6903 18.1249C29.6903 18.1249 29.8403 18.0124 30.0053 18.1774C30.0053 18.1774 30.2678 18.4474 30.3053 18.5224C30.3053 18.5224 30.3653 18.5974 30.3803 18.7249C30.3803 18.7249 30.3803 18.8749 30.4553 18.9499C30.4553 18.9499 30.5378 19.0249 30.6203 19.0399C30.6203 19.0399 30.8078 19.0474 30.8903 19.2349C30.8903 19.2349 30.9128 19.1974 31.0103 20.0749V21.6874L29.9303 22.9699L28.1978 22.4749L27.5078 22.1824L27.3428 21.6874L28.0178 21.2449L28.3778 20.2699L28.2653 19.5724L28.1003 19.1824V19.1899Z" fill="#E4CB5E" stroke="black" stroke-width="0.09" stroke-miterlimit="2.6"/>
<path d="M32.8691 20.0301L32.9591 19.9176L33.1466 19.7676C33.1466 19.7676 33.4466 20.5476 33.4616 20.7201V20.9601C33.4616 20.9601 33.9116 21.0801 34.0016 21.7626L33.6266 22.4526L33.0416 22.1226L32.8691 22.0101V20.0376V20.0301Z" fill="#784421" stroke="black" stroke-width="0.09"/>
<path d="M27.3716 25.4298C27.3716 25.4298 27.3866 25.4073 27.3716 25.3848L27.3341 25.4148C27.3341 25.4148 27.2216 25.5423 27.3191 25.7448C27.3191 25.7448 27.3191 25.7748 27.3416 25.7598C27.3416 25.7598 27.3641 25.7598 27.3416 25.7373C27.3416 25.7373 27.2591 25.5573 27.3716 25.4373V25.4298Z" fill="#F2F2F2"/>
<path d="M29.1276 25.2947C29.1276 25.2947 29.1351 25.2347 29.0976 25.1747C29.0976 25.1747 29.0751 25.1297 29.0826 25.0622M29.5026 18.3047C29.5026 18.3047 29.5026 18.4772 29.5551 18.6047C29.6001 18.7247 29.7726 18.9422 29.7801 19.0472" stroke="black" stroke-width="0.09" stroke-miterlimit="10"/>
<path d="M33.5747 24.1621C33.5747 24.1621 33.8447 24.1696 33.9872 24.2521C34.1372 24.3121 34.2422 24.3871 34.3997 24.4921C34.3997 24.4921 34.4747 24.5896 34.7897 24.5296C34.7897 24.5296 35.3297 24.4021 35.3297 24.8296C35.3297 24.8296 35.9822 24.8746 35.7197 25.4521C35.7197 25.4521 35.5397 25.9021 35.1647 25.5871C35.1647 25.5871 35.4047 25.9246 34.9397 26.0596C34.9397 26.0596 34.6097 26.1496 34.5122 25.7971C34.5122 25.7971 34.4522 25.6621 34.5872 25.4971C34.5872 25.4971 34.4297 25.4671 34.3247 25.2946C34.3247 25.2946 34.6622 25.7296 34.2872 25.8946C34.2872 25.8946 33.8147 26.0071 33.7847 25.5196C33.7847 25.5196 33.8222 25.2796 33.6347 25.1971C33.6347 25.1971 33.2597 25.1071 33.0947 24.7021C33.0947 24.7021 33.6347 24.4096 33.5822 24.1621H33.5747Z" fill="#D40000" stroke="black" stroke-width="0.09" stroke-linejoin="round"/>
<path d="M29.2852 19.0557L29.7352 22.6407M29.3977 19.0482L29.8927 22.3932M29.4802 19.0332L30.0652 22.3482" stroke="black" stroke-width="0.09" stroke-miterlimit="10"/>
<path d="M30.3952 22.0627L30.5602 22.0102L29.5102 18.4102H29.4727L30.3952 22.0627Z" fill="#784421" stroke="black" stroke-width="0.09"/>
<path d="M29.8019 18.8965L30.8594 21.559M29.7344 18.934L30.7544 21.709" stroke="black" stroke-width="0.09" stroke-miterlimit="10"/>
<path d="M28.0702 26.1195C28.0702 26.1195 27.9427 26.007 27.9652 25.797C27.9652 25.797 27.9652 25.752 27.9427 25.7445C27.9427 25.7445 27.9202 25.737 27.9202 25.7895C27.9202 25.7895 27.8827 26.007 28.0327 26.127C28.0327 26.127 28.0402 26.1495 28.0627 26.142C28.0627 26.142 28.0777 26.142 28.0627 26.1195H28.0702Z" fill="#F2F2F2"/>
<path d="M29.8625 18.8594L30.935 21.2894M29.5625 19.0094L30.2375 22.2869" stroke="black" stroke-width="0.09" stroke-miterlimit="10"/>
<path d="M34.9997 21.4246C34.5272 21.1546 34.4222 20.5696 34.4222 20.5696C34.3544 20.2081 34.3962 19.8347 34.5422 19.4971C34.8422 18.8521 35.3747 18.7246 35.3747 18.7246C35.3747 18.7246 34.8572 19.0846 34.7147 19.5646C34.7147 19.5646 34.6097 19.9771 34.6697 20.3671C34.7297 20.7796 34.7072 20.6746 34.8047 20.9896L34.9997 21.4396V21.4246Z" fill="#F5CE00" stroke="black" stroke-width="0.09" stroke-miterlimit="2.6"/>
<path d="M32.9521 19.9023L30.9571 20.5398L30.8521 21.4398C30.3796 22.1223 29.4121 22.2423 29.4121 22.2423L30.1621 23.0448L31.5871 23.3448L32.3521 22.7598L33.0421 22.1298C32.9671 21.7923 33.0046 21.2898 33.0046 21.2898C33.0046 21.1998 33.0421 21.0048 33.0421 21.0048C33.0421 21.0048 32.9296 20.2023 32.9521 19.9173V19.9023Z" fill="#784421" stroke="black" stroke-width="0.09"/>
<path d="M30.8741 21.2148C30.8741 21.2148 32.1941 20.8023 32.9741 20.4648M30.2441 21.9648C30.2441 21.9648 31.8941 21.6648 33.0416 21.0048L33.4616 20.7198" stroke="black" stroke-width="0.09" stroke-miterlimit="10"/>
<path d="M33.4625 20.959L33.0125 21.289C33.0125 21.289 31.175 22.129 29.7725 22.159M33.005 21.889C33.005 21.889 31.595 22.624 30.8 22.624" stroke="black" stroke-width="0.09" stroke-miterlimit="10"/>
<path d="M34.6846 19.8509C34.6846 19.8509 35.1046 19.6634 35.3146 19.8509C35.3146 19.8509 35.5846 19.6859 35.8846 19.8509C35.8846 19.8509 36.1546 20.0309 36.3496 20.2409C36.3496 20.2409 36.4846 20.3534 36.4396 20.7209C36.4396 20.7209 36.3646 20.9834 36.4171 21.1034C36.4171 21.1034 36.4996 21.0884 36.6796 21.3134C36.6796 21.3134 36.9271 21.5759 37.1296 21.3359C37.1296 21.3359 37.0696 21.6809 36.6796 21.6209C36.6796 21.6209 36.8596 21.7709 36.7021 22.1459C36.7021 22.1459 36.5821 22.4159 36.7771 22.7609C36.7771 22.7609 36.4321 22.6259 36.4471 22.2209C36.4471 22.2209 36.4771 21.9509 36.3721 21.7709C36.3721 21.7709 36.4771 21.9359 36.2446 22.3034C36.2446 22.3034 36.0646 22.5734 36.2146 22.8434C36.2146 22.8434 35.8771 22.7234 35.9146 22.3184C35.9371 21.9134 36.1396 22.0784 36.0121 21.7034C36.0121 21.7034 35.9821 21.8984 35.8846 22.0034C35.8099 22.0664 35.7537 22.1486 35.722 22.241C35.6903 22.3335 35.6843 22.4328 35.7046 22.5284C35.7046 22.5284 35.5096 22.2734 35.5546 22.0184C35.5996 21.7559 35.6446 21.6884 35.6446 21.6884L35.0221 21.3284L34.7071 20.7659L34.6846 19.8509Z" fill="#D40000" stroke="black" stroke-width="0.09" stroke-linejoin="round"/>
<path d="M27.5446 22.1294C27.5446 22.1294 27.6046 21.8519 27.8671 21.9494C27.8671 21.9494 27.9571 21.4994 28.4446 21.4844C28.9321 21.4694 28.9546 21.9644 28.9546 21.9944C28.9546 21.9944 29.1046 21.7844 29.3371 21.8069C29.3371 21.8069 29.7496 21.7844 29.6071 22.4444L29.6821 22.5344C29.6821 22.5344 29.9896 21.7919 30.6346 21.9794C30.6346 21.9794 31.2646 22.1744 30.8596 22.7819C30.8596 22.7819 31.1746 23.1944 31.4296 23.1569C31.6996 23.1194 31.9321 23.0369 32.1946 22.5719C32.4646 22.1069 33.0721 22.0319 33.2221 22.0619C33.3721 22.0844 33.4996 22.1969 33.5221 22.3019C33.5221 22.3019 33.8446 21.2294 35.0071 21.3869L35.4721 21.6344L35.6521 21.7094L35.3821 22.4594L34.7521 23.8994L34.2571 24.0494L33.7471 23.7569L33.5671 23.8469V24.2894L32.8921 24.7694L32.4271 24.9569L31.9171 25.3169L31.7896 25.6319C31.7896 25.6319 31.5121 25.5044 31.1896 25.6319L31.0846 25.3619L30.7846 25.0844L29.6146 24.5294L29.4121 23.8544L29.1946 23.7569L28.9546 24.0269L28.6171 24.0719L28.0921 23.7119L27.5371 22.1369L27.5446 22.1294Z" fill="#F2F2F2" stroke="#00247D" stroke-width="0.09" stroke-miterlimit="10"/>
<path d="M32.6148 16.8497C32.6148 16.8497 32.1648 16.8347 32.1873 17.2997" stroke="black" stroke-width="0.09" stroke-miterlimit="2.6"/>
<path d="M35.5251 21.7486C34.7601 21.5086 34.5501 20.6761 34.5501 20.6761C34.4584 20.2887 34.4898 19.8823 34.6401 19.5136C35.0001 18.6886 35.5926 18.6886 35.5926 18.6886C35.6689 18.6776 35.7466 18.6964 35.8094 18.7411C35.8723 18.7858 35.9155 18.8529 35.9301 18.9286C35.9601 19.1086 35.8326 19.1761 35.8326 19.1761C35.6301 19.2886 35.4951 19.1386 35.4951 19.1386C35.4051 19.0186 35.4726 18.9211 35.4726 18.9211C35.5251 18.8461 35.6226 18.8911 35.6226 18.8911C35.7201 18.9061 35.6976 19.0111 35.6976 19.0111C35.6976 19.0111 35.7276 18.8911 35.6076 18.8761C35.6076 18.8761 35.3676 18.8236 35.0976 19.1611C35.0976 19.1611 34.7451 19.6186 34.7451 20.2186C34.7451 20.2186 34.7001 21.3286 35.8476 21.6136C35.8476 21.6136 35.7276 21.7936 35.5026 22.4461C35.5026 22.4461 35.2551 23.2861 35.0226 23.7436C35.0226 23.7436 34.7001 24.3886 33.9801 24.1261C33.9801 24.1261 33.5601 23.9386 33.5601 23.6386C33.5601 23.6386 33.5376 23.3536 33.7851 23.3386C33.7851 23.3386 34.0326 23.3161 34.0326 23.5261C34.0326 23.5261 34.0326 23.7511 33.7701 23.7061C33.7701 23.7061 33.6801 23.6836 33.6876 23.5936C33.6876 23.5936 33.7026 23.5036 33.8226 23.5486C33.9351 23.5936 33.8226 23.5486 33.8226 23.5411C33.8226 23.5411 33.7776 23.5186 33.7326 23.5411C33.7326 23.5411 33.6876 23.5411 33.6876 23.6161C33.6876 23.6161 33.6876 23.6611 33.7401 23.6986L33.8676 23.7136C33.8676 23.7136 33.9426 23.8636 34.0926 23.9161C34.1822 23.9438 34.2771 23.9501 34.3696 23.9344C34.462 23.9188 34.5496 23.8817 34.6251 23.8261C34.7257 23.739 34.803 23.6281 34.8501 23.5036C35.0015 23.1748 35.1318 22.8366 35.2401 22.4911C35.2401 22.4911 35.3751 22.0636 35.4951 21.8386L35.5251 21.7486Z" fill="#F5CE00" stroke="black" stroke-width="0.09" stroke-miterlimit="2.6"/>
<path d="M33.3501 23.855C33.3501 23.855 33.5001 23.84 33.5001 23.9675C33.5001 23.9675 33.4926 24.1475 33.2601 24.11C33.2601 24.11 33.0351 24.065 33.1101 23.81C33.1101 23.81 33.1701 23.6375 33.3801 23.66C33.3801 23.66 33.5901 23.66 33.6801 23.945C33.6801 23.945 33.7551 24.1925 33.6276 24.395C33.4926 24.62 33.1626 24.77 32.9976 24.845C32.9976 24.845 32.3451 25.0925 32.1501 25.2425C32.1501 25.2425 31.8501 25.46 31.9851 25.6625C31.9851 25.6625 32.0376 25.745 32.1126 25.745C32.1126 25.745 32.2026 25.745 32.2101 25.655C32.2101 25.655 32.2101 25.7075 32.1576 25.73C32.1576 25.73 32.0976 25.76 32.0301 25.7075C32.0301 25.7075 31.9551 25.6325 32.0151 25.5275C32.0151 25.5275 32.0901 25.4075 32.2851 25.4825C32.2851 25.4825 32.4351 25.565 32.3751 25.73C32.3751 25.73 32.3076 25.8875 32.1201 25.88C32.1201 25.88 31.9776 25.88 31.8801 25.79C31.7301 25.6325 31.7301 25.34 31.8651 25.19C31.8651 25.19 31.9776 25.0325 32.2176 24.92L32.8926 24.6575C33.0876 24.575 33.2601 24.485 33.3726 24.35C33.3726 24.35 33.4701 24.245 33.5076 24.05C33.5076 24.05 33.5376 23.9 33.4476 23.87L33.3576 23.8475L33.3501 23.855Z" fill="#F5CE00" stroke="black" stroke-width="0.09" stroke-miterlimit="2.6"/>
<path d="M33.3652 23.8557C33.3652 23.8557 33.5227 23.8257 33.6277 24.0207C33.6277 24.0207 33.6802 24.1332 33.6877 24.2082M33.7402 23.5332C33.7402 23.5332 33.5827 23.5557 33.6652 23.7882C33.7477 24.0057 33.8902 24.0657 33.9277 24.1032" stroke="black" stroke-width="0.09" stroke-miterlimit="2.6"/>
<path d="M30.6198 17.3307C30.6198 17.3307 30.6198 17.3907 30.6948 17.4057C30.6948 17.4057 30.7548 17.4207 30.7923 17.3382V17.3157C30.7923 17.2782 30.8148 17.1657 30.7023 17.0682C30.7023 17.0682 30.4923 16.9107 30.1173 17.1057C30.1173 17.1057 29.8173 17.2557 29.6148 17.3757C29.6148 17.3757 29.0823 17.6607 29.0148 17.6757C29.0148 17.6757 28.7748 17.7957 28.4148 17.8107C28.4148 17.8107 27.9273 17.8482 27.7248 17.5032C27.7248 17.5032 27.5598 17.2407 27.7248 17.0682C27.7248 17.0682 27.7848 16.9932 27.8898 17.0082C27.9348 17.0157 27.9798 17.0382 28.0248 17.0982C28.0248 17.0982 28.0998 17.2032 28.0173 17.2857C28.0173 17.2857 27.8973 17.3607 27.8523 17.2107C27.8523 17.2257 27.8298 17.3307 27.8898 17.4357C27.8898 17.4357 28.1898 17.8782 28.9998 17.4132L30.0723 16.8132C30.0723 16.8132 30.6123 16.5357 30.9423 16.9632C30.9423 16.9632 31.1973 17.3232 30.8673 17.5632C30.8673 17.5632 30.6198 17.7132 30.4548 17.4732C30.4548 17.4732 30.3348 17.2482 30.5298 17.1432C30.5298 17.1432 30.7098 17.0532 30.7923 17.2332C30.8673 17.4132 30.6423 17.4582 30.6273 17.3307C30.6273 17.3307 30.6273 17.3007 30.6198 17.3307ZM27.9798 21.4332C28.4523 21.1707 28.5648 20.5707 28.5648 20.5707C28.6698 19.9707 28.4373 19.4982 28.4373 19.4982C28.1373 18.8532 27.6123 18.7257 27.6123 18.7257C27.6123 18.7257 28.1223 19.0857 28.2648 19.5657C28.2648 19.5657 28.3848 19.9782 28.3098 20.3682C28.2498 20.7807 28.2723 20.6757 28.1748 20.9907L27.9798 21.4332Z" fill="#F5CE00" stroke="black" stroke-width="0.09" stroke-miterlimit="2.6"/>
<path d="M30.3809 16.8497C30.3809 16.8497 30.8309 16.8347 30.8009 17.2997" stroke="black" stroke-width="0.09" stroke-miterlimit="2.6"/>
<path d="M27.4482 21.7486C28.2207 21.5086 28.4232 20.6761 28.4232 20.6761C28.5173 20.2895 28.4884 19.8831 28.3407 19.5136C27.9807 18.6886 27.3882 18.6886 27.3882 18.6886C27.3118 18.6776 27.2342 18.6964 27.1714 18.7411C27.1085 18.7858 27.0653 18.8529 27.0507 18.9286C27.0282 19.1086 27.1482 19.1761 27.1482 19.1761C27.3582 19.2886 27.4932 19.1386 27.4932 19.1386C27.5757 19.0186 27.5082 18.9211 27.5082 18.9211C27.4557 18.8461 27.3582 18.8911 27.3582 18.8911C27.2682 18.9061 27.2832 19.0111 27.2832 19.0111C27.2832 19.0111 27.2607 18.8911 27.3732 18.8761C27.3732 18.8761 27.6132 18.8236 27.8832 19.1611C27.8832 19.1611 28.2432 19.6186 28.2432 20.2186C28.2432 20.2186 28.2882 21.3286 27.1332 21.6136C27.1332 21.6136 27.2607 21.7936 27.4782 22.4461C27.4782 22.4461 27.7332 23.2861 27.9732 23.7436C27.9732 23.7436 28.2882 24.3886 29.0007 24.1261C29.0007 24.1261 29.4207 23.9386 29.4207 23.6386C29.4207 23.6386 29.4507 23.3536 29.1957 23.3386C29.1957 23.3386 28.9482 23.3161 28.9482 23.5261C28.9482 23.5261 28.9482 23.7511 29.2182 23.7061C29.2182 23.7061 29.3082 23.6836 29.2932 23.5936C29.2932 23.5936 29.2782 23.5036 29.1657 23.5486C29.0457 23.5936 29.1657 23.5486 29.1657 23.5411C29.1657 23.5411 29.2032 23.5186 29.2482 23.5411C29.2482 23.5411 29.2932 23.5411 29.2932 23.6161C29.2932 23.6161 29.2932 23.6611 29.2407 23.6986L29.1282 23.7136C29.1282 23.7136 29.0532 23.8636 28.8882 23.9161C28.8 23.9457 28.706 23.9529 28.6143 23.9372C28.5227 23.9215 28.4364 23.8833 28.3632 23.8261C28.2626 23.739 28.1853 23.6281 28.1382 23.5036C27.9842 23.175 27.8514 22.8368 27.7407 22.4911C27.7407 22.4911 27.6057 22.0636 27.5007 21.8386L27.4557 21.7486H27.4482Z" fill="#F5CE00" stroke="black" stroke-width="0.09" stroke-miterlimit="2.6"/>
<path d="M29.6376 23.855C29.6376 23.855 29.4876 23.84 29.4876 23.9675C29.4876 23.9675 29.4876 24.1475 29.7276 24.11C29.7276 24.11 29.9526 24.065 29.8701 23.81C29.8701 23.81 29.8176 23.6375 29.6001 23.66C29.6001 23.66 29.3976 23.66 29.3001 23.945C29.3001 23.945 29.2326 24.1925 29.3601 24.395C29.4951 24.62 29.8251 24.77 29.9826 24.845C29.9826 24.845 30.6351 25.0925 30.8376 25.2425C30.8376 25.2425 31.1301 25.46 30.9951 25.6625C30.9951 25.6625 30.9501 25.745 30.8676 25.745C30.8676 25.745 30.7776 25.745 30.7701 25.655C30.7701 25.655 30.7701 25.7075 30.8226 25.73C30.8226 25.73 30.8901 25.76 30.9501 25.7075C30.9501 25.7075 31.0251 25.6325 30.9651 25.5275C30.9651 25.5275 30.8901 25.4075 30.7101 25.4825C30.7101 25.4825 30.5451 25.565 30.6201 25.73C30.6201 25.73 30.6726 25.8875 30.8601 25.88C30.8601 25.88 31.0101 25.88 31.1001 25.79C31.2501 25.6325 31.2501 25.34 31.1301 25.19C31.1301 25.19 31.0026 25.0325 30.7701 24.92C30.6276 24.875 30.3576 24.7625 30.0951 24.6575C29.8926 24.575 29.7201 24.485 29.6076 24.35C29.6076 24.35 29.5101 24.245 29.4726 24.05C29.4726 24.05 29.4501 23.9 29.5401 23.87L29.6301 23.8475L29.6376 23.855Z" fill="#F5CE00" stroke="black" stroke-width="0.09" stroke-miterlimit="2.6"/>
<path d="M29.6146 23.8546C29.6146 23.8546 29.4571 23.8246 29.3596 24.0196C29.3596 24.0196 29.3071 24.1321 29.2921 24.2071M29.2396 23.5321C29.2396 23.5321 29.4046 23.5546 29.3221 23.7871C29.2321 24.0046 29.0971 24.0646 29.0521 24.1021M31.1071 17.2696C31.1071 17.2696 31.4971 17.0221 31.8871 17.2921M28.9096 19.6396C28.9096 19.6396 28.9621 19.4146 28.7146 19.0396C28.7146 19.0396 28.5496 18.6871 28.4746 18.4771M29.0296 18.2296L29.2021 18.7246L29.4271 19.2346" stroke="black" stroke-width="0.09" stroke-miterlimit="2.6"/>
<path d="M29.0904 19.8735C29.0904 19.8735 29.2404 20.031 29.2254 20.2935M28.6179 19.701C28.6179 19.701 28.7754 19.776 28.7604 20.211C28.7604 20.211 28.7529 20.511 28.9854 20.676M28.5879 20.781C28.5879 20.781 29.0904 20.7285 29.1279 21.0435C29.1279 21.0435 29.1279 21.3435 29.3079 21.366C29.3079 21.366 29.5554 21.3885 29.6079 21.636M28.7529 21.126C28.7529 21.126 28.8429 21.2535 28.9329 21.321M29.3979 20.796C29.3979 20.796 29.5179 20.9985 29.5479 21.1035M29.9454 18.4785C29.9454 18.4785 30.0654 18.636 30.1779 18.7035M30.4104 19.4235C30.4104 19.4235 30.6654 19.5435 30.6354 20.1735C30.6354 20.1735 30.5904 20.5485 30.7029 20.751" stroke="black" stroke-width="0.09" stroke-miterlimit="10"/>
<path d="M29.2324 18.9944L29.2624 19.0544C29.2624 19.0544 29.7124 19.0769 29.9449 18.7694L29.9224 18.7094C29.9224 18.7094 29.5249 18.6869 29.2474 18.9944H29.2324Z" fill="#784421" stroke="black" stroke-width="0.09"/>
<path d="M30.8525 21.388C30.8525 21.388 32.3975 20.938 32.9975 20.668" stroke="black" stroke-width="0.09" stroke-miterlimit="10"/>
<path d="M30.6869 18.5384L30.6719 18.4934L31.4294 18.1934L31.4519 18.2534L30.6869 18.5384Z" fill="#784421" stroke="black" stroke-width="0.09"/>
<path d="M30.7559 18.5079L31.2659 21.0054M30.8459 18.4854L31.4234 20.9604M30.9434 18.4404L31.5734 20.9079M31.1984 18.3504L32.0609 20.1954M31.3109 18.3204L32.2334 20.1354M31.3859 18.2754L32.3909 20.0979M31.2284 21.0279L31.6184 20.9079M30.9359 20.7879C30.9359 20.7879 32.0759 20.4504 32.9609 20.0979M30.9059 20.9004C30.9059 20.9004 32.3684 20.5254 32.9459 20.2404M31.3559 22.0854L31.4309 22.3329L31.6409 22.2579L31.5659 22.0254M31.9409 21.9279L32.0159 22.1529L32.2259 22.0854L32.1509 21.8604M30.9509 20.5404L30.9359 20.2254L32.8484 19.6479L32.9459 19.9179M31.7459 19.9779L31.8434 20.2629M32.4134 19.7829L32.5334 20.0529M32.5709 19.7304L32.6909 19.9779M32.7209 19.6779L32.8409 19.9479M32.8409 19.6479L33.0509 19.5279L33.1409 19.7604M32.9459 19.5879L33.0509 19.8354" stroke="black" stroke-width="0.09" stroke-miterlimit="10"/>
<path d="M28.2118 23.232C28.2118 23.232 27.8368 22.8495 28.2118 22.482C28.2118 22.482 27.7993 22.287 27.8668 21.957M28.8868 23.532C28.8868 23.532 28.4893 23.5845 28.6093 22.827C28.6093 22.827 28.4443 23.127 28.3918 23.277C28.3684 23.3516 28.3704 23.4319 28.3976 23.5052C28.4247 23.5785 28.4755 23.6407 28.5418 23.682C28.6093 23.727 28.9543 23.817 29.0668 23.592M28.4443 22.377C28.4443 22.377 28.2868 22.5195 28.3993 22.782M28.6093 22.407C28.6093 22.407 28.6243 22.6695 28.7593 22.812M28.7218 22.3095C28.7218 22.3095 28.7218 22.6095 28.9393 22.8045M28.8268 22.2045C28.8268 22.2045 28.8268 22.542 29.0818 22.7595M30.0943 22.707C30.0943 22.707 30.2143 22.4145 30.4843 22.437C30.4843 22.437 30.3568 22.497 30.3568 22.6245C30.3568 22.6245 30.3418 22.8495 30.5743 22.8645C30.5743 22.8645 30.7618 22.8945 30.8593 22.7895" stroke="#00247D" stroke-width="0.09" stroke-miterlimit="10"/>
<path d="M30.7318 23.9827C30.7318 23.9827 30.0643 23.6677 30.1318 23.2252C30.1318 23.2252 30.1618 22.9552 30.4318 22.8202M30.2818 23.1052C30.2818 23.1052 30.2218 23.2927 30.3568 23.4277M30.4393 22.9777C30.4393 22.9777 30.3493 23.1877 30.4918 23.3377M30.6043 22.8652C30.6043 22.8652 30.4993 23.0452 30.6193 23.2027M29.9893 24.0277C29.9893 24.0277 30.3493 24.3502 30.6343 24.3502M29.8768 24.1327C29.8768 24.1327 30.2143 24.4027 30.4318 24.4477M29.7568 24.2077C29.7568 24.2077 30.1693 24.5752 30.4318 24.5977M31.4593 24.9427C31.4593 24.9427 31.0468 25.1677 31.3693 25.4077M31.1893 24.7027L31.8643 24.3577M31.3618 24.8227C31.3618 24.8227 32.0368 24.4102 32.2393 24.3202M31.7143 24.8602C31.7143 24.8602 32.2918 24.4702 32.6068 24.2977M32.0968 24.8302C32.0968 24.8302 32.4943 24.5302 32.8843 24.2977M33.0118 23.9152C33.0118 23.9152 32.8168 23.6227 32.1718 23.9152C32.1718 23.9152 32.4193 23.6977 32.8843 23.5252M33.5218 22.3027C33.5218 22.3027 33.5818 22.5352 33.5218 22.6777" stroke="#00247D" stroke-width="0.09" stroke-miterlimit="10"/>
<path d="M32.4875 23.4287C32.4875 23.4287 32.6225 23.2337 32.96 23.1287C32.96 23.1287 33.05 23.3537 33.32 23.3162C33.32 23.3162 33.71 23.2337 33.59 22.7912C33.59 22.7912 33.5075 22.4762 33.05 22.4387M34.4075 21.8912C34.4075 21.8912 34.865 21.9812 34.8575 22.3487C34.8575 22.3487 34.9025 22.9187 34.3025 23.0237M34.7975 22.1237C34.7975 22.1237 34.9175 21.8462 35.21 21.7337M34.865 21.5687C34.865 21.5687 34.9925 21.7787 35.075 21.8012M34.805 21.7262C34.805 21.7262 34.9175 21.8837 34.955 21.9137M34.76 21.8762C34.7918 21.9212 34.8297 21.9616 34.8725 21.9962M32.375 19.6862C32.375 19.6862 32.465 19.5362 32.6975 19.5962M33.605 20.7812C33.605 20.7812 33.755 20.1962 34.2425 20.4062M34.0475 20.3612C34.0475 20.3612 34.0925 20.0912 33.9725 19.9487M33.7025 20.3387C33.7025 20.3387 33.77 20.4512 33.71 20.5412" stroke="#00247D" stroke-width="0.09" stroke-miterlimit="10"/>
<path d="M34.7145 26.375C34.7145 26.375 35.2695 26.1275 35.097 25.6925C35.097 25.6925 35.0445 25.5425 34.917 25.5575C34.917 25.5575 34.707 25.565 34.7445 25.8575C34.7445 25.8575 34.8195 26.1425 34.707 26.3825L34.7145 26.375Z" fill="#64B4D1" stroke="#00247D" stroke-width="0.09" stroke-miterlimit="2.6"/>
<path d="M34.9102 26.1195C34.9102 26.1195 35.0377 26.007 35.0227 25.797C35.0227 25.797 35.0077 25.752 35.0227 25.7445C35.0227 25.7445 35.0527 25.737 35.0527 25.7895C35.0527 25.7895 35.0902 26.007 34.9477 26.127C34.9477 26.127 34.9402 26.1495 34.9177 26.142C34.9177 26.142 34.9027 26.142 34.9177 26.1195H34.9102Z" fill="#F2F2F2"/>
<path d="M35.502 25.9857C35.502 25.9857 35.892 25.7457 35.682 25.3332C35.682 25.3332 35.6145 25.2207 35.502 25.2432C35.502 25.2432 35.262 25.3182 35.4495 25.6557C35.4495 25.6557 35.5395 25.8732 35.502 25.9932V25.9857Z" fill="#64B4D1" stroke="#00247D" stroke-width="0.09" stroke-miterlimit="2.6"/>
<path d="M35.5994 25.4298C35.5994 25.4298 35.5844 25.4073 35.5994 25.3848L35.6294 25.4148C35.6294 25.4148 35.7419 25.5423 35.6519 25.7448C35.6519 25.7448 35.6444 25.7748 35.6144 25.7598V25.7373C35.6144 25.7373 35.7044 25.5573 35.5994 25.4373V25.4298Z" fill="#F2F2F2"/>
<path d="M34.3248 26.2697C34.3248 26.2697 33.8898 26.1647 33.9723 25.7072C33.9723 25.7072 34.0173 25.5122 34.2048 25.5422C34.2048 25.5422 34.4298 25.6022 34.2798 25.8872C34.2798 25.8872 34.1973 26.0822 34.3323 26.2697H34.3248Z" fill="#64B4D1" stroke="#00247D" stroke-width="0.09" stroke-miterlimit="2.6"/>
<path d="M34.1597 25.7367V25.6992C34.1597 25.6992 34.1897 25.6992 34.1972 25.7142C34.1972 25.7142 34.2422 25.7892 34.2047 25.8942C34.2047 25.8942 34.1672 25.9617 34.1897 26.0292C34.1897 26.0292 34.1897 26.0517 34.1672 26.0592L34.1522 26.0292C34.1522 26.0292 34.1297 25.9692 34.1672 25.8942C34.1672 25.8942 34.2122 25.7892 34.1672 25.7367H34.1597Z" fill="#F2F2F2"/>
<path d="M34.6397 25.422C34.6397 25.422 34.8947 25.2795 35.0897 25.4445C35.0897 25.4445 35.0747 25.3545 34.9097 25.317C34.9097 25.317 34.8347 25.077 34.5947 25.0995C34.5947 25.0995 34.6847 25.2195 34.8197 25.3095C34.8197 25.3095 34.6847 25.3245 34.6397 25.422ZM34.8197 24.7695C34.8197 24.7695 34.9997 24.897 35.0597 24.9795C35.0597 24.9795 35.1272 24.8895 35.2097 24.8445C35.2097 24.8445 35.1197 24.822 35.0597 24.867C35.0597 24.867 34.9772 24.792 34.8347 24.7695H34.8197Z" fill="black"/>
<path d="M33.8591 25.296C33.8591 25.296 33.8366 25.236 33.8816 25.176C33.8816 25.176 33.9116 25.131 33.8966 25.0635M35.6516 21.4635C35.6516 21.4635 35.9141 21.4485 35.9516 21.2385M36.4016 21.1035C36.4016 21.1035 36.3116 21.1035 36.2366 21.1935C36.2366 21.1935 36.1691 21.2835 36.0866 21.2685" stroke="black" stroke-width="0.09" stroke-miterlimit="10"/>
<path d="M35.2695 20.69C35.2695 20.69 35.4045 20.69 35.472 20.63C35.472 20.63 35.5545 20.5775 35.5995 20.66C35.5995 20.66 35.6745 20.78 35.5395 20.8325C35.5395 20.8325 35.3745 20.9225 35.637 21.0875C35.637 21.0875 35.322 20.9675 35.457 20.8175C35.457 20.8175 35.592 20.7275 35.532 20.69C35.532 20.69 35.517 20.66 35.4645 20.69C35.412 20.735 35.307 20.72 35.2695 20.69Z" fill="black"/>
<path d="M35.4502 17.4195C35.4502 17.4195 35.5102 17.3295 35.4877 17.0895C35.4577 16.8495 35.6827 16.812 35.7577 16.8795C35.7577 16.8795 35.8477 16.9545 35.7577 17.112C35.6955 17.2481 35.5863 17.3573 35.4502 17.4195Z" fill="#64B4D1" stroke="#00247D" stroke-width="0.09" stroke-miterlimit="2.6"/>
<path d="M35.5254 17.2245C35.5254 17.2245 35.6154 17.142 35.5704 16.9545L35.5854 16.9395H35.6079C35.6079 16.9395 35.6529 17.1495 35.5629 17.2545C35.5629 17.2545 35.5479 17.277 35.5254 17.2545V17.2245Z" fill="#F2F2F2"/>
<path d="M35.3821 17.3305C35.3821 17.3305 35.3821 17.2255 35.2096 17.0605C35.0296 16.8805 35.1721 16.7305 35.2846 16.7305C35.2846 16.7305 35.3821 16.7305 35.4346 16.903C35.4686 17.0472 35.45 17.1988 35.3821 17.3305Z" fill="#64B4D1" stroke="#00247D" stroke-width="0.09" stroke-miterlimit="2.6"/>
<path d="M35.3593 17.1056C35.3593 17.1056 35.3593 16.9856 35.1943 16.8581V16.8281H35.2243C35.2243 16.8281 35.3968 16.9631 35.3968 17.1131C35.3968 17.1131 35.3968 17.1356 35.3743 17.1356C35.3743 17.1356 35.3593 17.1356 35.3593 17.1056Z" fill="#F2F2F2"/>
<path d="M35.1498 17.2482C35.1498 17.2482 35.0973 17.1732 34.8873 17.0907C34.6698 17.0157 34.7223 16.8282 34.8123 16.7907C34.8123 16.7907 34.9098 16.7532 35.0073 16.8732C35.096 16.9779 35.1439 17.111 35.1423 17.2482H35.1498Z" fill="#64B4D1" stroke="#00247D" stroke-width="0.09" stroke-miterlimit="2.6"/>
<path d="M35.045 17.0976C35.045 17.0976 35 16.9926 34.805 16.9401C34.805 16.9401 34.79 16.9401 34.79 16.9176C34.79 16.9176 34.79 16.9026 34.8125 16.9101C34.8125 16.9101 35.03 16.9551 35.09 17.0901L35.0825 17.1126C35.0825 17.1126 35.06 17.1126 35.0525 17.0976H35.045Z" fill="#F2F2F2"/>
<path d="M35.2771 17.3297C35.2771 17.3297 35.1796 17.3672 34.9471 17.2547C34.7146 17.1422 34.6171 17.3372 34.6621 17.4272C34.6621 17.4272 34.6996 17.5472 34.8721 17.5172C35.0246 17.5089 35.1687 17.4449 35.2771 17.3372V17.3297Z" fill="#64B4D1" stroke="#00247D" stroke-width="0.09" stroke-miterlimit="2.6"/>
<path d="M34.7447 17.4043C34.7447 17.4043 34.8497 17.4793 35.0372 17.4043H35.0597C35.0597 17.4043 35.0597 17.4193 35.0447 17.4268C35.0447 17.4268 34.8497 17.5168 34.7147 17.4343C34.7147 17.4343 34.6997 17.4343 34.7147 17.4118H34.7447V17.4043Z" fill="#F2F2F2"/>
<path d="M34.9473 16.6035C34.9473 16.6035 35.0523 16.6635 35.0373 16.791" stroke="black" stroke-width="0.09" stroke-miterlimit="2.6"/>
<path d="M35.4502 16.625C35.4502 16.625 35.4952 16.7675 35.4502 16.85" stroke="black" stroke-width="0.09" stroke-miterlimit="10"/>
<path d="M27.5157 17.4203C27.5157 17.4203 27.4557 17.3303 27.4782 17.0903C27.5082 16.8353 27.2907 16.8128 27.2157 16.8803C27.2157 16.8803 27.1257 16.9553 27.2007 17.1128C27.2648 17.2502 27.3768 17.3595 27.5157 17.4203Z" fill="#64B4D1" stroke="#00247D" stroke-width="0.09" stroke-miterlimit="2.6"/>
<path d="M27.4324 17.2245C27.4324 17.2245 27.3574 17.142 27.3874 16.9545V16.9395H27.3574C27.3574 16.9395 27.3199 17.1495 27.4099 17.2545C27.4099 17.2545 27.4249 17.277 27.4324 17.2545V17.2245Z" fill="#F2F2F2"/>
<path d="M27.5894 17.3305C27.5894 17.3305 27.5894 17.2255 27.7694 17.0605C27.9419 16.8805 27.7994 16.7305 27.6944 16.7305C27.6944 16.7305 27.5744 16.7305 27.5444 16.903C27.5081 17.0463 27.5241 17.1978 27.5894 17.3305Z" fill="#64B4D1" stroke="#00247D" stroke-width="0.09" stroke-miterlimit="2.6"/>
<path d="M27.6134 17.1056C27.6134 17.1056 27.6134 16.9856 27.7634 16.8581C27.7634 16.8581 27.7859 16.8356 27.7634 16.8281H27.7484C27.7484 16.8281 27.5684 16.9631 27.5684 17.1131C27.5684 17.1131 27.5684 17.1356 27.5984 17.1356C27.5984 17.1356 27.6134 17.1356 27.6134 17.1056Z" fill="#F2F2F2"/>
<path d="M27.8223 17.2482C27.8223 17.2482 27.8673 17.1732 28.0848 17.0907C28.2948 17.0157 28.2348 16.8282 28.1523 16.7907C28.1523 16.7907 28.0623 16.7532 27.9573 16.8732C27.8686 16.9779 27.8207 17.111 27.8223 17.2482Z" fill="#64B4D1" stroke="#00247D" stroke-width="0.09" stroke-miterlimit="2.6"/>
<path d="M27.9193 17.0976C27.9193 17.0976 27.9643 16.9926 28.1593 16.9401C28.1593 16.9401 28.1743 16.9401 28.1743 16.9176C28.1743 16.9176 28.1743 16.9026 28.1593 16.9101C28.1593 16.9101 27.9418 16.9551 27.8818 17.0901V17.1126C27.8818 17.1126 27.9118 17.1126 27.9193 17.0976Z" fill="#F2F2F2"/>
<path d="M27.6875 17.3297C27.6875 17.3297 27.7925 17.3672 28.0175 17.2547C28.2425 17.1422 28.3475 17.3372 28.3175 17.4272C28.3175 17.4272 28.265 17.5472 28.0925 17.5172C27.94 17.5089 27.7958 17.4449 27.6875 17.3372V17.3297Z" fill="#64B4D1" stroke="#00247D" stroke-width="0.09" stroke-miterlimit="2.6"/>
<path d="M28.2196 17.4043C28.2196 17.4043 28.1221 17.4793 27.9271 17.4043H27.9121V17.4268C27.9121 17.4268 28.1221 17.5168 28.2496 17.4343C28.2496 17.4343 28.2646 17.4343 28.2496 17.4118H28.2196V17.4043Z" fill="#F2F2F2"/>
<path d="M28.0256 16.6035C28.0256 16.6035 27.9131 16.6635 27.9356 16.791" stroke="black" stroke-width="0.09" stroke-miterlimit="2.6"/>
<path d="M27.5151 16.625C27.5151 16.625 27.4701 16.7675 27.5151 16.85" stroke="black" stroke-width="0.09" stroke-miterlimit="10"/>
<path d="M32.5023 15.3207C32.5023 15.3207 32.5773 15.5232 32.5473 15.7107C32.5248 15.8907 32.5623 15.9282 32.6223 15.9657C32.6748 15.9882 32.8023 15.9357 32.8098 15.8007C32.8098 15.8007 32.9598 16.0857 32.6748 16.2732C32.6748 16.2732 32.4723 16.4007 32.2998 16.2432C32.2398 16.1757 32.2098 16.0182 32.2473 15.8682C32.2473 15.8682 32.2923 15.6657 32.2098 15.4557C32.2098 15.4557 32.3298 15.5757 32.2998 15.8232C32.2998 15.8232 32.2398 16.2732 32.5698 16.2432C32.5698 16.2432 32.7948 16.2432 32.7948 15.9732C32.7948 15.9732 32.7123 16.0632 32.6148 16.0332C32.5695 16.0225 32.5301 15.9946 32.5049 15.9554C32.4798 15.9163 32.4707 15.8689 32.4798 15.8232C32.4873 15.7032 32.5248 15.5007 32.5023 15.3207ZM32.1498 16.0257C32.1498 16.0257 32.1198 16.3857 31.8048 16.4682C31.8048 16.4682 31.8498 16.4007 31.7823 16.2207C31.7823 16.2207 31.7073 16.1307 31.7073 15.9732C31.7073 15.9732 31.6173 16.0482 31.7298 16.2582C31.8048 16.3857 31.7298 16.5282 31.7223 16.5357C31.6923 16.5432 32.2398 16.4607 32.1423 16.0332L32.1498 16.0257ZM31.7298 15.6882C31.7298 15.6882 31.6473 15.5982 31.6398 15.4032C31.6398 15.2007 31.6023 15.1482 31.5723 15.1332C31.5723 15.1332 31.6098 15.3057 31.6023 15.4032C31.5957 15.4795 31.606 15.5563 31.6323 15.6282C31.6323 15.6282 31.4523 15.6507 31.3398 15.4032C31.2423 15.1557 31.1373 15.1782 31.0848 15.1782C31.0848 15.1782 31.1448 15.1857 31.2648 15.4032C31.3848 15.6282 31.4223 15.6807 31.7298 15.6807V15.6882ZM30.9198 15.1632C30.9198 15.1632 31.0098 15.4032 31.0248 15.5232C31.0248 15.5232 30.7923 15.4482 30.7248 15.2607C30.7248 15.2607 30.4848 15.3357 30.5748 15.6132C30.5748 15.6132 30.3573 15.5382 30.2598 15.3732C30.2598 15.3732 30.3798 15.4632 30.4923 15.5007C30.4923 15.5007 30.4773 15.2682 30.7623 15.1857C30.7623 15.1857 30.8073 15.3882 30.9573 15.4332L30.9198 15.1632ZM31.2948 14.7582C31.2948 14.7582 31.3848 14.8707 31.5498 14.8707C31.5961 14.8742 31.6425 14.8657 31.6845 14.846C31.7266 14.8263 31.7628 14.796 31.7898 14.7582C31.7898 14.7582 31.7823 14.9532 31.5498 14.9607C31.5498 14.9607 31.3023 14.9607 31.3023 14.7582H31.2948ZM30.2898 16.1457L30.4398 16.2882C30.4398 16.2882 30.5298 16.3782 30.5898 16.2657C30.5898 16.2657 30.6873 16.0857 30.8073 16.1007C30.8073 16.1007 30.7173 16.1532 30.6273 16.3257C30.6273 16.3257 30.6123 16.3782 30.5373 16.3857C30.4998 16.3857 30.4623 16.4007 30.4023 16.3332C30.4023 16.3332 30.3498 16.2657 30.2898 16.1532V16.1457ZM31.5423 13.9407C31.3023 13.9407 31.5048 14.1207 31.5048 14.1207C31.5048 14.4207 31.2723 14.5257 31.1073 14.4357C30.9423 14.3457 31.0773 14.1357 31.0773 14.1357C31.0773 14.1357 30.8973 14.2482 31.0023 14.4282C31.1223 14.6082 31.4298 14.5182 31.5423 14.3607C31.6548 14.5257 31.9698 14.6082 32.0748 14.4282C32.2023 14.2482 32.0148 14.1282 32.0148 14.1282C32.0148 14.1282 32.1498 14.3457 31.9773 14.4282C31.8198 14.5257 31.5723 14.4282 31.5873 14.1282C31.5873 14.1282 31.7898 13.9407 31.5498 13.9407H31.5423ZM31.6923 13.6107C31.6923 13.6107 31.7823 13.7607 31.7673 13.9857C31.7673 13.9857 31.8348 13.7607 31.6923 13.6182V13.6107ZM30.9423 13.9632C30.9423 13.9632 30.9198 13.7982 30.7623 13.7832C30.7623 13.7832 30.9048 13.8807 30.9423 13.9632ZM32.1423 13.9632C32.1423 13.9632 32.1648 13.7982 32.3298 13.7832C32.3298 13.7832 32.1948 13.8807 32.1498 13.9632H32.1423ZM30.7023 14.2032C30.7023 14.2032 30.8223 14.2407 30.8973 14.1507L30.7023 14.2032ZM30.2973 13.2207C30.2973 13.2207 30.4398 13.2132 30.5823 13.4232C30.5823 13.4232 30.4398 13.4982 30.4023 13.5432C30.4023 13.5432 30.4023 13.4682 30.4773 13.4157C30.4773 13.4157 30.4473 13.3107 30.2973 13.2282V13.2207ZM32.6973 13.2207C32.6973 13.2207 32.5473 13.2132 32.4048 13.4232C32.4048 13.4232 32.5548 13.4982 32.5848 13.5432C32.5848 13.5432 32.5848 13.4682 32.5098 13.4157C32.5098 13.4157 32.5398 13.3107 32.6973 13.2282V13.2207ZM31.5948 13.3857C31.5948 13.3857 31.7223 13.4232 31.8798 13.3332C31.8798 13.3332 32.0748 13.2282 32.2023 13.3332C32.2023 13.3332 32.0973 13.2807 31.8798 13.3857C31.8798 13.3857 31.6773 13.5057 31.5948 13.3857Z" fill="black"/>
<path d="M31.7305 13.5202C31.7305 13.5202 31.8355 13.3327 32.1805 13.3702C32.1805 13.3702 32.083 13.6402 31.7305 13.5202Z" fill="#F2F2F2"/>
<path d="M31.9545 13.542C31.9877 13.542 32.0145 13.505 32.0145 13.4595C32.0145 13.4139 31.9877 13.377 31.9545 13.377C31.9214 13.377 31.8945 13.4139 31.8945 13.4595C31.8945 13.505 31.9214 13.542 31.9545 13.542Z" fill="#784421"/>
<path d="M31.9555 13.5132C31.9762 13.5132 31.993 13.4897 31.993 13.4607C31.993 13.4317 31.9762 13.4082 31.9555 13.4082C31.9348 13.4082 31.918 13.4317 31.918 13.4607C31.918 13.4897 31.9348 13.5132 31.9555 13.5132Z" fill="black"/>
<path d="M31.0098 13.107C31.0098 13.107 31.2198 13.1295 31.3548 13.197C31.3548 13.197 31.4898 13.287 31.6398 13.1745C31.6398 13.1745 31.8048 13.0695 31.9173 12.942C31.9173 12.942 31.6548 13.1145 31.5573 13.1445C31.5573 13.1445 31.4673 13.0695 31.4448 12.972C31.4448 12.972 31.4448 12.897 31.5948 12.7695C31.5948 12.7695 31.4073 12.8295 31.3698 12.987C31.3936 13.0506 31.4292 13.1091 31.4748 13.1595C31.4748 13.1595 31.4448 13.182 31.3548 13.1145C31.3548 13.1145 31.1448 13.0545 31.0098 13.1145V13.107ZM31.5498 14.382C31.3698 14.5395 31.5498 14.5245 31.5498 14.5245C31.5498 14.5245 31.7298 14.5395 31.5498 14.3745V14.382ZM31.4448 13.392C31.4448 13.392 31.3098 13.4295 31.1448 13.3395C31.1448 13.3395 30.9498 13.2345 30.8223 13.3395C30.8223 13.3395 30.9348 13.287 31.1448 13.392C31.1448 13.392 31.3623 13.512 31.4448 13.392Z" fill="black"/>
<path d="M31.3094 13.5202C31.3094 13.5202 31.1969 13.3327 30.8594 13.3702C30.8594 13.3702 30.9494 13.6402 31.3094 13.5202Z" fill="#F2F2F2"/>
<path d="M31.0776 13.542C31.1107 13.542 31.1376 13.505 31.1376 13.4595C31.1376 13.4139 31.1107 13.377 31.0776 13.377C31.0444 13.377 31.0176 13.4139 31.0176 13.4595C31.0176 13.505 31.0444 13.542 31.0776 13.542Z" fill="#784421"/>
<path d="M31.0775 13.5132C31.0982 13.5132 31.115 13.4897 31.115 13.4607C31.115 13.4317 31.0982 13.4082 31.0775 13.4082C31.0568 13.4082 31.04 13.4317 31.04 13.4607C31.04 13.4897 31.0568 13.5132 31.0775 13.5132Z" fill="black"/>
<path d="M38.0007 11.7952V23.9152C38.0007 27.1477 31.5357 28.2052 31.5357 28.2052C31.5357 28.2052 25.0557 27.1552 25.0557 23.9152V11.7952H38.0082H38.0007Z" stroke="black" stroke-width="0.09"/>
<path d="M-4 2H20V20H-4V2Z" fill="#000066"/>
<path d="M-1.1875 2L7.9625 8.7875L17.075 2H20V4.325L11 11.0375L20 17.7125V20H17L8 13.2875L-0.9625 20H-4V17.75L4.9625 11.075L-4 4.4V2H-1.1875Z" fill="#F2F2F2"/>
<path d="M11.9 12.5375L20 18.5V20L9.8375 12.5375H11.9ZM5 13.2875L5.225 14.6L-1.975 20H-4L5 13.2875ZM20 2V2.1125L10.6625 9.1625L10.7375 7.5125L18.125 2H20ZM-4 2L4.9625 8.6H2.7125L-4 3.575V2Z" fill="#C8102E"/>
<path d="M5.0375 2V20H11.0375V2H5.0375ZM-4 8V14H20V8H-4Z" fill="#F2F2F2"/>
<path d="M-4 9.2375V12.8375H20V9.2375H-4ZM6.2375 2V20H9.8375V2H6.2375Z" fill="#C8102E"/>
</g>
</g>
<rect x="1.4" y="1.4" width="37.2" height="37.2" rx="18.6" stroke="#006A4E" stroke-opacity="0.12" stroke-width="1.2"/>
<defs>
<clipPath id="clip0_398_10373">
<rect x="2" y="2" width="36" height="36" rx="18" fill="white"/>
</clipPath>
<clipPath id="clip1_398_10373">
<rect width="48" height="36" fill="white" transform="translate(-4 2)"/>
</clipPath>
</defs>
</svg>
