<svg width="40" height="40" viewBox="0 0 40 40" fill="none" xmlns="http://www.w3.org/2000/svg">
<g clip-path="url(#clip0_398_10480)">
<g clip-path="url(#clip1_398_10480)">
<path d="M-3.99316 2H44.0143V38H-3.99316V2Z" fill="#FFD520"/>
<path d="M-3.99316 38H44.0143V2L-3.99316 38Z" fill="#FF4E12"/>
<path d="M21.9046 13.2515C21.6046 13.154 21.4096 13.304 21.4246 13.694C21.4246 14.0765 21.6346 14.294 21.9346 14.1515L21.9046 13.2515Z" fill="#F2F2F2" stroke="black" stroke-width="0.03"/>
<path d="M22.1675 12.5302C21.92 12.3352 21.6875 12.4177 21.5675 12.7852C21.455 13.1602 21.575 13.4302 21.905 13.3852L22.1675 12.5302Z" fill="#F2F2F2" stroke="black" stroke-width="0.03"/>
<path d="M22.5799 11.826C22.3699 11.601 22.1299 11.646 21.9499 11.991C21.7774 12.336 21.8524 12.6285 22.1899 12.6435L22.5799 11.8335V11.826ZM22.3099 15.2385C21.9424 15.3735 21.9049 15.876 22.1374 16.1835C22.3624 16.491 22.7899 16.551 23.0224 16.1835L22.3099 15.2385Z" fill="#F2F2F2" stroke="black" stroke-width="0.03"/>
<path d="M21.8823 14.1733C21.5373 14.0608 21.2223 14.5258 21.1698 14.9458C21.1023 15.4708 20.3448 15.6508 20.7648 16.4533C20.8548 15.9433 21.1923 15.6583 21.4623 15.6433C21.7323 15.6208 22.1373 15.5683 22.3098 15.2383L21.8823 14.1733ZM22.9848 16.2433C22.5798 16.3408 22.5198 16.8808 22.8123 17.2633C23.0598 17.5933 23.8398 17.5183 23.8173 17.1883L22.9923 16.2433H22.9848ZM24.1323 19.4983C24.1548 19.1458 23.5923 19.0108 23.3223 19.0783C23.0523 19.1533 22.5348 19.0708 22.4223 18.7783C22.3173 19.0108 22.4598 19.2658 22.8498 19.3933C23.1498 19.4833 23.1423 19.6933 23.0523 19.7983C23.2773 19.8358 23.9298 19.8358 24.1323 19.4983Z" fill="#F2F2F2" stroke="black" stroke-width="0.03"/>
<path d="M23.8175 17.2792C23.42 17.0992 23.1875 17.3692 23.0375 17.6242C22.8125 17.9992 22.13 17.5192 21.8975 18.0217C22.2125 17.8867 22.5275 18.1717 22.6775 18.2692C23.105 18.5467 23.9225 18.4642 24.0425 17.8042L23.8175 17.2792Z" fill="#F2F2F2" stroke="black" stroke-width="0.03"/>
<path d="M24.0501 17.7363C23.6526 18.0363 23.4951 18.3963 23.5101 18.6363C23.5176 18.8763 23.8551 19.4088 24.2226 19.4388C24.4326 19.0038 24.5451 18.0888 24.0501 17.7363ZM22.4001 19.6038C22.4001 19.4538 22.6101 19.4013 22.7601 19.4538C22.9026 19.4988 23.1276 19.6413 23.0451 19.7988L22.4001 19.6038ZM20.2251 18.8013C20.1876 18.6288 20.4651 18.3288 20.8401 18.4938C21.2151 18.6588 21.2676 18.9738 21.1101 19.1013L20.2251 18.8013Z" fill="#F2F2F2" stroke="black" stroke-width="0.03"/>
<path d="M21.1404 19.1311C21.1104 19.0336 21.3879 18.8386 21.8454 18.9511C22.3104 19.0711 22.4229 19.3711 22.4079 19.6036L21.1404 19.1311ZM20.1729 18.8086C20.4204 18.6286 20.3229 18.2836 20.1054 18.1711C19.7154 17.9761 19.8579 17.4811 19.6029 17.3836C19.3554 17.2861 19.1154 17.1136 19.1004 16.9336C18.9804 17.1811 19.0554 17.3986 19.2279 17.5561C19.4004 17.7061 19.0929 18.3361 19.3179 18.5011L20.1729 18.8086ZM14.9979 18.6736C14.7954 18.3586 14.3154 18.4111 14.1129 18.6361C13.9104 18.8611 13.9404 19.1836 14.1279 19.3336L14.9979 18.6736ZM16.1604 18.2011C16.0854 17.7736 15.5679 17.7286 15.2904 17.8336C15.0054 17.9386 14.8179 18.3661 14.9979 18.6736L16.1604 18.2011Z" fill="#F2F2F2"/>
<path d="M14.9979 18.6736C14.7954 18.3586 14.3154 18.4111 14.1129 18.6361C13.9104 18.8611 13.9404 19.1836 14.1279 19.3336L14.9979 18.6736ZM14.9979 18.6736C14.8179 18.3661 15.0054 17.9386 15.2904 17.8336C15.5679 17.7286 16.0854 17.7736 16.1604 18.2011L14.9979 18.6736ZM21.1404 19.1311C21.1104 19.0336 21.3879 18.8386 21.8454 18.9511C22.3104 19.0711 22.4229 19.3711 22.4079 19.6036L21.1404 19.1311ZM20.1729 18.8086C20.4204 18.6286 20.3229 18.2836 20.1054 18.1711C19.7154 17.9761 19.8579 17.4811 19.6029 17.3836C19.3554 17.2861 19.1154 17.1136 19.1004 16.9336C18.9804 17.1811 19.0554 17.3986 19.2279 17.5561C19.4004 17.7061 19.0929 18.3361 19.3179 18.5011L20.1729 18.8086Z" stroke="black" stroke-width="0.03"/>
<path d="M16.9248 18.1407C17.1123 17.7882 16.7523 17.2557 16.3473 17.1807C16.0098 17.1057 15.6123 17.1132 15.4773 16.7832C15.4023 17.0682 15.6123 17.2557 15.8673 17.4207C16.1148 17.5857 15.8223 18.0057 16.2273 18.2457L16.9323 18.1407H16.9248Z" fill="#F2F2F2" stroke="black" stroke-width="0.03"/>
<path d="M16.8947 18.1558C16.8047 17.9008 16.9772 17.5558 17.3222 17.5858C17.6747 17.6083 17.8697 17.8558 17.7197 18.1783L16.8947 18.1558Z" fill="#F2F2F2" stroke="black" stroke-width="0.03"/>
<path d="M17.6679 18.1775C17.6154 17.9075 17.833 17.5925 18.178 17.6675C18.5155 17.7425 18.673 18.02 18.478 18.305L17.6679 18.17V18.1775Z" fill="#F2F2F2" stroke="black" stroke-width="0.03"/>
<path d="M18.4252 18.299C18.3952 18.029 18.6277 17.729 18.9652 17.819C19.3027 17.909 19.4452 18.194 19.2352 18.4715L18.4327 18.299H18.4252ZM12.6052 22.724C11.9527 22.724 11.7952 22.874 11.7052 23.549C11.5852 24.374 12.7177 24.4715 12.6052 22.724Z" fill="#F2F2F2" stroke="black" stroke-width="0.03"/>
<path d="M12.89 21.853C11.9 21.478 11.36 23.053 10.37 22.768C10.7225 23.3305 11.5775 22.768 11.9 22.828C12.44 22.9255 13.61 22.723 12.89 21.853ZM12.245 24.0055C11.75 23.7805 11.225 24.5305 11.315 24.868C11.4425 25.2805 12.5675 24.943 12.245 24.0055ZM9.94996 27.253C10.22 27.328 10.55 27.478 10.49 28.003C10.43 28.528 9.43996 29.5855 8.55496 29.653C7.66996 29.7055 7.35496 30.778 6.58246 30.478C7.30246 30.343 7.30246 29.533 7.85746 29.278C7.45246 29.128 7.24246 30.0505 6.71746 30.0505C6.19246 30.0505 5.94496 30.883 5.30746 30.823C4.66996 30.7705 4.60996 31.8355 3.32746 31.8505C2.35246 31.858 1.15246 32.998 0.709961 32.503C1.66246 32.368 2.04496 31.843 2.60746 31.2655C3.50746 30.343 4.53496 30.7555 4.88746 29.938C4.48262 30.2112 4.00326 30.3526 3.51496 30.343C2.91496 30.328 2.26996 31.288 1.60246 30.868C1.98496 30.8155 2.23996 30.6505 2.64496 30.223C3.05746 29.788 3.67246 30.073 4.15246 29.623C4.90246 28.933 5.55496 29.5105 6.27496 28.648C6.07246 28.543 5.63746 28.6105 5.23246 28.828C4.82746 29.038 4.30996 28.678 3.84496 28.933C3.89746 28.363 4.98496 28.6855 5.65996 28.2955C6.42496 27.8455 7.05496 27.9805 7.65496 28.033C6.81496 28.033 6.49246 27.2305 5.32996 27.463C4.82746 27.568 4.42246 26.7655 3.91996 27.1705C3.93496 26.8705 4.45996 26.6305 4.99996 26.923C5.53996 27.2155 5.75746 26.668 6.83746 27.3505C7.28746 27.628 8.04496 27.1705 8.52496 27.4705C8.46496 27.2905 8.18746 27.1705 7.86496 27.2005C8.06746 26.7805 9.37996 26.833 9.94996 27.253Z" fill="#F2F2F2" stroke="black" stroke-width="0.03"/>
<path d="M10.8049 26.6237C10.3849 26.2937 9.79238 26.6912 9.37988 26.5337C9.37988 26.8037 9.52238 27.2087 9.96488 27.3662C10.0999 27.2687 10.7149 26.7362 10.8049 26.6237Z" fill="#F2F2F2" stroke="black" stroke-width="0.03"/>
<path d="M11.472 25.686C10.8045 25.3485 10.692 26.1885 10.167 26.016C10.1895 26.256 10.3845 26.556 10.8045 26.6235L11.4795 25.686H11.472Z" fill="#F2F2F2" stroke="black" stroke-width="0.03"/>
<path d="M11.8701 24.9214C10.8876 24.5389 10.7601 25.4839 10.1826 25.2964C10.3176 25.6264 11.1426 25.8064 11.5701 25.6864L11.8701 24.9214ZM13.2201 20.7814C12.9576 20.4064 12.4101 20.7064 12.3201 21.1489C12.2376 21.5839 12.4476 22.1914 12.8151 22.0489L13.2201 20.7739V20.7814Z" fill="#F2F2F2" stroke="black" stroke-width="0.03"/>
<path d="M13.8877 19.6252C13.4377 19.5127 12.9127 19.5652 12.9727 20.0002C12.7927 20.0827 12.7477 20.6527 13.2202 20.7802L13.8877 19.6177V19.6252Z" fill="#F2F2F2" stroke="black" stroke-width="0.03"/>
<path d="M14.1868 19.3263C13.7368 18.8013 13.2493 18.8088 12.9718 19.0263C12.4543 19.4388 11.9593 19.2063 11.9443 19.6113C12.2518 19.3713 12.5293 19.6563 12.7693 19.5738C13.0243 19.4838 13.2118 19.9713 13.9093 19.7688L14.1868 19.3188V19.3263ZM13.1143 27.1188C13.1818 27.2463 13.5943 27.2988 13.7968 27.0888C14.0668 26.8038 13.7743 26.0238 13.3468 25.9638C12.9193 25.9113 12.8818 26.8488 13.1143 27.1188Z" fill="#F2F2F2" stroke="black" stroke-width="0.03"/>
<path d="M12.6348 27.1332C13.2348 27.3582 13.4973 26.8557 13.1748 26.5332C13.0084 26.7451 12.828 26.9456 12.6348 27.1332Z" fill="#F2F2F2" stroke="black" stroke-width="0.03"/>
<path d="M10.3556 27.9657C10.2356 28.3182 9.63559 28.3707 8.96059 29.4507C8.28559 30.5382 7.64059 30.0807 7.47559 30.8232C8.28559 30.1707 8.92309 30.5982 9.41059 29.9532C10.1381 28.9707 10.7456 29.1132 11.0306 28.4532C11.4356 27.5007 13.2056 27.5232 13.3106 26.0307C12.7106 25.9182 10.8131 27.5232 10.3556 27.9657ZM25.5956 13.3632C26.3681 13.6182 26.3831 14.6157 27.2756 14.9457C28.1606 15.2757 28.2506 16.0707 28.9781 15.8757C28.3031 15.6882 28.3481 14.9082 27.6431 14.7132C26.8181 14.4882 26.5031 13.2282 25.8431 13.0332M29.1431 18.6057C29.2781 18.9207 29.2556 19.4682 28.7681 19.6107C29.0306 19.7757 29.4206 19.6257 29.6306 19.2657C29.3156 19.9707 29.5256 20.6082 30.0281 20.7357C29.7881 20.2407 30.3281 20.0082 30.1556 19.6857C30.4706 19.8282 30.7556 20.2632 30.7406 20.5332C31.1606 20.0682 30.4406 19.4457 30.5681 19.0107L29.1431 18.6057ZM24.1256 23.5707C23.6531 23.1582 23.4506 23.6832 23.2256 23.4957C23.0006 23.3307 22.7156 23.3082 22.6031 23.4732C23.0081 23.4882 22.8131 23.8032 23.6006 23.8782C22.8131 23.9307 22.9556 24.8157 22.4306 24.7707C22.9856 25.2957 23.2781 24.2982 23.7356 24.4632C23.6006 24.5007 23.9456 24.8157 23.7056 25.2432C24.0956 25.2357 24.2531 24.6957 24.3056 24.4182L24.1256 23.5707ZM13.7006 28.0857C13.5356 27.9357 13.0256 27.8682 12.8381 27.9882C12.6431 28.1007 12.7106 28.1382 12.9431 28.1532C13.1756 28.1682 13.4681 28.5432 12.9731 28.5657C12.7406 28.5732 12.8231 29.1357 12.3356 29.1732C12.5306 29.4132 13.1006 29.2557 13.3031 28.9932C13.2656 29.2107 13.5506 29.4057 13.4381 29.6682C13.7906 29.7057 13.5881 28.9407 14.1506 28.9782C13.9256 29.0082 14.0156 29.5332 14.4206 29.3982C14.1806 29.5107 14.3081 29.7957 14.5706 29.7282C14.4056 29.7807 14.3456 30.0057 14.5856 30.1332C14.8181 29.8107 14.5556 28.6707 13.7081 28.0857H13.7006ZM34.7456 17.4282C34.9298 17.442 35.1149 17.4176 35.2893 17.3566C35.4637 17.2956 35.6236 17.1992 35.759 17.0736C35.8944 16.9479 36.0025 16.7956 36.0763 16.6263C36.1502 16.457 36.1884 16.2742 36.1884 16.0895C36.1884 15.9047 36.1502 15.7219 36.0763 15.5526C36.0025 15.3833 35.8944 15.231 35.759 15.1053C35.6236 14.9797 35.4637 14.8833 35.2893 14.8223C35.1149 14.7613 34.9298 14.7369 34.7456 14.7507C34.4078 14.776 34.0921 14.928 33.8618 15.1763C33.6314 15.4246 33.5034 15.7508 33.5034 16.0895C33.5034 16.4281 33.6314 16.7543 33.8618 17.0026C34.0921 17.2509 34.4078 17.4029 34.7456 17.4282Z" fill="#F2F2F2"/>
<path d="M25.5956 13.3632C26.3681 13.6182 26.3831 14.6157 27.2756 14.9457C28.1606 15.2757 28.2506 16.0707 28.9781 15.8757C28.3031 15.6882 28.3481 14.9082 27.6431 14.7132C26.8181 14.4882 26.5031 13.2282 25.8431 13.0332M10.3556 27.9657C10.2356 28.3182 9.63559 28.3707 8.96059 29.4507C8.28559 30.5382 7.64059 30.0807 7.47559 30.8232C8.28559 30.1707 8.92309 30.5982 9.41059 29.9532C10.1381 28.9707 10.7456 29.1132 11.0306 28.4532C11.4356 27.5007 13.2056 27.5232 13.3106 26.0307C12.7106 25.9182 10.8131 27.5232 10.3556 27.9657ZM29.1431 18.6057C29.2781 18.9207 29.2556 19.4682 28.7681 19.6107C29.0306 19.7757 29.4206 19.6257 29.6306 19.2657C29.3156 19.9707 29.5256 20.6082 30.0281 20.7357C29.7881 20.2407 30.3281 20.0082 30.1556 19.6857C30.4706 19.8282 30.7556 20.2632 30.7406 20.5332C31.1606 20.0682 30.4406 19.4457 30.5681 19.0107L29.1431 18.6057ZM24.1256 23.5707C23.6531 23.1582 23.4506 23.6832 23.2256 23.4957C23.0006 23.3307 22.7156 23.3082 22.6031 23.4732C23.0081 23.4882 22.8131 23.8032 23.6006 23.8782C22.8131 23.9307 22.9556 24.8157 22.4306 24.7707C22.9856 25.2957 23.2781 24.2982 23.7356 24.4632C23.6006 24.5007 23.9456 24.8157 23.7056 25.2432C24.0956 25.2357 24.2531 24.6957 24.3056 24.4182L24.1256 23.5707ZM13.7006 28.0857C13.5356 27.9357 13.0256 27.8682 12.8381 27.9882C12.6431 28.1007 12.7106 28.1382 12.9431 28.1532C13.1756 28.1682 13.4681 28.5432 12.9731 28.5657C12.7406 28.5732 12.8231 29.1357 12.3356 29.1732C12.5306 29.4132 13.1006 29.2557 13.3031 28.9932C13.2656 29.2107 13.5506 29.4057 13.4381 29.6682C13.7906 29.7057 13.5881 28.9407 14.1506 28.9782C13.9256 29.0082 14.0156 29.5332 14.4206 29.3982C14.1806 29.5107 14.3081 29.7957 14.5706 29.7282C14.4056 29.7807 14.3456 30.0057 14.5856 30.1332C14.8181 29.8107 14.5556 28.6707 13.7081 28.0857H13.7006ZM34.7456 17.4282C34.9298 17.442 35.1149 17.4176 35.2893 17.3566C35.4637 17.2956 35.6236 17.1992 35.759 17.0736C35.8944 16.9479 36.0025 16.7956 36.0763 16.6263C36.1502 16.457 36.1884 16.2742 36.1884 16.0895C36.1884 15.9047 36.1502 15.7219 36.0763 15.5526C36.0025 15.3833 35.8944 15.231 35.759 15.1053C35.6236 14.9797 35.4637 14.8833 35.2893 14.8223C35.1149 14.7613 34.9298 14.7369 34.7456 14.7507C34.4078 14.776 34.0921 14.928 33.8618 15.1763C33.6314 15.4246 33.5034 15.7508 33.5034 16.0895C33.5034 16.4281 33.6314 16.7543 33.8618 17.0026C34.0921 17.2509 34.4078 17.4029 34.7456 17.4282Z" stroke="black" stroke-width="0.03"/>
<path d="M27.7547 19.041C28.1672 18.6585 28.7822 18.4635 29.2097 18.756C29.6297 19.041 31.0397 19.386 31.7372 18.906C32.4347 18.426 32.7647 18.171 33.0722 18.231C33.2972 18.576 33.5822 18.741 33.9272 18.771C34.0322 18.891 34.4147 18.981 34.6247 18.9585C34.9322 19.0335 35.3072 18.936 35.6072 18.606C36.0722 18.681 36.5072 18.3285 36.6722 17.8035C37.1672 17.751 37.1972 17.2035 36.8822 16.8285C36.5972 16.776 36.8147 15.7935 35.7647 15.9885C36.2147 16.2585 35.8697 16.7985 36.2372 17.0535C35.9897 17.0535 35.6597 17.1585 35.5847 17.5335C35.6822 17.2785 35.5697 17.0985 35.5097 17.046C35.5097 16.821 35.0222 16.2735 34.5572 16.476C34.8872 16.551 34.7072 17.076 34.9472 17.286C34.8561 17.2897 34.767 17.3139 34.6865 17.3567C34.606 17.3996 34.5361 17.46 34.4822 17.5335C34.3547 17.3085 33.9122 17.0835 33.6422 17.061C33.6422 16.986 33.6272 16.836 33.5897 16.7535C33.4697 16.521 33.3647 16.2435 33.4172 15.891C33.1979 16.1492 33.0161 16.437 32.8772 16.746C32.5097 16.491 31.6022 16.8585 31.1747 16.956C30.7547 17.0535 29.3222 16.821 28.9997 16.476C28.5407 16.1091 28.0007 15.8571 27.4247 15.741C26.5997 15.501 26.5997 14.601 25.6922 13.9785C25.6697 15.1035 27.3722 18.6585 27.7547 19.041ZM18.2897 27.5835C18.6338 27.5835 18.9638 27.4468 19.2072 27.2035C19.4505 26.9602 19.5872 26.6301 19.5872 26.286C19.5872 25.9419 19.4505 25.6119 19.2072 25.3685C18.9638 25.1252 18.6338 24.9885 18.2897 24.9885C17.9456 24.9885 17.6155 25.1252 17.3722 25.3685C17.1289 25.6119 16.9922 25.9419 16.9922 26.286C16.9922 26.6301 17.1289 26.9602 17.3722 27.2035C17.6155 27.4468 17.9456 27.5835 18.2897 27.5835Z" fill="#F2F2F2" stroke="black" stroke-width="0.03"/>
<path d="M15.1995 26.5856C15.462 26.9231 15.9045 26.9006 16.092 26.8781C16.242 27.2831 16.737 27.2681 16.947 27.4931C17.1645 27.7181 17.8845 27.6956 18.0945 27.5681C17.907 27.5531 17.652 27.4331 17.4195 27.2306C17.1195 26.9906 17.2545 26.4956 17.0295 26.3306C17.1003 26.2405 17.1515 26.1365 17.1799 26.0255C17.2084 25.9144 17.2133 25.7987 17.1945 25.6856C17.3745 25.5806 17.5095 25.4081 17.5245 25.3181C17.7936 25.3051 18.0491 25.196 18.2445 25.0106C18.4095 25.1606 18.822 24.9656 19.047 25.2206C19.092 24.5831 18.4845 24.2456 18.072 24.4631C17.9145 24.3731 17.4795 24.4331 17.397 24.5456C17.2695 24.4856 16.887 24.6806 16.722 24.8081C16.9095 24.7031 16.9395 24.3806 16.8645 24.2681C17.0295 24.1931 17.2095 23.9756 17.232 23.8181C17.457 23.8556 17.8095 23.6981 17.9595 23.7356C17.712 23.4056 17.2995 23.2856 16.872 23.3231C16.4295 23.3456 16.242 23.6531 16.182 23.9831C15.927 24.1406 15.837 24.6581 15.9345 24.8456C15.7845 24.8456 15.642 24.9881 15.5895 25.0706C15.3655 24.9784 15.1266 24.9276 14.8845 24.9206M14.982 24.3956C14.892 24.1406 15.0045 23.9156 15.0645 23.7206C15.2145 23.2106 15.1245 23.0756 14.667 23.1431C14.694 23.5764 14.8008 24.0011 14.982 24.3956Z" fill="#F2F2F2"/>
<path d="M15.1995 26.5856C15.462 26.9231 15.9045 26.9006 16.092 26.8781C16.242 27.2831 16.737 27.2681 16.947 27.4931C17.1645 27.7181 17.8845 27.6956 18.0945 27.5681C17.907 27.5531 17.652 27.4331 17.4195 27.2306C17.1195 26.9906 17.2545 26.4956 17.0295 26.3306C17.1003 26.2405 17.1515 26.1365 17.1799 26.0255C17.2084 25.9144 17.2133 25.7987 17.1945 25.6856C17.3745 25.5806 17.5095 25.4081 17.5245 25.3181C17.7936 25.3051 18.0491 25.196 18.2445 25.0106C18.4095 25.1606 18.822 24.9656 19.047 25.2206C19.092 24.5831 18.4845 24.2456 18.072 24.4631C17.9145 24.3731 17.4795 24.4331 17.397 24.5456C17.2695 24.4856 16.887 24.6806 16.722 24.8081C16.9095 24.7031 16.9395 24.3806 16.8645 24.2681C17.0295 24.1931 17.2095 23.9756 17.232 23.8181C17.457 23.8556 17.8095 23.6981 17.9595 23.7356C17.712 23.4056 17.2995 23.2856 16.872 23.3231C16.4295 23.3456 16.242 23.6531 16.182 23.9831C15.927 24.1406 15.837 24.6581 15.9345 24.8456C15.7845 24.8456 15.642 24.9881 15.5895 25.0706C15.3655 24.9784 15.1266 24.9276 14.8845 24.9206M14.982 24.3956C14.892 24.1406 15.0045 23.9156 15.0645 23.7206C15.2145 23.2106 15.1245 23.0756 14.667 23.1431C14.694 23.5764 14.8008 24.0011 14.982 24.3956Z" stroke="black" stroke-width="0.03"/>
<path d="M14.6445 23.1742C14.7645 23.2942 15.1695 23.3467 15.2145 22.9792C15.267 22.5592 15.0945 22.3942 14.727 22.5592C14.697 22.6567 14.667 23.0467 14.652 23.1742H14.6445Z" fill="#F2F2F2" stroke="black" stroke-width="0.03"/>
<path d="M14.7354 22.5445C14.8854 22.6045 15.2229 22.732 15.4104 22.372C15.5604 22.072 15.3579 21.847 15.0354 21.862C14.9604 21.952 14.8104 22.2595 14.7354 22.5445Z" fill="#F2F2F2" stroke="black" stroke-width="0.03"/>
<path d="M15.0195 21.8315C15.057 21.9515 15.4545 22.334 15.7395 22.0565C16.032 21.779 16.032 21.359 15.597 21.209C15.4845 21.224 15.132 21.629 15.0195 21.8315Z" fill="#F2F2F2" stroke="black" stroke-width="0.03"/>
<path d="M15.5977 21.2007C15.6802 21.4482 15.9577 21.8607 16.4602 21.6732C16.9627 21.4782 16.7452 20.8482 16.5127 20.7207C16.1767 20.8168 15.8648 20.9829 15.5977 21.2082V21.2007Z" fill="#F2F2F2" stroke="black" stroke-width="0.03"/>
<path d="M16.5118 20.7206C16.4743 20.9381 16.5118 21.5156 17.2018 21.5081C17.8843 21.4931 17.6968 20.6906 17.5168 20.5781C17.2393 20.5781 16.7668 20.5856 16.5118 20.7281V20.7206Z" fill="#F2F2F2" stroke="black" stroke-width="0.03"/>
<path d="M17.5476 20.6016C17.4726 20.7741 17.3001 21.8541 18.6426 21.5541C18.8151 21.5166 19.2651 20.5191 17.5476 20.6091V20.6016Z" fill="#F2F2F2" stroke="black" stroke-width="0.03"/>
<path d="M18.2821 20.7065C18.1471 20.8415 18.4921 21.929 19.4071 21.749C20.3071 21.5615 19.5496 20.5265 18.2821 20.699V20.7065Z" fill="#F2F2F2" stroke="black" stroke-width="0.03"/>
<path d="M19.0552 20.8711C18.9052 21.1711 19.1302 22.0561 20.2477 22.0561C21.2602 22.0561 20.1952 20.8861 19.0552 20.8711Z" fill="#F2F2F2" stroke="black" stroke-width="0.03"/>
<path d="M19.9333 21.1269C19.8583 21.2994 19.7758 22.2369 21.0958 22.3194C22.0483 22.3794 21.8158 21.0219 19.9333 21.1269Z" fill="#F2F2F2" stroke="black" stroke-width="0.03"/>
<path d="M21.3503 21.5237C21.1928 21.8162 21.0203 22.5362 22.4678 22.5962C23.3903 22.6337 22.8203 21.5462 21.3578 21.5237H21.3503Z" fill="#F2F2F2" stroke="black" stroke-width="0.03"/>
<path d="M22.5574 21.7484C22.3474 22.0334 22.5049 22.6034 23.0449 22.7084C23.7199 22.8434 23.8174 22.2059 23.3524 21.8984C22.8874 21.5984 22.5574 21.7484 22.5574 21.7484Z" fill="#F2F2F2" stroke="black" stroke-width="0.03"/>
<path d="M23.2247 21.875C23.0672 22.1525 23.1572 22.805 24.1847 22.805C24.3947 22.805 25.2047 21.98 23.2172 21.8825L23.2247 21.875ZM15.2822 34.475C15.6801 34.475 16.0616 34.317 16.3429 34.0357C16.6242 33.7544 16.7822 33.3728 16.7822 32.975C16.7822 32.5772 16.6242 32.1956 16.3429 31.9143C16.0616 31.633 15.6801 31.475 15.2822 31.475C14.8844 31.475 14.5029 31.633 14.2216 31.9143C13.9403 32.1956 13.7822 32.5772 13.7822 32.975C13.7822 33.3728 13.9403 33.7544 14.2216 34.0357C14.5029 34.317 14.8844 34.475 15.2822 34.475Z" fill="#F2F2F2" stroke="black" stroke-width="0.03"/>
<path d="M26.3079 12.6275C26.146 12.808 26.0097 13.0099 25.9029 13.2275C25.4004 14.7275 26.7429 15.8525 27.5229 17.48C27.8438 18.2124 27.9736 19.0142 27.9002 19.8105C27.8267 20.6067 27.5524 21.3712 27.1029 22.0325C26.7729 22.4675 26.8704 22.595 26.4429 23.0375C26.2779 23.21 26.0979 23.4275 26.1579 24.0425C26.4279 23.945 26.8104 24.1925 26.8854 24.4175C27.0804 24.3125 27.3504 24.35 27.4479 24.47C27.7779 24.32 28.0479 24.395 28.3404 24.695C28.5879 24.665 28.8654 24.695 29.1129 24.9725C29.2479 24.7025 29.5179 24.5975 29.7129 24.665C29.6904 24.3125 30.0354 24.065 30.3429 24.2C30.3188 24.101 30.3218 23.9974 30.3514 23.8999C30.381 23.8024 30.4362 23.7146 30.5112 23.6457C30.5863 23.5768 30.6784 23.5292 30.7781 23.508C30.8778 23.4868 30.9813 23.4927 31.0779 23.525C31.4304 23.255 32.1279 23.2325 32.4729 23.6375C31.8504 23.465 31.8729 24.125 31.3479 24.065C31.4829 24.4475 31.1379 24.6725 30.7929 24.8C31.0179 24.695 31.2579 24.5675 31.3329 24.7025C31.5279 24.53 31.9104 24.5975 32.0079 24.68C32.2629 24.605 32.5104 24.665 32.6229 24.9725C32.9754 25.1825 33.2079 25.7225 32.9529 26.1275C32.8779 25.7075 32.5854 25.7225 32.4729 25.55C32.2029 25.6475 31.9329 25.6475 31.8504 25.475C31.7004 25.625 31.1754 25.7675 30.9504 25.535C30.8604 25.88 30.5604 26.1725 30.2079 26.1725C30.3054 26.4425 30.0354 26.9 29.8254 27.1325C30.1554 27.305 30.0504 27.695 29.9754 27.9275C30.4854 28.0025 30.0504 28.4525 30.9279 28.7375C30.5004 28.8725 29.6679 28.7375 29.5554 28.2125C29.1279 28.1975 28.8429 27.77 28.8579 27.3275C28.5279 27.02 28.4829 26.5775 28.9329 26.2625C28.5504 26.3825 28.3329 25.76 27.7779 26.015C27.5004 26.1425 26.7654 25.925 26.7729 25.67C26.6604 25.8575 25.9479 25.7825 25.8579 25.4525C25.6254 25.58 25.0854 25.37 25.0929 25.0475C24.7929 25.1825 24.3879 24.9425 24.4104 24.635C24.1254 24.5975 24.0954 24.3425 24.1104 24.1325C23.8629 24.0125 23.9304 23.7725 24.0354 23.4875C23.8554 23.2925 23.9304 23.0225 24.0654 22.7675C23.8779 22.5725 23.9154 22.3475 23.9679 22.07C23.0454 21.995 21.8829 21.77 19.2204 20.9525C15.2004 19.715 14.1204 22.6175 15.0054 24.4325C16.0329 26.5325 14.8929 26.9825 15.2379 28.5425C15.6129 28.6175 15.8004 28.9325 15.7779 29.2625C16.0029 29.27 16.1529 29.4725 16.0779 29.8625C16.1798 29.8458 16.2841 29.8526 16.383 29.8825C16.4818 29.9124 16.5724 29.9646 16.6479 30.035C16.7829 29.78 17.2329 29.72 17.4579 30.0125C17.9604 29.975 18.2154 30.3875 18.1929 30.8825C18.314 31.1095 18.3677 31.3663 18.3478 31.6227C18.3279 31.8791 18.2351 32.1245 18.0804 32.33C18.1104 32.1275 18.0804 31.8425 18.0729 31.6625C18.0504 31.3475 17.6079 31.28 17.6529 31.0175C17.4279 31.04 17.2029 30.9125 17.1279 30.74C17.0609 30.7978 16.9801 30.8372 16.8933 30.8543C16.8065 30.8714 16.7168 30.8656 16.6329 30.8375C16.8879 30.95 17.0979 31.415 17.0154 31.7225C17.1504 31.955 17.1204 32.3825 16.9629 32.5625C16.8879 32.9375 16.5879 33.0725 16.2129 32.9075C16.4304 32.7725 16.5054 32.5325 16.4979 32.33C16.3714 32.2035 16.2942 32.0359 16.2804 31.8575C15.9054 31.9175 15.3804 31.595 15.2904 31.4675C15.0928 31.4675 14.8971 31.5066 14.7146 31.5824C14.5322 31.6583 14.3665 31.7694 14.2271 31.9095C14.0877 32.0496 13.9774 32.2158 13.9024 32.3987C13.8275 32.5816 13.7894 32.7774 13.7904 32.975C13.7454 32.6675 13.3554 32.36 13.4079 32.0975C13.1754 31.385 13.5054 30.7175 14.4504 30.5825C14.3304 30.3125 14.7354 30.035 14.5854 29.7275C14.2842 29.1798 13.9136 28.6731 13.4829 28.22C13.8129 27.6575 13.7079 26.9075 13.5204 26.4425C13.2429 25.775 12.9804 25.94 11.9979 27.02C10.3929 28.7825 8.2479 28.295 6.3579 29.4575C5.8554 29.7575 5.3529 29.8775 5.8929 29.3375C6.4329 28.7975 7.8579 28.2575 8.7879 27.7925C10.5279 26.9225 11.9979 25.475 12.5754 22.655C13.9329 16.025 18.9504 18.215 22.1154 19.445C25.0929 20.6075 24.5529 17.9825 23.0454 16.3925C21.2304 14.495 21.5979 12.995 22.4454 11.795C23.9679 11.585 26.9004 12.1175 26.3079 12.6275Z" fill="#F2F2F2" stroke="black" stroke-width="0.03"/>
<path d="M31.692 28.911C31.9092 28.911 32.1242 28.8682 32.3249 28.7851C32.5255 28.702 32.7078 28.5802 32.8614 28.4266C33.0149 28.2731 33.1367 28.0908 33.2199 27.8901C33.303 27.6895 33.3457 27.4744 33.3457 27.2573C33.3457 27.0401 33.303 26.825 33.2199 26.6244C33.1367 26.4238 33.0149 26.2415 32.8614 26.0879C32.7078 25.9343 32.5255 25.8125 32.3249 25.7294C32.1242 25.6463 31.9092 25.6035 31.692 25.6035C31.2544 25.6035 30.8347 25.7774 30.5253 26.0868C30.2158 26.3962 30.042 26.8159 30.042 27.2535C30.042 27.6911 30.2158 28.1108 30.5253 28.4202C30.8347 28.7297 31.2544 28.9035 31.692 28.9035V28.911Z" fill="#F2F2F2" stroke="black" stroke-width="0.03"/>
<path d="M25.3845 12.7031C25.0095 14.3306 25.3245 15.0656 25.8645 15.7781C26.982 17.2556 27.8745 20.6231 26.5995 22.8281" stroke="black" stroke-width="0.03"/>
<path d="M27.3125 20.9225C27.4625 20.87 27.7625 20.6825 27.8225 20.3675M27.4325 20.2175C27.4775 19.94 27.9125 19.82 27.92 19.52M27.44 19.13C27.41 18.8375 27.875 18.575 27.8075 18.29M27.185 18.0875C27.1475 17.9225 27.575 17.615 27.455 17.3525M26.87 17.0675C26.78 16.8875 27.0725 16.6775 26.945 16.4825M26.405 16.2575C26.375 16.1375 26.555 15.86 26.4575 15.695M25.94 15.305C25.9775 15.2525 26.135 15.14 26.075 14.9975M25.625 14.6C25.685 14.57 25.8725 14.51 25.85 14.375" stroke="black" stroke-width="0.03" stroke-linecap="round"/>
<path d="M15.9493 32.818C15.5743 32.683 15.0868 32.8705 14.9893 33.2005M15.2818 33.5005C15.3268 33.1705 15.8293 33.028 15.9793 33.178C15.6643 33.0055 15.5068 33.628 15.7918 33.643M18.3868 25.858C18.1618 25.978 18.0868 26.398 18.3868 26.7205M18.7318 25.9555C18.5743 26.0905 18.5818 26.4955 18.8218 26.593C18.6193 26.443 18.8218 26.1955 18.9718 26.188C19.1143 26.1805 19.2118 26.353 19.0318 26.5255M32.3068 26.9155C31.7668 26.7655 31.3318 27.3955 31.8268 27.958C31.8118 27.418 32.2018 27.058 32.6743 27.1555M32.4493 27.5305C32.3956 27.5305 32.344 27.5519 32.3061 27.5899C32.2681 27.6278 32.2468 27.6793 32.2468 27.733C32.2468 27.838 32.3368 27.943 32.4868 27.943C32.5843 27.943 32.6668 27.8305 32.6668 27.7405M34.3618 15.6655C34.4518 15.9955 34.9018 16.138 35.2618 16.0555M35.2618 15.8455C34.9843 15.853 34.7518 15.5905 34.7668 15.373C34.7668 15.538 35.1418 15.613 35.2618 15.508" stroke="black" stroke-width="0.03" stroke-linecap="round" stroke-linejoin="round"/>
<path d="M16.0922 26.877C16.0172 26.682 16.3172 26.487 16.3322 26.307C16.3397 26.1195 16.6772 25.977 17.0297 26.322M16.8647 24.267L16.6772 24.357M17.5322 25.317C17.4497 25.317 17.2772 25.317 17.1872 25.2495M17.1872 25.6845C17.1272 25.722 16.9772 25.7745 16.8872 25.797M13.8797 31.5195C13.8647 31.692 14.0447 31.947 14.1347 32.022M14.6297 31.107C14.5766 31.1908 14.5406 31.2843 14.5238 31.3822C14.5071 31.48 14.5099 31.5802 14.5322 31.677M16.0697 31.677C15.8972 31.5645 16.0097 31.272 15.9947 31.077C15.9722 30.882 16.1972 30.5745 16.6322 30.837M14.4497 30.5745C14.6222 30.5445 14.8022 30.552 14.9222 30.6045M16.6472 30.027C16.5869 30.1162 16.5507 30.2196 16.5422 30.327M17.4647 30.0045C17.3297 30.0045 17.2097 30.102 17.1497 30.1995M15.5897 25.062C15.7397 25.1145 16.1447 25.362 16.1597 25.617M17.2322 23.802C16.7597 23.7945 16.5722 23.3145 16.9322 23.3145M18.0797 24.4545C17.8997 24.5295 17.9822 24.8445 18.2447 25.002M16.9472 27.4845C16.8572 27.3645 16.9772 27.0345 17.2772 27.132M17.6522 31.0095C17.6747 30.7095 18.0422 30.5445 18.1922 30.8745M16.2797 31.8495C16.2572 31.527 16.4297 31.422 16.5647 31.3995C16.7147 31.3845 16.9172 31.5045 17.0147 31.7145M13.4072 32.0895C13.4222 31.8945 13.5872 31.692 13.7597 31.722M31.0847 23.517C30.9572 23.607 30.8747 24.0195 31.3472 24.057M30.3497 24.1995C30.3497 24.2445 30.4097 24.312 30.4472 24.3495M32.6222 24.972C32.5022 24.8745 32.1722 25.272 32.4722 25.5495M29.5472 28.2195C29.4797 27.942 29.7347 27.867 29.9822 27.927M28.9322 26.262C29.0822 26.172 29.2322 26.0595 29.4122 26.0145M28.8572 27.327C28.8572 27.102 28.9772 26.8995 29.0822 26.847M29.7122 24.6645C29.7009 24.9074 29.7637 25.148 29.8922 25.3545M32.0072 24.6795C31.8647 24.7245 31.7447 24.777 31.6922 24.897M31.8497 25.4745C31.9247 25.4145 31.9997 25.347 32.0297 25.302M35.5022 17.037C35.5022 17.307 35.1647 17.457 34.9397 17.2845M36.2372 17.052C36.3872 17.1645 36.9047 17.052 36.7847 16.752M35.5997 18.6045C35.4595 18.5633 35.3326 18.4857 35.2322 18.3795M36.6647 17.802C36.4922 17.8395 36.3722 17.802 36.2897 17.7645M33.9197 18.7695C34.0886 18.7622 34.2543 18.7214 34.4072 18.6495M33.6497 17.0595C33.5222 17.0445 33.4247 17.067 33.3572 17.1195M35.5922 17.532C35.5548 17.6803 35.4769 17.8153 35.3672 17.922" stroke="black" stroke-width="0.03" stroke-linecap="round"/>
<path d="M33.3125 17.9607C33.5525 17.8557 33.8525 18.6732 34.4375 18.3882M34.4825 17.5332C34.4012 17.6588 34.3546 17.8037 34.3475 17.9532" stroke="black" stroke-width="0.03" stroke-linecap="round" stroke-linejoin="round"/>
<path d="M22.9248 16.2802C22.9998 16.2652 23.1423 16.2427 23.1723 16.1452M12.9873 25.2727C13.2798 25.4377 13.4823 25.7152 13.3623 26.1277M26.2698 15.3877C26.3598 15.4477 26.6823 15.4477 26.8698 15.3877M27.0948 15.5827C27.0948 15.7177 27.1323 16.2277 26.8698 16.3327M26.9673 16.2727C27.2073 16.3477 27.6873 16.3177 27.8448 15.8752M27.5073 16.2502C27.6348 16.4452 27.6723 16.8202 27.2973 17.0227M27.5973 16.5727C27.8823 16.6627 28.5273 16.6777 28.4598 16.1227M28.2348 16.5727C28.4373 16.8352 29.2848 17.1577 29.1498 16.5952M27.4623 17.3452C27.7848 17.4277 28.2498 17.2027 28.0623 16.6252M28.9848 16.9177C29.0298 17.1427 30.1098 17.3677 29.9673 16.8652M29.7648 17.1577C29.9673 17.6227 31.0398 17.5852 30.7023 16.9627M30.5298 17.4502C30.7398 17.7052 31.6923 17.5552 31.3098 16.9252M31.3023 17.4352C31.8948 17.8852 32.5773 17.2477 31.8273 16.7827M32.1723 17.2927C32.6973 17.7052 33.3348 16.9552 32.8773 16.7452M28.0473 17.1202C28.2123 17.1652 28.5573 17.1502 28.6398 16.8502M28.5048 17.0527C28.4898 17.4877 29.2248 17.6527 29.4123 17.1502M29.1648 17.4277C29.2998 17.7202 29.9523 17.8327 30.0573 17.4202M29.9523 17.6152C30.0573 17.9002 30.6198 17.8702 30.7773 17.5702M30.5673 17.7652C30.7398 18.1402 31.4598 18.1402 31.6173 17.5927M31.4973 17.8327C31.7748 18.0052 32.3748 17.9377 32.3223 17.3977M32.2098 17.7877C32.6298 18.1252 33.2148 17.7952 32.9223 17.2252M32.8998 18.2302C33.1248 18.1927 33.2373 17.7502 33.0048 17.6302M27.7548 18.3052C28.2048 18.0577 28.3023 17.6302 27.9798 17.2177M28.1448 17.8852C28.4373 18.0577 28.9848 17.8702 29.0823 17.4502M28.5423 17.9302C28.7073 18.1402 28.7373 18.4027 28.5198 18.6427M28.6698 18.2002C29.1873 17.8852 29.8248 18.4702 29.3448 18.8302M29.2698 18.1702C29.3823 18.1402 29.5848 17.9302 29.5998 17.6902M29.4948 18.3952C29.7123 18.1702 31.1598 18.6202 30.2448 19.0927M30.1698 17.7877C30.4548 17.8927 30.5973 18.2902 30.1698 18.4252M30.5448 18.7552C30.8448 18.4327 31.8198 18.6352 31.4673 19.0402M31.2348 18.6277C31.4073 18.0352 32.4423 18.4027 32.1048 18.6427M31.0248 18.0427C31.0548 18.1552 31.0623 18.4402 30.8748 18.5977M31.8948 17.9227C31.9157 17.9892 31.9212 18.0595 31.9108 18.1284C31.9004 18.1973 31.8744 18.2629 31.8348 18.3202M32.5473 17.9302C32.6073 18.0352 32.6973 18.2377 32.4873 18.4027M24.2823 13.4902C24.2898 14.0377 24.4848 14.4052 25.2273 14.0602M24.5148 14.1427C24.1398 14.6377 24.5598 15.1702 25.2873 14.6377M23.3748 14.3752C23.8773 14.9152 24.7773 14.5252 24.1998 13.7002M24.7998 14.8402C24.7098 15.3727 25.1448 15.4777 25.4973 15.2377M22.9323 14.4652C23.0223 14.9977 23.5698 15.4177 24.1023 15.0952M23.5848 15.2002C23.5848 15.9652 24.6348 16.0477 24.8823 15.2602M24.5073 15.7402C24.8448 16.4377 25.5798 16.1527 25.8198 15.7327M23.7648 14.6302C23.8998 14.9677 24.1698 15.3427 24.7923 15.0652M21.8298 14.4652C21.9198 14.7427 22.4223 15.0802 22.9998 14.6902M22.1898 14.8252C21.8748 15.2752 22.4898 15.7027 23.2398 15.0277M22.5573 15.3802C22.6773 16.0177 22.9323 16.5352 23.8323 15.7102M23.3823 16.0402C23.7123 16.4452 24.2148 16.6927 24.6873 16.0102" stroke="black" stroke-width="0.03"/>
<path d="M25.0474 16.1602C25.0174 16.6477 25.1074 16.8877 25.4899 16.8652C25.7899 16.8502 26.0674 16.6177 26.2324 16.3627M25.4224 16.8652C25.4074 17.4202 25.8424 17.8552 26.6599 17.2927M25.7599 17.5177C25.6099 17.9302 26.0674 18.6052 26.9749 18.2602M23.8324 16.4152C23.7799 16.9402 24.2674 17.3002 25.0624 16.6177M24.2224 17.0002C24.2524 17.4352 24.7474 17.9602 25.4674 17.2027M24.5674 17.5552C24.5149 18.2977 25.1974 18.5077 25.7749 17.9377M23.5399 17.0002C23.6899 17.0152 23.8174 16.8802 23.8924 16.7752M23.8624 17.5402C23.9974 17.5702 24.2374 17.4502 24.3124 17.2927M24.2074 18.4177C24.3574 18.5902 24.8824 18.4702 24.9499 18.2452M24.7849 18.4102C25.0699 19.0852 25.8424 19.0627 26.1649 18.2977M26.0149 18.5677C26.1649 18.9652 26.5324 19.2127 27.1324 19.0777M26.3074 18.9727C25.9699 19.5202 26.4124 20.1727 27.1699 19.5352M26.4949 19.7977C26.4574 20.1427 26.7724 20.5402 27.2074 20.5852M25.0624 18.7852C24.9499 19.5652 25.5124 19.9402 26.2099 19.5202M24.2449 19.1602C24.4249 19.3027 24.7549 19.3177 25.0699 19.2052M25.4449 19.6552C25.2649 20.3152 25.9399 20.7877 26.5174 20.0527M24.4999 19.2652C24.5149 19.6027 24.8374 19.9702 25.4074 19.8652M27.0049 20.5402C26.6149 20.7952 26.5399 21.2602 27.0799 21.5602M26.0599 20.4052C26.0749 20.7952 26.2624 21.0202 26.6974 21.0577M25.4899 20.2027C24.9049 20.7277 25.4749 21.3502 26.1649 20.8252M25.8949 20.9902C25.6999 21.5977 26.4199 21.9652 26.8099 21.3502M24.6949 19.7002C24.4849 20.3002 24.7549 20.6902 25.2499 20.6527M23.9299 19.5802C23.9599 19.9402 24.2674 20.0677 24.6199 19.9852M24.1549 19.9552C23.8924 20.4577 24.2899 20.7277 24.8149 20.5402M26.3899 21.6652C26.3149 21.9802 26.3599 22.2052 26.8324 22.3177M26.4274 22.1152C25.8574 22.3702 25.8049 22.9252 26.2474 23.2777M25.9624 21.5002C25.8942 21.5598 25.8412 21.6349 25.8078 21.7191C25.7744 21.8034 25.7616 21.8943 25.7704 21.9845C25.7792 22.0747 25.8093 22.1615 25.8584 22.2377C25.9074 22.3139 25.9739 22.3773 26.0524 22.4227M23.4274 19.7377C23.1049 20.0602 23.4124 20.9527 24.1399 20.4652M25.3174 20.8627C24.8674 21.2377 25.0699 21.8977 25.8049 21.7177M24.5824 20.5927C24.3499 21.2452 24.5674 21.4777 25.0924 21.4852" stroke="black" stroke-width="0.03"/>
<path d="M22.9472 19.7078C22.8753 19.7571 22.8147 19.8211 22.7694 19.8956C22.7242 19.9701 22.6953 20.0534 22.6846 20.1399C22.674 20.2265 22.6819 20.3143 22.7077 20.3975C22.7336 20.4808 22.7769 20.5576 22.8347 20.6228C23.0072 20.8178 23.3372 20.7278 23.4347 20.4803M22.1147 19.4453C21.6722 20.0153 22.1147 20.6903 22.7447 20.4953M24.4922 21.1403C24.0422 21.2978 23.6897 21.7103 23.9672 22.0778C24.1397 22.2878 24.8522 22.3178 25.0547 21.4928M23.6747 20.6078C23.4122 20.9828 23.4947 21.3428 23.9747 21.5228M23.6447 21.3128C23.3597 21.4628 23.1797 21.6503 23.2472 21.9878M23.0147 20.7203C22.9097 21.1703 23.0372 21.4553 23.3147 21.5903M23.0072 21.2603C22.5722 21.2303 22.3472 21.4103 22.4972 21.8453M22.5347 21.3653C22.1072 21.2153 22.0397 20.8403 22.2272 20.4653M22.1672 21.0353C21.7022 21.0503 21.4922 21.2828 21.4922 21.5978" stroke="black" stroke-width="0.03"/>
<path d="M21.5371 19.2287C21.1996 19.3712 21.0871 19.8287 21.2146 20.0762C21.3421 20.3237 21.7396 20.3462 21.9796 20.1812M20.5996 18.8687C20.2921 19.2137 20.6446 19.8962 21.1996 19.7312M19.8046 18.5987C19.5196 19.0037 19.8346 19.6787 20.5771 19.4837M20.6146 21.3662C20.5396 20.8862 21.0421 20.5712 21.6646 21.1937M21.3646 20.2187C21.2763 20.2981 21.2079 20.3972 21.1649 20.5079C21.1219 20.6186 21.1055 20.7379 21.1171 20.8562M19.0171 18.3662C18.6946 18.9062 19.0846 19.4012 19.7671 19.2062M20.8021 19.7087C20.3521 20.1587 20.5021 20.6162 20.8396 20.8787M20.5096 20.2412C19.8271 20.2487 19.7896 21.0437 20.3446 21.2912M19.9921 19.4462C19.7071 19.6412 19.6171 20.1737 20.1046 20.3837M19.9696 20.6387C19.6771 20.5037 19.3321 20.6687 19.3621 21.0062M19.5346 20.6462C19.2721 20.0312 18.5146 20.1362 18.5821 20.7737M19.7446 19.8812C19.5871 19.9112 19.2571 20.0087 19.1296 20.2562M19.1746 19.1837C19.1143 19.2459 19.0703 19.3221 19.0466 19.4055C19.0229 19.4889 19.0202 19.5768 19.0388 19.6615C19.0574 19.7462 19.0966 19.8249 19.153 19.8908C19.2095 19.9566 19.2813 20.0074 19.3621 20.0387M18.2521 18.2012C18.1921 18.6212 18.3571 18.8237 18.8821 18.7862M18.4321 18.7337C18.2371 19.2362 18.5071 19.4612 19.0321 19.4312M18.5521 19.3562C18.2446 19.7237 18.4546 20.1137 18.7546 20.2787M18.4096 19.8212C17.8546 19.7462 17.7721 20.3912 17.9596 20.6837" stroke="black" stroke-width="0.03"/>
<path d="M17.9668 18.1621C17.6293 18.3121 17.4343 18.7321 17.6143 18.9871C17.8018 19.2496 18.1693 19.1671 18.3643 19.0321M17.7343 19.1071C17.4493 19.5346 17.7043 19.8571 18.0043 19.9771" stroke="black" stroke-width="0.03"/>
<path d="M16.6462 18.1113C16.4212 18.3438 16.5637 18.8163 17.0962 18.8313C17.5387 18.8313 17.7562 18.4263 17.6212 18.1338M17.0212 18.8313C16.8487 19.2138 16.9612 19.6338 17.6212 19.5663M17.8912 20.1663C17.4937 19.9863 16.9462 20.1663 17.1787 20.6538M17.1262 19.4838C16.9612 19.7163 17.0137 20.0463 17.2012 20.2488M17.0962 20.0988C16.8262 20.1513 16.5637 20.2938 16.7212 20.7213M16.6837 20.3763C16.3387 20.2713 15.8962 20.5263 16.1587 20.8788M16.1062 20.5413C15.8062 20.4888 15.4537 20.8113 15.7387 21.1263M15.6262 20.8638C15.3562 20.9388 15.0337 21.2388 15.3187 21.4863M16.9912 19.3488C16.6012 19.5213 16.5637 19.9563 16.7437 20.2788M16.5787 18.5538C16.0012 18.7788 16.0087 19.5438 16.6537 19.7838M16.3762 19.6113C16.0312 19.8138 15.9637 20.2038 16.1962 20.4513M15.7687 18.2613C15.5437 18.3363 15.5587 19.0488 16.1737 19.0338M15.1312 18.5013C14.6662 18.8088 15.2287 19.5888 15.9787 19.0263M15.5662 19.2288C15.4987 19.5438 15.5887 19.8888 16.0987 19.9338M15.5962 19.6488C15.2287 19.7838 15.1612 20.5413 15.8212 20.6013M14.4262 18.9663C13.9537 19.4013 14.8162 19.7763 15.1312 19.1463M13.7737 19.6863C13.5412 19.9713 14.3512 20.7063 14.7112 19.4763M14.7937 19.4538C14.8162 19.7538 14.9887 19.9188 15.3412 19.9413M15.3412 20.2188C14.7637 20.3088 14.5837 21.0213 15.2212 21.1788M14.2837 20.1288C14.2612 20.3913 14.5462 20.6163 14.8612 20.5713M15.1537 21.1563C14.6287 21.2763 14.5612 21.9513 15.0262 21.9063M14.7862 22.5363C14.3512 22.4088 14.3362 21.8913 14.7262 21.6963" stroke="black" stroke-width="0.03"/>
<path d="M14.4277 22.0855C14.0602 22.3105 14.2027 22.8355 14.3977 22.9105C14.5927 22.9855 14.7502 22.8955 14.7727 22.7305M14.7352 23.4805C14.7802 23.728 13.8427 23.6305 14.3227 22.8505M14.3227 23.518C14.0077 24.013 14.5177 24.418 14.8402 23.9905M14.3602 24.1105C14.2327 24.508 14.7127 24.793 15.0202 24.4855M13.3252 20.4055C13.1527 20.758 14.0227 20.893 14.0752 20.158M13.0852 20.9305C12.9127 21.628 14.2252 21.4855 13.8877 20.5855M13.9177 21.0505C14.0049 21.0913 14.1005 21.1111 14.1968 21.1082C14.2931 21.1054 14.3874 21.0799 14.472 21.0339C14.5567 20.988 14.6294 20.9228 14.6842 20.8436C14.739 20.7643 14.7745 20.6734 14.7877 20.578M14.3902 21.073C14.414 21.1714 14.4575 21.2641 14.5181 21.3453C14.5787 21.4265 14.6551 21.4946 14.7427 21.5455M13.7602 21.253C13.7002 21.628 14.0827 21.943 14.5102 21.913M13.8277 21.6205C13.6177 21.913 13.5502 22.468 14.2177 22.5055M12.8002 21.7255C12.6952 22.0255 13.3252 22.333 13.6852 21.838M12.6052 22.4905C12.5527 22.7155 13.1152 23.0155 13.4302 22.0555M13.1827 22.543C13.3177 22.783 13.7752 22.978 14.0527 22.5055M13.6027 22.798C13.4827 23.1355 13.8052 23.4505 14.1877 23.3605M12.8752 22.723C12.8002 23.203 13.3627 23.4805 13.7002 23.233M12.5077 22.933C12.3427 23.548 13.1377 23.7805 13.4377 23.3155M13.2352 23.503C13.2652 23.848 13.8052 24.148 14.2252 23.863M12.2677 23.788C12.2302 23.9455 12.8752 24.103 12.9727 23.563M12.6427 23.9305C12.7927 24.3205 13.3177 24.418 13.6177 23.9305M13.4452 24.1255C13.5202 24.5005 13.9852 24.703 14.4052 24.448M14.5777 24.598C14.4727 25.0855 14.9827 25.483 15.2977 25.213M13.7527 24.508C13.6027 25.048 14.2777 25.3555 14.6527 25.0555M12.9427 24.2305C12.9052 24.7405 13.3027 25.0405 13.7527 24.8155M12.0802 24.2905C11.9452 24.613 12.6652 24.883 13.0027 24.6055M11.6377 25.183C11.8252 25.393 12.4627 25.183 12.5152 24.7105M12.3427 25.0555C12.5752 25.3255 13.1302 25.4755 13.3477 24.8905M13.1527 25.1905C13.1527 25.6105 13.8877 25.9105 14.1277 25.1455M15.0052 25.2955C14.9302 25.498 15.0952 25.8205 15.4327 25.858M14.3902 25.168C14.3452 25.393 14.6827 25.723 15.0427 25.5955M15.1102 25.693C15.0127 25.9405 15.0952 26.3005 15.4327 26.293M15.1402 26.158C14.8852 26.368 14.9902 26.7505 15.3577 26.758M15.0127 26.518C14.6527 26.758 14.7802 27.2905 15.2527 27.2605M13.9252 25.4755C13.9252 26.0005 14.5777 26.0755 14.6977 25.5955M14.4502 25.8955C14.3527 26.2105 14.6002 26.5105 14.9977 26.4205M14.5252 29.6305C14.6152 29.758 14.9752 29.5405 14.8777 29.3305C14.7802 29.1205 14.3977 29.233 14.4427 29.458M14.7877 29.2405C14.8327 28.8205 14.3377 28.753 14.2102 29.1205M14.3902 28.903C14.5177 28.693 14.0902 28.4005 13.9177 28.7155M14.0677 28.588C14.1877 28.2805 13.7077 28.138 13.6702 28.423M13.5577 28.018C13.6177 27.868 14.1577 27.958 13.9327 28.2805M14.3452 28.663C14.5552 28.468 14.1952 28.078 13.9702 28.213M15.7702 29.2555C15.6052 29.2705 15.4327 29.383 15.5527 29.743C15.6427 29.9905 16.0102 29.998 16.0702 29.8555" stroke="black" stroke-width="0.03"/>
<path d="M15.5365 29.4425C15.3715 29.33 15.0115 29.5175 15.1765 29.8625M15.1765 29.8625C15.2965 30.125 15.6115 30.0125 15.6565 29.8775M15.1765 29.8625C15.1015 30.0125 14.6965 30.0875 14.6065 29.9375M14.8915 29.4575C14.9815 29.3975 15.139 29.4725 15.169 29.5475M14.869 27.0725C14.584 27.26 14.7565 27.8225 15.1915 27.6725M14.7715 27.53C14.5465 27.7025 14.7565 28.25 15.169 28.04M14.8465 28.04C14.689 28.1975 14.839 28.625 15.2365 28.5425M14.7865 28.2575C14.6965 28.22 14.4715 28.2425 14.374 28.3925M14.5315 26.2925C14.3215 26.5025 14.4265 26.915 14.8165 26.9525M14.4565 26.7275C14.1565 26.8775 14.1565 27.4775 14.7565 27.5M14.434 27.4025C14.2615 27.5375 14.344 28.0625 14.779 27.995M14.569 27.9725C14.509 28.04 14.494 28.1975 14.554 28.265M14.3815 27.7775C14.2315 27.7775 14.0215 27.89 13.969 28.055M13.6915 27.4925C13.744 27.3425 14.224 27.3425 14.2615 27.8M14.3065 27.26C14.239 27.275 14.1115 27.335 14.0815 27.47M14.0965 25.8425C13.894 26.0375 13.7965 26.63 14.419 26.7425M13.6765 27.0725C13.6765 26.915 14.1115 26.7725 14.2615 27.0125M13.399 26.21C13.459 26.33 13.759 26.495 13.939 26.36M11.839 25.265C11.8361 25.3344 11.8485 25.4036 11.8753 25.4677C11.9022 25.5317 11.9429 25.5891 11.9944 25.6356C12.046 25.6822 12.1072 25.7168 12.1737 25.737C12.2401 25.7572 12.3102 25.7625 12.379 25.7525C12.7015 25.715 12.769 25.4375 12.6715 25.25M12.4315 25.7675C12.214 26.0225 12.4765 26.39 12.7165 26.285M12.6715 25.58C12.799 25.535 13.2115 25.475 13.339 25.67M11.329 25.655C11.2315 25.805 11.8315 25.9475 12.034 25.67M11.8315 25.8125C11.809 26.0075 11.9065 26.3375 12.4015 26.195" stroke="black" stroke-width="0.03"/>
<path d="M12.4842 26.4946C12.5592 26.3296 12.1992 26.0596 11.9142 26.3596C11.6367 26.6596 11.9592 26.9971 12.1317 26.8846M11.2017 25.8496C11.0517 26.1046 11.6142 26.5621 11.9367 26.1346" stroke="black" stroke-width="0.03"/>
<path d="M10.8274 26.2852C10.6249 26.4952 10.8799 26.8777 11.1799 26.7577C11.4874 26.6452 11.4574 26.3227 11.3824 26.2402" stroke="black" stroke-width="0.03"/>
<path d="M10.4371 26.6756C10.2721 26.8256 10.4371 27.1706 10.6621 27.1706C10.8871 27.1706 11.0296 26.9981 10.9846 26.7656M11.3596 26.6456C11.3296 26.8706 11.6596 27.0206 11.8771 26.8106M11.8771 26.4056C11.9146 26.3606 11.8921 26.2781 11.8396 26.2331M10.0846 26.9681C9.89707 27.1181 10.3096 27.5381 10.5571 27.1556M11.5396 26.8931C11.4196 27.0056 11.6146 27.3056 11.8096 27.2156M10.8796 27.1031C10.9096 27.3056 11.3146 27.4631 11.5696 27.1481M11.0971 27.3056C11.0371 27.4406 11.1646 27.6431 11.3221 27.6206M14.9446 28.5056C14.7946 28.7981 15.2746 29.1431 15.6196 28.7831M15.2896 28.9406C15.2146 29.0981 15.3046 29.3231 15.4396 29.4056M14.8396 29.2781C14.8696 29.1281 15.0796 28.9931 15.2671 29.0606M14.5921 28.8956C14.6146 28.7606 14.7871 28.6331 14.9221 28.6706M26.1571 23.7581C25.5646 23.9756 25.2721 22.8731 25.9621 22.8656C25.5496 22.9556 25.2271 22.7831 25.1971 22.5581M25.7371 23.6831C25.6021 23.9006 25.8646 24.2531 26.1571 24.0431M26.0821 24.0881C25.8721 24.4256 26.5996 24.9431 26.8921 24.4106M26.6596 24.6131C26.6596 24.9356 27.5971 25.1381 27.4621 24.5006M27.3721 24.8456C27.5971 25.2206 28.4221 25.2581 28.3396 24.6956M28.1521 25.0856C28.3246 25.3406 29.1421 25.4906 29.1121 24.9731M24.8596 21.9131C24.9721 22.2131 25.3696 22.3181 25.8046 22.1381M24.6046 22.1231C24.8821 22.2956 24.4846 23.0906 24.0721 22.7681M24.6121 22.6181C24.9121 22.7606 25.2796 22.6556 25.3846 22.2281M24.4546 22.7906C24.8446 23.1206 24.2821 23.7956 24.0271 23.4881M24.5971 23.0381C24.7846 23.1731 25.2571 23.0981 25.3021 22.7381M25.0921 23.0381C25.1296 23.2706 25.3171 23.3606 25.5721 23.3681M24.4921 23.3606C24.6871 23.6306 25.1671 23.7056 25.3846 23.3531M25.1671 23.5556C25.1521 23.8106 25.4371 24.0281 25.7371 23.9681M24.1246 24.1256C24.3721 24.2531 24.6496 23.7731 24.4321 23.4506M24.4171 24.6281C24.7171 24.6431 24.7546 24.1931 24.4696 23.9381M25.0996 25.0406C25.3546 24.9806 25.2721 24.4331 24.6646 24.3881M25.8646 25.4456C26.1046 25.3781 25.9096 24.7706 25.2421 24.8081M26.7796 25.6631C26.9446 25.4081 26.4046 24.9881 25.9546 25.2131M27.2296 26.0081C27.5296 26.0981 27.7396 25.3031 26.7871 25.4306M27.7846 26.0081C28.0471 25.9331 28.2346 25.4681 27.4696 25.6181M28.3696 26.0456C28.5946 26.1656 28.6996 25.4831 27.9946 25.6706M24.4696 23.9456C24.7621 24.1031 25.2196 23.9156 25.1746 23.5481M25.0621 23.8631C25.1596 24.0356 25.1221 24.3731 24.9346 24.4631M25.0846 24.2681C25.2796 24.3431 25.5421 24.2756 25.6996 23.9681M25.4296 24.2681C25.4821 24.4031 25.5046 24.6731 25.3771 24.8081M25.4746 24.5006C25.6921 24.6206 25.9396 24.4631 26.0446 24.2381M25.9096 24.4331C26.0596 24.5306 26.2021 24.9806 25.9396 25.1681M26.0896 24.9581C26.2696 24.9581 26.5396 24.9581 26.7121 24.7331M26.5846 24.8606C26.7496 24.9056 26.9446 25.1756 26.8771 25.4156M26.8846 25.3331C27.0721 25.3106 27.3871 25.1831 27.4771 24.9581M27.3871 25.1081C27.4703 25.1571 27.5373 25.2294 27.5799 25.316C27.6226 25.4026 27.639 25.4998 27.6271 25.5956M27.6271 25.4381C27.8146 25.4306 27.9796 25.3331 28.0246 25.1306M27.9796 25.2656C28.1146 25.3106 28.2796 25.4681 28.2871 25.6481M28.2646 25.5356C28.3996 25.5131 28.4971 25.4306 28.5871 25.2956M28.9546 25.2731C29.1271 25.4456 28.8946 26.0231 28.5346 25.9181M25.2421 13.5656C24.8896 13.7831 23.8696 13.7156 24.3721 12.8756M25.3471 12.9956C24.6346 13.2806 23.7721 12.7331 24.6721 12.1481M24.4321 11.9531C23.8471 11.9531 23.4496 12.8981 24.2371 13.2281M22.1446 12.3506C21.9946 12.6506 22.5421 12.9806 22.9171 12.6806C23.2096 12.4481 23.1871 11.8181 23.0146 11.5781M21.8446 13.0631C21.6496 13.7006 23.0746 13.7381 22.8496 12.7256M21.7696 14.0156C21.8146 14.4956 23.1271 14.3381 22.7071 13.3631M22.8571 13.0931C22.9621 13.2431 23.2546 13.4906 23.7496 13.4381M23.0746 12.4256C23.1196 12.5981 23.4121 12.7256 23.7871 12.5981M9.90457 27.1106C9.56707 27.3431 10.0846 27.7181 10.2721 27.3056M9.64207 27.2906C9.31207 27.5306 9.82207 27.9056 10.0096 27.4931M9.36457 27.4706C9.03457 27.7106 9.54457 28.0781 9.73957 27.6731M9.07957 27.6356C8.75707 27.8081 9.13207 28.2206 9.45457 27.8606M8.76457 27.7931C8.44207 27.9656 8.81707 28.3781 9.13957 28.0181M10.3846 27.2981C10.3771 27.5456 10.8421 27.6431 11.0146 27.2756M10.6771 27.5231C10.5271 27.7106 10.7971 27.9356 10.9396 27.8531M10.0546 27.4931C10.0396 27.7031 10.4446 27.8231 10.6396 27.5906M10.2721 27.7106C10.1446 27.8756 10.3996 28.1081 10.5721 28.0406M9.78457 27.6806C9.79957 27.8456 10.0321 28.0331 10.2796 27.9281M9.93457 27.9056C9.83707 27.9881 9.88207 28.1906 10.0171 28.2581M9.43207 27.8831C9.39457 28.0331 9.64957 28.3031 9.91207 28.1306M9.48457 28.0556C9.33457 28.1831 9.34957 28.3631 9.54457 28.3931M9.10957 28.0406C9.09457 28.1456 9.22207 28.3106 9.38707 28.2881M8.28457 28.0331C8.13457 28.1156 8.52457 28.5356 8.77207 28.1456M7.90207 28.2056C7.70707 28.2956 8.18707 28.7606 8.40457 28.2881M9.15457 28.1906C9.00457 28.2206 8.90707 28.4381 9.03457 28.5281M8.65957 28.2656C8.64457 28.3556 8.83207 28.4906 8.98207 28.4456M8.53957 28.3031C8.38957 28.3931 8.47207 28.6481 8.64457 28.6106M8.02207 28.4756C7.88707 28.5731 7.98457 28.7756 8.17207 28.7306M8.26957 28.4606C8.26957 28.5131 8.39707 28.5956 8.49457 28.5581M7.55707 28.3706C7.38457 28.4456 7.39957 28.8656 7.96957 28.6406M7.17457 28.5431C6.93457 28.6556 7.01707 28.9781 7.53457 28.6706M7.57207 28.6931C7.51207 28.7456 7.44457 28.9556 7.68457 28.8731M7.14457 28.7981C7.04707 28.8806 7.10707 29.0606 7.31707 28.9931M6.64207 28.8281C6.46957 28.9256 6.85207 29.0606 7.10707 28.7906M6.76207 28.9481C6.68707 29.0231 6.68707 29.2556 6.88207 29.1731M6.26707 29.0456C6.15457 29.1281 6.34207 29.2481 6.71707 29.0831M6.41707 29.1656C6.27457 29.2781 6.28957 29.4206 6.49207 29.3756M6.01207 29.2256C5.86207 29.3681 6.07957 29.4581 6.34207 29.3456M6.01207 29.3831C5.75707 29.4956 5.86957 29.7131 6.02707 29.6306M14.5621 30.1181C14.5021 30.2456 14.6971 30.3506 14.8846 30.3206C15.0571 30.2981 15.2296 30.1481 15.0946 29.9456M15.1021 30.2006C15.2821 30.3356 15.5896 30.1781 15.5896 29.9756" stroke="black" stroke-width="0.03"/>
<path d="M25.7598 9.72604C24.9873 9.35104 23.3823 8.63104 22.9248 9.20854C23.3448 9.03604 24.5598 9.21604 25.5648 10.146L25.7598 9.73354V9.72604Z" fill="#F2F2F2" stroke="black" stroke-width="0.03"/>
<path d="M26.225 9.68844C25.3325 8.64594 24.8 8.87844 24.1625 8.52594C23.5625 8.18844 22.6025 8.12094 22.415 8.65344C23.2925 8.22594 24.1025 8.87844 24.605 8.96844C25.28 9.07344 25.67 9.60594 25.8725 9.84594L26.225 9.69594V9.68844ZM29.5925 9.55344C29.1275 8.49594 28.1375 8.77344 27.7025 8.32344C27.065 7.66344 25.4525 7.04844 24.7775 7.50594C26.2475 7.43094 26.8775 8.51844 27.6575 8.90094C28.22 9.17094 28.82 9.74844 29.5925 9.55344Z" fill="#F2F2F2" stroke="black" stroke-width="0.03"/>
<path d="M27.8529 9.44016C27.0654 8.45766 25.8429 7.58766 25.2879 7.91016C26.0229 7.95516 26.2554 8.46516 26.7729 8.79516C27.2979 9.11766 27.0654 9.59766 27.8529 9.44016ZM24.0879 11.1802C23.2629 10.8727 21.6354 10.7152 20.8779 11.6602C22.1379 11.8777 24.0279 11.7577 24.0879 11.1802Z" fill="#F2F2F2" stroke="black" stroke-width="0.03"/>
<path d="M23.9298 11.548C23.1048 11.158 22.4523 11.698 21.6723 11.623C20.1873 11.473 19.1223 11.563 18.9873 12.283C19.8348 11.518 21.2673 12.148 21.8448 11.9905C22.4223 11.8405 24.5673 11.968 25.2423 12.2605C24.8973 11.833 24.3573 11.7205 23.9298 11.548ZM26.5398 9.33554C26.3448 8.69804 26.3598 8.02304 27.3123 8.06804C27.0723 7.76804 26.1873 7.61804 26.0373 8.73554C24.9873 7.96304 23.8323 7.82804 23.6223 8.49554C24.1623 8.03054 25.0023 8.36804 26.0073 9.50804C26.1746 9.4229 26.3543 9.36468 26.5398 9.33554Z" fill="#F2F2F2" stroke="black" stroke-width="0.03"/>
<path d="M25.0929 10.2134C24.4929 9.82336 23.6829 9.20086 25.1004 8.94586C24.5004 8.62336 23.6004 8.76586 23.6979 9.88336C22.0779 9.23086 20.9154 9.44836 20.6679 10.1009C20.3979 10.8134 21.4029 11.2109 21.5754 10.7534C21.3954 10.8284 20.7654 10.6184 21.0954 10.2134C21.4254 9.80836 23.1054 10.1159 24.7029 10.9484C25.1529 11.1734 26.6754 11.1434 25.0929 10.2134Z" fill="#F2F2F2" stroke="black" stroke-width="0.03"/>
<path d="M24.6655 11.2779C24.208 10.3329 22.708 11.1879 22.408 10.2729C21.988 11.6154 24.538 10.8729 24.6655 11.2779ZM34.198 12.2979C34.513 12.4554 34.783 12.2079 34.303 12.0204C34.618 12.1704 34.8955 11.9379 34.4155 11.7429C34.7305 11.8929 35.0005 11.6604 34.5205 11.4654C34.393 11.5929 34.213 12.0654 34.198 12.2979ZM34.363 10.4829C35.0605 9.74789 34.3105 9.50039 35.158 8.74289C35.8555 8.12789 35.293 7.71539 35.9455 7.24289C36.163 7.08539 36.6205 6.77789 36.6655 6.46289C36.943 7.16039 35.7955 7.25789 35.8705 8.37539C35.923 9.08789 35.4355 9.02789 35.2555 10.2354C35.218 10.4829 35.038 11.0454 34.363 10.4829Z" fill="#F2F2F2" stroke="black" stroke-width="0.03"/>
<path d="M34.6689 10.8127C35.0589 9.98766 35.5014 9.99516 35.7189 9.67266C36.1239 9.05016 36.9789 9.77766 37.7064 9.22266C37.5789 10.0102 36.6039 9.73266 36.1764 10.2352C35.7564 10.7377 35.4039 10.9627 34.6764 10.8127H34.6689Z" fill="#F2F2F2" stroke="black" stroke-width="0.03"/>
<path d="M34.7751 11.0826C35.4501 10.5426 35.9451 10.9026 36.4101 10.6176C37.5876 9.90513 38.0601 10.7676 39.1101 10.4226C38.8401 11.0976 37.2801 10.5201 36.6051 11.0226C35.9301 11.5251 33.5526 12.0126 34.7676 11.0826H34.7751ZM32.8026 14.9376C32.7876 14.6301 32.5026 14.2326 32.0976 14.1876C31.6926 14.1351 31.5126 13.7076 31.2051 13.6926C30.8976 13.6701 30.6951 13.0551 30.2676 13.0626C29.8476 13.0701 29.6676 13.6251 30.6651 14.1276C31.6626 14.6301 32.7651 15.2076 32.8026 14.9376ZM31.5426 15.2001C31.1226 15.2151 31.0626 15.8376 30.6576 15.8526C31.2126 16.1526 31.6251 15.7176 31.9101 15.3276L31.5501 15.2001H31.5426Z" fill="#F2F2F2" stroke="black" stroke-width="0.03"/>
<path d="M31.8944 15.2754C31.5194 15.5829 31.4144 16.2279 31.9469 16.4154C31.6319 15.9729 32.5094 15.7779 32.2394 15.3654L31.8944 15.2754Z" fill="#F2F2F2" stroke="black" stroke-width="0.03"/>
<path d="M32.2545 15.2983C31.9695 15.8533 32.712 15.9208 32.517 16.3483C32.9445 16.2508 33.012 15.4483 32.622 15.2383L32.2545 15.2908V15.2983Z" fill="#F2F2F2" stroke="black" stroke-width="0.03"/>
<path d="M29.4189 14.0969C30.1164 14.0594 30.7464 14.4344 31.1739 15.0419C31.4439 15.4244 32.3514 15.5819 32.6664 15.2669C32.9664 14.9669 32.8014 14.3069 32.0289 14.5169C31.8339 14.1944 31.2789 14.3069 31.0014 14.0369C30.7314 13.7669 29.6889 12.9944 29.4189 14.0969Z" fill="#F2F2F2" stroke="black" stroke-width="0.03"/>
<path d="M32.03 14.5264C31.8425 14.5639 31.7825 14.8789 31.9025 15.0439L32.03 14.5264ZM32.4275 14.7139C32.48 14.8114 32.4425 14.9464 32.4125 15.0139L32.4275 14.7139ZM30.5225 14.1289C30.875 14.1439 30.9425 14.4064 31.3325 14.5039L30.5225 14.1289Z" fill="#F2F2F2"/>
<path d="M32.03 14.5264C31.8425 14.5639 31.7825 14.8789 31.9025 15.0439M32.4275 14.7139C32.48 14.8114 32.4425 14.9464 32.4125 15.0139M30.5225 14.1289C30.875 14.1439 30.9425 14.4064 31.3325 14.5039" stroke="black" stroke-width="0.03" stroke-linecap="round"/>
<path d="M30.2824 13.25C31.2568 13.4404 32.2039 13.7502 33.1024 14.1725C33.7099 14.5175 34.6549 14.6225 35.4724 14.3825C36.2974 14.1575 37.8874 13.94 37.8049 14.9675C38.2399 14.45 37.6924 13.9025 36.5899 13.805C36.6124 13.3025 36.0724 12.8525 35.6899 13.1525C36.0424 13.1 36.3499 13.7675 35.6449 14.0375C35.6766 13.9212 35.6743 13.7983 35.6382 13.6834C35.6022 13.5684 35.534 13.4662 35.4416 13.3889C35.3493 13.3115 35.2367 13.2623 35.1172 13.2469C34.9977 13.2316 34.8763 13.2509 34.7674 13.3025C35.0974 13.4 35.4424 13.9625 34.6924 14.1725C34.2199 14.3075 33.5374 14.135 33.0274 13.8275C32.5174 13.52 29.6524 12.4025 30.2824 13.2425V13.25Z" fill="#F2F2F2" stroke="black" stroke-width="0.03"/>
<path d="M33.3947 12.7474C33.0122 12.9199 33.2597 13.3249 32.6672 13.5574C32.0672 13.7824 31.6472 14.3149 31.7822 14.7724C32.1872 13.8799 32.9072 13.9249 33.1547 13.5724C33.4097 13.2274 33.7772 12.7174 33.3947 12.7474Z" fill="#F2F2F2" stroke="black" stroke-width="0.03"/>
<path d="M33.4992 12.8C33.4842 13.505 32.9292 13.25 33.1467 14.24C33.2142 14.5475 33.3417 15.05 33.1242 15.5525C33.7467 15.1025 33.3492 14.15 33.6267 13.79C33.7617 13.61 33.9417 13.34 34.0017 13.115C33.8592 13.5125 33.8742 14.27 34.2642 14.465C33.9492 13.715 35.1267 13.0925 34.3167 12.215C34.1967 12.44 33.8292 12.815 33.5067 12.8H33.4992ZM31.5342 12.095C31.6317 12.245 31.7292 12.605 31.6392 12.815C31.8342 12.695 32.1117 12.395 32.2017 12.1925C32.5992 12.2525 32.7492 12.74 32.3742 12.9575C32.5992 12.9575 33.0042 12.9575 33.2217 12.695C32.9517 12.395 32.1117 11.93 31.5342 12.095Z" fill="#F2F2F2" stroke="black" stroke-width="0.03"/>
<path d="M25.5269 10.7089C25.4222 10.628 25.298 10.5763 25.1669 10.5589C24.5819 10.4389 24.8894 9.91391 25.3844 9.92141C26.4494 8.75891 27.0419 9.65141 28.3394 9.29141C28.7894 9.15641 29.1044 9.19391 29.3444 9.30641C29.9294 8.91641 30.6044 9.02141 31.0994 9.47891C31.1493 9.39288 31.2295 9.32866 31.3244 9.29891C31.7819 9.17141 32.1494 9.55391 32.2769 10.0564C32.6294 9.99641 33.0344 10.1689 33.3044 10.4089C33.6719 10.2214 33.9194 10.2139 34.0169 10.4089C34.3469 10.2589 34.7669 10.1539 34.9844 10.6789C35.2019 11.2039 34.4819 11.0464 34.3619 12.1489C34.2869 12.8239 33.5369 13.0939 32.9369 12.6889C31.9769 12.0364 31.0394 11.9389 30.5744 12.9139C30.1169 13.9039 29.7494 14.4739 28.6244 14.1514C28.3908 14.0984 28.1467 14.1165 27.9235 14.2034C27.7003 14.2902 27.5082 14.4419 27.3719 14.6389C27.0419 15.0889 26.5469 14.6689 25.9469 14.7139C26.6969 14.6014 26.4044 14.4139 27.0644 14.3689C27.6644 14.3314 27.5069 13.7689 27.8894 13.6939C26.3894 14.0764 26.4419 13.5139 25.2044 13.9039C25.7444 13.2064 26.5994 13.5964 27.0194 13.1914C25.9019 13.1689 25.3994 12.4414 24.8969 12.7414C24.1094 13.2289 24.4469 14.6014 22.3844 14.4814C21.3794 14.4289 20.7419 14.5564 20.1494 15.1564C21.1919 12.9964 22.6094 14.1814 23.2994 13.4989C23.6574 13.1768 23.968 12.8056 24.2219 12.3964C24.2515 12.337 24.2937 12.2848 24.3455 12.2434C24.3973 12.202 24.4575 12.1723 24.5219 12.1564C22.8044 11.6164 23.8469 10.7689 25.5269 10.7089Z" fill="#F2F2F2" stroke="black" stroke-width="0.03"/>
<path d="M34.0175 10.4004C34.04 10.4604 34.055 10.5354 34.055 10.6254C34.055 11.0454 33.4175 11.0604 33.38 11.6904C33.3575 12.0204 33.32 12.2004 33.1025 12.1629C32.8775 12.1254 32.6825 11.7804 32.8925 11.3754" fill="#F2F2F2"/>
<path d="M34.0175 10.4004C34.04 10.4604 34.055 10.5354 34.055 10.6254C34.055 11.0454 33.4175 11.0604 33.38 11.6904C33.3575 12.0204 33.32 12.2004 33.1025 12.1629C32.8775 12.1254 32.6825 11.7804 32.8925 11.3754" stroke="black" stroke-width="0.03" stroke-linecap="round"/>
<path d="M25.8498 10.0769C25.7146 9.97797 25.5522 9.92299 25.3848 9.91937L25.8498 10.0769ZM29.3448 9.29688C29.8548 9.52187 30.1023 10.0469 30.8448 10.0769C31.5648 10.0994 32.0073 11.1419 33.2073 10.4594C33.237 10.4438 33.267 10.4288 33.2973 10.4144M31.0998 9.47687C30.9967 9.66427 30.9597 9.8809 30.9948 10.0919L31.0998 9.47687ZM28.7598 11.6669C27.8598 11.6669 27.6198 12.1244 27.6198 12.5669C27.6198 13.0169 28.0473 13.5944 28.7973 13.5944C29.5473 13.5944 29.9598 13.1294 29.9598 12.6269C29.9598 12.1244 29.4948 11.6594 28.7598 11.6594V11.6669Z" fill="#F2F2F2"/>
<path d="M25.8498 10.0769C25.7146 9.97797 25.5522 9.92299 25.3848 9.91937M29.3448 9.29688C29.8548 9.52187 30.1023 10.0469 30.8448 10.0769C31.5648 10.0994 32.0073 11.1419 33.2073 10.4594C33.237 10.4438 33.267 10.4288 33.2973 10.4144M31.0998 9.47687C30.9967 9.66427 30.9597 9.8809 30.9948 10.0919M28.7598 11.6669C27.8598 11.6669 27.6198 12.1244 27.6198 12.5669C27.6198 13.0169 28.0473 13.5944 28.7973 13.5944C29.5473 13.5944 29.9598 13.1294 29.9598 12.6269C29.9598 12.1244 29.4948 11.6594 28.7598 11.6594V11.6669Z" stroke="black" stroke-width="0.03"/>
<path d="M28.9244 13.5734C28.9094 13.3259 28.4519 13.3634 28.4744 13.1684C28.4894 12.9734 28.7219 12.8984 28.7219 12.6284C28.7219 12.3584 29.1269 12.3359 29.2619 12.5534C29.3969 12.7634 29.8019 13.1759 29.8919 12.9659M29.2619 12.5534C29.138 12.6854 29.0666 12.858 29.0611 13.039C29.0556 13.2199 29.1163 13.3966 29.2319 13.5359M29.5544 12.8759C29.4794 13.0259 29.4644 13.2509 29.5469 13.3859L29.5544 12.8759Z" fill="#F2F2F2"/>
<path d="M28.9244 13.5734C28.9094 13.3259 28.4519 13.3634 28.4744 13.1684C28.4894 12.9734 28.7219 12.8984 28.7219 12.6284C28.7219 12.3584 29.1269 12.3359 29.2619 12.5534M29.2619 12.5534C29.3969 12.7634 29.8019 13.1759 29.8919 12.9659M29.2619 12.5534C29.138 12.6854 29.0666 12.858 29.0611 13.039C29.0556 13.2199 29.1163 13.3966 29.2319 13.5359M29.5544 12.8759C29.4794 13.0259 29.4644 13.2509 29.5469 13.3859" stroke="black" stroke-width="0.03"/>
<path d="M33.1625 12.1713C33.875 12.2313 33.9875 11.4438 33.4625 11.3988M32.285 10.0638C32.045 9.74881 31.475 9.64381 31.46 10.3038" stroke="black" stroke-width="0.03"/>
<path d="M31.3995 11.0594C31.1595 10.4594 30.537 10.3769 30.2145 10.6769C29.937 10.9244 29.9295 11.5769 30.5145 11.7119C30.7245 11.4644 31.1145 11.1494 31.3995 11.0594ZM31.137 10.6844C30.7845 10.3769 30.2745 10.9619 30.7395 11.4944L31.137 10.6844ZM24.5145 12.1469C24.7545 12.0944 25.092 12.2069 25.617 12.4469C25.9395 12.6044 26.9295 12.9344 27.5445 12.6044C26.907 12.8369 26.4195 11.8769 25.9395 11.9894C25.4595 12.1094 24.5745 12.2894 24.207 11.9294C25.107 11.9894 25.5945 11.2694 26.637 11.8919C26.9317 12.0746 27.2729 12.1684 27.6195 12.1619C26.772 11.1419 25.6545 11.7944 25.5345 10.9619C26.0445 11.5169 27.297 10.8419 27.9345 11.8694M25.722 11.1194C25.602 10.9694 25.647 10.8194 25.527 10.7069L25.722 11.1194Z" fill="#F2F2F2"/>
<path d="M31.137 10.6844C30.7845 10.3769 30.2745 10.9619 30.7395 11.4944M24.5145 12.1469C24.7545 12.0944 25.092 12.2069 25.617 12.4469C25.9395 12.6044 26.9295 12.9344 27.5445 12.6044C26.907 12.8369 26.4195 11.8769 25.9395 11.9894C25.4595 12.1094 24.5745 12.2894 24.207 11.9294C25.107 11.9894 25.5945 11.2694 26.637 11.8919C26.9317 12.0746 27.2729 12.1684 27.6195 12.1619C26.772 11.1419 25.6545 11.7944 25.5345 10.9619C26.0445 11.5169 27.297 10.8419 27.9345 11.8694M25.722 11.1194C25.602 10.9694 25.647 10.8194 25.527 10.7069M31.3995 11.0594C31.1595 10.4594 30.537 10.3769 30.2145 10.6769C29.937 10.9244 29.9295 11.5769 30.5145 11.7119C30.7245 11.4644 31.1145 11.1494 31.3995 11.0594Z" stroke="black" stroke-width="0.03"/>
<path d="M32.2851 10.0631C32.0751 9.83808 31.6101 10.0106 31.7451 10.4681C31.7942 10.3602 31.8692 10.2661 31.9634 10.1941C32.0576 10.1222 32.1681 10.0746 32.2851 10.0556V10.0631ZM30.9726 11.3006C31.1018 11.1989 31.246 11.1179 31.4001 11.0606C31.3411 10.9077 31.2428 10.7732 31.1151 10.6706C31.0026 10.5956 30.6876 11.0231 30.9726 11.2931V11.3006Z" fill="black"/>
<path d="M30.4028 10.5134C30.0578 10.2809 29.7353 10.3034 29.6303 10.4909C29.3828 10.4909 29.1728 10.6709 29.1653 11.0309M29.6977 11.1884C29.2852 10.9034 28.7153 11.0084 28.7528 11.6459M28.4977 12.0134C28.7002 11.8484 28.9927 11.7284 29.2177 12.0134M31.6028 11.3834C31.5278 11.4884 31.4678 11.6534 31.5953 11.9084C31.4453 11.6984 31.0552 11.6984 30.6352 12.2384M32.5178 11.3534C32.0153 11.4134 32.0302 11.7434 32.4352 11.8784M28.9477 10.1234C28.5202 10.0409 28.2127 10.2884 28.7977 10.4984M29.7578 9.83839C29.1578 9.68839 28.9178 9.84589 29.1878 9.98839M28.0253 12.2384C28.0103 12.4559 28.1228 12.7334 28.4753 12.4184M28.1453 12.8759C28.1453 12.9359 28.1378 13.0034 28.0928 13.0559M26.7503 10.0559C26.3828 9.94339 26.3153 9.60589 26.7503 9.63589M26.6303 10.8359C26.2252 10.6934 26.2252 10.3034 26.5552 10.3409M27.3802 10.6259C26.9077 10.5134 26.8928 10.1834 27.2453 10.2359M27.4403 9.62089C27.1853 9.60589 26.8027 9.88339 27.4477 10.0484M28.1453 10.1834C27.5528 10.1009 27.5678 10.3334 27.9128 10.4909M28.5878 9.62089C28.1378 9.53839 27.9803 9.80839 28.2878 9.92089M27.1628 11.2934C27.0503 11.2034 26.9602 10.7684 27.4852 10.8959M28.2578 11.1584C27.9053 11.0609 27.5678 11.4134 27.8903 11.6084M28.7302 10.7459C28.3552 10.6709 28.0403 10.7834 28.2428 10.9184" stroke="black" stroke-width="0.03" stroke-linecap="round"/>
<path d="M32.2701 10.0625C32.1566 10.083 32.0496 10.1305 31.9582 10.201C31.8669 10.2715 31.7938 10.3629 31.7451 10.4675" fill="#F2F2F2"/>
<path d="M32.2701 10.0625C32.1566 10.083 32.0496 10.1305 31.9582 10.201C31.8669 10.2715 31.7938 10.3629 31.7451 10.4675" stroke="black" stroke-width="0.03"/>
</g>
</g>
<rect x="1.4" y="1.4" width="37.2" height="37.2" rx="18.6" stroke="#006A4E" stroke-opacity="0.12" stroke-width="1.2"/>
<defs>
<clipPath id="clip0_398_10480">
<rect x="2" y="2" width="36" height="36" rx="18" fill="white"/>
</clipPath>
<clipPath id="clip1_398_10480">
<rect width="48" height="36" fill="white" transform="translate(-4 2)"/>
</clipPath>
</defs>
</svg>
