<svg width="40" height="40" viewBox="0 0 40 40" fill="none" xmlns="http://www.w3.org/2000/svg">
<g clip-path="url(#clip0_398_10574)">
<g clip-path="url(#clip1_398_10574)">
<path fill-rule="evenodd" clip-rule="evenodd" d="M-4 2H44V38H-4V2Z" fill="#229E45"/>
<path fill-rule="evenodd" clip-rule="evenodd" d="M20.1047 34.7008L42.7172 20.0233L19.9697 5.30078L-2.71777 20.0533L20.1047 34.7008Z" fill="#F8E509"/>
<path fill-rule="evenodd" clip-rule="evenodd" d="M29.9596 20C29.9596 25.2725 25.6771 29.5475 20.3896 29.5475C18.5001 29.5445 16.654 28.9814 15.0845 27.9294C13.515 26.8773 12.2926 25.3836 11.5719 23.6369C10.8513 21.8903 10.6646 19.9692 11.0356 18.1165C11.4066 16.2638 12.3185 14.5626 13.6562 13.2282C14.9938 11.8937 16.6971 10.9857 18.5506 10.6191C20.4042 10.2525 22.3249 10.4436 24.0698 11.1684C25.8147 11.8932 27.3056 13.1191 28.354 14.691C29.4023 16.263 29.9611 18.1105 29.9596 20Z" fill="#2B49A3"/>
<path fill-rule="evenodd" clip-rule="evenodd" d="M17.2482 25.7222L16.9482 25.5497L16.6482 25.6997L16.7157 25.3622L16.4757 25.1072L16.8132 25.0697L16.9782 24.7697L17.1207 25.0847L17.4507 25.1447L17.2032 25.3697M23.6532 27.3422L23.3607 27.1697L23.0607 27.3197L23.1207 26.9822L22.8882 26.7347L23.2257 26.6972L23.3832 26.3897L23.5332 26.7047L23.8632 26.7647L23.6082 26.9972M20.8932 24.7472L20.6382 24.5972L20.3757 24.7322L20.4357 24.4397L20.2257 24.2222L20.5257 24.1922L20.6607 23.9222L20.7807 24.1997L21.0732 24.2522L20.8482 24.4547M27.3732 23.8172L27.1182 23.6672L26.8557 23.8022L26.9157 23.5097L26.7132 23.2997L27.0057 23.2697L27.1407 23.0072L27.2607 23.2772L27.5457 23.3297L27.3282 23.5247M20.7807 21.8747L20.4807 21.7097L20.1807 21.8597L20.2407 21.5147L20.0082 21.2672L20.3457 21.2297L20.5032 20.9222L20.6532 21.2372L20.9832 21.2972L20.7282 21.5372M12.8832 18.9122L12.5832 18.7472L12.2832 18.8972L12.3582 18.5522L12.1107 18.3047L12.4557 18.2672L12.6057 17.9597L12.7557 18.2747L13.0857 18.3347L12.8382 18.5672M13.8357 22.8572L13.5357 22.6847L13.2357 22.8347L13.3032 22.4972L13.0632 22.2497L13.4007 22.2047L13.5582 21.9047L13.7082 22.2197L14.0382 22.2797L13.7907 22.5122M23.6907 17.4647L23.4207 17.3147L23.1507 17.4497L23.2107 17.1497L23.0007 16.9247L23.3007 16.8872L23.4432 16.6172L23.5707 16.9022L23.8707 16.9547L23.6457 17.1572M23.1432 20.0297L22.9407 19.9097L22.7232 20.0147L22.7682 19.7747L22.6032 19.6022L22.8432 19.5722L22.9557 19.3622L23.0532 19.5872L23.2782 19.6247L23.1132 19.7897M12.4482 23.5697L12.2457 23.4572L12.0432 23.5547L12.0882 23.3297L11.9307 23.1647L12.1557 23.1347L12.2607 22.9322L12.3582 23.1422L12.5832 23.1872L12.4107 23.3372M27.4257 24.4847L27.2607 24.4022L27.0957 24.4772L27.1332 24.3047L27.0057 24.1847L27.1857 24.1622L27.2757 24.0122L27.3507 24.1622L27.5382 24.1997L27.3957 24.3122" fill="#FFFFEF"/>
<path fill-rule="evenodd" clip-rule="evenodd" d="M12.4482 23.5711L12.2457 23.4586L12.0432 23.5561L12.0882 23.3311L11.9307 23.1661L12.1557 23.1361L12.2607 22.9336L12.3582 23.1436L12.5832 23.1886L12.4107 23.3386" fill="#FFFFEF"/>
<path fill-rule="evenodd" clip-rule="evenodd" d="M12.4482 23.5697L12.2457 23.4572L12.0432 23.5547L12.0882 23.3297L11.9307 23.1647L12.1557 23.1347L12.2607 22.9322L12.3582 23.1422L12.5832 23.1872L12.4107 23.3372M15.5832 23.5622L15.3882 23.4572L15.1857 23.5547L15.2307 23.3297L15.0732 23.1647L15.2982 23.1347L15.4032 22.9322L15.5007 23.1422L15.7257 23.1797L15.5532 23.3372M15.1932 24.6122L14.9982 24.4997L14.7957 24.6047L14.8407 24.3797L14.6832 24.2072L14.9082 24.1772L15.0132 23.9747L15.1107 24.1847L15.3357 24.2297L15.1632 24.3797M21.7182 22.7147L21.5232 22.5947L21.3132 22.6997L21.3582 22.4747L21.2082 22.3022L21.4332 22.2797L21.5382 22.0772L21.6282 22.2872L21.8532 22.3247L21.6882 22.4822M19.8057 22.7072L19.6032 22.5947L19.4007 22.6997L19.4457 22.4747L19.2957 22.3022L19.5207 22.2797L19.6257 22.0697L19.7157 22.2872L19.9407 22.3247L19.7757 22.4822M14.6157 22.0472L14.4882 21.9722L14.3607 22.0322L14.3907 21.8897L14.2932 21.7847L14.4357 21.7697L14.4957 21.6422L14.5557 21.7772L14.6982 21.7997L14.5932 21.8972M27.1782 25.3022L26.9832 25.1897L26.7807 25.2947L26.8257 25.0697L26.6682 24.8972L26.8932 24.8672L26.9982 24.6647L27.0957 24.8747L27.3207 24.9197L27.1482 25.0697M25.5882 25.5197L25.4232 25.4147L25.2507 25.5047L25.2882 25.3097L25.1607 25.1747L25.3482 25.1522L25.4382 24.9797L25.5132 25.1597L25.7007 25.1897L25.5582 25.3247M26.3382 25.4972L26.1882 25.4072L26.0307 25.4822L26.0607 25.3097L25.9407 25.1822L26.1132 25.1597L26.1957 25.0097L26.2707 25.1597L26.4432 25.1972L26.3157 25.3172M28.4982 23.6072L28.3482 23.5322L28.1982 23.6072L28.2357 23.4347L28.1157 23.3072L28.2882 23.2847L28.3632 23.1347L28.4382 23.2922L28.5957 23.3222L28.4757 23.4422M25.5657 26.5772L25.3782 26.4722L25.1757 26.5622L25.2207 26.3522L25.0707 26.2022L25.2957 26.1797L25.3932 25.9922L25.4832 26.1872L25.7082 26.2247L25.5357 26.3672M25.5807 27.4322L25.4007 27.3272L25.2207 27.4247L25.2657 27.2147L25.1232 27.0647L25.3257 27.0347L25.4157 26.8472L25.4982 27.0422L25.7007 27.0797L25.5507 27.2297M24.1257 25.4972L23.9832 25.4072L23.8332 25.4822L23.8632 25.3172L23.7507 25.1897L23.9157 25.1747L23.9907 25.0247L24.0657 25.1747L24.2307 25.2047L24.1107 25.3247M22.7757 25.4972L22.6257 25.4072L22.4757 25.4822L22.5132 25.3172L22.3932 25.1897L22.5657 25.1747L22.6407 25.0247L22.7157 25.1747L22.8732 25.2047L22.7532 25.3247M20.4732 23.4797L20.3232 23.3972L20.1732 23.4722L20.2107 23.2997L20.0907 23.1797L20.2557 23.1572L20.3307 23.0072L20.4057 23.1572L20.5707 23.1947L20.4507 23.3072M20.7282 27.5822L20.6082 27.5147L20.4732 27.5822L20.5032 27.4322L20.4057 27.3272L20.5482 27.3122L20.6157 27.1847L20.6757 27.3197L20.8182 27.3422L20.7132 27.4397M17.2482 20.9447L16.9482 20.7722L16.6482 20.9222L16.7157 20.5847L16.4757 20.3372L16.8132 20.2922L16.9782 19.9922L17.1207 20.3072L17.4507 20.3672L17.2032 20.5997" fill="#FFFFEF"/>
<path fill-rule="evenodd" clip-rule="evenodd" d="M29.3296 23.4349C29.5154 22.9527 29.6609 22.456 29.7646 21.9499C24.6796 17.4874 19.0171 15.1999 11.8621 15.6724C11.6026 16.1745 11.3892 16.6991 11.2246 17.2399C19.6996 16.4299 25.9246 20.1799 29.3296 23.4349Z" fill="#F2F2F2"/>
<path d="M27.0502 20.9292L27.2227 21.0267C27.197 21.0777 27.1891 21.1357 27.2002 21.1917C27.2178 21.246 27.2553 21.2916 27.3052 21.3192C27.3577 21.3567 27.4102 21.3792 27.4552 21.3717C27.5002 21.3717 27.5302 21.3492 27.5527 21.3192C27.5658 21.2993 27.5711 21.2753 27.5677 21.2517C27.5616 21.224 27.5487 21.1983 27.5302 21.1767C27.5152 21.1542 27.4777 21.1017 27.4177 21.0417C27.3561 20.9781 27.3099 20.9011 27.2827 20.8167C27.264 20.7529 27.2689 20.6844 27.2964 20.6238C27.3239 20.5633 27.3723 20.5146 27.4327 20.4867C27.4873 20.4639 27.5476 20.4587 27.6052 20.4717C27.6757 20.488 27.7421 20.5186 27.8002 20.5617C27.9052 20.6367 27.9727 20.7117 27.9952 20.8017C28.0056 20.8438 28.007 20.8876 27.9992 20.9303C27.9914 20.9729 27.9748 21.0135 27.9502 21.0492L27.7702 20.9367C27.7927 20.8917 27.8002 20.8467 27.7852 20.8092C27.7777 20.7717 27.7477 20.7342 27.6952 20.7042C27.6567 20.6732 27.6096 20.6549 27.5602 20.6517C27.5466 20.6513 27.5332 20.6545 27.5213 20.6611C27.5094 20.6677 27.4995 20.6774 27.4927 20.6892C27.4777 20.7117 27.4777 20.7342 27.4852 20.7642C27.4927 20.7942 27.5302 20.8542 27.6052 20.9292C27.6802 21.0042 27.7252 21.0717 27.7552 21.1167C27.782 21.1659 27.7941 21.2217 27.7901 21.2775C27.7862 21.3334 27.7662 21.3869 27.7327 21.4317C27.6976 21.4827 27.648 21.5219 27.5902 21.5442C27.534 21.5701 27.4711 21.578 27.4102 21.5667C27.3427 21.5517 27.2752 21.5217 27.2002 21.4692C27.0877 21.3942 27.0202 21.3117 26.9977 21.2217C26.9733 21.1197 26.9894 21.0121 27.0427 20.9217L27.0502 20.9292ZM26.1802 20.3592L26.3677 20.4567C26.3445 20.5085 26.3392 20.5666 26.3527 20.6217C26.3719 20.6732 26.4093 20.7159 26.4577 20.7417C26.5177 20.7792 26.5627 20.7942 26.6077 20.7867C26.6527 20.7867 26.6827 20.7642 26.7052 20.7267C26.7166 20.7089 26.7219 20.6878 26.7202 20.6667C26.7202 20.6442 26.7052 20.6142 26.6827 20.5917C26.6443 20.5453 26.6043 20.5003 26.5627 20.4567C26.4802 20.3742 26.4277 20.3067 26.4127 20.2467C26.4005 20.2081 26.3968 20.1673 26.402 20.1271C26.4072 20.087 26.4211 20.0484 26.4427 20.0142C26.4712 19.9679 26.5131 19.9313 26.5627 19.9092C26.6143 19.8855 26.6717 19.8776 26.7277 19.8867C26.7971 19.8984 26.8634 19.9239 26.9227 19.9617C27.0352 20.0367 27.1027 20.1117 27.1252 20.1942C27.1389 20.2364 27.1433 20.281 27.1381 20.325C27.1329 20.369 27.1183 20.4114 27.0952 20.4492L26.9077 20.3442C26.9302 20.2917 26.9377 20.2542 26.9227 20.2167C26.9077 20.1792 26.8777 20.1417 26.8252 20.1117C26.7837 20.0819 26.7338 20.0662 26.6827 20.0667C26.6704 20.0675 26.6585 20.0714 26.648 20.0779C26.6376 20.0845 26.6289 20.0935 26.6227 20.1042C26.6077 20.1267 26.6077 20.1492 26.6152 20.1792C26.6227 20.2092 26.6677 20.2692 26.7427 20.3442C26.8177 20.4192 26.8702 20.4792 26.8927 20.5242C26.9228 20.5713 26.9388 20.6259 26.9388 20.6817C26.9388 20.7375 26.9228 20.7922 26.8927 20.8392C26.8604 20.8915 26.8135 20.9333 26.7577 20.9592C26.7015 20.9851 26.6386 20.993 26.5777 20.9817C26.5005 20.9687 26.4267 20.9406 26.3602 20.8992C26.2633 20.8475 26.1886 20.7622 26.1502 20.6592C26.1213 20.5591 26.132 20.4516 26.1802 20.3592ZM25.1152 20.0742L25.6627 19.1742L26.3227 19.5867L26.2327 19.7367L25.7527 19.4367L25.6327 19.6392L26.0827 19.9167L25.9852 20.0667L25.5352 19.7892L25.3852 20.0367L25.8877 20.3367L25.7977 20.4867L25.1227 20.0742H25.1152ZM23.5627 18.7992L23.6452 18.6492L24.0502 18.8517L23.8627 19.2267C23.8027 19.2417 23.7277 19.2492 23.6377 19.2417C23.5513 19.2322 23.4674 19.2068 23.3902 19.1667C23.2995 19.1225 23.2219 19.0553 23.1652 18.9717C23.1137 18.8941 23.0874 18.8024 23.0902 18.7092C23.094 18.6123 23.1197 18.5174 23.1652 18.4317C23.2103 18.3415 23.2774 18.2641 23.3602 18.2067C23.4395 18.1519 23.5339 18.1231 23.6302 18.1242C23.7052 18.1242 23.7802 18.1467 23.8702 18.1992C23.9902 18.2517 24.0652 18.3267 24.1027 18.4092C24.1417 18.4911 24.1497 18.5844 24.1252 18.6717L23.9227 18.6117C23.9351 18.5615 23.9298 18.5085 23.9077 18.4617C23.8852 18.4167 23.8477 18.3867 23.7877 18.3567C23.7528 18.3368 23.714 18.3244 23.6739 18.3206C23.6338 18.3167 23.5934 18.3213 23.5552 18.3342C23.4802 18.3567 23.4127 18.4242 23.3602 18.5292C23.3077 18.6342 23.2852 18.7317 23.3077 18.8142C23.3181 18.8533 23.3369 18.8897 23.3628 18.9208C23.3887 18.9519 23.4211 18.977 23.4577 18.9942C23.4952 19.0167 23.5402 19.0317 23.5852 19.0317C23.63 19.0385 23.6755 19.0385 23.7202 19.0317L23.7802 18.9117L23.5627 18.7992ZM16.7977 17.1267L16.9477 16.0767L17.2627 16.1292L17.3452 16.8642L17.6377 16.1892L17.9527 16.2342L17.8027 17.2692L17.6002 17.2392L17.7277 16.4217L17.3977 17.2092L17.1952 17.1792L17.1127 16.3317L16.9927 17.1567L16.7977 17.1267ZM15.7402 16.9992L15.8377 15.9492L16.6102 16.0242L16.5952 16.2042L16.0327 16.1517L16.0102 16.3767L16.5352 16.4292L16.5127 16.6092L15.9877 16.5567L15.9652 16.8417L16.5502 16.8942L16.5352 17.0742L15.7402 16.9992Z" fill="#309E3A"/>
<path d="M12.2371 16.3486C12.2371 16.2361 12.2596 16.1536 12.2896 16.0786C12.3159 16.0253 12.3515 15.977 12.3946 15.9361C12.4331 15.8973 12.479 15.8667 12.5296 15.8461C12.6046 15.8236 12.6796 15.8086 12.7546 15.8086C12.9121 15.8086 13.0321 15.8686 13.1296 15.9586C13.176 16.0159 13.2106 16.0819 13.2312 16.1528C13.2518 16.2236 13.258 16.2978 13.2496 16.3711C13.2496 16.5361 13.1971 16.6711 13.0996 16.7686C13.0495 16.8149 12.9903 16.8502 12.9257 16.8721C12.8611 16.8941 12.7926 16.9023 12.7246 16.8961C12.6576 16.8968 12.5911 16.8838 12.5292 16.858C12.4674 16.8323 12.4114 16.7942 12.3646 16.7461C12.2713 16.6356 12.2255 16.4927 12.2371 16.3486Z" fill="#309E3A"/>
<path d="M12.4551 16.3484C12.4551 16.4609 12.4776 16.5509 12.5301 16.6184C12.5826 16.6784 12.6501 16.7159 12.7401 16.7159C12.779 16.7186 12.8181 16.7127 12.8544 16.6984C12.8907 16.6841 12.9234 16.6619 12.9501 16.6334C13.0026 16.5734 13.0251 16.4834 13.0326 16.3559C13.0326 16.2359 13.0176 16.1459 12.9576 16.0859C12.9331 16.0557 12.9023 16.0313 12.8673 16.0144C12.8323 15.9975 12.7939 15.9887 12.7551 15.9884C12.7156 15.9872 12.6764 15.9946 12.6401 16.0101C12.6038 16.0257 12.5714 16.049 12.5451 16.0784C12.4851 16.1384 12.4626 16.2284 12.4551 16.3484Z" fill="#F7FFFF"/>
<path d="M13.4746 16.8879L13.4896 15.8379H13.9396C14.0521 15.8379 14.1271 15.8529 14.1796 15.8754C14.2321 15.8904 14.2696 15.9279 14.2996 15.9729C14.3296 16.0179 14.3446 16.0779 14.3446 16.1454C14.3452 16.2175 14.3184 16.2872 14.2696 16.3404C14.2142 16.3923 14.1428 16.424 14.0671 16.4304L14.1796 16.5204C14.2096 16.5504 14.2471 16.6104 14.2921 16.6929L14.4196 16.9029H14.1646L14.0146 16.6629L13.9096 16.5129C13.8914 16.4923 13.8682 16.4767 13.8421 16.4679C13.808 16.4579 13.7726 16.4529 13.7371 16.4529H13.6921V16.8879H13.4746Z" fill="#309E3A"/>
<path d="M13.6992 16.2876H13.8492C13.9542 16.2876 14.0217 16.2876 14.0442 16.2726C14.0667 16.2726 14.0892 16.2501 14.1042 16.2351C14.1192 16.2201 14.1267 16.1826 14.1267 16.1601C14.1267 16.1151 14.1192 16.0851 14.0967 16.0701C14.0817 16.0476 14.0517 16.0326 14.0217 16.0251H13.8717L13.6992 16.0176V16.2801V16.2876Z" fill="#F2F2F2"/>
<path d="M14.6746 15.8906L15.0646 15.9131C15.1471 15.9131 15.2146 15.9206 15.2596 15.9356C15.3179 15.9568 15.3697 15.993 15.4096 16.0406C15.4528 16.0931 15.4835 16.1546 15.4996 16.2206C15.5221 16.2881 15.5296 16.3706 15.5221 16.4681C15.522 16.5447 15.5093 16.6207 15.4846 16.6931C15.4546 16.7681 15.4096 16.8281 15.3571 16.8731C15.3134 16.9091 15.2621 16.9348 15.2071 16.9481C15.1621 16.9631 15.0946 16.9631 15.0196 16.9631L14.6221 16.9406L14.6746 15.8906Z" fill="#309E3A"/>
<path d="M14.8773 16.0781L14.8398 16.7756H15.1248C15.1623 16.7756 15.1923 16.7606 15.2148 16.7381C15.2373 16.7156 15.2598 16.6856 15.2748 16.6406C15.2898 16.5956 15.3048 16.5281 15.3048 16.4456L15.2973 16.2581C15.2866 16.2186 15.266 16.1824 15.2373 16.1531C15.2124 16.1281 15.1814 16.11 15.1473 16.1006C15.0906 16.088 15.0329 16.0805 14.9748 16.0781H14.8773Z" fill="#F2F2F2"/>
<path d="M19.8193 17.7661L20.0668 16.7461L20.3968 16.8211L20.6368 16.8961C20.6893 16.9261 20.7343 16.9711 20.7568 17.0386C20.7868 17.0986 20.7868 17.1661 20.7718 17.2486C20.7568 17.3086 20.7343 17.3611 20.6968 17.3986C20.6693 17.4315 20.6349 17.458 20.596 17.4762C20.5571 17.4943 20.5147 17.5037 20.4718 17.5036C20.4193 17.5036 20.3443 17.4886 20.2468 17.4661L20.1193 17.4286L20.0293 17.8186L19.8193 17.7661Z" fill="#309E3A"/>
<path d="M20.2241 16.9707L20.1641 17.2557L20.2766 17.2857C20.3516 17.3007 20.4116 17.3157 20.4416 17.3082C20.4707 17.3042 20.4979 17.2912 20.5194 17.271C20.5409 17.2509 20.5556 17.2246 20.5616 17.1957C20.5616 17.1582 20.5616 17.1282 20.5466 17.0982C20.5301 17.0677 20.5036 17.0439 20.4716 17.0307L20.3291 16.9932L20.2316 16.9707H20.2241Z" fill="#F2F2F2"/>
<path d="M20.7949 18.0584L21.1474 17.0684L21.5599 17.2184C21.6724 17.2559 21.7399 17.2934 21.7849 17.3234C21.8224 17.3609 21.8524 17.3984 21.8599 17.4584C21.8674 17.5184 21.8749 17.5709 21.8599 17.6309C21.8299 17.7059 21.7849 17.7584 21.7249 17.7959C21.6649 17.8259 21.5899 17.8334 21.4999 17.8184C21.5299 17.8559 21.5599 17.8934 21.5749 17.9384L21.6349 18.1409L21.6799 18.3734L21.4474 18.2909L21.3724 18.0209C21.3588 17.9598 21.3413 17.8997 21.3199 17.8409C21.31 17.8175 21.2945 17.7969 21.2749 17.7809C21.2599 17.7584 21.2299 17.7434 21.1774 17.7284L21.1399 17.7134L20.9899 18.1334L20.7949 18.0584Z" fill="#309E3A"/>
<path d="M21.1999 17.5561L21.3424 17.6086C21.4399 17.6461 21.4999 17.6611 21.5299 17.6611C21.5524 17.6611 21.5749 17.6611 21.5974 17.6386C21.6199 17.6236 21.6349 17.6011 21.6424 17.5711C21.6574 17.5411 21.6574 17.5111 21.6424 17.4811C21.6313 17.452 21.6099 17.428 21.5824 17.4136L21.4324 17.3611L21.2824 17.3086L21.1924 17.5561H21.1999Z" fill="#F2F2F2"/>
<path d="M22.025 18.0202C22.0508 17.9324 22.0942 17.8508 22.1525 17.7802C22.1904 17.735 22.2361 17.6969 22.2875 17.6677C22.334 17.6415 22.3848 17.6237 22.4375 17.6152C22.5125 17.6152 22.5875 17.6152 22.67 17.6452C22.737 17.6618 22.7998 17.6925 22.8541 17.7351C22.9084 17.7778 22.953 17.8315 22.985 17.8927C23.045 18.0127 23.045 18.1552 23 18.3202C22.9629 18.462 22.8712 18.5833 22.745 18.6577C22.6325 18.7252 22.4975 18.7327 22.355 18.6877C22.2881 18.6707 22.2256 18.6399 22.1713 18.5973C22.1171 18.5547 22.0723 18.5012 22.04 18.4402C22.0099 18.3747 21.9932 18.3038 21.9906 18.2317C21.988 18.1597 21.9997 18.0878 22.025 18.0202Z" fill="#309E3A"/>
<path d="M22.2344 18.08C22.2044 18.1925 22.1969 18.29 22.2344 18.365C22.2719 18.44 22.3244 18.485 22.4069 18.515C22.4819 18.5375 22.5569 18.53 22.6319 18.485C22.7069 18.4475 22.7519 18.365 22.7894 18.245C22.8269 18.1325 22.8269 18.0425 22.7894 17.9675C22.7746 17.9319 22.7521 17.9 22.7236 17.8741C22.6951 17.8482 22.6612 17.8289 22.6244 17.8175C22.5875 17.8048 22.5482 17.8002 22.5094 17.8041C22.4706 17.808 22.433 17.8202 22.3994 17.84C22.3244 17.885 22.2719 17.96 22.2344 18.08Z" fill="#F2F2F2"/>
<path d="M24.0723 19.4827L24.5523 18.5527L24.9498 18.7552C25.0247 18.7912 25.0931 18.8393 25.1523 18.8977C25.1898 18.9352 25.2123 18.9802 25.2123 19.0402C25.2123 19.1002 25.2123 19.1527 25.1823 19.2052C25.1534 19.2727 25.0997 19.3264 25.0323 19.3552C24.9573 19.3702 24.8823 19.3702 24.7998 19.3402C24.8298 19.3852 24.8448 19.4302 24.8598 19.4677C24.8748 19.5127 24.8823 19.5802 24.8898 19.6777L24.9048 19.9177L24.6798 19.8052L24.6498 19.5277C24.6462 19.4648 24.6387 19.4022 24.6273 19.3402C24.6222 19.3122 24.6091 19.2862 24.5898 19.2652L24.4998 19.2127L24.4623 19.1902L24.2598 19.5802L24.0723 19.4827Z" fill="#309E3A"/>
<path d="M24.5371 19.0408L24.6796 19.1158C24.7696 19.1608 24.8296 19.1908 24.8521 19.1908C24.8746 19.1908 24.9046 19.1908 24.9271 19.1758C24.9496 19.1683 24.9646 19.1458 24.9796 19.1158C24.9946 19.0858 25.0021 19.0558 24.9946 19.0258C24.9854 18.9959 24.967 18.9697 24.9421 18.9508C24.8982 18.9238 24.8532 18.8988 24.8071 18.8758L24.6571 18.8008L24.5371 19.0408Z" fill="#F2F2F2"/>
<path d="M27.9571 21.4017C28.0056 21.3246 28.0694 21.2582 28.1446 21.2067C28.195 21.1744 28.2509 21.1515 28.3096 21.1392C28.364 21.1281 28.4201 21.1281 28.4746 21.1392C28.5496 21.1542 28.6171 21.1842 28.6846 21.2292C28.7429 21.2656 28.7931 21.3137 28.8318 21.3705C28.8706 21.4273 28.8971 21.4916 28.9096 21.5592C28.9321 21.6867 28.8946 21.8292 28.8046 21.9717C28.7293 22.0956 28.6079 22.1846 28.4671 22.2192C28.3999 22.2337 28.3305 22.2338 28.2633 22.2196C28.1961 22.2054 28.1326 22.1771 28.0771 22.1367C28.0187 22.1003 27.9686 22.0522 27.9298 21.9954C27.8911 21.9386 27.8646 21.8743 27.8521 21.8067C27.8296 21.6717 27.8671 21.5367 27.9571 21.4017Z" fill="#309E3A"/>
<path d="M28.1445 21.522C28.0695 21.6195 28.047 21.7095 28.062 21.792C28.0675 21.83 28.0811 21.8664 28.1018 21.8987C28.1225 21.9311 28.1498 21.9586 28.182 21.9795C28.257 22.032 28.332 22.047 28.407 22.0245C28.482 22.002 28.557 21.9495 28.6245 21.8445C28.692 21.7395 28.722 21.6495 28.707 21.5745C28.6995 21.4995 28.6545 21.432 28.587 21.3795C28.5195 21.327 28.437 21.3195 28.362 21.342C28.287 21.357 28.212 21.417 28.137 21.522H28.1445Z" fill="#F2F2F2"/>
<path d="M18.6348 17.3385L18.8073 16.6035L19.3473 16.731L19.3248 16.851L18.9273 16.761L18.8898 16.926L19.2573 17.0085L19.2273 17.136L18.8598 17.046L18.8148 17.2485L19.2273 17.346L19.1973 17.466L18.6348 17.3385Z" fill="#309E3A"/>
</g>
</g>
<rect x="1.4" y="1.4" width="37.2" height="37.2" rx="18.6" stroke="#006A4E" stroke-opacity="0.12" stroke-width="1.2"/>
<defs>
<clipPath id="clip0_398_10574">
<rect x="2" y="2" width="36" height="36" rx="18" fill="white"/>
</clipPath>
<clipPath id="clip1_398_10574">
<rect width="48" height="36" fill="white" transform="translate(-4 2)"/>
</clipPath>
</defs>
</svg>
