<svg width="148" height="143" viewBox="0 0 148 143" fill="none" xmlns="http://www.w3.org/2000/svg">
<mask id="mask0_59053_1863" style="mask-type:luminance" maskUnits="userSpaceOnUse" x="10" y="75" width="131" height="64">
<path d="M134.633 75.7056C132.499 106.995 106.54 131.725 74.8166 131.725C43.0926 131.725 17.1338 107.005 14.9998 75.7056H10.3389V138.856H140.42V75.7056H134.623H134.633Z" fill="white"/>
</mask>
<g mask="url(#mask0_59053_1863)">
<mask id="mask1_59053_1863" style="mask-type:luminance" maskUnits="userSpaceOnUse" x="33" y="65" width="103" height="64">
<path d="M110.829 128.98C111.508 128.631 112.177 128.281 112.825 127.91C134.165 115.895 134.643 96.0702 113.908 83.6309C93.1621 71.1916 59.0599 70.842 37.7195 82.8574L33.5576 75.7054C57.2656 62.3549 95.1793 62.7363 118.229 76.5636C141.279 90.3909 140.737 112.419 117.029 125.77C116.307 126.183 115.564 126.575 114.81 126.957C113.483 127.635 112.167 128.302 110.84 128.98H110.829Z" fill="white"/>
</mask>
<g mask="url(#mask1_59053_1863)">
<path d="M110.829 128.98L114.8 126.957C115.553 126.575 116.297 126.172 117.019 125.77C140.727 112.419 141.268 90.3909 118.218 76.5636C95.1686 62.7363 57.2655 62.3549 33.5469 75.7054L37.7088 82.8574C59.0492 70.842 93.1619 71.1916 113.897 83.6309C134.643 96.0702 134.155 115.895 112.814 127.91C112.156 128.281 111.498 128.631 110.818 128.98H110.829Z" fill="#E3E2AF"/>
</g>
<mask id="mask2_59053_1863" style="mask-type:luminance" maskUnits="userSpaceOnUse" x="37" y="73" width="79" height="12">
<path d="M114.577 84.023C114.832 84.1925 115.087 84.3514 115.352 84.521C114.885 84.2137 114.407 83.917 113.919 83.6309C93.173 71.1916 59.0709 70.842 37.7305 82.8574L38.4524 82.3912C59.3788 70.6089 92.8333 70.9479 113.176 83.1435C113.653 83.4296 114.131 83.7263 114.588 84.023H114.577Z" fill="white"/>
</mask>
<g mask="url(#mask2_59053_1863)">
<path d="M114.577 84.023L115.352 84.521C114.885 84.2137 114.407 83.917 113.919 83.6309C93.173 71.1916 59.0709 70.842 37.7305 82.8574L38.4524 82.3912C59.3788 70.6089 92.8333 70.9479 113.176 83.1435C113.653 83.4296 114.131 83.7263 114.588 84.023H114.577Z" fill="#E3E2AF"/>
</g>
<mask id="mask3_59053_1863" style="mask-type:luminance" maskUnits="userSpaceOnUse" x="15" y="75" width="25" height="54">
<path d="M35.639 126.734C34.5136 126.151 33.42 125.547 32.3583 124.901C9.30859 111.074 9.85007 89.0453 33.5581 75.6948L37.72 82.8469C16.3796 94.8623 15.9018 114.687 36.637 127.126C37.5926 127.698 38.58 128.249 39.5886 128.768C38.2721 128.09 36.9555 127.402 35.6284 126.723L35.639 126.734Z" fill="white"/>
</mask>
<g mask="url(#mask3_59053_1863)">
<path d="M37.72 82.8576L33.5581 75.7056C9.85007 89.0561 9.30859 111.084 32.3583 124.912C33.42 125.547 34.5136 126.162 35.639 126.745L39.5992 128.79C38.5906 128.271 37.6032 127.72 36.6476 127.147C15.9018 114.708 16.3902 94.8837 37.7306 82.8682L37.72 82.8576Z" fill="#E3E2AF"/>
</g>
<mask id="mask4_59053_1863" style="mask-type:luminance" maskUnits="userSpaceOnUse" x="35" y="82" width="4" height="3">
<path d="M35.3096 84.2987C35.5644 84.1291 35.8298 83.9702 36.0846 83.8007C36.8384 83.3133 37.6241 82.8471 38.4522 82.3809L37.7303 82.8471C36.8915 83.3133 36.0952 83.8007 35.3202 84.2881L35.3096 84.2987Z" fill="white"/>
</mask>
<g mask="url(#mask4_59053_1863)">
<path d="M38.4416 82.3914L37.7197 82.8577C36.8809 83.3239 36.0846 83.8113 35.3096 84.2987L36.0846 83.8007C36.8384 83.3133 37.6241 82.8471 38.4522 82.3809L38.4416 82.3914Z" fill="#E3E2AF"/>
</g>
<mask id="mask5_59053_1863" style="mask-type:luminance" maskUnits="userSpaceOnUse" x="21" y="83" width="109" height="54">
<path d="M36.0849 83.811C17.5155 95.6888 17.8447 114.093 37.3908 125.823C57.7331 138.029 91.1877 138.368 112.114 126.586C132.541 115.079 133.486 96.2715 114.588 84.0335C114.843 84.2031 115.097 84.362 115.363 84.5315C134.633 97.0132 133.677 116.191 112.847 127.921C91.5062 139.936 57.3934 139.587 36.6582 127.147C16.7299 115.195 16.4007 96.4199 35.331 84.309C35.5859 84.1395 35.8513 83.9806 36.1061 83.811H36.0849Z" fill="white"/>
</mask>
<g mask="url(#mask5_59053_1863)">
<path d="M36.0846 83.811L35.3096 84.309C16.3793 96.4199 16.7084 115.185 36.6367 127.147C57.3825 139.587 91.4847 139.936 112.825 127.921C133.656 116.191 134.611 97.0132 115.341 84.5315L114.566 84.0335C133.465 96.2715 132.53 115.079 112.092 126.586C91.1662 138.368 57.7117 138.029 37.3693 125.823C17.8232 114.104 17.4941 95.6888 36.0634 83.811H36.0846Z" fill="#E3E2AF"/>
</g>
<mask id="mask6_59053_1863" style="mask-type:luminance" maskUnits="userSpaceOnUse" x="16" y="75" width="23" height="51">
<path d="M34.4495 75.25L38.4522 82.3915C17.5259 94.1738 17.0481 113.617 37.3905 125.812L33.271 123.407C10.7097 109.877 11.2405 88.3144 34.4495 75.25Z" fill="white"/>
</mask>
<g mask="url(#mask6_59053_1863)">
<path d="M34.4495 75.25L38.4522 82.3915C17.5259 94.1738 17.0481 113.617 37.3905 125.812L33.271 123.407C10.7097 109.877 11.2405 88.3144 34.4495 75.25Z" fill="#47CC4D"/>
</g>
<mask id="mask7_59053_1863" style="mask-type:luminance" maskUnits="userSpaceOnUse" x="34" y="65" width="100" height="62">
<path d="M116.138 124.255L112.114 126.575C133.041 114.793 133.518 95.3496 113.176 83.1435C92.8337 70.9373 59.3792 70.5982 38.4528 82.3912L34.4502 75.2497C57.6592 62.1853 94.7554 62.5561 117.317 76.0868C139.878 89.6174 139.347 111.18 116.138 124.244V124.255Z" fill="white"/>
</mask>
<g mask="url(#mask7_59053_1863)">
<path d="M116.138 124.255L112.114 126.575C133.041 114.793 133.518 95.3496 113.176 83.1435C92.8337 70.9373 59.3792 70.5982 38.4528 82.3912L34.4502 75.2497C57.6592 62.1853 94.7554 62.5561 117.317 76.0868C139.878 89.6174 139.347 111.18 116.138 124.244V124.255Z" fill="#47CC4D"/>
</g>
<path d="M39.5891 128.779C38.2726 128.101 36.956 127.412 35.6289 126.734C58.1159 138.347 92.1225 138.496 114.79 126.957C113.463 127.635 112.146 128.303 110.819 128.981C90.4238 139.375 59.8147 139.237 39.5785 128.779H39.5891Z" fill="#59FF60"/>
<mask id="mask8_59053_1863" style="mask-type:luminance" maskUnits="userSpaceOnUse" x="35" y="126" width="80" height="11">
<path d="M39.5891 128.779C38.2726 128.101 36.956 127.412 35.6289 126.734C58.1159 138.347 92.1225 138.496 114.79 126.957C113.463 127.635 112.146 128.303 110.819 128.981C90.4238 139.375 59.8147 139.237 39.5785 128.779H39.5891Z" fill="white"/>
</mask>
<g mask="url(#mask8_59053_1863)">
<path d="M39.5891 128.779L35.6289 126.734C58.1159 138.347 92.1225 138.496 114.79 126.957L110.819 128.981C90.4238 139.375 59.8147 139.237 39.5785 128.779H39.5891Z" fill="#59FF60"/>
</g>
<mask id="mask9_59053_1863" style="mask-type:luminance" maskUnits="userSpaceOnUse" x="33" y="123" width="84" height="13">
<path d="M33.2715 123.407C55.8328 136.938 92.929 137.309 116.138 124.244L112.114 126.565C91.1878 138.347 57.7333 138.008 37.3909 125.802C36.1593 125.081 34.5137 124.117 33.2715 123.396V123.407Z" fill="white"/>
</mask>
<g mask="url(#mask9_59053_1863)">
<path d="M33.2715 123.407L37.3909 125.812C57.7333 138.019 91.1878 138.358 112.114 126.575L116.138 124.255C92.929 137.319 55.8328 136.948 33.2715 123.418V123.407Z" fill="#E3E2AF"/>
</g>
<path d="M113.738 74.1162C114.015 74.254 114.291 74.4023 114.577 74.54C115.83 75.1758 117.051 75.8539 118.23 76.5532C141.279 90.3805 140.738 112.409 117.03 125.759C93.3218 139.11 55.4081 138.728 32.3583 124.901C9.30859 111.074 9.85007 89.0455 33.5581 75.695L34.4499 75.2499C11.2409 88.3144 10.7207 109.877 33.2714 123.407C55.8328 136.938 92.9289 137.309 116.138 124.244C139.347 111.18 139.867 89.6176 117.316 76.087C116.159 75.3983 114.97 74.7414 113.749 74.1162H113.738Z" fill="#50E657"/>
<mask id="mask10_59053_1863" style="mask-type:luminance" maskUnits="userSpaceOnUse" x="15" y="74" width="121" height="62">
<path d="M113.738 74.1162C114.015 74.254 114.291 74.4023 114.577 74.54C115.83 75.1758 117.051 75.8539 118.23 76.5532C141.279 90.3805 140.738 112.409 117.03 125.759C93.3218 139.11 55.4081 138.728 32.3583 124.901C9.30859 111.074 9.85007 89.0455 33.5581 75.695L34.4499 75.2499C11.2409 88.3144 10.7207 109.877 33.2714 123.407C55.8328 136.938 92.9289 137.309 116.138 124.244C139.347 111.18 139.867 89.6176 117.316 76.087C116.159 75.3983 114.97 74.7414 113.749 74.1162H113.738Z" fill="white"/>
</mask>
<g mask="url(#mask10_59053_1863)">
<path d="M33.5582 75.7057L34.45 75.2607C11.241 88.3251 10.7208 109.887 33.2715 123.418C55.8329 136.949 92.9291 137.319 116.138 124.255C139.347 111.191 139.867 89.6284 117.317 76.0977C116.159 75.409 114.97 74.7521 113.749 74.127L114.588 74.5508C115.841 75.1865 117.062 75.8646 118.24 76.5639C141.29 90.3913 140.749 112.42 117.041 125.77C93.3325 139.121 55.4188 138.739 32.3691 124.912C9.31934 111.085 9.86081 89.0562 33.5688 75.7057H33.5582Z" fill="#50E657"/>
</g>
</g>
<path d="M74.8169 131.724C107.941 131.724 134.793 104.779 134.793 71.5412C134.793 38.3029 107.941 11.3579 74.8169 11.3579C41.693 11.3579 14.8408 38.3029 14.8408 71.5412C14.8408 104.779 41.693 131.724 74.8169 131.724Z" fill="url(#paint0_radial_59053_1863)"/>
<mask id="mask11_59053_1863" style="mask-type:luminance" maskUnits="userSpaceOnUse" x="4" y="22" width="144" height="93">
<path d="M110.065 22.8647C123.411 32.6127 132.595 47.7327 134.442 65.0778H15.1908C17.0382 47.7433 26.222 32.6127 39.5677 22.8647H4.77539V110.766C4.77539 116.032 148 116.032 148 110.766V22.8647H110.055H110.065Z" fill="white"/>
</mask>
<g mask="url(#mask11_59053_1863)">
<mask id="mask12_59053_1863" style="mask-type:luminance" maskUnits="userSpaceOnUse" x="9" y="27" width="133" height="47">
<path d="M141.014 65.6813L140.993 73.6387C141.025 63.7741 134.527 53.8884 121.532 46.3549C95.7003 31.3938 53.9751 31.3938 28.3242 46.3549C15.573 53.793 9.19213 63.5198 9.1709 73.2572L9.19213 65.2999C9.22398 55.5625 15.6049 45.8357 28.3454 38.3975C53.9963 23.4365 95.7322 23.4365 121.553 38.3975C134.548 45.931 141.046 55.8062 141.014 65.6813Z" fill="white"/>
</mask>
<g mask="url(#mask12_59053_1863)">
<path d="M141.014 65.6813L140.993 73.6387C141.025 63.7741 134.527 53.8884 121.532 46.3549C95.7003 31.3938 53.9751 31.3938 28.3242 46.3549C15.573 53.793 9.19213 63.5198 9.1709 73.2572L9.19213 65.2999C9.22398 55.5625 15.6049 45.8357 28.3454 38.3975C53.9963 23.4365 95.7322 23.4365 121.553 38.3975C134.548 45.931 141.046 55.8062 141.014 65.6813Z" fill="#47CC4D"/>
</g>
<mask id="mask13_59053_1863" style="mask-type:luminance" maskUnits="userSpaceOnUse" x="7" y="65" width="136" height="48">
<path d="M142.692 65.6816L142.67 73.6389C142.639 83.6306 136.098 93.6011 123.029 101.219C96.7196 116.562 53.9326 116.562 27.4536 101.219C14.1291 93.5058 7.47217 83.3657 7.50402 73.2469L7.52525 65.2896C7.4934 75.4084 14.1503 85.5378 27.4748 93.2621C53.9539 108.605 96.7408 108.605 123.05 93.2621C136.12 85.6438 142.66 75.6733 142.692 65.6816Z" fill="white"/>
</mask>
<g mask="url(#mask13_59053_1863)">
<path d="M142.692 65.6816L142.67 73.6389C142.639 83.6306 136.098 93.6011 123.029 101.219C96.7196 116.562 53.9326 116.562 27.4536 101.219C14.1291 93.5058 7.47217 83.3657 7.50402 73.2469L7.52525 65.2896C7.4934 75.4084 14.1503 85.5378 27.4748 93.2621C53.9539 108.605 96.7408 108.605 123.05 93.2621C136.12 85.6438 142.66 75.6733 142.692 65.6816Z" fill="#59FF60"/>
</g>
<path d="M122.742 37.709C149.221 53.0515 149.359 77.9195 123.05 93.262C96.7404 108.604 53.9535 108.604 27.4744 93.262C0.995338 77.9195 0.846697 53.0515 27.1665 37.709C53.4651 22.3665 96.2626 22.3665 122.742 37.709ZM28.6423 92.5733C54.4737 107.534 96.199 107.534 121.86 92.5733C147.511 77.6122 147.373 53.3588 121.553 38.3977C95.7212 23.4367 53.9959 23.4367 28.345 38.3977C2.68346 53.3588 2.82148 77.6122 28.6529 92.5733H28.6423Z" fill="#50E657"/>
</g>
<mask id="mask14_59053_1863" style="mask-type:luminance" maskUnits="userSpaceOnUse" x="10" y="4" width="125" height="79">
<path d="M10.3281 4.95801V82.8572H134.782V4.95801H10.3281ZM29.8636 31.7014C40.8523 19.2303 56.9054 11.3578 74.7952 11.3578C92.685 11.3578 108.738 19.2303 119.727 31.7014H29.8636Z" fill="white"/>
</mask>
<g mask="url(#mask14_59053_1863)">
<path d="M127.913 32.6761L124.155 27.7915C121.628 24.5069 118.082 21.413 113.516 18.6687C92.6111 6.13405 58.233 5.78439 36.7227 17.8846L33.8242 22.0169C56.9695 8.98428 93.9595 9.36572 116.457 22.854C121.373 25.7996 125.184 29.1266 127.902 32.6655L127.913 32.6761Z" fill="#E3E2AF"/>
<path d="M34.7479 23.1932L33.8348 22.0277C10.6895 35.0603 10.1693 56.5589 32.6669 70.0471C55.1646 83.5354 92.1546 83.9168 115.3 70.8842C138.445 57.8515 138.965 36.353 116.468 22.8647C93.9701 9.37646 56.9801 8.99502 33.8348 22.0277L34.7479 23.1932C57.3729 10.4572 93.5348 10.8175 115.523 24.009C137.511 37.2006 137.001 58.2118 114.376 70.9583C91.7511 83.6943 55.5893 83.3235 33.6012 70.1425C11.6132 56.9509 12.1228 35.9397 34.7479 23.2038V23.1932Z" fill="#E3E2AF"/>
<path d="M37.7422 19.2939L34.7482 23.1825C29.8962 25.9162 26.0528 29.0313 23.2393 32.369L27.1039 27.7917C29.7051 24.7083 33.2618 21.8157 37.7528 19.2939H37.7422Z" fill="#9DBA79"/>
<path d="M122.137 28.0777L125.97 32.6763C123.369 29.5611 119.897 26.6261 115.523 24.009C93.535 10.8174 57.3731 10.4572 34.748 23.1932L37.7421 19.3046C58.6684 7.52219 92.1229 7.86125 112.465 20.0674C116.51 22.4938 119.727 25.2063 122.137 28.0883V28.0777Z" fill="#47CC4D"/>
<path d="M25.0756 27.5053L21.2959 32.3687C24.2262 28.5966 27.921 24.7928 33.3463 21.7412L33.5162 21.6777L36.7226 17.895C31.6794 20.7347 27.8042 23.9981 25.0756 27.5053Z" fill="#E3E2AF"/>
<path d="M27.0932 27.8022L23.2286 32.3796C12.93 44.5963 16.3275 59.7799 33.5909 70.1318C55.5789 83.3234 91.7408 83.6837 114.366 70.9477C132.489 60.7441 136.428 45.2215 125.96 32.6762L122.127 28.0777C131.799 39.6906 128.168 54.0477 111.404 63.4884C90.4774 75.2707 57.0229 74.9317 36.6805 62.7255C20.7017 53.147 17.5697 39.0972 27.0932 27.8022Z" fill="#E3E2AF"/>
<path d="M21.2965 32.3688L25.0762 27.5054C16.1684 38.9593 19.6296 52.9243 35.6402 62.524C56.5453 75.0586 90.9235 75.4083 112.434 63.2975C129.241 53.8355 133.211 39.5526 124.166 27.7915L127.924 32.676C137.66 45.3378 133.392 60.7015 115.3 70.8839C92.1551 83.9166 55.1651 83.5351 32.6674 70.0469C15.4465 59.7161 11.7199 44.6915 21.3071 32.3688H21.2965Z" fill="#59FF60"/>
<path d="M36.7227 17.895L37.742 19.2936C16.8156 31.076 16.3379 50.519 36.6802 62.7252C57.0226 74.9314 90.4771 75.2704 111.403 63.4881C132.33 51.7057 132.808 32.2627 112.465 20.0565C92.1228 7.85033 58.6683 7.51127 37.742 19.2936L36.7227 17.895C58.233 5.78418 92.6112 6.13384 113.516 18.6791C134.421 31.2137 133.933 51.1971 112.423 63.3079C90.9124 75.4187 56.5342 75.0691 35.6292 62.5344C14.7241 49.9998 15.2125 30.0164 36.7227 17.9056V17.895Z" fill="#50E657"/>
</g>
<mask id="mask15_59053_1863" style="mask-type:luminance" maskUnits="userSpaceOnUse" x="0" y="3" width="143" height="134">
<path d="M0.125 3.11475V136.768H142.66V3.11475H0.125ZM142.649 73.6606C142.649 75.1016 142.511 76.532 142.235 77.973C140.929 84.8072 136.523 91.4718 129.038 97.2147C119.44 117.611 98.7686 131.735 74.7951 131.735C50.8217 131.735 29.4495 117.134 20.0745 96.1763C11.6764 89.3315 7.46142 81.3 7.48266 73.2685V71.4037L7.51451 66.9535H7.56759L9.33003 66.837C9.33003 66.837 12.4621 69.7402 12.5683 70.9163C12.6957 72.0712 12.0586 74.0526 11.5384 75.6737C11.3579 76.2459 11.0075 76.7863 10.6466 77.2313C12.048 79.8166 13.9379 82.3384 16.2842 84.7436C16.1674 84.2032 16.04 83.6628 15.9339 83.1119H24.7248C28.7169 58.7525 44.0798 32.6448 63.4348 17.652C67.2145 17.1752 71.1216 16.9633 75.103 17.0374C75.6976 17.048 76.2815 17.0692 76.8655 17.0798V21.4876L74.8376 23.522L70.6438 21.3816C52.1701 35.5268 37.2955 59.7909 32.3373 83.1225H133.635C133.465 84.0231 133.264 84.9131 133.051 85.8032C134.442 84.4575 135.695 83.0801 136.778 81.6709C136.969 77.7081 137.542 69.4859 137.542 69.4859H142.649V73.6712V73.6606ZM135.047 99.6199C135.206 100.192 135.143 99.8954 135.153 100.944C135.164 101.993 135.026 102.014 133.54 104.981C132.053 107.948 132.966 106.263 131.989 107.492C131.013 108.722 128.762 108.817 128.762 108.817L127.881 107.492C128.019 107.365 128.082 105.045 128.082 105.045C130.63 102.438 133.38 98.1259 133.38 98.1259L135.058 98.5391C135.058 98.5391 134.899 99.0371 135.058 99.6093L135.047 99.6199ZM15.5729 97.8504L17.1548 97.3206C17.1548 97.3206 19.9471 101.442 22.4209 104.049C22.4209 104.049 22.4209 106.306 22.5589 106.422L21.7414 107.927C21.7414 107.927 19.5543 108.001 18.5775 106.772C17.6008 105.543 18.5138 107.228 17.0274 104.261C15.5517 101.294 15.403 101.273 15.4561 100.245C15.4986 99.2172 15.4349 99.5139 15.5835 98.9206C15.7321 98.3378 15.5729 97.861 15.5729 97.861V97.8504ZM132.945 47.6059C130.684 49.3753 125.11 42.2339 127.371 40.4644L128.847 39.8181H128.857C129.622 40.6657 130.354 41.5346 131.066 42.4034C131.703 43.1875 132.308 43.9715 132.892 44.7662C132.988 45.7198 132.998 46.6628 132.945 47.6165V47.6059ZM16.0613 44.2788C16.6346 43.4736 17.2185 42.6683 17.845 41.8842C18.5563 40.9942 19.2995 40.0935 20.0745 39.2141L20.0852 39.2035L21.8158 39.6273C23.6844 41.0472 17.9617 48.5913 16.1037 47.1714C16.0082 46.2072 15.9763 45.243 16.0613 44.2894V44.2788Z" fill="white"/>
</mask>
<g mask="url(#mask15_59053_1863)">
<mask id="mask16_59053_1863" style="mask-type:luminance" maskUnits="userSpaceOnUse" x="74" y="69" width="68" height="58">
<path d="M141.056 69.7612L140.791 75.4193C139.453 104.271 110.383 126.851 74.7949 126.225L75.0603 120.567C110.66 121.192 139.719 98.6132 141.056 69.7612Z" fill="white"/>
</mask>
<g mask="url(#mask16_59053_1863)">
<path d="M74.7949 126.225L75.0603 120.567C110.66 121.192 139.719 98.6132 141.056 69.7612L140.791 75.4193C139.453 104.271 110.383 126.851 74.7949 126.225Z" fill="#47CC4D"/>
</g>
<mask id="mask17_59053_1863" style="mask-type:luminance" maskUnits="userSpaceOnUse" x="9" y="63" width="67" height="64">
<path d="M9.10698 69.1996L9.37241 63.5415C9.34056 64.1878 9.32994 64.8342 9.31932 65.4911C9.23439 95.2649 38.665 119.921 75.0605 120.567L74.795 126.225C38.3996 125.59 8.96896 100.934 9.05389 71.1492C9.05389 70.4922 9.07513 69.8459 9.10698 69.1996Z" fill="white"/>
</mask>
<g mask="url(#mask17_59053_1863)">
<path d="M9.10698 69.1996L9.37241 63.5415C9.34056 64.1878 9.32994 64.8342 9.31932 65.4911C9.23439 95.2649 38.665 119.921 75.0605 120.567L74.795 126.225C38.3996 125.59 8.96896 100.934 9.05389 71.1492C9.05389 70.4922 9.07513 69.8459 9.10698 69.1996Z" fill="#47CC4D"/>
</g>
<mask id="mask18_59053_1863" style="mask-type:luminance" maskUnits="userSpaceOnUse" x="7" y="11" width="69" height="59">
<path d="M7.44043 69.1256L7.70586 63.4675C9.07546 33.8951 38.8777 10.733 75.3687 11.3687L75.1033 17.0268C38.6123 16.3911 8.81004 39.5426 7.44043 69.1256Z" fill="white"/>
</mask>
<g mask="url(#mask18_59053_1863)">
<path d="M7.44043 69.1256L7.70586 63.4675C9.07546 33.8951 38.8777 10.733 75.3687 11.3687L75.1033 17.0268C38.6123 16.3911 8.81004 39.5426 7.44043 69.1256Z" fill="#59FF60"/>
</g>
<mask id="mask19_59053_1863" style="mask-type:luminance" maskUnits="userSpaceOnUse" x="75" y="11" width="68" height="65">
<path d="M142.723 69.8354L142.458 75.4935C142.489 74.826 142.5 74.169 142.511 73.4909C142.596 42.9649 112.411 17.6837 75.1133 17.0267L75.3787 11.3687C112.687 12.0256 142.872 37.3068 142.776 67.8328C142.776 68.5004 142.755 69.1679 142.723 69.8354Z" fill="white"/>
</mask>
<g mask="url(#mask19_59053_1863)">
<path d="M75.1025 17.0267L75.368 11.3687C112.676 12.0256 142.861 37.3068 142.765 67.8328C142.765 68.5004 142.744 69.1679 142.712 69.8354L142.447 75.4935C142.479 74.826 142.489 74.169 142.5 73.4909C142.585 42.9649 112.4 17.6837 75.1025 17.0267Z" fill="#59FF60"/>
</g>
<path d="M75.1028 17.0267C112.411 17.6837 142.596 42.9649 142.5 73.4909C142.415 104.028 112.093 128.239 74.7843 127.582C37.4758 126.925 7.30196 101.654 7.3869 71.1175C7.47183 40.5914 37.7943 16.3698 75.1028 17.0267ZM74.7949 126.225C111.19 126.861 140.759 103.243 140.844 73.4697C140.929 43.7066 111.498 19.0505 75.1028 18.4042C38.7074 17.7684 9.13872 41.3861 9.05378 71.1599C8.96885 100.934 38.3995 125.59 74.7949 126.236V126.225Z" fill="#50E657"/>
</g>
<mask id="mask20_59053_1863" style="mask-type:luminance" maskUnits="userSpaceOnUse" x="14" y="0" width="120" height="140">
<path d="M129.612 40.655C126.66 37.2961 123.284 34.2128 119.526 31.4579C126.543 39.3411 131.512 49.0785 133.636 59.8543V40.655H129.601H129.612ZM75.3796 11.358C100.287 11.7924 121.978 23.2039 133.646 39.8073V0.666992H14.8408V139.375H133.636V83.2812C128.189 110.893 103.918 131.714 74.7956 131.714C63.7645 131.714 53.4552 128.715 44.5793 123.513L70.7611 83.9381L36.4254 72.1346L35.5229 71.6366C36.4254 69.0195 37.434 66.413 38.5701 63.8276L72.5342 81.2575L109.524 25.3442C100.51 20.7987 90.1374 17.9061 79.0319 17.1962V18.7432C79.0319 18.7432 79.2123 19.4319 78.4373 19.8875C77.641 20.3431 77.5242 20.4702 76.866 20.3431C76.2077 20.2054 75.0611 19.5908 75.0611 19.5908V18.224C75.0611 18.224 76.3776 17.3339 76.866 17.0796C76.282 17.0479 75.6981 17.0373 75.1141 17.0267C70.6125 16.9419 66.217 17.2386 61.9489 17.8319V12.2268C66.2913 11.5805 70.7824 11.2944 75.369 11.358H75.3796ZM50.2383 130.834C53.2854 131.788 61.8746 132.826 61.8746 132.826C61.8746 132.826 62.14 136.408 61.4393 136.747C60.7386 137.107 48.5501 131.82 48.5501 131.82L50.2276 130.824L50.2383 130.834ZM33.9835 102.597L32.0087 103.741L30.724 103C30.5329 100.414 30.5435 97.7549 30.724 95.0212L31.9025 94.3325L34.6311 93.5484L33.9728 102.586L33.9835 102.597Z" fill="white"/>
</mask>
<g mask="url(#mask20_59053_1863)">
<mask id="mask21_59053_1863" style="mask-type:luminance" maskUnits="userSpaceOnUse" x="71" y="10" width="55" height="116">
<path d="M104.788 10.2879L111.647 14.2931C120.035 19.1883 125.248 29.5932 125.29 44.3741C125.375 74.1479 104.512 110.417 78.6809 125.378L71.8223 121.373C97.6537 106.412 118.516 70.1427 118.431 40.369C118.389 25.5775 113.187 15.1725 104.788 10.2773V10.2879Z" fill="white"/>
</mask>
<g mask="url(#mask21_59053_1863)">
<path d="M78.6809 125.378L71.8223 121.373C97.6537 106.412 118.516 70.1427 118.431 40.369C118.389 25.5775 113.187 15.1725 104.788 10.2773L111.647 14.2825C120.035 19.1777 125.248 29.5826 125.29 44.3635C125.375 74.1373 104.512 110.406 78.6809 125.367V125.378Z" fill="#47CC4D"/>
</g>
<mask id="mask22_59053_1863" style="mask-type:luminance" maskUnits="userSpaceOnUse" x="38" y="121" width="41" height="11">
<path d="M45.4065 128.652L38.5479 124.647C47.0522 129.605 58.8265 128.906 71.8219 121.373L78.6805 125.378C65.6852 132.911 53.9108 133.611 45.4065 128.652Z" fill="white"/>
</mask>
<g mask="url(#mask22_59053_1863)">
<path d="M45.4065 128.652L38.5479 124.647C47.0522 129.605 58.8265 128.906 71.8219 121.373L78.6805 125.378C65.6852 132.911 53.9108 133.611 45.4065 128.652Z" fill="#47CC4D"/>
</g>
<mask id="mask23_59053_1863" style="mask-type:luminance" maskUnits="userSpaceOnUse" x="71" y="5" width="42" height="12">
<path d="M105.627 8.83644L112.486 12.8416C103.769 7.75568 91.6978 8.47619 78.3733 16.1898L71.5146 12.1847C84.8391 4.47103 96.9108 3.75053 105.627 8.83644Z" fill="white"/>
</mask>
<g mask="url(#mask23_59053_1863)">
<path d="M78.3733 16.1898L71.5146 12.1847C84.8391 4.47103 96.9108 3.75053 105.627 8.83644L112.486 12.8416C103.769 7.75568 91.6978 8.47619 78.3733 16.1898Z" fill="#59FF60"/>
</g>
<mask id="mask24_59053_1863" style="mask-type:luminance" maskUnits="userSpaceOnUse" x="23" y="12" width="56" height="119">
<path d="M44.5682 130.093L37.7095 126.088C29.1097 121.065 23.7693 110.396 23.7268 95.2332C23.6419 64.7072 45.0354 27.5165 71.5144 12.1846L78.3731 16.1897C51.894 31.5322 30.5005 68.7123 30.5855 99.2384C30.6279 114.411 35.9683 125.081 44.5682 130.093Z" fill="white"/>
</mask>
<g mask="url(#mask24_59053_1863)">
<path d="M44.5682 130.093L37.7095 126.088C29.1097 121.065 23.7693 110.396 23.7268 95.2332C23.6419 64.7072 45.0354 27.5165 71.5144 12.1846L78.3731 16.1897C51.894 31.5322 30.5005 68.7123 30.5855 99.2384C30.6279 114.411 35.9683 125.081 44.5682 130.093Z" fill="#59FF60"/>
</g>
<path d="M78.3728 16.1899C104.852 0.847383 126.383 13.1701 126.468 43.6962C126.553 74.2328 105.16 111.413 78.6807 126.745C52.2017 142.087 30.6701 129.775 30.5852 99.2385C30.5003 68.7125 51.8938 31.5218 78.3728 16.1899ZM78.6807 125.378C104.512 110.417 125.375 74.1481 125.29 44.3743C125.205 14.6111 104.204 2.59566 78.3728 17.5567C52.5414 32.5178 31.6788 68.7867 31.7637 98.5498C31.8486 128.324 52.8493 140.339 78.6807 125.378Z" fill="#50E657"/>
</g>
<mask id="mask25_59053_1863" style="mask-type:luminance" maskUnits="userSpaceOnUse" x="12" y="1" width="123" height="142">
<path d="M12.8867 1.93848V142.161H134.782V1.93848H12.8867ZM74.8057 131.714C41.6803 131.714 14.8403 104.769 14.8403 71.5307C14.8403 57.1206 19.9046 43.876 28.324 33.5241C25.0964 36.1094 22.2192 38.9491 19.7348 42.0536H14.1608C20.393 31.3944 30.7553 22.7377 43.5489 17.3657V24.4648C42.1687 25.0476 40.8097 25.6939 39.5038 26.3614L72.5549 74.4551L110.607 63.9336L111.413 63.4674C112.634 66.0845 113.696 68.691 114.535 71.2976L113.675 71.7638L75.1773 78.2801L105.903 123.004C96.8362 128.525 86.1979 131.714 74.8057 131.714ZM90.6464 10.9342C89.2662 11.3156 87.8754 11.7606 86.4527 12.3116C87.8647 12.5235 89.2662 12.7884 90.6464 13.0745V18.7856C86.2191 17.8531 81.6113 17.2492 76.8973 17.0691C75.4427 17.8849 74.0837 18.9127 72.6929 19.9087H63.0101V16.9419H59.0074V15.7234H58.3173V12.9156C63.0313 11.9831 67.9364 11.4216 73.0008 11.3686C79.2543 7.9674 85.2105 6.12376 90.6464 5.69993V10.9342ZM115.554 93.612L118.283 94.3961L119.461 95.0848C119.642 97.8185 119.652 100.489 119.461 103.063L118.187 103.805L116.212 102.661L115.554 93.6226V93.612Z" fill="white"/>
</mask>
<g mask="url(#mask25_59053_1863)">
<mask id="mask26_59053_1863" style="mask-type:luminance" maskUnits="userSpaceOnUse" x="24" y="10" width="55" height="116">
<path d="M38.5378 14.2932L45.3964 10.2881C37.0089 15.1833 31.7959 25.5882 31.7534 40.3797C31.6685 70.1535 52.5311 106.422 78.3625 121.383L71.5039 125.389C45.6725 110.428 24.8099 74.1586 24.8948 44.3849C24.9373 29.5933 30.1396 19.1884 38.5378 14.3038V14.2932Z" fill="white"/>
</mask>
<g mask="url(#mask26_59053_1863)">
<path d="M38.5378 14.2932L45.3964 10.2881C37.0089 15.1833 31.7959 25.5882 31.7534 40.3797C31.6685 70.1535 52.5311 106.422 78.3625 121.383L71.5039 125.389C45.6725 110.428 24.8099 74.1586 24.8948 44.3849C24.9373 29.5933 30.1396 19.1884 38.5378 14.3038V14.2932Z" fill="#47CC4D"/>
</g>
<mask id="mask27_59053_1863" style="mask-type:luminance" maskUnits="userSpaceOnUse" x="71" y="121" width="41" height="11">
<path d="M111.647 124.647L104.789 128.652C96.2844 133.611 84.51 132.911 71.5146 125.378L78.3733 121.373C91.3686 128.906 103.143 129.605 111.647 124.647Z" fill="white"/>
</mask>
<g mask="url(#mask27_59053_1863)">
<path d="M71.5146 125.378L78.3733 121.373C91.3686 128.906 103.143 129.605 111.647 124.647L104.789 128.652C96.2844 133.611 84.51 132.911 71.5146 125.378Z" fill="#47CC4D"/>
</g>
<mask id="mask28_59053_1863" style="mask-type:luminance" maskUnits="userSpaceOnUse" x="37" y="5" width="42" height="12">
<path d="M37.71 12.8416L44.5686 8.83644C53.2853 3.75053 65.3569 4.47103 78.6814 12.1847L71.8227 16.1898C58.4983 8.47619 46.4266 7.75568 37.71 12.8416Z" fill="white"/>
</mask>
<g mask="url(#mask28_59053_1863)">
<path d="M37.71 12.8416L44.5686 8.83644C53.2853 3.75053 65.3569 4.47103 78.6814 12.1847L71.8227 16.1898C58.4983 8.47619 46.4266 7.75568 37.71 12.8416Z" fill="#59FF60"/>
</g>
<mask id="mask29_59053_1863" style="mask-type:luminance" maskUnits="userSpaceOnUse" x="71" y="12" width="56" height="119">
<path d="M112.486 126.098L105.627 130.104C114.227 125.081 119.567 114.411 119.61 99.2491C119.695 68.7231 98.3013 31.5324 71.8223 16.2005L78.6809 12.1953C105.16 27.5378 126.553 64.7179 126.469 95.244C126.426 110.417 121.086 121.087 112.486 126.098Z" fill="white"/>
</mask>
<g mask="url(#mask29_59053_1863)">
<path d="M71.8223 16.1897L78.6809 12.1846C105.16 27.5271 126.553 64.7072 126.469 95.2332C126.426 110.406 121.086 121.076 112.486 126.088L105.627 130.093C114.227 125.071 119.567 114.401 119.61 99.2384C119.695 68.7123 98.3013 31.5216 71.8223 16.1897Z" fill="#59FF60"/>
</g>
<path d="M71.8223 16.1896C98.3014 31.5321 119.695 68.7122 119.61 99.2383C119.525 129.775 97.9829 142.076 71.5144 126.745C45.0354 111.402 23.6419 74.2326 23.7268 43.6959C23.8118 13.1699 45.3539 0.85772 71.8223 16.1896ZM71.5144 125.378C97.3459 140.339 118.346 128.334 118.431 98.5496C118.516 68.7864 97.6537 32.5175 71.8223 17.5565C45.9909 2.59541 24.9902 14.6003 24.9053 44.374C24.8204 74.1478 45.683 110.417 71.5144 125.378Z" fill="#50E657"/>
</g>
<mask id="mask30_59053_1863" style="mask-type:luminance" maskUnits="userSpaceOnUse" x="20" y="0" width="69" height="140">
<path d="M84.8712 0.666992V6.65353C81.7286 7.41642 78.4585 8.62432 75.0929 10.2772C71.7697 8.63492 68.5421 7.4588 65.4313 6.67472V12.0891C45.3119 15.2572 28.5262 28.47 20.3086 46.4296V0.666992H84.8712ZM71.43 22.1973C73.6914 45.0098 75.3052 81.2786 75.1672 108.456C75.1566 110.226 75.1353 111.921 75.1141 113.532C75.1035 114.591 75.0823 115.64 75.061 116.626C75.0292 118.151 74.9867 119.582 74.9549 120.938C74.923 121.818 74.9018 122.665 74.8593 123.492V123.64C74.8274 124 74.8168 124.35 74.8062 124.7C74.8062 124.774 74.7956 124.837 74.7956 124.912C74.7637 125.568 74.7213 126.194 74.7 126.798C74.647 127.677 74.5939 128.503 74.5302 129.266C74.4877 129.754 74.4558 130.22 74.4028 130.644C74.3921 130.792 74.3709 130.951 74.3603 131.099C74.3497 131.311 74.3284 131.502 74.3178 131.703H74.3072C74.2117 131.703 74.1161 131.703 74.0312 131.693C73.0756 131.693 72.1413 131.65 71.1964 131.576C71.1008 131.587 71.0159 131.576 70.9203 131.566C48.4227 130.114 29.3013 116.212 20.3298 96.6529V139.247H84.8925V136.196C78.4691 136.853 71.8759 136.853 65.4525 136.143V133.293C68.1917 133.568 70.9522 133.727 73.7127 133.78L73.7551 135.507C76.2607 135.814 83.4379 135.497 83.4379 135.253L83.7564 133.462C84.0537 133.42 84.5952 133.377 84.8925 133.346C89.3941 89.9565 91.3158 49.6083 81.6542 23.0238C78.5116 20.1524 78.4691 20.4067 75.0929 18.171C74.0736 18.8491 72.3218 20.1418 71.3238 20.8729L71.4512 22.1867L71.43 22.1973Z" fill="white"/>
</mask>
<g mask="url(#mask30_59053_1863)">
<mask id="mask31_59053_1863" style="mask-type:luminance" maskUnits="userSpaceOnUse" x="69" y="123" width="14" height="13">
<path d="M82.4718 135.38L72.7678 135.751C71.9609 135.783 70.9841 131.915 69.9648 123.831L79.6689 123.46C80.6987 131.544 81.6649 135.412 82.4718 135.38Z" fill="white"/>
</mask>
<g mask="url(#mask31_59053_1863)">
<path d="M82.4718 135.38L72.7678 135.751C71.9609 135.783 70.9841 131.915 69.9648 123.831L79.6689 123.46C80.6987 131.544 81.6649 135.412 82.4718 135.38Z" fill="#47CC4D"/>
</g>
<mask id="mask32_59053_1863" style="mask-type:luminance" maskUnits="userSpaceOnUse" x="65" y="3" width="15" height="121">
<path d="M67.7135 3.55981L77.4175 3.18896C76.1329 3.24194 75.241 13.0853 75.1455 31.4264C74.9862 61.3485 77.0141 102.555 79.6577 123.46L69.9537 123.831C67.2994 102.926 65.2822 61.7299 65.4414 31.7972C65.537 13.4455 66.4288 3.60219 67.7135 3.55981Z" fill="white"/>
</mask>
<g mask="url(#mask32_59053_1863)">
<path d="M79.6685 123.46L69.9644 123.831C67.3102 102.926 65.2929 61.7299 65.4522 31.7972C65.5477 13.4455 66.4396 3.60219 67.7242 3.55981L77.4283 3.18896C76.1436 3.24194 75.2518 13.0853 75.1562 31.4264C74.997 61.3485 77.0248 102.555 79.6685 123.46Z" fill="#47CC4D"/>
</g>
<mask id="mask33_59053_1863" style="mask-type:luminance" maskUnits="userSpaceOnUse" x="67" y="1" width="14" height="14">
<path d="M67.6504 1.88569L77.3544 1.51484C78.1826 1.48305 79.1806 5.44582 80.2317 13.7316L70.5276 14.1025C69.4765 5.81667 68.4785 1.8539 67.6504 1.88569Z" fill="white"/>
</mask>
<g mask="url(#mask33_59053_1863)">
<path d="M80.2424 13.7316L70.5384 14.1025C69.4873 5.81667 68.4893 1.8539 67.6611 1.88569L77.3652 1.51484C78.1933 1.48305 79.1913 5.44582 80.2424 13.7316Z" fill="#59FF60"/>
</g>
<mask id="mask34_59053_1863" style="mask-type:luminance" maskUnits="userSpaceOnUse" x="70" y="13" width="15" height="125">
<path d="M82.5354 137.044L72.8314 137.415C74.1479 137.362 75.0716 127.264 75.1671 108.446C75.3264 77.7719 73.2561 35.5164 70.5381 14.092L80.2421 13.7212C82.9601 35.1456 85.0304 77.401 84.8712 108.075C84.7756 126.893 83.8626 136.991 82.5354 137.044Z" fill="white"/>
</mask>
<g mask="url(#mask34_59053_1863)">
<path d="M82.5354 137.044L72.8314 137.415C74.1479 137.362 75.0716 127.264 75.1671 108.446C75.3264 77.7719 73.2561 35.5164 70.5381 14.092L80.2421 13.7212C82.9601 35.1456 85.0304 77.401 84.8712 108.075C84.7756 126.893 83.8626 136.991 82.5354 137.044Z" fill="#59FF60"/>
</g>
<path d="M70.5273 14.1024C73.2453 35.5268 75.3156 77.7822 75.1563 108.457C74.9971 139.142 72.6613 146.633 69.9433 125.208C67.2253 103.784 65.155 61.5391 65.3143 30.8541C65.4735 0.17971 67.8093 -7.32201 70.5273 14.1024ZM69.9539 123.831C72.6082 144.736 74.8803 137.425 75.0395 107.492C75.1988 77.5809 73.1709 36.3744 70.5273 15.4692C67.873 -5.43598 65.6009 1.87501 65.4417 31.7971C65.2824 61.7192 67.3103 102.926 69.9539 123.831Z" fill="#50E657"/>
</g>
<defs>
<radialGradient id="paint0_radial_59053_1863" cx="0" cy="0" r="1" gradientUnits="userSpaceOnUse" gradientTransform="translate(74.8169 71.5412) scale(60.1353 60.0137)">
<stop stop-color="#52B58A"/>
<stop offset="0.72" stop-color="#006A4E"/>
</radialGradient>
</defs>
</svg>
