<svg width="114" height="23" viewBox="0 0 114 23" fill="none" xmlns="http://www.w3.org/2000/svg">
<g clip-path="url(#clip0_59133_12249)">
<path d="M11.8403 10.7675L2.69873 20.2391L2.70008 20.2445C2.84748 20.762 3.16058 21.2169 3.59134 21.5393C4.02211 21.8618 4.54676 22.0341 5.08483 22.0297C5.54157 22.0297 5.97002 21.9084 6.33784 21.6983L6.36748 21.6807L16.657 15.8859L11.8403 10.7675Z" fill="#EA4335"/>
<path d="M21.0892 9.15474L21.0797 9.14935L16.6376 6.63525L11.6323 10.9817L16.6551 15.8833L21.0743 13.3948C21.849 12.9865 22.3745 12.1903 22.3745 11.27C22.3745 10.3579 21.8558 9.56433 21.0892 9.15474Z" fill="#FBBC04"/>
<path d="M2.69828 2.26416C2.64439 2.46087 2.61475 2.66836 2.61475 2.88393V19.6176C2.61475 19.8332 2.64304 20.042 2.69828 20.2374L12.1565 11.0096L2.69828 2.26416Z" fill="#4285F4"/>
<path d="M11.9077 11.2517L16.6394 6.63444L6.3594 0.818059C5.97273 0.591884 5.53279 0.472829 5.08483 0.473145C3.94231 0.473145 2.97763 1.23169 2.69873 2.26104V2.26373L11.9077 11.2517Z" fill="#34A853"/>
</g>
<path d="M38.696 13.8597C38.597 14.3265 38.4272 14.7792 38.1867 15.1753C37.6774 15.9534 36.8286 16.4627 35.5412 16.4627C33.0797 16.4627 31.7357 15.0056 31.7357 11.7659V10.7898C31.7357 7.56432 33.4051 5.97987 36.1496 5.97987C38.6677 5.97987 40.0824 7.32382 40.1956 9.65805H38.2574C38.2433 9.27609 38.1584 8.96486 38.0028 8.63948C37.7199 8.03117 37.1681 7.63505 36.1213 7.63505C34.4095 7.63505 33.6314 8.68192 33.6314 10.8605V11.6952C33.6173 13.8738 34.3954 14.7934 36.0647 14.7934C36.6023 14.7934 37.0125 14.6943 37.3379 14.4821C37.9887 14.0719 38.2716 13.3362 38.2857 12.5582H35.8242V10.9596H40.238V16.2505H38.8375L38.696 13.8597ZM45.4448 16.4627C42.8135 16.4627 41.3422 15.0056 41.3422 12.346V12.1338C41.3422 11.2284 41.5261 10.4503 41.8798 9.82782C42.5872 8.58289 43.8462 7.91799 45.4448 7.91799C46.2653 7.91799 46.9585 8.07361 47.5668 8.41313C48.8118 9.07803 49.5474 10.3371 49.5474 12.1338V12.346C49.5474 13.2372 49.3776 13.9728 49.0381 14.5812C48.3308 15.8119 47.1 16.4627 45.4448 16.4627ZM45.4448 14.8358C46.8454 14.8358 47.6659 13.9304 47.6659 12.3177V12.1338C47.6659 10.4644 46.8029 9.50244 45.459 9.50244C44.1292 9.50244 43.2379 10.4078 43.2379 12.1338V12.3177C43.2379 13.9304 44.0584 14.8358 45.4448 14.8358ZM54.5839 16.4627C51.9526 16.4627 50.4813 15.0056 50.4813 12.346V12.1338C50.4813 11.2284 50.6652 10.4503 51.0189 9.82782C51.7262 8.58289 52.9853 7.91799 54.5839 7.91799C55.4044 7.91799 56.0976 8.07361 56.7059 8.41313C57.9509 9.07803 58.6865 10.3371 58.6865 12.1338V12.346C58.6865 13.2372 58.5167 13.9728 58.1772 14.5812C57.4699 15.8119 56.2391 16.4627 54.5839 16.4627ZM54.5839 14.8358C55.9844 14.8358 56.805 13.9304 56.805 12.3177V12.1338C56.805 10.4644 55.942 9.50244 54.5981 9.50244C53.2682 9.50244 52.377 10.4078 52.377 12.1338V12.3177C52.377 13.9304 53.1975 14.8358 54.5839 14.8358ZM62.9798 19.9428C61.9613 19.9428 61.1832 19.8579 60.6315 19.6882C59.528 19.3628 59.1885 18.7686 59.1885 18.0047C59.1885 17.1276 59.7261 16.491 61.0134 16.1939C59.91 16.0383 59.429 15.4866 59.429 14.666C59.429 13.8314 60.0514 13.2796 61.1832 13.0392C60.0656 12.6855 59.5139 11.9216 59.5139 10.7332C59.5139 9.10633 60.7305 8.22922 62.6686 8.1019L63.0789 8.07361C63.5599 8.03117 63.8994 7.98872 64.1399 7.8897C64.5926 7.71993 64.7058 7.33797 64.7058 6.55989V6.43257H66.8561V6.70136C66.8561 8.00287 66.2053 8.35654 64.4653 8.37069C65.979 8.58289 66.7995 9.50244 66.7995 10.7332V10.7898C66.7995 12.5157 65.4273 13.5626 63.1213 13.5626H62.994C62.4281 13.5626 62.0179 13.5767 61.7349 13.6333C61.169 13.7323 61.0417 13.888 61.0417 14.1568C61.0417 14.5387 61.3812 14.6943 62.3432 14.6943H63.9843C66.2619 14.6943 67.2522 15.628 67.2522 17.0852C67.2522 18.8677 65.9082 19.9428 63.0789 19.9428H62.9798ZM63.1213 12.2469C64.3521 12.2469 64.9463 11.7659 64.9463 10.8039V10.7615C64.9463 9.62976 64.154 9.24779 63.1496 9.24779C62.1452 9.24779 61.3671 9.72879 61.3671 10.7757V10.8181C61.3671 11.7659 62.0179 12.2469 63.1213 12.2469ZM63.093 18.415C64.7765 18.415 65.5263 17.9623 65.5263 17.1842C65.5263 16.6183 65.1019 16.2505 63.9135 16.2505H62.4564C61.452 16.3495 61.0134 16.7881 61.0134 17.3539V17.3822C61.0134 17.8915 61.5227 18.415 62.7959 18.415H63.093ZM67.926 16.2505V5.35741H69.7793V16.2505H67.926ZM78.8599 13.8455C78.3931 15.5007 77.0774 16.4627 74.9412 16.4627C72.1967 16.4627 70.8528 14.8782 70.8528 12.3601V12.162C70.8528 11.2849 71.0226 10.5635 71.3621 9.9127C72.0411 8.63948 73.286 7.91799 74.9978 7.91799C76.3984 7.91799 77.3886 8.39898 78.0394 9.17706C78.6901 9.95514 78.9731 10.9596 78.9731 12.0064V12.8694H72.6919C72.8475 14.1992 73.668 14.9348 75.012 14.9348C76.0022 14.9348 76.5823 14.5529 76.8652 13.8455H78.8599ZM75.012 9.38926C73.7246 9.38926 72.9182 10.1249 72.706 11.4123H77.1198C76.9925 10.1673 76.3135 9.38926 75.012 9.38926ZM86.0897 13.0674V16.2505H84.2648V6.16378H88.0703C88.9757 6.16378 89.7113 6.30525 90.3055 6.60233C91.4938 7.16821 92.0738 8.22922 92.0738 9.58732C92.0738 11.7093 90.8148 13.0816 88.141 13.0674H86.0897ZM86.0897 7.74823V11.483H88.1127C89.4567 11.483 90.2206 10.8181 90.2206 9.58732C90.2206 8.48386 89.5274 7.74823 88.0703 7.74823H86.0897ZM93.1815 16.2505V5.35741H95.0347V16.2505H93.1815ZM102.009 14.6236C101.457 15.6846 100.368 16.4627 98.6843 16.4627C96.9159 16.4627 96.0247 15.6139 96.0247 14.2841C96.0247 13.3787 96.4208 12.6996 97.0857 12.2894C97.3121 12.1338 97.5525 12.0206 97.7789 11.9498C98.2599 11.7801 98.8682 11.6669 99.8868 11.5113C101.344 11.3274 101.924 11.1293 101.924 10.4644C101.924 9.78538 101.485 9.36097 100.212 9.36097C98.8682 9.36097 98.2599 9.94099 98.2033 10.9879H96.2935C96.4208 9.13462 97.7789 7.91799 100.113 7.91799C101.004 7.91799 101.683 8.03117 102.221 8.27166C103.282 8.72436 103.706 9.58732 103.706 10.7615V16.2505H102.207L102.009 14.6236ZM99.3209 15.0339C99.8585 15.0339 100.311 14.9065 100.707 14.666C101.5 14.1709 101.938 13.3504 101.938 12.5723V12.1338C101.599 12.3742 101.033 12.544 100.297 12.6572C99.3068 12.8128 98.9106 12.926 98.5287 13.1665C98.2033 13.3787 98.0477 13.6616 98.0477 14.0153C98.0477 14.6943 98.4721 15.0339 99.3209 15.0339ZM104.416 19.2921V17.6793H105.364C105.718 17.6793 106.015 17.6369 106.227 17.5803C106.665 17.453 106.906 17.1276 107.231 16.4203L107.387 16.0383L104.02 8.11605H106.001L108.207 13.6192L108.278 13.987L108.377 13.6333L110.528 8.11605H112.48L108.915 16.7173C108.448 17.8491 108.08 18.4998 107.599 18.8535C107.104 19.2072 106.453 19.2921 105.35 19.2921H104.416Z" fill="#1D1D1F"/>
<defs>
<clipPath id="clip0_59133_12249">
<rect width="22.4944" height="21.5571" fill="white" transform="translate(0.124512 0.473145)"/>
</clipPath>
</defs>
</svg>
