<svg width="141" height="49" viewBox="0 0 141 49" fill="none" xmlns="http://www.w3.org/2000/svg">
<rect x="0.541992" width="140.458" height="48.5035" rx="7.07034" fill="#1E1E1E"/>
<g clip-path="url(#clip0_398_3358)">
<path d="M25.6552 23.7688L16.5137 33.2405L16.515 33.2458C16.6624 33.7634 16.9755 34.2182 17.4063 34.5407C17.837 34.8632 18.3617 35.0354 18.8998 35.031C19.3565 35.031 19.785 34.9098 20.1528 34.6996L20.1824 34.6821L30.4719 28.8873L25.6552 23.7688Z" fill="#EA4335"/>
<path d="M34.9041 22.1561L34.8947 22.1507L30.4526 19.6366L25.4473 23.983L30.4701 28.8846L34.8893 26.3961C35.664 25.9879 36.1894 25.1916 36.1894 24.2714C36.1894 23.3592 35.6707 22.5657 34.9041 22.1561Z" fill="#FBBC04"/>
<path d="M16.5132 15.2655C16.4593 15.4622 16.4297 15.6697 16.4297 15.8853V32.619C16.4297 32.8345 16.458 33.0434 16.5132 33.2387L25.9714 24.011L16.5132 15.2655Z" fill="#4285F4"/>
<path d="M25.7226 24.253L30.4544 19.6358L20.1743 13.8194C19.7877 13.5932 19.3477 13.4742 18.8998 13.4745C17.7572 13.4745 16.7926 14.233 16.5137 15.2624V15.2651L25.7226 24.253Z" fill="#34A853"/>
</g>
<path d="M52.5109 26.8609C52.4119 27.3277 52.2421 27.7804 52.0016 28.1765C51.4924 28.9546 50.6436 29.4639 49.3562 29.4639C46.8946 29.4639 45.5507 28.0068 45.5507 24.7672V23.791C45.5507 20.5655 47.22 18.9811 49.9645 18.9811C52.4826 18.9811 53.8973 20.325 54.0105 22.6593H52.0724C52.0582 22.2773 51.9734 21.9661 51.8177 21.6407C51.5348 21.0324 50.9831 20.6363 49.9362 20.6363C48.2244 20.6363 47.4464 21.6831 47.4464 23.8618V24.6964C47.4322 26.875 48.2103 27.7946 49.8796 27.7946C50.4172 27.7946 50.8275 27.6956 51.1528 27.4834C51.8036 27.0731 52.0865 26.3375 52.1007 25.5594H49.6391V23.9608H54.0529V29.2517H52.6524L52.5109 26.8609ZM59.2598 29.4639C56.6284 29.4639 55.1572 28.0068 55.1572 25.3472V25.135C55.1572 24.2296 55.3411 23.4515 55.6948 22.829C56.4021 21.5841 57.6612 20.9192 59.2598 20.9192C60.0803 20.9192 60.7735 21.0748 61.3818 21.4144C62.6267 22.0793 63.3623 23.3383 63.3623 25.135V25.3472C63.3623 26.2384 63.1926 26.9741 62.8531 27.5824C62.1457 28.8132 60.9149 29.4639 59.2598 29.4639ZM59.2598 27.837C60.6603 27.837 61.4808 26.9316 61.4808 25.3189V25.135C61.4808 23.4656 60.6179 22.5037 59.2739 22.5037C57.9441 22.5037 57.0529 23.4091 57.0529 25.135V25.3189C57.0529 26.9316 57.8734 27.837 59.2598 27.837ZM68.3988 29.4639C65.7675 29.4639 64.2963 28.0068 64.2963 25.3472V25.135C64.2963 24.2296 64.4802 23.4515 64.8338 22.829C65.5412 21.5841 66.8003 20.9192 68.3988 20.9192C69.2194 20.9192 69.9126 21.0748 70.5209 21.4144C71.7658 22.0793 72.5014 23.3383 72.5014 25.135V25.3472C72.5014 26.2384 72.3317 26.9741 71.9921 27.5824C71.2848 28.8132 70.054 29.4639 68.3988 29.4639ZM68.3988 27.837C69.7994 27.837 70.6199 26.9316 70.6199 25.3189V25.135C70.6199 23.4656 69.7569 22.5037 68.413 22.5037C67.0832 22.5037 66.1919 23.4091 66.1919 25.135V25.3189C66.1919 26.9316 67.0125 27.837 68.3988 27.837ZM76.7948 32.944C75.7762 32.944 74.9981 32.8592 74.4464 32.6894C73.343 32.364 73.0034 31.7698 73.0034 31.0059C73.0034 30.1288 73.541 29.4922 74.8284 29.1951C73.7249 29.0395 73.2439 28.4878 73.2439 27.6673C73.2439 26.8326 73.8664 26.2809 74.9981 26.0404C73.8805 25.6867 73.3288 24.9228 73.3288 23.7344C73.3288 22.1075 74.5454 21.2304 76.4836 21.1031L76.8938 21.0748C77.3748 21.0324 77.7143 20.9899 77.9548 20.8909C78.4075 20.7212 78.5207 20.3392 78.5207 19.5611V19.4338H80.671V19.7026C80.671 21.0041 80.0203 21.3578 78.2802 21.3719C79.7939 21.5841 80.6144 22.5037 80.6144 23.7344V23.791C80.6144 25.5169 79.2422 26.5638 76.9363 26.5638H76.8089C76.2431 26.5638 75.8328 26.578 75.5499 26.6345C74.984 26.7336 74.8567 26.8892 74.8567 27.158C74.8567 27.5399 75.1962 27.6956 76.1582 27.6956H77.7992C80.0769 27.6956 81.0671 28.6292 81.0671 30.0864C81.0671 31.8689 79.7232 32.944 76.8938 32.944H76.7948ZM76.9363 25.2481C78.167 25.2481 78.7612 24.7672 78.7612 23.8052V23.7627C78.7612 22.631 77.969 22.249 76.9645 22.249C75.9601 22.249 75.182 22.73 75.182 23.7769V23.8193C75.182 24.7672 75.8328 25.2481 76.9363 25.2481ZM76.908 31.4162C78.5914 31.4162 79.3412 30.9635 79.3412 30.1854C79.3412 29.6195 78.9168 29.2517 77.7285 29.2517H76.2714C75.2669 29.3507 74.8284 29.7893 74.8284 30.3552V30.3835C74.8284 30.8927 75.3377 31.4162 76.6109 31.4162H76.908ZM81.741 29.2517V18.3586H83.5942V29.2517H81.741ZM92.6749 26.8467C92.208 28.5019 90.8923 29.4639 88.7562 29.4639C86.0117 29.4639 84.6677 27.8795 84.6677 25.3613V25.1633C84.6677 24.2862 84.8375 23.5647 85.177 22.9139C85.8561 21.6407 87.101 20.9192 88.8128 20.9192C90.2133 20.9192 91.2036 21.4002 91.8543 22.1783C92.5051 22.9564 92.788 23.9608 92.788 25.0077V25.8706H86.5068C86.6624 27.2004 87.483 27.9361 88.8269 27.9361C89.8172 27.9361 90.3972 27.5541 90.6801 26.8467H92.6749ZM88.8269 22.3905C87.5395 22.3905 86.7332 23.1261 86.521 24.4135H90.9348C90.8075 23.1686 90.1284 22.3905 88.8269 22.3905ZM99.9047 26.0687V29.2517H98.0797V19.165H101.885C102.791 19.165 103.526 19.3065 104.12 19.6036C105.309 20.1694 105.889 21.2304 105.889 22.5885C105.889 24.7106 104.63 26.0828 101.956 26.0687H99.9047ZM99.9047 20.7494V24.4842H101.928C103.272 24.4842 104.036 23.8193 104.036 22.5885C104.036 21.4851 103.342 20.7494 101.885 20.7494H99.9047ZM106.996 29.2517V18.3586H108.85V29.2517H106.996ZM115.824 27.6248C115.272 28.6858 114.183 29.4639 112.499 29.4639C110.731 29.4639 109.84 28.6151 109.84 27.2853C109.84 26.3799 110.236 25.7008 110.901 25.2906C111.127 25.135 111.367 25.0218 111.594 24.9511C112.075 24.7813 112.683 24.6681 113.702 24.5125C115.159 24.3286 115.739 24.1305 115.739 23.4656C115.739 22.7866 115.3 22.3622 114.027 22.3622C112.683 22.3622 112.075 22.9422 112.018 23.9891H110.108C110.236 22.1358 111.594 20.9192 113.928 20.9192C114.819 20.9192 115.498 21.0324 116.036 21.2729C117.097 21.7256 117.521 22.5885 117.521 23.7627V29.2517H116.022L115.824 27.6248ZM113.136 28.0351C113.673 28.0351 114.126 27.9078 114.522 27.6673C115.314 27.1721 115.753 26.3516 115.753 25.5735V25.135C115.413 25.3755 114.848 25.5452 114.112 25.6584C113.122 25.814 112.726 25.9272 112.344 26.1677C112.018 26.3799 111.863 26.6628 111.863 27.0165C111.863 27.6956 112.287 28.0351 113.136 28.0351ZM118.231 32.2933V30.6805H119.179C119.533 30.6805 119.83 30.6381 120.042 30.5815C120.48 30.4542 120.721 30.1288 121.046 29.4215L121.202 29.0395L117.835 21.1173H119.815L122.022 26.6204L122.093 26.9882L122.192 26.6345L124.342 21.1173H126.295L122.73 29.7186C122.263 30.8503 121.895 31.5011 121.414 31.8547C120.919 32.2084 120.268 32.2933 119.165 32.2933H118.231Z" fill="white"/>
<defs>
<clipPath id="clip0_398_3358">
<rect width="22.4944" height="21.5571" fill="white" transform="translate(13.9395 13.4745)"/>
</clipPath>
</defs>
</svg>
