<svg width="143" height="38" viewBox="0 0 143 38" fill="none" xmlns="http://www.w3.org/2000/svg">
<path d="M37.7246 19.0002C37.7245 8.58312 29.2795 0.13794 18.8623 0.13794C8.44525 0.138066 0.000124929 8.5832 -8.24498e-07 19.0002C-8.24498e-07 29.4174 8.44518 37.8624 18.8623 37.8625C29.2795 37.8625 37.7246 29.4175 37.7246 19.0002Z" fill="#1E1E1E"/>
<path d="M15.1102 10.0356C16.138 10.6332 16.419 11.6349 16.4319 12.7674C16.4457 13.9555 16.4343 15.1441 16.4357 16.3321C16.4371 17.4566 17.1056 18.4779 18.1129 18.8425C18.4034 18.9477 18.7236 18.9998 19.0318 19.0078C19.8807 19.0299 20.7309 18.9908 21.5793 19.0228C22.4587 19.0564 23.2517 19.3474 23.704 20.2064C23.8877 20.5555 24.0189 20.9818 24.0285 21.377C24.0619 22.804 24.0127 24.2329 24.0356 25.6604C24.0504 26.6021 25.082 28.1904 26.3331 28.1483C27.7206 28.1017 29.11 28.1373 30.4985 28.1373C30.4942 28.1037 30.4904 28.0702 30.4861 28.0361C29.8234 27.8473 29.3739 27.389 29.0223 26.7914C28.7374 26.3071 28.6143 25.7902 28.6186 25.2237C28.6281 23.9795 28.6195 22.7353 28.6215 21.4912C28.6234 20.0997 27.7397 19.0203 26.2577 19.0158C25.3549 19.0133 24.4493 19.0659 23.5509 19.0053C22.6371 18.9437 21.8675 18.2976 21.5998 17.2377C21.5201 16.9212 21.5201 16.5776 21.5177 16.246C21.5087 15.0444 21.5282 13.8423 21.5096 12.6407C21.492 11.5057 20.9776 10.6552 20.0214 10.1458C19.6941 9.97103 19.2919 9.88589 18.9211 9.87737C17.6553 9.84782 16.3885 9.87086 15.1221 9.87386C15.1183 9.92746 15.114 9.98105 15.1102 10.0346L15.1102 10.0356Z" fill="#F2FF46"/>
<path d="M21.1032 28.0323C20.1962 27.7208 19.4165 26.6054 19.4094 25.5796C19.3998 24.2352 19.4218 22.8909 19.3998 21.547C19.3741 19.9713 18.4102 19.0962 17.0237 19.0251C16.0689 18.976 15.1079 19.0577 14.1527 19.0081C13.0929 18.953 11.8266 17.9147 11.8023 16.5974C11.7775 15.2675 11.808 13.9372 11.7913 12.6074C11.7822 11.9062 11.6095 11.253 11.1872 10.678C10.8046 10.1566 10.3055 9.88214 9.6995 9.87312C8.3783 9.85358 7.05661 9.87162 5.7354 9.87412C5.73206 9.92671 5.72872 9.97981 5.72538 10.0324C6.74504 10.5568 7.26942 11.4439 7.30806 12.6059C7.35244 13.9487 7.35196 15.2951 7.31188 16.6379C7.28087 17.6803 8.40979 19.0281 9.49195 19.0156C10.3685 19.0056 11.245 19.0101 12.1215 19.0166C13.0767 19.0236 13.8235 19.3958 14.1412 20.4055C14.251 20.7531 14.3097 21.1333 14.3159 21.4994C14.3364 22.7727 14.3445 24.0469 14.3183 25.3196C14.2906 26.6645 15.7253 28.1951 17.0265 28.148C18.3869 28.0985 19.75 28.138 21.1118 28.1385C21.109 28.103 21.1061 28.0679 21.1032 28.0323Z" fill="#F2FF46"/>
<path d="M53.9015 11.8212C54.6069 11.8212 55.2786 11.9911 55.5138 12.1951V16.9543C54.9427 16.7504 54.3717 16.6484 53.8007 16.6484C51.5503 16.6484 50.1731 18.4841 50.1731 21.3056V29.1243H45.0005V12.0931H50.1731V16.2064C50.5426 13.2829 51.4831 11.8212 53.9015 11.8212Z" fill="#1E1E1E"/>
<path d="M59.9522 9.95147C58.004 9.95147 56.9292 8.93164 56.9292 6.99396C56.9292 5.12427 58.0376 4.13843 59.9522 4.13843C61.9003 4.13843 63.0088 5.12427 63.0088 6.99396C63.0088 8.93164 61.9003 9.95147 59.9522 9.95147ZM62.5385 29.1243H57.3994V12.0931H62.5385V29.1243Z" fill="#1E1E1E"/>
<path d="M72.8558 20.6597L74.8375 12.0931H80.346L75.1734 29.1243H69.2953L64.0891 12.0931H69.6312L71.613 20.6597L72.2512 24.841L72.8558 20.6597Z" fill="#1E1E1E"/>
<path d="M88.195 11.7532C93.5356 11.7532 95.7189 16.2404 95.4838 22.3254H85.911C86.1125 24.977 86.7843 25.4529 88.5309 25.4529C89.7401 25.4529 90.4455 25.011 90.8485 23.2433L95.2151 24.1611C94.1738 27.7985 91.9234 29.4643 88.3294 29.4643C83.8285 29.4643 80.6712 25.9288 80.6712 20.7617C80.6712 15.3226 83.7949 11.7532 88.195 11.7532ZM88.3966 15.7305C86.6499 15.7305 86.0789 16.6484 85.911 18.926H90.5126C90.5798 16.5124 89.8745 15.7305 88.3966 15.7305Z" fill="#1E1E1E"/>
<path d="M106.679 11.8212C107.384 11.8212 108.056 11.9911 108.291 12.1951V16.9543C107.72 16.7504 107.149 16.6484 106.578 16.6484C104.328 16.6484 102.951 18.4841 102.951 21.3056V29.1243H97.778V12.0931H102.951V16.2064C103.32 13.2829 104.261 11.8212 106.679 11.8212Z" fill="#1E1E1E"/>
<path d="M119.548 12.0931V16.6484H116.391V24.5691H119.38V29.1243H116.76C113.435 29.1243 111.218 26.8467 111.218 23.4133V16.6484H109.001V12.0931H111.218V9.12994L116.391 7.12994V12.0931H119.548Z" fill="#1E1E1E"/>
<path d="M128.278 11.7532C133.619 11.7532 135.802 16.2404 135.567 22.3254H125.994C126.196 24.977 126.868 25.4529 128.614 25.4529C129.823 25.4529 130.529 25.011 130.932 23.2433L135.298 24.1611C134.257 27.7985 132.007 29.4643 128.413 29.4643C123.912 29.4643 120.755 25.9288 120.755 20.7617C120.755 15.3226 123.878 11.7532 128.278 11.7532ZM128.48 15.7305C126.733 15.7305 126.162 16.6484 125.994 18.926H130.596C130.663 16.5124 129.958 15.7305 128.48 15.7305Z" fill="#1E1E1E"/>
<path d="M143 29.1243H137.861V7.32823L143 5.32823V29.1243Z" fill="#1E1E1E"/>
</svg>
