<svg width="160" height="167" viewBox="0 0 160 167" fill="none" xmlns="http://www.w3.org/2000/svg">
<path d="M30.0822 54.2487L20.1296 48.4891C25.7406 45.2587 30.829 44.9611 34.4985 47.0864L44.4512 52.846C40.7816 50.7207 35.6933 51.0182 30.0822 54.2487Z" fill="#129CAD"/>
<path d="M30.082 54.2488L20.1294 48.4893C8.97134 54.9077 -0.0425911 70.4543 7.82013e-05 83.2273C0.0214138 89.5714 2.26156 94.0345 5.88846 96.1385L15.8411 101.898C12.2142 99.7941 9.96339 95.3309 9.95272 88.9869C9.92072 76.2138 18.9346 60.6672 30.082 54.2488Z" fill="#129CAD"/>
<path d="M30.082 54.2489C18.9239 60.6673 9.90999 76.2245 9.95266 88.9869C9.98466 101.76 19.0626 106.903 30.2206 100.495C41.3787 94.077 50.3926 78.5198 50.3499 65.7574C50.3179 52.9843 41.24 47.8411 30.082 54.2489Z" fill="#129CAD"/>
<path d="M30.9891 60.7309C39.267 55.9703 45.9874 59.7958 46.0194 69.264C46.0514 78.7323 39.363 90.2726 31.0851 95.0227C22.8072 99.7834 16.0868 95.9578 16.0548 86.4896C16.0228 77.0214 22.7112 65.4916 30.9891 60.7309Z" fill="#129CAD"/>
<path d="M26.7327 37.7567L39.9282 30.1162C39.8429 30.4138 37.3574 38.5962 36.4933 52.7613C34.3812 53.5158 27.9701 56.725 23.2978 60.4655C24.1725 46.2579 26.658 38.0542 26.7434 37.7567H26.7327Z" fill="#919BBD"/>
<path d="M37.9012 21.3172L51.0967 13.6768C45.6883 16.8116 41.7307 22.3586 39.9386 30.116L26.7431 37.7564C28.5352 29.9991 32.4928 24.452 37.9012 21.3172Z" fill="#0D6E7A"/>
<path d="M57.0068 9.8726C50.041 7.88544 43.4379 7.70479 37.6882 9.41566C28.3329 12.2104 21.7298 19.9359 19.095 31.1788C18.7643 32.2839 16.6308 39.765 15.6281 52.453C15.5854 52.9312 15.2227 52.8781 15.4147 53.3563C19.159 54.844 23.3086 60.306 23.3086 60.306C24.1833 46.1834 26.6581 38.0435 26.7435 37.7459C30.285 22.465 42.2111 15.7384 57.0921 19.2346C57.1134 16.1104 57.0708 12.9862 57.0068 9.86197V9.8726Z" fill="#129CAD"/>
<path d="M37.9654 56.4803C50.0089 49.5519 59.8122 55.1095 59.8548 68.9027C59.8975 82.6959 50.1582 99.4858 38.1148 106.414C26.0713 113.343 16.268 107.785 16.2253 93.9919C16.1827 80.1987 25.922 63.4088 37.9654 56.4803Z" fill="#0D6E7A"/>
<path d="M47.5126 51.5073C43.5444 49.212 38.0507 49.5308 31.9916 53.0163C19.9482 59.9448 10.2089 76.7453 10.2515 90.5279C10.2729 97.382 12.6943 102.196 16.6199 104.47L22.5937 107.923C18.6787 105.66 16.2466 100.836 16.2252 93.9815C16.1826 80.1883 25.9219 63.3984 37.9653 56.4699C44.0244 52.9844 49.5181 52.655 53.4863 54.9609L47.5126 51.5073Z" fill="#0D6E7A"/>
<path d="M127.859 109.762C139.902 102.833 149.706 108.391 149.748 122.184C149.791 135.977 140.052 152.767 128.008 159.706C115.965 166.635 106.162 161.077 106.119 147.284C106.076 133.491 115.816 116.701 127.859 109.772V109.762Z" fill="#0D6E7A"/>
<path d="M137.407 104.789C133.438 102.493 127.945 102.812 121.886 106.298C109.842 113.226 100.103 130.027 100.146 143.809C100.167 150.663 102.588 155.477 106.514 157.751L112.488 161.205C108.573 158.941 106.141 154.117 106.119 147.263C106.077 133.47 115.816 116.68 127.859 109.751C133.918 106.266 139.412 105.936 143.38 108.242L137.407 104.789Z" fill="#0D6E7A"/>
<path d="M139.732 117.997L129.78 112.238C135.391 109.007 140.479 108.71 144.148 110.835L154.101 116.595C150.432 114.469 145.343 114.767 139.732 117.997Z" fill="#BFC0E3"/>
<path d="M139.732 117.997L129.779 112.238C118.621 118.656 109.607 134.203 109.65 146.976C109.671 153.32 111.911 157.783 115.538 159.887L125.491 165.647C121.864 163.543 119.613 159.079 119.603 152.735C119.571 139.962 128.585 124.416 139.732 117.997Z" fill="#129CAD"/>
<path d="M139.732 117.997C128.574 124.416 119.56 139.962 119.603 152.735C119.635 165.508 128.713 170.652 139.871 164.244C151.018 157.825 160.032 142.268 160 129.495C159.968 116.722 150.89 111.579 139.732 117.987V117.997Z" fill="#129CAD"/>
<path d="M139.743 122.301C130.665 127.518 123.325 140.175 123.357 150.567C123.389 160.96 130.771 165.147 139.849 159.929C148.927 154.712 156.266 142.056 156.234 131.663C156.202 121.27 148.82 117.083 139.743 122.301Z" fill="#0D6E7A"/>
<path d="M140.65 124.49C148.928 119.73 155.648 123.555 155.68 133.023C155.712 142.492 149.024 154.032 140.746 158.782C132.468 163.543 125.747 159.717 125.715 150.249C125.683 140.781 132.372 129.24 140.65 124.49Z" fill="#129CAD"/>
<path d="M136.83 106.265C135.859 95.1182 132.435 83.0572 126.899 71.3999C121.33 59.6363 113.842 48.7441 105.265 39.9029C99.2597 33.7076 92.9126 28.6707 86.4162 24.9301L69.9778 15.4725C58.393 8.80971 46.9256 6.66315 37.6877 9.42604C31.2446 11.3494 26.1029 15.6213 22.668 21.7634C25.1429 24.2288 27.6177 26.6941 30.1032 29.1701C37.3997 16.8965 52.8673 14.6755 69.9564 24.5051L86.3948 33.9627C91.8885 37.1294 97.2649 41.3906 102.343 46.6188C117.106 61.8254 127.315 83.3334 129 102.737C129.224 105.33 129.502 108.656 129.79 112.248C130.184 117.317 135.774 125.17 135.774 125.17L138.366 126.02C138.132 117.7 137.502 113.938 136.841 106.276L136.83 106.265Z" fill="#129CAD"/>
<path d="M36.8985 153.756C39.0746 153.756 41.2401 153.203 43.1816 152.108L44.6323 151.29L42.5415 147.645L41.0908 148.464C38.4986 149.941 35.2771 149.93 32.6849 148.464L19.5214 140.961C11.2008 136.222 6.2405 125.914 7.46725 115.904L10.5821 97.3182L6.42185 96.6274L3.28564 115.309C1.84555 127.041 7.66993 139.059 17.4199 144.617L30.5834 152.119C32.5249 153.224 34.701 153.777 36.8878 153.777L36.8985 153.756Z" fill="#0D6E7A"/>
<path d="M33.7408 151.641C33.8048 155.137 41.8587 157.825 48.1844 157.687C49.2192 157.666 50.1366 157.581 50.9366 157.443C51.918 157.273 52.7394 157.018 53.4115 156.688C55.5343 155.658 56.2063 153.883 56.1636 151.662C56.121 149.59 55.4596 147.592 53.6141 146.338C52.9848 145.902 52.2274 145.562 51.2993 145.339C50.3606 145.105 49.2405 144.989 47.9391 145.01C41.6134 145.137 33.6768 148.134 33.7515 151.63L33.7408 151.641Z" fill="#00B2C6"/>
<path d="M49.849 155.466C50.1476 156.274 50.521 156.933 50.937 157.443C51.9183 157.273 52.7396 157.018 53.4116 156.688C55.5343 155.658 56.2063 153.883 56.1636 151.662C56.121 149.59 55.4596 147.592 53.6143 146.338C52.985 145.903 52.2276 145.563 51.2996 145.339C51.0863 145.488 50.8836 145.69 50.6916 145.934C49.0383 147.996 48.665 152.257 49.8596 155.466H49.849Z" fill="#0D6E7A"/>
<path d="M51.4916 154.382C51.961 155.657 52.665 156.454 53.4116 156.699C55.5343 155.668 56.2063 153.893 56.1636 151.673C56.121 149.6 55.4596 147.603 53.6143 146.349C53.1023 146.349 52.5796 146.614 52.1316 147.177C50.873 148.74 50.5956 151.959 51.5023 154.393L51.4916 154.382Z" fill="#0D6E7A"/>
<path d="M39.7787 134.862C41.2935 134.607 42.8189 134.352 44.3337 134.097C50.6808 133.034 56.3558 130.452 61.1348 126.424L56.8678 126.977C51.9075 131.153 46.1471 133.788 39.768 134.862H39.7787Z" fill="#F53D31"/>
<path d="M60.1215 17.7574C68.3887 16.3122 78.7787 18.5863 90.0754 25.0791C117.053 40.6044 138.74 74.1736 138.655 99.9641C138.633 107.998 136.51 114.352 132.787 118.837C131.838 119.984 130.889 121.121 129.929 122.269C133.769 117.657 135.956 111.101 135.977 102.812C136.052 76.2245 113.81 41.8265 86.2778 26.0036C74.7677 19.3833 64.1644 17.0561 55.7158 18.5332C57.1879 18.2781 58.6494 18.0231 60.1215 17.7681V17.7574Z" fill="#F53D31"/>
<path d="M47.9823 21.2856C57.1562 15.9723 70.9171 17.1625 86.2781 25.9931C113.8 41.8266 136.052 76.214 135.977 102.802C135.945 114.544 131.561 122.811 124.307 127.009L107.762 136.583C115.016 132.386 119.4 124.118 119.432 112.376C119.507 85.7885 97.2655 51.3905 69.7331 35.5676C54.3614 26.7263 40.6005 25.5468 31.4372 30.86L47.9823 21.2856Z" fill="#F53D31"/>
<path d="M56.8893 126.966C60.1642 129.389 62.9484 131.174 65.6792 132.789C92.6463 148.294 114.461 139.739 114.514 113.938C114.6 88.1475 92.913 54.5784 65.9459 39.053C38.9682 23.549 17.1534 32.1033 17.1001 57.9045C17.0574 71.4958 23.0418 87.2124 33.1651 102.09L32.7491 105.501C31.1597 118.242 26.6687 128.486 21.4097 133.958C35.2559 137.274 47.502 134.862 56.8893 126.966Z" fill="#FE8D49"/>
<path d="M25.8152 35.6097C34.2851 25.4189 50.7875 24.6857 69.7327 35.5778C97.2545 51.4114 119.507 85.7987 119.432 112.386C119.389 127.858 111.794 137.295 100.028 139.346C98.5559 139.601 97.0945 139.856 95.6224 140.111C107.1 138.102 114.482 128.932 114.514 113.938C114.6 88.1472 92.9129 54.5781 65.9351 39.0527C47.3526 28.3731 31.2236 29.1063 22.967 39.0421C23.9164 37.8944 24.8658 36.7574 25.8259 35.6097H25.8152Z" fill="#F53D31"/>
<path d="M78.6933 95.6498L76.5067 96.3405C77.6693 95.9792 79.0667 96.3724 80.432 97.6264L82.6187 96.9356C81.2533 95.6817 79.856 95.2885 78.6933 95.6498Z" fill="#F2FF46"/>
<mask id="mask0_59053_2206" style="mask-type:luminance" maskUnits="userSpaceOnUse" x="76" y="95" width="7" height="3">
<path d="M78.6933 95.6498L76.5067 96.3405C77.6693 95.9792 79.0667 96.3724 80.432 97.6264L82.6187 96.9356C81.2533 95.6817 79.856 95.2885 78.6933 95.6498Z" fill="white"/>
</mask>
<g mask="url(#mask0_59053_2206)">
<path d="M80.432 97.6264L82.6187 96.9356C81.2533 95.6817 79.856 95.2885 78.6933 95.6498L76.5067 96.3405C77.6693 95.9792 79.0667 96.3724 80.432 97.6264Z" fill="#B36333"/>
</g>
<path d="M81.4242 111.813L83.6109 111.122C84.7522 110.761 85.6589 109.655 86.0642 107.891C86.8749 104.321 85.3282 99.4222 82.6189 96.9355L80.4322 97.6263C83.1415 100.113 84.6882 105.012 83.8775 108.582C83.4722 110.346 82.5655 111.451 81.4242 111.813Z" fill="#F2FF46"/>
<mask id="mask1_59053_2206" style="mask-type:luminance" maskUnits="userSpaceOnUse" x="80" y="96" width="7" height="16">
<path d="M81.4242 111.813L83.6109 111.122C84.7522 110.761 85.6589 109.655 86.0642 107.891C86.8749 104.321 85.3282 99.4222 82.6189 96.9355L80.4322 97.6263C83.1415 100.113 84.6882 105.012 83.8775 108.582C83.4722 110.346 82.5655 111.451 81.4242 111.813Z" fill="white"/>
</mask>
<g mask="url(#mask1_59053_2206)">
<path d="M81.4242 111.813L83.6109 111.122C84.7522 110.761 85.6589 109.655 86.0642 107.891C86.8749 104.321 85.3282 99.4222 82.6189 96.9355L80.4322 97.6263C83.1415 100.113 84.6882 105.012 83.8775 108.582C83.4722 110.346 82.5655 111.451 81.4242 111.813Z" fill="#B36333"/>
</g>
<path d="M80.4323 97.6264C77.723 95.1398 74.8643 96.0111 74.0537 99.5817C73.243 103.142 74.7897 108.051 77.499 110.538C80.2083 113.024 83.067 112.142 83.8777 108.582C84.6883 105.012 83.1417 100.113 80.4323 97.6264Z" fill="#F53D31"/>
<path d="M63.2573 81.5165L61.0706 82.2072C62.2333 81.8459 63.6306 82.2391 64.996 83.4931L67.1826 82.8023C65.8173 81.5484 64.42 81.1552 63.2573 81.5165Z" fill="#DAE63F"/>
<mask id="mask2_59053_2206" style="mask-type:luminance" maskUnits="userSpaceOnUse" x="61" y="81" width="7" height="3">
<path d="M63.2573 81.5165L61.0706 82.2072C62.2333 81.8459 63.6306 82.2391 64.996 83.4931L67.1826 82.8023C65.8173 81.5484 64.42 81.1552 63.2573 81.5165Z" fill="white"/>
</mask>
<g mask="url(#mask2_59053_2206)">
<path d="M65.0067 83.4931L67.1934 82.8023C65.828 81.5484 64.4307 81.1552 63.268 81.5165L61.0814 82.2072C62.244 81.8459 63.6414 82.2391 65.0067 83.4931Z" fill="#B36333"/>
</g>
<path d="M65.999 97.6793L68.1857 96.9885C69.327 96.6272 70.2337 95.5221 70.639 93.7474C71.4497 90.1769 69.9137 85.2887 67.1937 82.7915L65.007 83.4822C67.727 85.9688 69.263 90.8677 68.4523 94.4382C68.047 96.2128 67.1403 97.3179 65.999 97.6793Z" fill="#DAE63F"/>
<mask id="mask3_59053_2206" style="mask-type:luminance" maskUnits="userSpaceOnUse" x="65" y="82" width="6" height="16">
<path d="M65.999 97.6793L68.1857 96.9885C69.327 96.6272 70.2337 95.5221 70.639 93.7474C71.4497 90.1769 69.9137 85.2887 67.1937 82.7915L65.007 83.4822C67.727 85.9688 69.263 90.8677 68.4523 94.4382C68.047 96.2128 67.1403 97.3179 65.999 97.6793Z" fill="white"/>
</mask>
<g mask="url(#mask3_59053_2206)">
<path d="M65.999 97.6793L68.1857 96.9885C69.327 96.6272 70.2337 95.5221 70.639 93.7474C71.4497 90.1769 69.9137 85.2887 67.1937 82.7915L65.007 83.4822C67.727 85.9688 69.263 90.8677 68.4523 94.4382C68.047 96.2128 67.1403 97.3179 65.999 97.6793Z" fill="#B36333"/>
</g>
<path d="M65.0072 83.4931C62.2978 81.0065 59.4392 81.8778 58.6285 85.4484C57.8178 89.0082 59.3645 93.9177 62.0738 96.4043C64.7938 98.8909 67.6418 98.0089 68.4525 94.449C69.2632 90.8785 67.7272 85.9903 65.0072 83.4931Z" fill="#F53D31"/>
<path d="M47.833 67.3832L45.6463 68.0739C46.809 67.7126 48.2063 68.1058 49.5716 69.3598L51.7583 68.669C50.393 67.4151 48.9956 67.0219 47.833 67.3832Z" fill="#3B8CF7"/>
<mask id="mask4_59053_2206" style="mask-type:luminance" maskUnits="userSpaceOnUse" x="45" y="67" width="7" height="3">
<path d="M47.833 67.3832L45.6463 68.0739C46.809 67.7126 48.2063 68.1058 49.5716 69.3598L51.7583 68.669C50.393 67.4151 48.9956 67.0219 47.833 67.3832Z" fill="white"/>
</mask>
<g mask="url(#mask4_59053_2206)">
<path d="M49.5716 69.3598L51.7583 68.669C50.393 67.4151 48.9956 67.0219 47.833 67.3832L45.6463 68.0739C46.809 67.7126 48.2063 68.1058 49.5716 69.3598Z" fill="#B36333"/>
</g>
<path d="M50.5635 83.5459L52.7501 82.8552C53.8915 82.4939 54.7981 81.3888 55.2035 79.6141C56.0141 76.0436 54.4781 71.1554 51.7581 68.6582L49.5715 69.3489C52.2915 71.8355 53.8275 76.7344 53.0168 80.3049C52.6115 82.0689 51.7048 83.1846 50.5635 83.5459Z" fill="#DAE63F"/>
<mask id="mask5_59053_2206" style="mask-type:luminance" maskUnits="userSpaceOnUse" x="49" y="68" width="7" height="16">
<path d="M50.5635 83.5459L52.7501 82.8552C53.8915 82.4939 54.7981 81.3888 55.2035 79.6141C56.0141 76.0436 54.4781 71.1554 51.7581 68.6582L49.5715 69.3489C52.2915 71.8355 53.8275 76.7344 53.0168 80.3049C52.6115 82.0689 51.7048 83.1846 50.5635 83.5459Z" fill="white"/>
</mask>
<g mask="url(#mask5_59053_2206)">
<path d="M50.5635 83.5459L52.7501 82.8552C53.8915 82.4939 54.7981 81.3888 55.2035 79.6141C56.0141 76.0436 54.4781 71.1554 51.7581 68.6582L49.5715 69.3489C52.2915 71.8355 53.8275 76.7344 53.0168 80.3049C52.6115 82.0689 51.7048 83.1846 50.5635 83.5459Z" fill="#B36333"/>
</g>
<path d="M49.5716 69.3598C46.8623 66.8732 44.0036 67.7445 43.193 71.3151C42.3823 74.8749 43.929 79.7844 46.6383 82.271C49.3583 84.7576 52.2063 83.8756 53.0169 80.3157C53.8276 76.7452 52.2916 71.857 49.5716 69.3598Z" fill="#F53D31"/>
<path d="M45.5286 4.08112C47.1927 3.11411 48.9742 2.349 50.873 1.77517C60.1109 -0.987728 71.5783 1.15883 83.1631 7.82165L99.6015 17.2792C106.098 21.0198 112.445 26.0567 118.451 32.252C127.038 41.0933 134.516 51.9854 140.084 63.749C145.61 75.4169 149.045 87.4674 150.015 98.6146C150.591 105.309 151.541 116.903 151.583 118.391C151.583 118.603 151.562 121.302 151.562 121.302L150.591 123.077L138.388 125.978C138.335 124.341 137.396 112.886 136.82 106.244C135.849 95.0972 132.425 83.0361 126.889 71.3788C121.32 59.6153 113.832 48.7231 105.255 39.8818C99.2494 33.6866 92.9024 28.6496 86.4059 24.9091L69.9675 15.4515C58.3828 8.78866 46.9154 6.64211 37.6774 9.405C35.7786 9.96821 33.9865 10.7439 32.3331 11.711L45.5286 4.07049V4.08112Z" fill="#68E9D0"/>
<path d="M138.356 125.999H138.398C138.398 126.244 138.398 126.266 138.356 125.999Z" fill="url(#paint0_linear_59053_2206)"/>
<defs>
<linearGradient id="paint0_linear_59053_2206" x1="138.334" y1="126.159" x2="138.43" y2="126.01" gradientUnits="userSpaceOnUse">
<stop stop-color="#EAE8FA"/>
<stop offset="0.71" stop-color="#EEEBFC"/>
</linearGradient>
</defs>
</svg>
