<svg width="180" height="180" viewBox="0 0 180 180" fill="none" xmlns="http://www.w3.org/2000/svg">
<path d="M52.7808 49.705L90.0532 71.5181L127.326 49.705L90.0532 27.6475L52.7808 49.705Z" fill="#FCC400"/>
<path d="M52.7808 49.7051V75.6832L90.0532 97.4963V71.5182L52.7808 49.7051Z" fill="#BA5201"/>
<path d="M127.326 49.7051V75.6832L90.0532 97.4963V71.5182L127.326 49.7051Z" fill="#DD7D04"/>
<path d="M5 77.9887L42.2725 99.8018L79.545 77.9887L42.2725 55.9312L5 77.9887Z" fill="#F2FF46"/>
<path d="M5 77.9888V103.967L42.2725 125.78V99.8019L5 77.9888Z" fill="#E6E33F"/>
<path d="M79.545 77.9888V103.967L42.2725 125.78V99.8019L79.545 77.9888Z" fill="#B1CC38"/>
<path d="M100.466 77.9252L137.728 99.7383L175 77.9252L137.728 55.8677L100.466 77.9252Z" fill="#35F9F5"/>
<path d="M100.466 77.9253V103.903L137.728 125.717V99.7384L100.466 77.9253Z" fill="#4EC4B4"/>
<path d="M175 77.9253V103.903L137.728 125.717V99.7384L175 77.9253Z" fill="#30E0D2"/>
<path d="M52.6743 106.209L89.9468 128.022L127.219 106.209L89.9468 84.1514L52.6743 106.209Z" fill="#A66DFB"/>
<path d="M52.6743 106.209V132.187L89.9468 154V128.022L52.6743 106.209Z" fill="#4525A4"/>
<path d="M127.22 106.209V132.187L89.9473 154V128.022L127.22 106.209Z" fill="#7358CC"/>
</svg>
