<svg width="250" height="73" viewBox="0 0 250 73" fill="none" xmlns="http://www.w3.org/2000/svg">
<path d="M73 36.5C73 56.6584 56.6584 73 36.5 73C16.3416 73 8.81151e-07 56.6584 0 36.5C-8.81152e-07 16.3416 16.3416 8.81151e-07 36.5 0C56.6584 -8.81151e-07 73 16.3416 73 36.5Z" fill="#F2FF46"/>
<path d="M29.2386 19.1522C31.2274 20.3086 31.7713 22.247 31.7962 24.4385C31.823 26.7375 31.8008 29.0376 31.8036 31.3366C31.8064 33.5126 33.0999 35.4888 35.0491 36.1945C35.6114 36.398 36.2309 36.4988 36.8274 36.5143C38.47 36.557 40.1153 36.4814 41.757 36.5434C43.4587 36.6083 44.9932 37.1715 45.8685 38.8337C46.224 39.5093 46.4779 40.3341 46.4964 41.0988C46.561 43.8602 46.4659 46.6255 46.5102 49.3878C46.5389 51.21 48.5351 54.2834 50.956 54.202C53.641 54.1119 56.3297 54.1807 59.0166 54.1807C59.0083 54.1158 59.0009 54.0508 58.9926 53.9849C57.7101 53.6195 56.8403 52.7327 56.1599 51.5763C55.6086 50.6391 55.3704 49.6388 55.3787 48.5426C55.3972 46.135 55.3806 43.7274 55.3843 41.3198C55.388 38.6273 53.678 36.5385 50.8101 36.5298C49.0632 36.525 47.3108 36.6267 45.5721 36.5095C43.804 36.3902 42.3147 35.1399 41.7967 33.089C41.6425 32.4764 41.6425 31.8115 41.6379 31.1699C41.6203 28.8447 41.6582 26.5185 41.6222 24.1933C41.588 21.997 40.5927 20.3512 38.7423 19.3655C38.1089 19.0272 37.3306 18.8624 36.6132 18.846C34.1636 18.7888 31.7122 18.8334 29.2617 18.8392C29.2543 18.9429 29.246 19.0466 29.2386 19.1503L29.2386 19.1522Z" fill="#1E1E1E"/>
<path d="M40.8354 53.9777C39.0802 53.3748 37.5715 51.2163 37.5576 49.2313C37.5392 46.6298 37.5817 44.0284 37.5392 41.4279C37.4893 38.3787 35.6242 36.6854 32.941 36.5478C31.0935 36.4528 29.2339 36.6108 27.3854 36.5148C25.3347 36.4082 22.8842 34.3989 22.8372 31.8498C22.7891 29.2765 22.8482 26.7022 22.8159 24.1288C22.7984 22.7719 22.4641 21.508 21.647 20.3953C20.9065 19.3863 19.9407 18.8552 18.7681 18.8377C16.2114 18.7999 13.6538 18.8348 11.0971 18.8397C11.0907 18.9415 11.0842 19.0442 11.0778 19.146C13.0509 20.1608 14.0656 21.8773 14.1404 24.1259C14.2263 26.7245 14.2254 29.3298 14.1478 31.9283C14.0878 33.9453 16.2724 36.5536 18.3664 36.5293C20.0626 36.51 21.7587 36.5187 23.4549 36.5313C25.3033 36.5449 26.7483 37.265 27.3633 39.219C27.5756 39.8917 27.6892 40.6273 27.7012 41.3358C27.7409 43.7996 27.7566 46.2654 27.7058 48.7282C27.6523 51.3307 30.4287 54.2927 32.9466 54.2016C35.579 54.1056 38.2169 54.1822 40.8521 54.1831C40.8465 54.1143 40.841 54.0465 40.8354 53.9777Z" fill="#1E1E1E"/>
<path d="M101.805 23.7409C102.978 23.7409 104.095 24.0228 104.486 24.3611V32.2537C103.537 31.9154 102.587 31.7463 101.637 31.7463C97.894 31.7463 95.6035 34.7906 95.6035 39.4698V52.4362H87V24.1919H95.6035V31.0134C96.218 26.1651 97.7823 23.7409 101.805 23.7409Z" fill="white"/>
<path d="M111.869 20.6403C108.628 20.6403 106.841 18.949 106.841 15.7356C106.841 12.6349 108.684 11 111.869 11C115.109 11 116.953 12.6349 116.953 15.7356C116.953 18.949 115.109 20.6403 111.869 20.6403ZM116.17 52.4362H107.623V24.1919H116.17V52.4362Z" fill="white"/>
<path d="M133.331 38.3987L136.627 24.1919H145.789L137.186 52.4362H127.409L118.749 24.1919H127.967L131.264 38.3987L132.325 45.3329L133.331 38.3987Z" fill="white"/>
<path d="M158.844 23.6282C167.727 23.6282 171.358 31.0698 170.967 41.1611H155.045C155.38 45.5584 156.498 46.3477 159.403 46.3477C161.414 46.3477 162.587 45.6148 163.257 42.6832L170.52 44.2054C168.788 50.2376 165.045 53 159.067 53C151.581 53 146.33 47.1369 146.33 38.5678C146.33 29.5476 151.525 23.6282 158.844 23.6282ZM159.179 30.2242C156.274 30.2242 155.324 31.7463 155.045 35.5235H162.699C162.811 31.5208 161.637 30.2242 159.179 30.2242Z" fill="white"/>
<path d="M189.588 23.7409C190.761 23.7409 191.878 24.0228 192.269 24.3611V32.2537C191.32 31.9154 190.37 31.7463 189.42 31.7463C185.677 31.7463 183.387 34.7906 183.387 39.4698V52.4362H174.783V24.1919H183.387V31.0134C184.001 26.1651 185.565 23.7409 189.588 23.7409Z" fill="white"/>
<path d="M210.993 24.1919V31.7463H205.741V44.8819H210.713V52.4362H206.356C200.825 52.4362 197.138 48.6591 197.138 42.9651V31.7463H193.45V24.1919H197.138V19.2778L205.741 15.9611V24.1919H210.993Z" fill="white"/>
<path d="M225.513 23.6282C234.396 23.6282 238.027 31.0698 237.636 41.1611H221.714C222.05 45.5584 223.167 46.3477 226.072 46.3477C228.083 46.3477 229.256 45.6148 229.927 42.6832L237.189 44.2054C235.458 50.2376 231.715 53 225.737 53C218.251 53 212.999 47.1369 212.999 38.5678C212.999 29.5476 218.195 23.6282 225.513 23.6282ZM225.848 30.2242C222.943 30.2242 221.994 31.7463 221.714 35.5235H229.368C229.48 31.5208 228.307 30.2242 225.848 30.2242Z" fill="white"/>
<path d="M250 52.4362H241.452V16.2899L250 12.9732V52.4362Z" fill="white"/>
</svg>
