<svg width="180" height="180" viewBox="0 0 180 180" fill="none" xmlns="http://www.w3.org/2000/svg">
<path d="M134.186 87.6305L121.605 68.7816C121.605 68.7816 153.297 43.2931 147.096 32.3238C140.896 21.3644 172.687 33.9437 167.797 46.9829C159.787 68.3416 134.186 87.6405 134.186 87.6405V87.6305Z" fill="#C0CC38"/>
<path d="M45.7918 92.3699L58.3724 111.219C58.3724 111.219 26.6809 136.707 32.8812 147.677C39.0815 158.636 7.28996 146.057 12.1802 133.017C20.1906 111.659 45.7918 92.3599 45.7918 92.3599V92.3699Z" fill="#C0CC38"/>
<mask id="mask0_398_7373" style="mask-type:luminance" maskUnits="userSpaceOnUse" x="26" y="94" width="123" height="61">
<path d="M143.516 94.8096C141.506 124.338 117.055 147.676 87.1733 147.676C57.2919 147.676 32.8407 124.348 30.8306 94.8096H26.4404V154.406H148.966V94.8096H143.506H143.516Z" fill="white"/>
</mask>
<g mask="url(#mask0_398_7373)">
<mask id="mask1_398_7373" style="mask-type:luminance" maskUnits="userSpaceOnUse" x="48" y="85" width="97" height="61">
<path d="M121.106 145.087C121.746 144.757 122.376 144.427 122.986 144.077C143.087 132.738 143.537 114.029 124.006 102.29C104.465 90.5503 72.3434 90.2203 52.2425 101.56L48.3223 94.81C70.6533 82.2108 106.365 82.5707 128.076 95.62C149.787 108.669 149.277 129.458 126.946 142.057C126.266 142.447 125.566 142.817 124.856 143.177C123.606 143.817 122.366 144.447 121.116 145.087H121.106Z" fill="white"/>
</mask>
<g mask="url(#mask1_398_7373)">
<path d="M121.105 145.087L124.845 143.177C125.555 142.817 126.255 142.437 126.935 142.057C149.266 129.458 149.776 108.669 128.065 95.62C106.354 82.5707 70.6526 82.2108 48.3115 94.81L52.2317 101.56C72.3327 90.2203 104.464 90.5503 123.995 102.29C143.536 114.029 143.076 132.738 122.975 144.077C122.355 144.427 121.735 144.757 121.095 145.087H121.105Z" fill="#E3E2AF"/>
</g>
<mask id="mask2_398_7373" style="mask-type:luminance" maskUnits="userSpaceOnUse" x="52" y="92" width="74" height="12">
<path d="M124.634 102.67C124.874 102.83 125.114 102.98 125.365 103.14C124.924 102.85 124.474 102.57 124.014 102.3C104.473 90.5598 72.3519 90.2298 52.251 101.57L52.931 101.13C72.642 90.0098 104.153 90.3298 123.314 101.84C123.764 102.11 124.214 102.39 124.644 102.67H124.634Z" fill="white"/>
</mask>
<g mask="url(#mask2_398_7373)">
<path d="M124.634 102.67L125.365 103.14C124.924 102.85 124.474 102.57 124.014 102.3C104.473 90.5598 72.3519 90.2298 52.251 101.57L52.931 101.13C72.642 90.0098 104.153 90.3298 123.314 101.84C123.764 102.11 124.214 102.39 124.644 102.67H124.634Z" fill="#E3E2AF"/>
</g>
<mask id="mask3_398_7373" style="mask-type:luminance" maskUnits="userSpaceOnUse" x="31" y="94" width="24" height="51">
<path d="M50.281 142.977C49.221 142.427 48.1909 141.857 47.1909 141.247C25.4798 128.198 25.9898 107.409 48.3209 94.8101L52.2411 101.56C32.1401 112.899 31.6901 131.608 51.2211 143.347C52.1211 143.887 53.0511 144.407 54.0012 144.897C52.7611 144.257 51.5211 143.607 50.271 142.967L50.281 142.977Z" fill="white"/>
</mask>
<g mask="url(#mask3_398_7373)">
<path d="M52.2411 101.56L48.3209 94.8101C25.9898 107.409 25.4798 128.198 47.1909 141.247C48.1909 141.847 49.221 142.427 50.281 142.977L54.0112 144.907C53.0611 144.417 52.1311 143.897 51.2311 143.357C31.6901 131.618 32.1501 112.909 52.2511 101.57L52.2411 101.56Z" fill="#E3E2AF"/>
</g>
<mask id="mask4_398_7373" style="mask-type:luminance" maskUnits="userSpaceOnUse" x="49" y="101" width="4" height="2">
<path d="M49.9717 102.93C50.2117 102.77 50.4617 102.62 50.7017 102.46C51.4117 102 52.1517 101.56 52.9317 101.12L52.2517 101.56C51.4617 102 50.7117 102.46 49.9817 102.92L49.9717 102.93Z" fill="white"/>
</mask>
<g mask="url(#mask4_398_7373)">
<path d="M52.9217 101.119L52.2417 101.559C51.4517 101.999 50.7017 102.459 49.9717 102.919L50.7017 102.449C51.4117 101.989 52.1517 101.549 52.9317 101.109L52.9217 101.119Z" fill="#E3E2AF"/>
</g>
<mask id="mask5_398_7373" style="mask-type:luminance" maskUnits="userSpaceOnUse" x="36" y="102" width="103" height="51">
<path d="M50.7022 102.459C33.2113 113.669 33.5213 131.038 51.9322 142.107C71.0931 153.626 102.605 153.946 122.316 142.827C141.557 131.968 142.447 114.219 124.646 102.669C124.886 102.829 125.126 102.979 125.376 103.139C143.527 114.919 142.627 133.018 123.006 144.087C102.905 155.426 70.7731 155.096 51.2422 143.357C32.4713 132.078 32.1613 114.359 49.9921 102.929C50.2321 102.769 50.4821 102.619 50.7222 102.459H50.7022Z" fill="white"/>
</mask>
<g mask="url(#mask5_398_7373)">
<path d="M50.7012 102.459L49.9711 102.929C32.1403 114.359 32.4503 132.068 51.2212 143.357C70.7621 155.096 102.884 155.426 122.985 144.087C142.606 133.018 143.506 114.919 125.355 103.139L124.625 102.669C142.426 114.219 141.546 131.968 122.295 142.827C102.584 153.946 71.0721 153.626 51.9112 142.107C33.5003 131.048 33.1903 113.669 50.6812 102.459H50.7012Z" fill="#E3E2AF"/>
</g>
<mask id="mask6_398_7373" style="mask-type:luminance" maskUnits="userSpaceOnUse" x="32" y="94" width="21" height="49">
<path d="M49.1497 94.3896L52.9197 101.129C33.2097 112.249 32.7597 130.597 51.9197 142.107L48.0397 139.837C26.7897 127.068 27.2897 106.719 49.1497 94.3896Z" fill="white"/>
</mask>
<g mask="url(#mask6_398_7373)">
<path d="M49.1497 94.3896L52.9197 101.129C33.2097 112.249 32.7597 130.597 51.9197 142.107L48.0397 139.837C26.7897 127.068 27.2897 106.719 49.1497 94.3896Z" fill="#47CC4D"/>
</g>
<mask id="mask7_398_7373" style="mask-type:luminance" maskUnits="userSpaceOnUse" x="49" y="85" width="94" height="58">
<path d="M126.096 140.627L122.305 142.817C142.016 131.698 142.466 113.349 123.305 101.83C104.144 90.3105 72.633 89.9905 52.922 101.12L49.1519 94.3802C71.0129 82.051 105.955 82.4009 127.206 95.1702C148.457 107.939 147.957 128.288 126.096 140.617V140.627Z" fill="white"/>
</mask>
<g mask="url(#mask7_398_7373)">
<path d="M126.096 140.627L122.306 142.817C142.017 131.698 142.467 113.349 123.306 101.83C104.145 90.3105 72.6335 89.9905 52.9225 101.12L49.1523 94.3802C71.0134 82.051 105.955 82.4009 127.206 95.1702C148.457 107.939 147.957 128.288 126.096 140.617V140.627Z" fill="#47CC4D"/>
</g>
<path d="M54.0007 144.907C52.7606 144.267 51.5206 143.617 50.2705 142.977C71.4515 153.937 103.483 154.077 124.834 143.187C123.584 143.827 122.344 144.457 121.094 145.097C101.883 154.907 73.0516 154.777 53.9907 144.907H54.0007Z" fill="#59FF60"/>
<mask id="mask8_398_7373" style="mask-type:luminance" maskUnits="userSpaceOnUse" x="50" y="142" width="75" height="11">
<path d="M54.0002 144.907C52.7601 144.267 51.5201 143.617 50.27 142.977C71.451 153.937 103.483 154.077 124.834 143.187C123.584 143.827 122.343 144.457 121.093 145.097C101.882 154.907 73.0511 154.777 53.9902 144.907H54.0002Z" fill="white"/>
</mask>
<g mask="url(#mask8_398_7373)">
<path d="M53.9997 144.907L50.2695 142.977C71.4505 153.937 103.482 154.077 124.833 143.187L121.093 145.097C101.882 154.907 73.0506 154.777 53.9897 144.907H53.9997Z" fill="#59FF60"/>
</g>
<mask id="mask9_398_7373" style="mask-type:luminance" maskUnits="userSpaceOnUse" x="48" y="139" width="79" height="12">
<path d="M48.0508 139.837C69.3018 152.607 104.243 152.957 126.105 140.627L122.314 142.817C102.603 153.937 71.0919 153.617 51.931 142.097C50.7709 141.417 49.2208 140.507 48.0508 139.827V139.837Z" fill="white"/>
</mask>
<g mask="url(#mask9_398_7373)">
<path d="M48.0508 139.837L51.931 142.107C71.0919 153.627 102.603 153.947 122.314 142.827L126.105 140.637C104.243 152.967 69.3018 152.617 48.0508 139.847V139.837Z" fill="#E3E2AF"/>
</g>
<path d="M123.845 93.3198C124.105 93.4498 124.365 93.5898 124.635 93.7198C125.815 94.3198 126.965 94.9597 128.075 95.6197C149.786 108.669 149.276 129.458 126.945 142.057C104.614 154.656 68.9019 154.296 47.1909 141.247C25.4798 128.198 25.9898 107.409 48.3209 94.8097L49.161 94.3898C27.2999 106.719 26.8099 127.068 48.0509 139.837C69.3019 152.606 104.244 152.956 126.105 140.627C147.966 128.298 148.456 107.949 127.215 95.1797C126.125 94.5298 125.005 93.9098 123.855 93.3198H123.845Z" fill="#50E657"/>
<mask id="mask10_398_7373" style="mask-type:luminance" maskUnits="userSpaceOnUse" x="31" y="93" width="114" height="59">
<path d="M123.845 93.3198C124.105 93.4498 124.365 93.5898 124.635 93.7198C125.815 94.3198 126.965 94.9597 128.075 95.6197C149.786 108.669 149.276 129.458 126.945 142.057C104.614 154.656 68.9019 154.296 47.1909 141.247C25.4798 128.198 25.9898 107.409 48.3209 94.8097L49.161 94.3898C27.2999 106.719 26.8099 127.068 48.0509 139.837C69.3019 152.606 104.244 152.956 126.105 140.627C147.966 128.298 148.456 107.949 127.215 95.1797C126.125 94.5298 125.005 93.9098 123.855 93.3198H123.845Z" fill="white"/>
</mask>
<g mask="url(#mask10_398_7373)">
<path d="M48.3109 94.8097L49.151 94.3898C27.2899 106.719 26.7999 127.068 48.0409 139.837C69.2919 152.606 104.234 152.956 126.095 140.627C147.956 128.298 148.446 107.949 127.205 95.1797C126.115 94.5298 124.995 93.9098 123.845 93.3198L124.635 93.7198C125.815 94.3198 126.965 94.9597 128.075 95.6197C149.786 108.669 149.276 129.458 126.945 142.057C104.614 154.656 68.9019 154.296 47.1909 141.247C25.4798 128.198 25.9898 107.409 48.3209 94.8097H48.3109Z" fill="#50E657"/>
</g>
</g>
<path d="M87.1729 147.677C118.373 147.677 143.666 122.248 143.666 90.8801C143.666 59.5122 118.373 34.0835 87.1729 34.0835C55.9728 34.0835 30.6802 59.5122 30.6802 90.8801C30.6802 122.248 55.9728 147.677 87.1729 147.677Z" fill="url(#paint0_radial_398_7373)"/>
<mask id="mask11_398_7373" style="mask-type:luminance" maskUnits="userSpaceOnUse" x="21" y="44" width="136" height="88">
<path d="M120.374 44.9526C132.945 54.1521 141.595 68.4212 143.335 84.7902H31.0099C32.75 68.4312 41.4004 54.1521 53.971 44.9526H21.2095V127.908C21.2095 132.877 156.116 132.877 156.116 127.908V44.9526H120.374Z" fill="white"/>
</mask>
<g mask="url(#mask11_398_7373)">
<mask id="mask12_398_7373" style="mask-type:luminance" maskUnits="userSpaceOnUse" x="25" y="49" width="125" height="44">
<path d="M149.534 85.351L149.514 92.8606C149.544 83.5511 143.423 74.2217 131.183 67.1121C106.852 52.9929 67.5497 52.9929 43.3885 67.1121C31.3779 74.1317 25.3677 83.3111 25.3477 92.5006L25.3677 84.991C25.3977 75.8016 31.4079 66.6221 43.4085 59.6025C67.5697 45.4834 106.882 45.4834 131.203 59.6025C143.443 66.7121 149.564 76.0316 149.534 85.351Z" fill="white"/>
</mask>
<g mask="url(#mask12_398_7373)">
<path d="M149.533 85.351L149.513 92.8606C149.543 83.5511 143.423 74.2217 131.182 67.1121C106.851 52.9929 67.5492 52.9929 43.388 67.1121C31.3775 74.1317 25.3672 83.3111 25.3472 92.5006L25.3672 84.991C25.3972 75.8016 31.4075 66.6221 43.408 59.6025C67.5692 45.4834 106.881 45.4834 131.202 59.6025C143.443 66.7121 149.563 76.0316 149.533 85.351Z" fill="#47CC4D"/>
</g>
<mask id="mask13_398_7373" style="mask-type:luminance" maskUnits="userSpaceOnUse" x="23" y="84" width="129" height="46">
<path d="M151.104 85.3495L151.084 92.859C151.054 102.288 144.894 111.698 132.583 118.887C107.802 133.367 67.5003 133.367 42.5591 118.887C30.0085 111.608 23.7382 102.038 23.7682 92.489L23.7882 84.9795C23.7582 94.5289 30.0285 104.088 42.5791 111.378C67.5203 125.857 107.822 125.857 132.603 111.378C144.914 104.188 151.074 94.7789 151.104 85.3495Z" fill="white"/>
</mask>
<g mask="url(#mask13_398_7373)">
<path d="M151.104 85.3495L151.084 92.859C151.054 102.288 144.894 111.698 132.583 118.887C107.802 133.367 67.4998 133.367 42.5586 118.887C30.008 111.608 23.7377 102.038 23.7677 92.489L23.7877 84.9795C23.7577 94.5289 30.028 104.088 42.5786 111.378C67.5198 125.857 107.822 125.857 132.603 111.378C144.914 104.188 151.074 94.7789 151.104 85.3495Z" fill="#59FF60"/>
</g>
<path d="M132.314 58.9619C157.255 73.441 157.385 96.9096 132.604 111.389C107.823 125.868 67.5209 125.868 42.5797 111.389C17.6385 96.9096 17.4985 73.441 42.2897 58.9619C67.0608 44.4828 107.373 44.4828 132.314 58.9619ZM43.6897 110.739C68.0209 124.858 107.323 124.858 131.494 110.739C155.655 96.6196 155.525 73.731 131.204 59.6118C106.873 45.4927 67.5709 45.4927 43.4097 59.6118C19.2385 73.731 19.3686 96.6196 43.6997 110.739H43.6897Z" fill="#50E657"/>
</g>
<mask id="mask14_398_7373" style="mask-type:luminance" maskUnits="userSpaceOnUse" x="26" y="28" width="118" height="74">
<path d="M26.4404 28.0537V101.569H143.666V28.0537H26.4404ZM44.8413 53.2922C55.1918 41.5229 70.3125 34.0933 87.1633 34.0933C104.014 34.0933 119.135 41.5229 129.485 53.2922H44.8413Z" fill="white"/>
</mask>
<g mask="url(#mask14_398_7373)">
<path d="M137.196 54.2022L133.655 49.5924C131.275 46.4926 127.935 43.5728 123.635 40.983C103.944 29.1537 71.5624 28.8237 51.3014 40.243L48.5713 44.1428C70.3723 31.8435 105.214 32.2035 126.405 44.9327C131.035 47.7126 134.625 50.8524 137.186 54.1922L137.196 54.2022Z" fill="#E3E2AF"/>
<path d="M49.4409 45.2523L48.5809 44.1524C26.7798 56.4517 26.2898 76.7404 47.4808 89.4697C68.6719 102.199 103.514 102.559 125.315 90.2596C147.116 77.9604 147.606 57.6716 126.415 44.9424C105.224 32.2131 70.3819 31.8531 48.5809 44.1524L49.4409 45.2523C70.7519 33.2331 104.814 33.573 125.525 46.0223C146.236 58.4715 145.756 78.3004 124.445 90.3296C103.133 102.349 69.0719 101.999 48.3609 89.5597C27.6499 77.1104 28.1299 57.2816 49.4409 45.2623V45.2523Z" fill="#E3E2AF"/>
<path d="M52.2596 41.583L49.4396 45.253C44.8696 47.833 41.2496 50.773 38.5996 53.923L42.2396 49.603C44.6896 46.693 48.0396 43.963 52.2696 41.583H52.2596Z" fill="#9DBA79"/>
<path d="M131.755 49.8622L135.366 54.202C132.915 51.2621 129.645 48.4923 125.525 46.0225C104.814 33.5732 70.7524 33.2332 49.4414 45.2525L52.2615 41.5827C71.9725 30.4634 103.484 30.7834 122.645 42.3027C126.455 44.5925 129.485 47.1524 131.755 49.8722V49.8622Z" fill="#47CC4D"/>
<path d="M40.33 49.3327L36.77 53.9227C39.53 50.3627 43.01 46.7727 48.12 43.8927L48.28 43.8327L51.3 40.2627C46.55 42.9427 42.9 46.0227 40.33 49.3327Z" fill="#E3E2AF"/>
<path d="M42.2312 49.6021L38.591 53.9218C28.8906 65.4511 32.0907 79.7802 48.3515 89.5497C69.0625 101.999 103.124 102.339 124.435 90.3196C141.506 80.6902 145.216 66.0411 135.356 54.2018L131.746 49.862C140.856 60.8214 137.436 74.3706 121.645 83.28C101.934 94.3994 70.4226 94.0794 51.2617 82.5601C36.2109 73.5206 33.2608 60.2614 42.2312 49.6021Z" fill="#E3E2AF"/>
<path d="M36.7698 53.912L40.33 49.3223C31.9396 60.1316 35.1997 73.3108 50.2805 82.3703C69.9714 94.1996 102.353 94.5296 122.614 83.1002C138.445 74.1708 142.185 60.6916 133.664 49.5922L137.205 54.202C146.375 66.1513 142.355 80.6504 125.314 90.2598C103.513 102.559 68.6714 102.199 47.4803 89.4699C31.2596 79.7204 27.7494 65.5413 36.7798 53.912H36.7698Z" fill="#59FF60"/>
<path d="M51.301 40.2627L52.2611 41.5826C32.5501 52.702 32.1001 71.0509 51.261 82.5702C70.422 94.0895 101.933 94.4095 121.644 83.2901C141.355 72.1708 141.805 53.8219 122.644 42.3026C103.484 30.7833 71.972 30.4633 52.2611 41.5826L51.301 40.2627C71.562 28.8334 103.944 29.1634 123.635 41.0027C143.325 52.832 142.865 71.6908 122.604 83.1201C102.343 94.5494 69.9619 94.2195 50.271 82.3902C30.58 70.5609 31.0401 51.702 51.301 40.2727V40.2627Z" fill="#50E657"/>
</g>
<mask id="mask15_398_7373" style="mask-type:luminance" maskUnits="userSpaceOnUse" x="16" y="26" width="140" height="130">
<path d="M16.8301 26.3037V155.126H155.237V26.3037H16.8301ZM151.077 92.8797C151.077 94.2396 150.947 95.5896 150.687 96.9495C149.456 103.399 145.306 109.689 138.256 115.108C129.215 134.357 109.745 147.686 87.1635 147.686C64.5824 147.686 44.4514 133.907 35.621 114.128C27.7106 107.669 23.7404 100.089 23.7604 92.5097V90.7498L23.7904 86.5501H23.8404L25.5005 86.4401C25.5005 86.4401 28.4506 89.1799 28.5506 90.2899C28.6706 91.3798 28.0706 93.2497 27.5806 94.7796C27.4106 95.3196 27.0806 95.8295 26.7406 96.2495C28.0606 98.6894 29.8407 101.069 32.0508 103.339C31.9408 102.829 31.8208 102.319 31.7208 101.799H40.0012C43.7614 78.8106 58.2321 54.172 76.4629 40.0229C80.0231 39.5729 83.7033 39.3729 87.4535 39.4429C88.0135 39.4529 88.5635 39.4729 89.1135 39.4829V43.6427L87.2035 45.5626L83.2533 43.5427C65.8524 56.8919 51.8418 79.7905 47.1715 101.809H142.586C142.426 102.659 142.236 103.499 142.036 104.339C143.346 103.069 144.526 101.769 145.546 100.439C145.726 96.6995 146.266 88.94 146.266 88.94H151.077V92.8897V92.8797ZM143.906 117.388C144.056 117.928 143.996 117.648 144.006 118.638C144.016 119.628 143.886 119.648 142.486 122.448C141.086 125.248 141.946 123.658 141.026 124.818C140.106 125.978 137.986 126.068 137.986 126.068L137.156 124.818C137.286 124.698 137.346 122.508 137.346 122.508C139.746 120.048 142.336 115.978 142.336 115.978L143.916 116.368C143.916 116.368 143.766 116.838 143.916 117.378L143.906 117.388ZM31.3708 115.718L32.8608 115.218C32.8608 115.218 35.491 119.108 37.8211 121.568C37.8211 121.568 37.8211 123.698 37.9511 123.808L37.1811 125.228C37.1811 125.228 35.121 125.298 34.2009 124.138C33.2809 122.978 34.1409 124.568 32.7408 121.768C31.3508 118.968 31.2108 118.948 31.2608 117.978C31.3008 117.008 31.2408 117.288 31.3808 116.728C31.5208 116.178 31.3708 115.728 31.3708 115.728V115.718ZM141.936 68.3012C139.806 69.9711 134.556 63.2315 136.686 61.5616L138.076 60.9516H138.086C138.806 61.7516 139.496 62.5715 140.166 63.3915C140.766 64.1314 141.336 64.8714 141.886 65.6214C141.976 66.5213 141.986 67.4113 141.936 68.3112V68.3012ZM31.8408 65.1514C32.3808 64.3914 32.9309 63.6315 33.5209 62.8915C34.1909 62.0516 34.8909 61.2016 35.621 60.3717L35.631 60.3617L37.2611 60.7616C39.0211 62.1016 33.6309 69.2211 31.8808 67.8812C31.7908 66.9713 31.7608 66.0613 31.8408 65.1614V65.1514Z" fill="white"/>
</mask>
<g mask="url(#mask15_398_7373)">
<mask id="mask16_398_7373" style="mask-type:luminance" maskUnits="userSpaceOnUse" x="87" y="89" width="63" height="54">
<path d="M149.575 89.2007L149.325 94.5404C148.065 121.769 120.684 143.077 87.1621 142.487L87.4121 137.148C120.944 137.738 148.315 116.429 149.575 89.2007Z" fill="white"/>
</mask>
<g mask="url(#mask16_398_7373)">
<path d="M87.1616 142.487L87.4116 137.148C120.943 137.738 148.315 116.429 149.575 89.2007L149.325 94.5404C148.065 121.769 120.683 143.077 87.1616 142.487Z" fill="#47CC4D"/>
</g>
<mask id="mask17_398_7373" style="mask-type:luminance" maskUnits="userSpaceOnUse" x="25" y="83" width="63" height="60">
<path d="M25.2889 88.681L25.539 83.3413C25.509 83.9513 25.499 84.5612 25.489 85.1812C25.409 113.28 53.1303 136.548 87.4119 137.158L87.1619 142.498C52.8803 141.898 25.1589 118.629 25.2389 90.5209C25.2389 89.9009 25.2589 89.291 25.2889 88.681Z" fill="white"/>
</mask>
<g mask="url(#mask17_398_7373)">
<path d="M25.2885 88.681L25.5385 83.3413C25.5085 83.9513 25.4985 84.5612 25.4885 85.1812C25.4085 113.28 53.1298 136.548 87.4114 137.158L87.1614 142.498C52.8798 141.898 25.1585 118.629 25.2385 90.5209C25.2385 89.9009 25.2585 89.291 25.2885 88.681Z" fill="#47CC4D"/>
</g>
<mask id="mask18_398_7373" style="mask-type:luminance" maskUnits="userSpaceOnUse" x="23" y="34" width="65" height="55">
<path d="M23.7207 88.6003L23.9707 83.2607C25.2608 55.3523 53.3321 33.4936 87.7038 34.0936L87.4538 39.4333C53.0821 38.8333 25.0108 60.682 23.7207 88.6003Z" fill="white"/>
</mask>
<g mask="url(#mask18_398_7373)">
<path d="M23.7207 88.6003L23.9707 83.2607C25.2608 55.3523 53.3321 33.4936 87.7038 34.0936L87.4538 39.4333C53.0821 38.8333 25.0108 60.682 23.7207 88.6003Z" fill="#59FF60"/>
</g>
<mask id="mask19_398_7373" style="mask-type:luminance" maskUnits="userSpaceOnUse" x="87" y="34" width="65" height="61">
<path d="M151.147 89.2797L150.897 94.6194C150.927 93.9894 150.937 93.3695 150.947 92.7295C151.027 63.9212 122.596 40.0627 87.4644 39.4427L87.7144 34.103C122.856 34.723 151.287 58.5816 151.197 87.3898C151.197 88.0198 151.177 88.6498 151.147 89.2797Z" fill="white"/>
</mask>
<g mask="url(#mask19_398_7373)">
<path d="M87.4541 39.4427L87.7041 34.103C122.846 34.723 151.277 58.5816 151.187 87.3898C151.187 88.0198 151.167 88.6498 151.137 89.2797L150.887 94.6194C150.917 93.9894 150.927 93.3695 150.937 92.7295C151.017 63.9212 122.586 40.0627 87.4541 39.4427Z" fill="#59FF60"/>
</g>
<path d="M87.4532 39.443C122.595 40.0629 151.026 63.9215 150.936 92.7298C150.856 121.548 122.295 144.397 87.1531 143.777C52.0115 143.157 23.5901 119.308 23.6701 90.4899C23.7501 61.6816 52.3115 38.823 87.4532 39.443ZM87.1631 142.487C121.445 143.087 149.296 120.798 149.376 92.6998C149.456 64.6115 121.735 41.3429 87.4532 40.7329C53.1715 40.1329 25.3202 62.4216 25.2402 90.5199C25.1602 118.618 52.8815 141.887 87.1631 142.497V142.487Z" fill="#50E657"/>
</g>
<mask id="mask20_398_7373" style="mask-type:luminance" maskUnits="userSpaceOnUse" x="30" y="20" width="113" height="135">
<path d="M138.796 61.7418C136.015 58.572 132.835 55.6621 129.295 53.0623C135.905 60.5019 140.586 69.6913 142.586 79.8607V61.7418H138.786H138.796ZM87.7132 34.0834C111.174 34.4934 131.605 45.2628 142.596 60.9318V20.3643H30.6904V154.896H142.586V101.959C137.456 128.018 114.594 147.667 87.1631 147.667C76.7726 147.667 67.0622 144.837 58.7018 139.927L83.363 102.579L51.0214 91.44L50.1714 90.97C51.0214 88.5002 51.9715 86.0403 53.0415 83.6005L85.033 100.049L119.875 47.2826C111.384 42.9929 101.614 40.2631 91.1533 39.5931V41.053C91.1533 41.053 91.3233 41.703 90.5933 42.1329C89.8433 42.5629 89.7333 42.6829 89.1132 42.5629C88.4932 42.4329 87.4132 41.853 87.4132 41.853V40.563C87.4132 40.563 88.6532 39.7231 89.1132 39.4831C88.5632 39.4531 88.0132 39.4431 87.4632 39.4331C83.223 39.3531 79.0828 39.6331 75.0626 40.1931V34.9034C79.1528 34.2934 83.383 34.0234 87.7032 34.0834H87.7132ZM64.022 146.847C66.8922 147.747 74.9826 148.727 74.9826 148.727C74.9826 148.727 75.2326 152.106 74.5725 152.426C73.9125 152.766 62.432 147.777 62.432 147.777L64.012 146.837L64.022 146.847ZM48.7113 120.188L46.8512 121.268L45.6411 120.568C45.4611 118.128 45.4711 115.619 45.6411 113.039L46.7512 112.389L49.3213 111.649L48.7013 120.178L48.7113 120.188Z" fill="white"/>
</mask>
<g mask="url(#mask20_398_7373)">
<mask id="mask21_398_7373" style="mask-type:luminance" maskUnits="userSpaceOnUse" x="84" y="33" width="51" height="109">
<path d="M115.415 33.0842L121.875 36.864C129.775 41.4837 134.686 51.3031 134.726 65.2523C134.806 93.3506 115.155 127.579 90.8236 141.698L84.3633 137.918C108.694 123.799 128.345 89.5708 128.265 61.4725C128.225 47.5134 123.325 37.6939 115.415 33.0742V33.0842Z" fill="white"/>
</mask>
<g mask="url(#mask21_398_7373)">
<path d="M90.8236 141.698L84.3633 137.918C108.694 123.799 128.345 89.5708 128.265 61.4725C128.225 47.5134 123.325 37.6939 115.415 33.0742L121.875 36.854C129.775 41.4737 134.686 51.2931 134.726 65.2423C134.806 93.3406 115.155 127.569 90.8236 141.688V141.698Z" fill="#9DBA79"/>
</g>
<mask id="mask22_398_7373" style="mask-type:luminance" maskUnits="userSpaceOnUse" x="53" y="137" width="38" height="11">
<path d="M59.472 144.787L53.0117 141.007C61.0221 145.687 72.1126 145.027 84.3532 137.917L90.8135 141.697C78.5729 148.807 67.4824 149.467 59.472 144.787Z" fill="white"/>
</mask>
<g mask="url(#mask22_398_7373)">
<path d="M59.472 144.787L53.0117 141.007C61.0221 145.687 72.1126 145.027 84.3532 137.917L90.8135 141.697C78.5729 148.807 67.4824 149.467 59.472 144.787Z" fill="#47CC4D"/>
</g>
<mask id="mask23_398_7373" style="mask-type:luminance" maskUnits="userSpaceOnUse" x="84" y="28" width="39" height="11">
<path d="M116.195 31.7139L122.655 35.4939C114.445 30.6939 103.074 31.3739 90.5238 38.6539L84.0635 34.8739C96.6141 27.5939 107.985 26.9139 116.195 31.7139Z" fill="white"/>
</mask>
<g mask="url(#mask23_398_7373)">
<path d="M90.5238 38.6437L84.0635 34.8637C96.6141 27.5837 107.985 26.9037 116.195 31.7037L122.655 35.4837C114.445 30.6837 103.074 31.3637 90.5238 38.6437Z" fill="#59FF60"/>
</g>
<mask id="mask24_398_7373" style="mask-type:luminance" maskUnits="userSpaceOnUse" x="39" y="34" width="52" height="113">
<path d="M58.6917 146.147L52.2314 142.367C44.131 137.627 39.1008 127.558 39.0608 113.249C38.9808 84.4406 59.1318 49.3427 84.0729 34.8735L90.5333 38.6533C65.5921 53.1324 45.4411 88.2203 45.5211 117.029C45.5611 131.348 50.5913 141.417 58.6917 146.147Z" fill="white"/>
</mask>
<g mask="url(#mask24_398_7373)">
<path d="M58.6917 146.147L52.2314 142.367C44.131 137.627 39.1008 127.558 39.0608 113.249C38.9808 84.4406 59.1318 49.3427 84.0729 34.8735L90.5333 38.6533C65.5921 53.1324 45.4411 88.2203 45.5211 117.029C45.5611 131.348 50.5913 141.417 58.6917 146.147Z" fill="#59FF60"/>
</g>
<path d="M90.5236 38.6437C115.465 24.1646 135.746 35.7939 135.826 64.6022C135.906 93.4204 115.755 128.508 90.8136 142.977C65.8724 157.457 45.5915 145.837 45.5115 117.019C45.4315 88.2107 65.5824 53.1129 90.5236 38.6437ZM90.8236 141.698C115.155 127.578 134.806 93.3504 134.726 65.2521C134.646 37.1638 114.865 25.8245 90.5336 39.9436C66.2025 54.0628 46.5515 88.2907 46.6315 116.379C46.7115 144.477 66.4925 155.817 90.8236 141.698Z" fill="#50E657"/>
</g>
<mask id="mask25_398_7373" style="mask-type:luminance" maskUnits="userSpaceOnUse" x="28" y="25" width="116" height="133">
<path d="M28.8398 25.1938V157.526H143.655V25.1938H28.8398ZM87.1726 147.676C55.9711 147.676 30.6899 122.248 30.6899 90.8799C30.6899 77.2807 35.4602 64.7815 43.3905 55.0121C40.3504 57.4519 37.6403 60.1318 35.3002 63.0616H30.0499C35.9202 53.0022 45.6807 44.8327 57.7312 39.763V46.4626C56.4312 47.0125 55.1511 47.6225 53.921 48.2525L85.0525 93.6397L120.894 83.7103L121.654 83.2704C122.804 85.7402 123.804 88.2001 124.594 90.6599L123.784 91.0999L87.5227 97.2495L116.464 139.457C107.924 144.667 97.9032 147.676 87.1726 147.676ZM102.093 33.6833C100.793 34.0433 99.4832 34.4633 98.1432 34.9833C99.4732 35.1832 100.793 35.4332 102.093 35.7032V41.0929C97.9232 40.2129 93.583 39.643 89.1427 39.473C87.7727 40.2429 86.4926 41.2129 85.1826 42.1528H76.0621V39.353H72.2919V38.2031H71.6419V35.5532C76.0821 34.6733 80.7023 34.1433 85.4726 34.0933C91.3629 30.8835 96.9731 29.1436 102.093 28.7436V33.6833ZM125.554 111.709L128.125 112.449L129.235 113.099C129.405 115.678 129.415 118.198 129.235 120.628L128.035 121.328L126.175 120.248L125.554 111.719V111.709Z" fill="white"/>
</mask>
<g mask="url(#mask25_398_7373)">
<mask id="mask26_398_7373" style="mask-type:luminance" maskUnits="userSpaceOnUse" x="40" y="33" width="51" height="109">
<path d="M53.011 36.8525L59.4713 33.0728C51.5709 37.6925 46.6607 47.5119 46.6207 61.4711C46.5407 89.5694 66.1916 123.797 90.5228 137.916L84.0625 141.696C59.7313 127.577 40.0804 93.3491 40.1604 65.2508C40.2004 51.2917 45.1006 41.4723 53.011 36.8625V36.8525Z" fill="white"/>
</mask>
<g mask="url(#mask26_398_7373)">
<path d="M53.0105 36.8525L59.4708 33.0728C51.5705 37.6925 46.6602 47.5119 46.6202 61.4711C46.5402 89.5694 66.1912 123.797 90.5223 137.916L84.062 141.696C59.7309 127.577 40.0799 93.3491 40.1599 65.2508C40.1999 51.2917 45.1001 41.4723 53.0105 36.8625V36.8525Z" fill="#47CC4D"/>
</g>
<mask id="mask27_398_7373" style="mask-type:luminance" maskUnits="userSpaceOnUse" x="84" y="137" width="38" height="11">
<path d="M121.876 141.007L115.416 144.787C107.405 149.467 96.3148 148.807 84.0742 141.697L90.5345 137.917C102.775 145.027 113.866 145.687 121.876 141.007Z" fill="white"/>
</mask>
<g mask="url(#mask27_398_7373)">
<path d="M84.0747 141.697L90.535 137.917C102.776 145.027 113.866 145.687 121.877 141.007L115.416 144.787C107.406 149.467 96.3153 148.807 84.0747 141.697Z" fill="#47CC4D"/>
</g>
<mask id="mask28_398_7373" style="mask-type:luminance" maskUnits="userSpaceOnUse" x="52" y="28" width="39" height="11">
<path d="M52.2314 35.4837L58.6918 31.7037C66.9021 26.9037 78.2727 27.5837 90.8233 34.8637L84.363 38.6437C71.8124 31.3637 60.4418 30.6837 52.2314 35.4837Z" fill="white"/>
</mask>
<g mask="url(#mask28_398_7373)">
<path d="M52.2314 35.4837L58.6918 31.7037C66.9021 26.9037 78.2727 27.5837 90.8233 34.8637L84.363 38.6437C71.8124 31.3637 60.4418 30.6837 52.2314 35.4837Z" fill="#59FF60"/>
</g>
<mask id="mask29_398_7373" style="mask-type:luminance" maskUnits="userSpaceOnUse" x="84" y="34" width="52" height="113">
<path d="M122.665 142.367L116.205 146.146C124.305 141.407 129.335 131.337 129.375 117.028C129.455 88.2198 109.304 53.122 84.3633 38.6528L90.8236 34.873C115.765 49.3522 135.916 84.4401 135.836 113.248C135.796 127.567 130.766 137.637 122.665 142.367Z" fill="white"/>
</mask>
<g mask="url(#mask29_398_7373)">
<path d="M84.3633 38.6431L90.8236 34.8633C115.765 49.3424 135.916 84.4303 135.836 113.239C135.796 127.558 130.766 137.627 122.665 142.357L116.205 146.137C124.305 141.397 129.335 131.327 129.375 117.018C129.455 88.2101 109.304 53.1122 84.3633 38.6431Z" fill="#59FF60"/>
</g>
<path d="M84.363 38.6428C109.304 53.1219 129.455 88.2098 129.375 117.018C129.295 145.836 109.004 157.446 84.0729 142.977C59.1318 128.497 38.9808 93.4195 39.0608 64.6012C39.1408 35.7929 59.4318 24.1736 84.363 38.6428ZM84.0729 141.697C108.404 155.816 128.185 144.486 128.265 116.378C128.345 88.2898 108.694 54.0618 84.363 39.9427C60.0318 25.8235 40.2508 37.1528 40.1708 65.2512C40.0908 93.3495 59.7418 127.577 84.0729 141.697Z" fill="#50E657"/>
</g>
<mask id="mask30_398_7373" style="mask-type:luminance" maskUnits="userSpaceOnUse" x="35" y="22" width="66" height="133">
<path d="M96.6537 22.7847V29.6443C93.6936 30.3642 90.6134 31.5041 87.4433 33.0641C84.3131 31.5141 81.273 30.4042 78.3429 29.6643V34.7739C59.392 37.7638 43.5812 50.233 35.8408 67.182V22.7847H96.6537ZM83.9931 44.3234C86.1232 65.8521 87.6433 100.08 87.5133 125.729C87.5033 127.398 87.4833 128.998 87.4633 130.518C87.4533 131.518 87.4333 132.508 87.4133 133.438C87.3833 134.878 87.3433 136.228 87.3133 137.508C87.2833 138.338 87.2633 139.138 87.2233 139.918V140.058C87.1933 140.398 87.1833 140.728 87.1733 141.058C87.1733 141.128 87.1633 141.188 87.1633 141.258C87.1333 141.878 87.0933 142.467 87.0733 143.037C87.0233 143.867 86.9733 144.647 86.9133 145.367C86.8733 145.827 86.8433 146.267 86.7933 146.667C86.7833 146.807 86.7633 146.957 86.7533 147.097C86.7433 147.297 86.7233 147.477 86.7133 147.667H86.7033C86.6133 147.667 86.5233 147.667 86.4432 147.657C85.5432 147.657 84.6632 147.617 83.7731 147.547C83.6831 147.557 83.6031 147.547 83.5131 147.537C62.3221 146.167 44.3112 133.048 35.8608 114.589V154.787H96.6737V151.907C90.6235 152.527 84.4132 152.527 78.3629 151.857V149.167C80.943 149.427 83.5431 149.577 86.1432 149.627L86.1832 151.257C88.5434 151.547 95.3037 151.247 95.3037 151.017L95.6037 149.327C95.8837 149.287 96.3937 149.247 96.6737 149.217C100.914 108.27 102.724 70.1918 93.6236 45.1033C90.6635 42.3935 90.6235 42.6335 87.4433 40.5236C86.4833 41.1636 84.8332 42.3835 83.8931 43.0735L84.0131 44.3134L83.9931 44.3234Z" fill="white"/>
</mask>
<g mask="url(#mask30_398_7373)">
<mask id="mask31_398_7373" style="mask-type:luminance" maskUnits="userSpaceOnUse" x="82" y="139" width="13" height="13">
<path d="M94.3923 151.127L85.2523 151.477C84.4923 151.507 83.5723 147.857 82.6123 140.227L91.7523 139.877C92.7223 147.507 93.6323 151.157 94.3923 151.127Z" fill="white"/>
</mask>
<g mask="url(#mask31_398_7373)">
<path d="M94.3923 151.127L85.2523 151.477C84.4923 151.507 83.5723 147.857 82.6123 140.227L91.7523 139.877C92.7223 147.507 93.6323 151.157 94.3923 151.127Z" fill="#47CC4D"/>
</g>
<mask id="mask32_398_7373" style="mask-type:luminance" maskUnits="userSpaceOnUse" x="78" y="26" width="14" height="115">
<path d="M80.4925 26.7347L89.6325 26.3848C88.4225 26.4348 87.5825 35.7242 87.4925 53.0332C87.3425 81.2715 89.2525 120.159 91.7425 139.888L82.6025 140.238C80.1025 120.509 78.2025 81.6315 78.3525 53.3831C78.4425 36.0642 79.2825 26.7747 80.4925 26.7347Z" fill="white"/>
</mask>
<g mask="url(#mask32_398_7373)">
<path d="M91.7533 139.887L82.6133 140.237C80.1133 120.509 78.2133 81.631 78.3633 53.3827C78.4533 36.0637 79.2933 26.7743 80.5033 26.7343L89.6433 26.3843C88.4333 26.4343 87.5933 35.7237 87.5033 53.0327C87.3533 81.271 89.2633 120.159 91.7533 139.887Z" fill="#47CC4D"/>
</g>
<mask id="mask33_398_7373" style="mask-type:luminance" maskUnits="userSpaceOnUse" x="80" y="24" width="13" height="13">
<path d="M80.4331 25.1544L89.5731 24.8044C90.3531 24.7744 91.2931 28.5144 92.2831 36.3344L83.1431 36.6844C82.1531 28.8644 81.2131 25.1244 80.4331 25.1544Z" fill="white"/>
</mask>
<g mask="url(#mask33_398_7373)">
<path d="M92.2924 36.3246L83.1524 36.6746C82.1624 28.8546 81.2224 25.1146 80.4424 25.1446L89.5824 24.7946C90.3624 24.7646 91.3024 28.5046 92.2924 36.3246Z" fill="#59FF60"/>
</g>
<mask id="mask34_398_7373" style="mask-type:luminance" maskUnits="userSpaceOnUse" x="83" y="36" width="14" height="118">
<path d="M94.4528 152.707L85.3128 153.057C86.5528 153.007 87.4228 143.477 87.5128 125.718C87.6628 96.7701 85.7128 56.8925 83.1528 36.6737L92.2928 36.3237C94.8528 56.5425 96.8028 96.4201 96.6528 125.368C96.5628 143.127 95.7028 152.657 94.4528 152.707Z" fill="white"/>
</mask>
<g mask="url(#mask34_398_7373)">
<path d="M94.4528 152.707L85.3128 153.057C86.5528 153.007 87.4228 143.477 87.5128 125.718C87.6628 96.7701 85.7128 56.8925 83.1528 36.6737L92.2928 36.3237C94.8528 56.5425 96.8028 96.4201 96.6528 125.368C96.5628 143.127 95.7028 152.657 94.4528 152.707Z" fill="#59FF60"/>
</g>
<path d="M83.1427 36.674C85.7027 56.8928 87.6527 96.7704 87.5027 125.719C87.3527 154.677 85.1527 161.747 82.5927 141.528C80.0327 121.309 78.0827 81.4414 78.2327 52.4831C78.3827 23.5348 80.5827 16.4553 83.1427 36.674ZM82.6027 140.238C85.1027 159.967 87.2427 153.067 87.3927 124.819C87.5427 96.5904 85.6327 57.7028 83.1427 37.974C80.6427 18.2451 78.5027 25.1447 78.3527 53.383C78.2027 81.6213 80.1127 120.509 82.6027 140.238Z" fill="#50E657"/>
</g>
<path d="M82.1933 91.3301C79.6532 94.25 76.703 96.5798 73.5529 98.2697C65.1025 97.0198 57.0621 94.5999 50.2018 91.0001C49.4517 93.17 48.7917 95.3599 48.2117 97.5498C47.9417 97.3498 47.6617 97.1398 47.4016 96.9298C45.3815 95.3099 43.7515 93.36 42.4814 91.2001C42.8914 89.8002 43.3314 88.4203 43.8215 87.0404C42.3314 85.9304 40.9613 84.7905 39.7513 83.6006C39.1712 80.3108 39.2412 76.811 39.9913 73.3312C41.6814 75.6211 43.8815 77.8209 46.6016 79.8608C51.4718 68.5715 58.4322 57.8221 66.6326 49.0727C69.7327 48.8327 72.8129 49.1926 75.683 50.1926C66.3025 59.412 58.3522 71.3113 52.9719 83.8606C61.3723 88.2303 71.6628 90.7302 82.2233 91.3301H82.1933Z" fill="#59FF60"/>
<path d="M142.586 79.8106C142.646 80.0506 142.676 80.3106 142.716 80.5506C143.376 79.9806 144.046 79.4006 144.666 78.8306C144.516 78.6106 144.356 78.3906 144.186 78.1606C143.656 78.7206 143.116 79.2706 142.586 79.8106Z" fill="#43D457"/>
<path d="M166.268 52.6624V52.6824C163.077 59.032 157.647 66.3315 149.267 74.511C149.117 74.0311 148.977 73.5511 148.807 73.0711C162.507 57.3121 171.058 40.6131 156.307 44.3129C151.557 45.5128 144.516 48.9426 136.616 53.4823C121.805 61.9618 103.925 74.2411 91.9539 82.7206L95.9841 88.9202L82.5435 89.4801L76.7432 89.7201L52.6021 90.7201L61.8425 68.5414L63.8526 63.7117L69.9829 49.0126L74.9331 56.6221C84.6536 50.4925 97.9042 42.383 110.695 35.3834C111.505 34.9234 112.315 34.4734 113.125 34.0535C114.355 33.3835 115.595 32.7435 116.805 32.0936C129.306 25.524 140.726 20.4843 147.097 20.0543C160.857 19.1244 177.578 30.1437 166.268 52.6624Z" fill="#E6F242"/>
<path d="M95.9839 88.9199L97.594 91.3699L54.9919 93.2399L52.5918 90.7099L95.9839 88.9199Z" fill="#E6F242"/>
<path d="M166.268 52.6624C173.488 36.9633 161.887 34.1635 144.666 44.4828C127.446 54.7922 89.7638 79.6407 89.7638 79.6407L91.9539 82.7105L95.9841 88.9102L82.5435 89.4701L76.7432 89.7101L52.6021 90.7101L61.8425 68.5314L63.8526 63.7017L69.9829 49.0026L74.9331 56.6121C84.6536 50.4825 97.9042 42.373 110.695 35.3734C111.505 34.9134 112.315 34.4634 113.125 34.0435C114.355 33.3735 115.595 32.7335 116.805 32.0836C129.306 25.524 140.726 20.4843 147.097 20.0543C160.857 19.1244 177.578 30.1437 166.268 52.6624Z" fill="#F2FF46"/>
<path d="M128.345 88.1401L118.895 112.529L117.865 115.179L112.005 130.288L106.594 122.418C95.0438 129.728 77.7729 140.307 62.3222 148.377C50.1516 154.726 39.1211 159.526 32.8908 159.946C24.4404 160.516 14.8599 156.576 11.3597 148.227C11.2497 148.007 11.1597 147.767 11.0697 147.527C11.0297 147.377 10.9797 147.247 10.9397 147.117C10.9197 147.047 10.8797 146.967 10.8697 146.877V146.857C8.10959 138.267 11.4598 125.508 27.5905 108.679C27.8305 109.239 28.0706 109.769 28.3406 110.309C16.39 124.968 9.97968 139.127 23.6803 135.687C26.7705 134.907 30.8307 133.187 35.4509 130.838C36.681 130.208 37.971 129.528 39.2811 128.818C39.9211 128.468 40.5712 128.118 41.2112 127.748C56.7519 119.068 76.3729 105.569 88.8935 96.6596L85.0233 91.03L97.9339 90.16L102.924 89.85L128.335 88.1501L128.345 88.1401Z" fill="#F2FF46"/>
<path d="M128.345 88.1401L118.895 112.529L117.864 115.179L112.004 130.288L106.594 122.418C95.0434 129.728 77.7726 140.307 62.3218 148.377C50.1512 154.726 39.1207 159.526 32.8904 159.946C24.44 160.516 14.8595 156.576 11.3594 148.227C16.1996 157.896 43.2209 143.917 58.3816 135.187C74.1824 126.078 100.894 109.099 100.894 109.099L128.355 88.1401H128.345Z" fill="#E6F242"/>
<path d="M85.0229 91.0298L85.6329 93.9898L87.713 97.5398L88.893 96.6598L85.0229 91.0298Z" fill="#47CC4D"/>
<path d="M112.004 130.278L106.594 122.408L104.984 123.428L109.834 129.788L112.004 130.278Z" fill="#47CC4D"/>
<defs>
<radialGradient id="paint0_radial_398_7373" cx="0" cy="0" r="1" gradientUnits="userSpaceOnUse" gradientTransform="translate(87.1729 90.8801) scale(56.6427 56.6366)">
<stop stop-color="#52B58A"/>
<stop offset="0.72" stop-color="#006A4E"/>
</radialGradient>
</defs>
</svg>
